<svg width="300" height="412" viewBox="0 0 300 412" fill="none" xmlns="http://www.w3.org/2000/svg">
<rect y="38" width="300" height="374" fill="#D9D9D9" fill-opacity="0.2"/>
<g filter="url(#filter0_d_438_282)">
<rect x="13" y="104" width="274" height="39" fill="white"/>
</g>
<circle cx="59.5" cy="124.5" r="7" stroke="#C7C7C7"/>
<path d="M83.6875 118.625V119.859H78.4844V118.625H83.6875ZM84.9844 118.625V130H83.4766V118.625H84.9844ZM77.9688 118.625H79.4688L79.2109 124.195C79.1745 124.997 79.112 125.714 79.0234 126.344C78.9401 126.969 78.8203 127.513 78.6641 127.977C78.5078 128.435 78.3047 128.815 78.0547 129.117C77.8047 129.414 77.4974 129.635 77.1328 129.781C76.7734 129.927 76.3411 130 75.8359 130H75.4297V128.773L75.7422 128.75C76.0339 128.729 76.2839 128.664 76.4922 128.555C76.7057 128.44 76.8854 128.268 77.0312 128.039C77.1823 127.81 77.3047 127.513 77.3984 127.148C77.4922 126.784 77.5651 126.339 77.6172 125.812C77.6745 125.281 77.7188 124.661 77.75 123.953L77.9688 118.625ZM90.9922 130.156C90.4036 130.156 89.8698 130.057 89.3906 129.859C88.9167 129.656 88.5078 129.372 88.1641 129.008C87.8255 128.643 87.5651 128.211 87.3828 127.711C87.2005 127.211 87.1094 126.664 87.1094 126.07V125.742C87.1094 125.055 87.2109 124.443 87.4141 123.906C87.6172 123.365 87.8932 122.906 88.2422 122.531C88.5911 122.156 88.987 121.872 89.4297 121.68C89.8724 121.487 90.3307 121.391 90.8047 121.391C91.4089 121.391 91.9297 121.495 92.3672 121.703C92.8099 121.911 93.1719 122.203 93.4531 122.578C93.7344 122.948 93.9427 123.385 94.0781 123.891C94.2135 124.391 94.2812 124.938 94.2812 125.531V126.18H87.9688V125H92.8359V124.891C92.8151 124.516 92.737 124.151 92.6016 123.797C92.4714 123.443 92.263 123.151 91.9766 122.922C91.6901 122.693 91.2995 122.578 90.8047 122.578C90.4766 122.578 90.1745 122.648 89.8984 122.789C89.6224 122.924 89.3854 123.128 89.1875 123.398C88.9896 123.669 88.8359 124 88.7266 124.391C88.6172 124.781 88.5625 125.232 88.5625 125.742V126.07C88.5625 126.471 88.6172 126.849 88.7266 127.203C88.8411 127.552 89.0052 127.859 89.2188 128.125C89.4375 128.391 89.7005 128.599 90.0078 128.75C90.3203 128.901 90.6745 128.977 91.0703 128.977C91.5807 128.977 92.013 128.872 92.3672 128.664C92.7214 128.456 93.0312 128.177 93.2969 127.828L94.1719 128.523C93.9896 128.799 93.7578 129.062 93.4766 129.312C93.1953 129.562 92.849 129.766 92.4375 129.922C92.0312 130.078 91.5495 130.156 90.9922 130.156ZM101.703 125.211V126.383H97.2344V125.211H101.703ZM97.5391 121.547V130H96.0938V121.547H97.5391ZM102.875 121.547V130H101.422V121.547H102.875ZM106.727 121.547H108.172L108.047 124.711C108.016 125.513 107.924 126.206 107.773 126.789C107.622 127.372 107.43 127.87 107.195 128.281C106.961 128.688 106.698 129.029 106.406 129.305C106.12 129.581 105.823 129.812 105.516 130H104.797L104.836 128.82L105.133 128.812C105.305 128.609 105.471 128.401 105.633 128.188C105.794 127.969 105.943 127.711 106.078 127.414C106.214 127.112 106.326 126.745 106.414 126.312C106.508 125.875 106.568 125.341 106.594 124.711L106.727 121.547ZM107.086 121.547H112.172V130H110.727V122.883H107.086V121.547ZM104.469 128.812H113.258V132.492H111.812V130H105.914V132.492H104.461L104.469 128.812ZM116.422 127.711L120.32 121.547H121.773V130H120.32V123.836L116.422 130H114.984V121.547H116.422V127.711ZM129.828 125.211V126.383H125.359V125.211H129.828ZM125.664 121.547V130H124.219V121.547H125.664ZM131 121.547V130H129.547V121.547H131ZM138.789 121.547V122.742H134.883V130H133.438V121.547H138.789Z" fill="#1C2127"/>
<g filter="url(#filter1_d_438_282)">
<rect x="13" y="168" width="274" height="39" fill="white"/>
</g>
<circle cx="59.5" cy="187.5" r="7" stroke="#C7C7C7"/>
<path d="M85.4062 181.625V193H83.9062V182.859H78.2969V193H76.7891V181.625H85.4062ZM87.5391 188.867V188.688C87.5391 188.078 87.6276 187.513 87.8047 186.992C87.9818 186.466 88.237 186.01 88.5703 185.625C88.9036 185.234 89.3073 184.932 89.7812 184.719C90.2552 184.5 90.7865 184.391 91.375 184.391C91.9688 184.391 92.5026 184.5 92.9766 184.719C93.4557 184.932 93.862 185.234 94.1953 185.625C94.5339 186.01 94.7917 186.466 94.9688 186.992C95.1458 187.513 95.2344 188.078 95.2344 188.688V188.867C95.2344 189.477 95.1458 190.042 94.9688 190.562C94.7917 191.083 94.5339 191.539 94.1953 191.93C93.862 192.315 93.4583 192.617 92.9844 192.836C92.5156 193.049 91.9844 193.156 91.3906 193.156C90.7969 193.156 90.263 193.049 89.7891 192.836C89.3151 192.617 88.9089 192.315 88.5703 191.93C88.237 191.539 87.9818 191.083 87.8047 190.562C87.6276 190.042 87.5391 189.477 87.5391 188.867ZM88.9844 188.688V188.867C88.9844 189.289 89.0339 189.688 89.1328 190.062C89.2318 190.432 89.3802 190.76 89.5781 191.047C89.7812 191.333 90.0339 191.56 90.3359 191.727C90.638 191.888 90.9896 191.969 91.3906 191.969C91.7865 191.969 92.1328 191.888 92.4297 191.727C92.7318 191.56 92.9818 191.333 93.1797 191.047C93.3776 190.76 93.526 190.432 93.625 190.062C93.7292 189.688 93.7812 189.289 93.7812 188.867V188.688C93.7812 188.271 93.7292 187.878 93.625 187.508C93.526 187.133 93.375 186.802 93.1719 186.516C92.974 186.224 92.724 185.995 92.4219 185.828C92.125 185.661 91.776 185.578 91.375 185.578C90.9792 185.578 90.6302 185.661 90.3281 185.828C90.0312 185.995 89.7812 186.224 89.5781 186.516C89.3802 186.802 89.2318 187.133 89.1328 187.508C89.0339 187.878 88.9844 188.271 88.9844 188.688ZM98.4922 186.172V196.25H97.0391V184.547H98.3672L98.4922 186.172ZM104.188 188.703V188.867C104.188 189.482 104.115 190.052 103.969 190.578C103.823 191.099 103.609 191.552 103.328 191.938C103.052 192.323 102.711 192.622 102.305 192.836C101.898 193.049 101.432 193.156 100.906 193.156C100.37 193.156 99.8958 193.068 99.4844 192.891C99.0729 192.714 98.724 192.456 98.4375 192.117C98.151 191.779 97.9219 191.372 97.75 190.898C97.5833 190.424 97.4688 189.891 97.4062 189.297V188.422C97.4688 187.797 97.5859 187.237 97.7578 186.742C97.9297 186.247 98.1562 185.826 98.4375 185.477C98.724 185.122 99.0703 184.854 99.4766 184.672C99.8828 184.484 100.352 184.391 100.883 184.391C101.414 184.391 101.885 184.495 102.297 184.703C102.708 184.906 103.055 185.198 103.336 185.578C103.617 185.958 103.828 186.414 103.969 186.945C104.115 187.471 104.188 188.057 104.188 188.703ZM102.734 188.867V188.703C102.734 188.281 102.69 187.885 102.602 187.516C102.513 187.141 102.375 186.812 102.188 186.531C102.005 186.245 101.771 186.021 101.484 185.859C101.198 185.693 100.857 185.609 100.461 185.609C100.096 185.609 99.7786 185.672 99.5078 185.797C99.2422 185.922 99.0156 186.091 98.8281 186.305C98.6406 186.513 98.487 186.753 98.3672 187.023C98.2526 187.289 98.1667 187.565 98.1094 187.852V189.875C98.2135 190.24 98.3594 190.583 98.5469 190.906C98.7344 191.224 98.9844 191.482 99.2969 191.68C99.6094 191.872 100.003 191.969 100.477 191.969C100.867 191.969 101.203 191.888 101.484 191.727C101.771 191.56 102.005 191.333 102.188 191.047C102.375 190.76 102.513 190.432 102.602 190.062C102.69 189.688 102.734 189.289 102.734 188.867ZM108.852 184.547V193H107.398V184.547H108.852ZM111.688 184.547V185.719H104.617V184.547H111.688ZM122.203 188.922V189.086C122.203 189.68 122.138 190.227 122.008 190.727C121.878 191.221 121.682 191.651 121.422 192.016C121.167 192.38 120.849 192.664 120.469 192.867C120.089 193.065 119.648 193.164 119.148 193.164C118.737 193.164 118.375 193.109 118.062 193C117.75 192.885 117.484 192.721 117.266 192.508C117.052 192.294 116.88 192.039 116.75 191.742C116.625 191.44 116.539 191.102 116.492 190.727V186.977C116.539 186.576 116.625 186.216 116.75 185.898C116.88 185.581 117.052 185.31 117.266 185.086C117.484 184.862 117.747 184.69 118.055 184.57C118.362 184.451 118.721 184.391 119.133 184.391C119.539 184.391 119.904 184.464 120.227 184.609C120.555 184.75 120.841 184.953 121.086 185.219C121.336 185.484 121.542 185.805 121.703 186.18C121.87 186.549 121.995 186.966 122.078 187.43C122.161 187.893 122.203 188.391 122.203 188.922ZM120.758 189.086V188.922C120.758 188.557 120.732 188.211 120.68 187.883C120.633 187.549 120.557 187.245 120.453 186.969C120.354 186.688 120.224 186.443 120.062 186.234C119.901 186.026 119.706 185.865 119.477 185.75C119.253 185.635 118.995 185.578 118.703 185.578C118.391 185.578 118.13 185.617 117.922 185.695C117.719 185.773 117.56 185.878 117.445 186.008C117.331 186.133 117.247 186.266 117.195 186.406V191.305C117.258 191.419 117.349 191.529 117.469 191.633C117.589 191.732 117.75 191.815 117.953 191.883C118.156 191.945 118.411 191.977 118.719 191.977C119.083 191.977 119.393 191.904 119.648 191.758C119.909 191.607 120.12 191.398 120.281 191.133C120.448 190.867 120.568 190.56 120.641 190.211C120.719 189.862 120.758 189.487 120.758 189.086ZM112.164 189.086V188.922C112.164 188.391 112.206 187.893 112.289 187.43C112.372 186.966 112.497 186.549 112.664 186.18C112.831 185.805 113.036 185.484 113.281 185.219C113.531 184.953 113.818 184.75 114.141 184.609C114.469 184.464 114.836 184.391 115.242 184.391C115.643 184.391 115.992 184.451 116.289 184.57C116.591 184.69 116.846 184.862 117.055 185.086C117.263 185.31 117.43 185.581 117.555 185.898C117.68 186.216 117.768 186.576 117.82 186.977V190.578C117.773 190.974 117.688 191.331 117.562 191.648C117.438 191.966 117.271 192.24 117.062 192.469C116.854 192.693 116.596 192.865 116.289 192.984C115.987 193.104 115.633 193.164 115.227 193.164C114.727 193.164 114.286 193.065 113.906 192.867C113.526 192.664 113.206 192.38 112.945 192.016C112.69 191.651 112.495 191.221 112.359 190.727C112.229 190.227 112.164 189.68 112.164 189.086ZM113.617 188.922V189.086C113.617 189.487 113.651 189.862 113.719 190.211C113.792 190.56 113.904 190.867 114.055 191.133C114.211 191.398 114.414 191.607 114.664 191.758C114.914 191.904 115.221 191.977 115.586 191.977C115.898 191.977 116.156 191.938 116.359 191.859C116.562 191.781 116.724 191.68 116.844 191.555C116.964 191.43 117.055 191.299 117.117 191.164V186.406C117.065 186.266 116.979 186.133 116.859 186.008C116.745 185.878 116.586 185.773 116.383 185.695C116.18 185.617 115.919 185.578 115.602 185.578C115.237 185.578 114.927 185.667 114.672 185.844C114.417 186.021 114.211 186.263 114.055 186.57C113.904 186.878 113.792 187.234 113.719 187.641C113.651 188.042 113.617 188.469 113.617 188.922ZM116.398 196.25V181H117.852V196.25H116.398ZM123.711 188.867V188.688C123.711 188.078 123.799 187.513 123.977 186.992C124.154 186.466 124.409 186.01 124.742 185.625C125.076 185.234 125.479 184.932 125.953 184.719C126.427 184.5 126.958 184.391 127.547 184.391C128.141 184.391 128.674 184.5 129.148 184.719C129.628 184.932 130.034 185.234 130.367 185.625C130.706 186.01 130.964 186.466 131.141 186.992C131.318 187.513 131.406 188.078 131.406 188.688V188.867C131.406 189.477 131.318 190.042 131.141 190.562C130.964 191.083 130.706 191.539 130.367 191.93C130.034 192.315 129.63 192.617 129.156 192.836C128.688 193.049 128.156 193.156 127.562 193.156C126.969 193.156 126.435 193.049 125.961 192.836C125.487 192.617 125.081 192.315 124.742 191.93C124.409 191.539 124.154 191.083 123.977 190.562C123.799 190.042 123.711 189.477 123.711 188.867ZM125.156 188.688V188.867C125.156 189.289 125.206 189.688 125.305 190.062C125.404 190.432 125.552 190.76 125.75 191.047C125.953 191.333 126.206 191.56 126.508 191.727C126.81 191.888 127.161 191.969 127.562 191.969C127.958 191.969 128.305 191.888 128.602 191.727C128.904 191.56 129.154 191.333 129.352 191.047C129.549 190.76 129.698 190.432 129.797 190.062C129.901 189.688 129.953 189.289 129.953 188.867V188.688C129.953 188.271 129.901 187.878 129.797 187.508C129.698 187.133 129.547 186.802 129.344 186.516C129.146 186.224 128.896 185.995 128.594 185.828C128.297 185.661 127.948 185.578 127.547 185.578C127.151 185.578 126.802 185.661 126.5 185.828C126.203 185.995 125.953 186.224 125.75 186.516C125.552 186.802 125.404 187.133 125.305 187.508C125.206 187.878 125.156 188.271 125.156 188.688ZM138.742 184.547V185.742H134.656V184.547H138.742ZM140.016 184.547V193H138.57V184.547H140.016ZM134.305 184.547H135.758L135.539 188.625C135.503 189.255 135.443 189.812 135.359 190.297C135.281 190.776 135.172 191.188 135.031 191.531C134.896 191.875 134.724 192.156 134.516 192.375C134.312 192.589 134.068 192.747 133.781 192.852C133.495 192.951 133.164 193 132.789 193H132.336V191.727L132.648 191.703C132.872 191.688 133.062 191.635 133.219 191.547C133.38 191.458 133.516 191.328 133.625 191.156C133.734 190.979 133.823 190.753 133.891 190.477C133.964 190.201 134.018 189.872 134.055 189.492C134.096 189.112 134.128 188.669 134.148 188.164L134.305 184.547ZM143.906 190.711L147.805 184.547H149.258V193H147.805V186.836L143.906 193H142.469V184.547H143.906V190.711ZM151.195 188.867V188.688C151.195 188.078 151.284 187.513 151.461 186.992C151.638 186.466 151.893 186.01 152.227 185.625C152.56 185.234 152.964 184.932 153.438 184.719C153.911 184.5 154.443 184.391 155.031 184.391C155.625 184.391 156.159 184.5 156.633 184.719C157.112 184.932 157.518 185.234 157.852 185.625C158.19 186.01 158.448 186.466 158.625 186.992C158.802 187.513 158.891 188.078 158.891 188.688V188.867C158.891 189.477 158.802 190.042 158.625 190.562C158.448 191.083 158.19 191.539 157.852 191.93C157.518 192.315 157.115 192.617 156.641 192.836C156.172 193.049 155.641 193.156 155.047 193.156C154.453 193.156 153.919 193.049 153.445 192.836C152.971 192.617 152.565 192.315 152.227 191.93C151.893 191.539 151.638 191.083 151.461 190.562C151.284 190.042 151.195 189.477 151.195 188.867ZM152.641 188.688V188.867C152.641 189.289 152.69 189.688 152.789 190.062C152.888 190.432 153.036 190.76 153.234 191.047C153.438 191.333 153.69 191.56 153.992 191.727C154.294 191.888 154.646 191.969 155.047 191.969C155.443 191.969 155.789 191.888 156.086 191.727C156.388 191.56 156.638 191.333 156.836 191.047C157.034 190.76 157.182 190.432 157.281 190.062C157.385 189.688 157.438 189.289 157.438 188.867V188.688C157.438 188.271 157.385 187.878 157.281 187.508C157.182 187.133 157.031 186.802 156.828 186.516C156.63 186.224 156.38 185.995 156.078 185.828C155.781 185.661 155.432 185.578 155.031 185.578C154.635 185.578 154.286 185.661 153.984 185.828C153.688 185.995 153.438 186.224 153.234 186.516C153.036 186.802 152.888 187.133 152.789 187.508C152.69 187.878 152.641 188.271 152.641 188.688Z" fill="#1C2127"/>
<g filter="url(#filter2_d_438_282)">
<rect x="13" y="232" width="274" height="39" fill="white"/>
</g>
<circle cx="59.5" cy="251.5" r="7" stroke="#C7C7C7"/>
<path d="M83.3125 253.383H84.8125C84.7344 254.102 84.5286 254.745 84.1953 255.312C83.862 255.88 83.3906 256.331 82.7812 256.664C82.1719 256.992 81.4115 257.156 80.5 257.156C79.8333 257.156 79.2266 257.031 78.6797 256.781C78.138 256.531 77.6719 256.177 77.2812 255.719C76.8906 255.255 76.5885 254.701 76.375 254.055C76.1667 253.404 76.0625 252.68 76.0625 251.883V250.75C76.0625 249.953 76.1667 249.232 76.375 248.586C76.5885 247.935 76.8932 247.378 77.2891 246.914C77.6901 246.451 78.1719 246.094 78.7344 245.844C79.2969 245.594 79.9297 245.469 80.6328 245.469C81.4922 245.469 82.2188 245.63 82.8125 245.953C83.4062 246.276 83.8672 246.724 84.1953 247.297C84.5286 247.865 84.7344 248.523 84.8125 249.273H83.3125C83.2396 248.742 83.1042 248.286 82.9062 247.906C82.7083 247.521 82.4271 247.224 82.0625 247.016C81.6979 246.807 81.2214 246.703 80.6328 246.703C80.1276 246.703 79.6823 246.799 79.2969 246.992C78.9167 247.185 78.5964 247.458 78.3359 247.812C78.0807 248.167 77.888 248.591 77.7578 249.086C77.6276 249.581 77.5625 250.13 77.5625 250.734V251.883C77.5625 252.44 77.6198 252.964 77.7344 253.453C77.8542 253.943 78.0339 254.372 78.2734 254.742C78.513 255.112 78.8177 255.404 79.1875 255.617C79.5573 255.826 79.9948 255.93 80.5 255.93C81.1406 255.93 81.651 255.828 82.0312 255.625C82.4115 255.422 82.6979 255.13 82.8906 254.75C83.0885 254.37 83.2292 253.914 83.3125 253.383ZM86.2656 252.867V252.688C86.2656 252.078 86.3542 251.513 86.5312 250.992C86.7083 250.466 86.9635 250.01 87.2969 249.625C87.6302 249.234 88.0339 248.932 88.5078 248.719C88.9818 248.5 89.513 248.391 90.1016 248.391C90.6953 248.391 91.2292 248.5 91.7031 248.719C92.1823 248.932 92.5885 249.234 92.9219 249.625C93.2604 250.01 93.5182 250.466 93.6953 250.992C93.8724 251.513 93.9609 252.078 93.9609 252.688V252.867C93.9609 253.477 93.8724 254.042 93.6953 254.562C93.5182 255.083 93.2604 255.539 92.9219 255.93C92.5885 256.315 92.1849 256.617 91.7109 256.836C91.2422 257.049 90.7109 257.156 90.1172 257.156C89.5234 257.156 88.9896 257.049 88.5156 256.836C88.0417 256.617 87.6354 256.315 87.2969 255.93C86.9635 255.539 86.7083 255.083 86.5312 254.562C86.3542 254.042 86.2656 253.477 86.2656 252.867ZM87.7109 252.688V252.867C87.7109 253.289 87.7604 253.688 87.8594 254.062C87.9583 254.432 88.1068 254.76 88.3047 255.047C88.5078 255.333 88.7604 255.56 89.0625 255.727C89.3646 255.888 89.7161 255.969 90.1172 255.969C90.513 255.969 90.8594 255.888 91.1562 255.727C91.4583 255.56 91.7083 255.333 91.9062 255.047C92.1042 254.76 92.2526 254.432 92.3516 254.062C92.4557 253.688 92.5078 253.289 92.5078 252.867V252.688C92.5078 252.271 92.4557 251.878 92.3516 251.508C92.2526 251.133 92.1016 250.802 91.8984 250.516C91.7005 250.224 91.4505 249.995 91.1484 249.828C90.8516 249.661 90.5026 249.578 90.1016 249.578C89.7057 249.578 89.3568 249.661 89.0547 249.828C88.7578 249.995 88.5078 250.224 88.3047 250.516C88.1068 250.802 87.9583 251.133 87.8594 251.508C87.7604 251.878 87.7109 252.271 87.7109 252.688ZM95.8984 257V248.547H97.3438V255.812H101.234V248.547H102.688V257H95.8984ZM103.688 255.812L103.547 259.508H102.258V257H101.156V255.812H103.688ZM106.82 254.711L110.719 248.547H112.172V257H110.719V250.836L106.82 257H105.383V248.547H106.82V254.711ZM119.477 255.555V251.203C119.477 250.87 119.409 250.581 119.273 250.336C119.143 250.086 118.945 249.893 118.68 249.758C118.414 249.622 118.086 249.555 117.695 249.555C117.331 249.555 117.01 249.617 116.734 249.742C116.464 249.867 116.25 250.031 116.094 250.234C115.943 250.438 115.867 250.656 115.867 250.891H114.422C114.422 250.589 114.5 250.289 114.656 249.992C114.812 249.695 115.036 249.427 115.328 249.188C115.625 248.943 115.979 248.75 116.391 248.609C116.807 248.464 117.271 248.391 117.781 248.391C118.396 248.391 118.938 248.495 119.406 248.703C119.88 248.911 120.25 249.227 120.516 249.648C120.786 250.065 120.922 250.589 120.922 251.219V255.156C120.922 255.438 120.945 255.737 120.992 256.055C121.044 256.372 121.12 256.646 121.219 256.875V257H119.711C119.638 256.833 119.581 256.612 119.539 256.336C119.497 256.055 119.477 255.794 119.477 255.555ZM119.727 251.875L119.742 252.891H118.281C117.87 252.891 117.503 252.924 117.18 252.992C116.857 253.055 116.586 253.151 116.367 253.281C116.148 253.411 115.982 253.576 115.867 253.773C115.753 253.966 115.695 254.193 115.695 254.453C115.695 254.719 115.755 254.961 115.875 255.18C115.995 255.398 116.174 255.573 116.414 255.703C116.659 255.828 116.958 255.891 117.312 255.891C117.755 255.891 118.146 255.797 118.484 255.609C118.823 255.422 119.091 255.193 119.289 254.922C119.492 254.651 119.602 254.388 119.617 254.133L120.234 254.828C120.198 255.047 120.099 255.289 119.938 255.555C119.776 255.82 119.56 256.076 119.289 256.32C119.023 256.56 118.706 256.76 118.336 256.922C117.971 257.078 117.56 257.156 117.102 257.156C116.529 257.156 116.026 257.044 115.594 256.82C115.167 256.596 114.833 256.297 114.594 255.922C114.359 255.542 114.242 255.117 114.242 254.648C114.242 254.195 114.331 253.797 114.508 253.453C114.685 253.104 114.94 252.815 115.273 252.586C115.607 252.352 116.008 252.174 116.477 252.055C116.945 251.935 117.469 251.875 118.047 251.875H119.727ZM128.844 248.547V249.742H124.758V248.547H128.844ZM130.117 248.547V257H128.672V248.547H130.117ZM124.406 248.547H125.859L125.641 252.625C125.604 253.255 125.544 253.812 125.461 254.297C125.383 254.776 125.273 255.188 125.133 255.531C124.997 255.875 124.826 256.156 124.617 256.375C124.414 256.589 124.169 256.747 123.883 256.852C123.596 256.951 123.266 257 122.891 257H122.438V255.727L122.75 255.703C122.974 255.688 123.164 255.635 123.32 255.547C123.482 255.458 123.617 255.328 123.727 255.156C123.836 254.979 123.924 254.753 123.992 254.477C124.065 254.201 124.12 253.872 124.156 253.492C124.198 253.112 124.229 252.669 124.25 252.164L124.406 248.547ZM133.633 251.453H136.172C136.854 251.453 137.43 251.573 137.898 251.812C138.367 252.047 138.721 252.372 138.961 252.789C139.206 253.201 139.328 253.669 139.328 254.195C139.328 254.586 139.26 254.953 139.125 255.297C138.99 255.635 138.786 255.932 138.516 256.188C138.25 256.443 137.919 256.643 137.523 256.789C137.133 256.93 136.682 257 136.172 257H132.578V248.547H134.023V255.812H136.172C136.589 255.812 136.922 255.737 137.172 255.586C137.422 255.435 137.602 255.24 137.711 255C137.82 254.76 137.875 254.51 137.875 254.25C137.875 253.995 137.82 253.745 137.711 253.5C137.602 253.255 137.422 253.052 137.172 252.891C136.922 252.724 136.589 252.641 136.172 252.641H133.633V251.453ZM146.867 252.211V253.383H142.398V252.211H146.867ZM142.703 248.547V257H141.258V248.547H142.703ZM148.039 248.547V257H146.586V248.547H148.039ZM155.352 255.555V251.203C155.352 250.87 155.284 250.581 155.148 250.336C155.018 250.086 154.82 249.893 154.555 249.758C154.289 249.622 153.961 249.555 153.57 249.555C153.206 249.555 152.885 249.617 152.609 249.742C152.339 249.867 152.125 250.031 151.969 250.234C151.818 250.438 151.742 250.656 151.742 250.891H150.297C150.297 250.589 150.375 250.289 150.531 249.992C150.688 249.695 150.911 249.427 151.203 249.188C151.5 248.943 151.854 248.75 152.266 248.609C152.682 248.464 153.146 248.391 153.656 248.391C154.271 248.391 154.812 248.495 155.281 248.703C155.755 248.911 156.125 249.227 156.391 249.648C156.661 250.065 156.797 250.589 156.797 251.219V255.156C156.797 255.438 156.82 255.737 156.867 256.055C156.919 256.372 156.995 256.646 157.094 256.875V257H155.586C155.513 256.833 155.456 256.612 155.414 256.336C155.372 256.055 155.352 255.794 155.352 255.555ZM155.602 251.875L155.617 252.891H154.156C153.745 252.891 153.378 252.924 153.055 252.992C152.732 253.055 152.461 253.151 152.242 253.281C152.023 253.411 151.857 253.576 151.742 253.773C151.628 253.966 151.57 254.193 151.57 254.453C151.57 254.719 151.63 254.961 151.75 255.18C151.87 255.398 152.049 255.573 152.289 255.703C152.534 255.828 152.833 255.891 153.188 255.891C153.63 255.891 154.021 255.797 154.359 255.609C154.698 255.422 154.966 255.193 155.164 254.922C155.367 254.651 155.477 254.388 155.492 254.133L156.109 254.828C156.073 255.047 155.974 255.289 155.812 255.555C155.651 255.82 155.435 256.076 155.164 256.32C154.898 256.56 154.581 256.76 154.211 256.922C153.846 257.078 153.435 257.156 152.977 257.156C152.404 257.156 151.901 257.044 151.469 256.82C151.042 256.596 150.708 256.297 150.469 255.922C150.234 255.542 150.117 255.117 150.117 254.648C150.117 254.195 150.206 253.797 150.383 253.453C150.56 253.104 150.815 252.815 151.148 252.586C151.482 252.352 151.883 252.174 152.352 252.055C152.82 251.935 153.344 251.875 153.922 251.875H155.602ZM160.781 252.969H162.344L159.898 257H158.336L160.781 252.969ZM161.992 248.547H165.523V257H164.078V249.719H161.992C161.581 249.719 161.245 249.789 160.984 249.93C160.724 250.065 160.534 250.242 160.414 250.461C160.294 250.68 160.234 250.906 160.234 251.141C160.234 251.37 160.289 251.591 160.398 251.805C160.508 252.013 160.68 252.185 160.914 252.32C161.148 252.456 161.451 252.523 161.82 252.523H164.469V253.711H161.82C161.336 253.711 160.906 253.646 160.531 253.516C160.156 253.385 159.839 253.206 159.578 252.977C159.318 252.742 159.12 252.469 158.984 252.156C158.849 251.839 158.781 251.495 158.781 251.125C158.781 250.755 158.852 250.414 158.992 250.102C159.138 249.789 159.346 249.516 159.617 249.281C159.893 249.047 160.229 248.867 160.625 248.742C161.026 248.612 161.482 248.547 161.992 248.547ZM175.203 255.969C175.547 255.969 175.865 255.898 176.156 255.758C176.448 255.617 176.688 255.424 176.875 255.18C177.062 254.93 177.169 254.646 177.195 254.328H178.57C178.544 254.828 178.375 255.294 178.062 255.727C177.755 256.154 177.352 256.5 176.852 256.766C176.352 257.026 175.802 257.156 175.203 257.156C174.568 257.156 174.013 257.044 173.539 256.82C173.07 256.596 172.68 256.289 172.367 255.898C172.06 255.508 171.828 255.06 171.672 254.555C171.521 254.044 171.445 253.505 171.445 252.938V252.609C171.445 252.042 171.521 251.505 171.672 251C171.828 250.49 172.06 250.039 172.367 249.648C172.68 249.258 173.07 248.951 173.539 248.727C174.013 248.503 174.568 248.391 175.203 248.391C175.865 248.391 176.443 248.526 176.938 248.797C177.432 249.062 177.82 249.427 178.102 249.891C178.388 250.349 178.544 250.87 178.57 251.453H177.195C177.169 251.104 177.07 250.789 176.898 250.508C176.732 250.227 176.503 250.003 176.211 249.836C175.924 249.664 175.589 249.578 175.203 249.578C174.76 249.578 174.388 249.667 174.086 249.844C173.789 250.016 173.552 250.25 173.375 250.547C173.203 250.839 173.078 251.164 173 251.523C172.927 251.878 172.891 252.24 172.891 252.609V252.938C172.891 253.307 172.927 253.672 173 254.031C173.073 254.391 173.195 254.716 173.367 255.008C173.544 255.299 173.781 255.534 174.078 255.711C174.38 255.883 174.755 255.969 175.203 255.969ZM183.703 257.156C183.115 257.156 182.581 257.057 182.102 256.859C181.628 256.656 181.219 256.372 180.875 256.008C180.536 255.643 180.276 255.211 180.094 254.711C179.911 254.211 179.82 253.664 179.82 253.07V252.742C179.82 252.055 179.922 251.443 180.125 250.906C180.328 250.365 180.604 249.906 180.953 249.531C181.302 249.156 181.698 248.872 182.141 248.68C182.583 248.487 183.042 248.391 183.516 248.391C184.12 248.391 184.641 248.495 185.078 248.703C185.521 248.911 185.883 249.203 186.164 249.578C186.445 249.948 186.654 250.385 186.789 250.891C186.924 251.391 186.992 251.938 186.992 252.531V253.18H180.68V252H185.547V251.891C185.526 251.516 185.448 251.151 185.312 250.797C185.182 250.443 184.974 250.151 184.688 249.922C184.401 249.693 184.01 249.578 183.516 249.578C183.188 249.578 182.885 249.648 182.609 249.789C182.333 249.924 182.096 250.128 181.898 250.398C181.701 250.669 181.547 251 181.438 251.391C181.328 251.781 181.273 252.232 181.273 252.742V253.07C181.273 253.471 181.328 253.849 181.438 254.203C181.552 254.552 181.716 254.859 181.93 255.125C182.148 255.391 182.411 255.599 182.719 255.75C183.031 255.901 183.385 255.977 183.781 255.977C184.292 255.977 184.724 255.872 185.078 255.664C185.432 255.456 185.742 255.177 186.008 254.828L186.883 255.523C186.701 255.799 186.469 256.062 186.188 256.312C185.906 256.562 185.56 256.766 185.148 256.922C184.742 257.078 184.26 257.156 183.703 257.156ZM192.031 248.547V257H190.578V248.547H192.031ZM194.867 248.547V249.719H187.797V248.547H194.867ZM197.477 251.453H200.016C200.698 251.453 201.273 251.573 201.742 251.812C202.211 252.047 202.565 252.372 202.805 252.789C203.049 253.201 203.172 253.669 203.172 254.195C203.172 254.586 203.104 254.953 202.969 255.297C202.833 255.635 202.63 255.932 202.359 256.188C202.094 256.443 201.763 256.643 201.367 256.789C200.977 256.93 200.526 257 200.016 257H196.422V248.547H197.867V255.812H200.016C200.432 255.812 200.766 255.737 201.016 255.586C201.266 255.435 201.445 255.24 201.555 255C201.664 254.76 201.719 254.51 201.719 254.25C201.719 253.995 201.664 253.745 201.555 253.5C201.445 253.255 201.266 253.052 201.016 252.891C200.766 252.724 200.432 252.641 200.016 252.641H197.477V251.453Z" fill="#1C2127"/>
<g filter="url(#filter3_d_438_282)">
<rect x="13" y="296" width="274" height="39" fill="white"/>
</g>
<circle cx="59.5" cy="315.5" r="7" stroke="#C7C7C7"/>
<path d="M83.6641 309.625V310.859H78.1797V321H76.6797V309.625H83.6641ZM77.8281 314.258H80.9297C81.763 314.258 82.4661 314.398 83.0391 314.68C83.612 314.956 84.0469 315.344 84.3438 315.844C84.6406 316.344 84.7891 316.93 84.7891 317.602C84.7891 318.102 84.7057 318.56 84.5391 318.977C84.3724 319.388 84.125 319.747 83.7969 320.055C83.4688 320.357 83.0651 320.591 82.5859 320.758C82.1068 320.919 81.5547 321 80.9297 321H76.6797V309.625H78.1875V319.773H80.9297C81.487 319.773 81.9375 319.672 82.2812 319.469C82.6302 319.26 82.8854 318.99 83.0469 318.656C83.2083 318.323 83.2891 317.966 83.2891 317.586C83.2891 317.206 83.2083 316.857 83.0469 316.539C82.8854 316.221 82.6302 315.969 82.2812 315.781C81.9375 315.589 81.487 315.492 80.9297 315.492H77.8281V314.258ZM92.25 312.547V313.742H88.1641V312.547H92.25ZM93.5234 312.547V321H92.0781V312.547H93.5234ZM87.8125 312.547H89.2656L89.0469 316.625C89.0104 317.255 88.9505 317.812 88.8672 318.297C88.7891 318.776 88.6797 319.188 88.5391 319.531C88.4036 319.875 88.2318 320.156 88.0234 320.375C87.8203 320.589 87.5755 320.747 87.2891 320.852C87.0026 320.951 86.6719 321 86.2969 321H85.8438V319.727L86.1562 319.703C86.3802 319.688 86.5703 319.635 86.7266 319.547C86.888 319.458 87.0234 319.328 87.1328 319.156C87.2422 318.979 87.3307 318.753 87.3984 318.477C87.4714 318.201 87.526 317.872 87.5625 317.492C87.6042 317.112 87.6354 316.669 87.6562 316.164L87.8125 312.547ZM95.4688 316.867V316.688C95.4688 316.078 95.5573 315.513 95.7344 314.992C95.9115 314.466 96.1667 314.01 96.5 313.625C96.8333 313.234 97.237 312.932 97.7109 312.719C98.1849 312.5 98.7161 312.391 99.3047 312.391C99.8984 312.391 100.432 312.5 100.906 312.719C101.385 312.932 101.792 313.234 102.125 313.625C102.464 314.01 102.721 314.466 102.898 314.992C103.076 315.513 103.164 316.078 103.164 316.688V316.867C103.164 317.477 103.076 318.042 102.898 318.562C102.721 319.083 102.464 319.539 102.125 319.93C101.792 320.315 101.388 320.617 100.914 320.836C100.445 321.049 99.9141 321.156 99.3203 321.156C98.7266 321.156 98.1927 321.049 97.7188 320.836C97.2448 320.617 96.8385 320.315 96.5 319.93C96.1667 319.539 95.9115 319.083 95.7344 318.562C95.5573 318.042 95.4688 317.477 95.4688 316.867ZM96.9141 316.688V316.867C96.9141 317.289 96.9635 317.688 97.0625 318.062C97.1615 318.432 97.3099 318.76 97.5078 319.047C97.7109 319.333 97.9635 319.56 98.2656 319.727C98.5677 319.888 98.9193 319.969 99.3203 319.969C99.7161 319.969 100.062 319.888 100.359 319.727C100.661 319.56 100.911 319.333 101.109 319.047C101.307 318.76 101.456 318.432 101.555 318.062C101.659 317.688 101.711 317.289 101.711 316.867V316.688C101.711 316.271 101.659 315.878 101.555 315.508C101.456 315.133 101.305 314.802 101.102 314.516C100.904 314.224 100.654 313.995 100.352 313.828C100.055 313.661 99.7057 313.578 99.3047 313.578C98.9089 313.578 98.5599 313.661 98.2578 313.828C97.9609 313.995 97.7109 314.224 97.5078 314.516C97.3099 314.802 97.1615 315.133 97.0625 315.508C96.9635 315.878 96.9141 316.271 96.9141 316.688ZM110.438 312.547V313.742H106.531V321H105.086V312.547H110.438Z" fill="#1C2127"/>
<g filter="url(#filter4_d_438_282)">
<rect x="13" y="360" width="274" height="39" fill="white"/>
</g>
<circle cx="59.5" cy="379.5" r="7" stroke="#C7C7C7"/>
<path d="M78.1172 382.391L83.7188 373.625H85.2266V385H83.7188V376.227L78.1172 385H76.6172V373.625H78.1172V382.391ZM93.4844 380.211V381.383H89.0156V380.211H93.4844ZM89.3203 376.547V385H87.875V376.547H89.3203ZM94.6562 376.547V385H93.2031V376.547H94.6562ZM100.43 376.547V385H98.9766V376.547H100.43ZM103.266 376.547V377.719H96.1953V376.547H103.266ZM107.57 385.156C106.982 385.156 106.448 385.057 105.969 384.859C105.495 384.656 105.086 384.372 104.742 384.008C104.404 383.643 104.143 383.211 103.961 382.711C103.779 382.211 103.688 381.664 103.688 381.07V380.742C103.688 380.055 103.789 379.443 103.992 378.906C104.195 378.365 104.471 377.906 104.82 377.531C105.169 377.156 105.565 376.872 106.008 376.68C106.451 376.487 106.909 376.391 107.383 376.391C107.987 376.391 108.508 376.495 108.945 376.703C109.388 376.911 109.75 377.203 110.031 377.578C110.312 377.948 110.521 378.385 110.656 378.891C110.792 379.391 110.859 379.938 110.859 380.531V381.18H104.547V380H109.414V379.891C109.393 379.516 109.315 379.151 109.18 378.797C109.049 378.443 108.841 378.151 108.555 377.922C108.268 377.693 107.878 377.578 107.383 377.578C107.055 377.578 106.753 377.648 106.477 377.789C106.201 377.924 105.964 378.128 105.766 378.398C105.568 378.669 105.414 379 105.305 379.391C105.195 379.781 105.141 380.232 105.141 380.742V381.07C105.141 381.471 105.195 381.849 105.305 382.203C105.419 382.552 105.583 382.859 105.797 383.125C106.016 383.391 106.279 383.599 106.586 383.75C106.898 383.901 107.253 383.977 107.648 383.977C108.159 383.977 108.591 383.872 108.945 383.664C109.299 383.456 109.609 383.177 109.875 382.828L110.75 383.523C110.568 383.799 110.336 384.062 110.055 384.312C109.773 384.562 109.427 384.766 109.016 384.922C108.609 385.078 108.128 385.156 107.57 385.156ZM113.992 378.172V388.25H112.539V376.547H113.867L113.992 378.172ZM119.688 380.703V380.867C119.688 381.482 119.615 382.052 119.469 382.578C119.323 383.099 119.109 383.552 118.828 383.938C118.552 384.323 118.211 384.622 117.805 384.836C117.398 385.049 116.932 385.156 116.406 385.156C115.87 385.156 115.396 385.068 114.984 384.891C114.573 384.714 114.224 384.456 113.938 384.117C113.651 383.779 113.422 383.372 113.25 382.898C113.083 382.424 112.969 381.891 112.906 381.297V380.422C112.969 379.797 113.086 379.237 113.258 378.742C113.43 378.247 113.656 377.826 113.938 377.477C114.224 377.122 114.57 376.854 114.977 376.672C115.383 376.484 115.852 376.391 116.383 376.391C116.914 376.391 117.385 376.495 117.797 376.703C118.208 376.906 118.555 377.198 118.836 377.578C119.117 377.958 119.328 378.414 119.469 378.945C119.615 379.471 119.688 380.057 119.688 380.703ZM118.234 380.867V380.703C118.234 380.281 118.19 379.885 118.102 379.516C118.013 379.141 117.875 378.812 117.688 378.531C117.505 378.245 117.271 378.021 116.984 377.859C116.698 377.693 116.357 377.609 115.961 377.609C115.596 377.609 115.279 377.672 115.008 377.797C114.742 377.922 114.516 378.091 114.328 378.305C114.141 378.513 113.987 378.753 113.867 379.023C113.753 379.289 113.667 379.565 113.609 379.852V381.875C113.714 382.24 113.859 382.583 114.047 382.906C114.234 383.224 114.484 383.482 114.797 383.68C115.109 383.872 115.503 383.969 115.977 383.969C116.367 383.969 116.703 383.888 116.984 383.727C117.271 383.56 117.505 383.333 117.688 383.047C117.875 382.76 118.013 382.432 118.102 382.062C118.19 381.688 118.234 381.289 118.234 380.867ZM127.266 380.211V381.383H122.797V380.211H127.266ZM123.102 376.547V385H121.656V376.547H123.102ZM128.438 376.547V385H126.984V376.547H128.438ZM134.273 385.156C133.685 385.156 133.151 385.057 132.672 384.859C132.198 384.656 131.789 384.372 131.445 384.008C131.107 383.643 130.846 383.211 130.664 382.711C130.482 382.211 130.391 381.664 130.391 381.07V380.742C130.391 380.055 130.492 379.443 130.695 378.906C130.898 378.365 131.174 377.906 131.523 377.531C131.872 377.156 132.268 376.872 132.711 376.68C133.154 376.487 133.612 376.391 134.086 376.391C134.69 376.391 135.211 376.495 135.648 376.703C136.091 376.911 136.453 377.203 136.734 377.578C137.016 377.948 137.224 378.385 137.359 378.891C137.495 379.391 137.562 379.938 137.562 380.531V381.18H131.25V380H136.117V379.891C136.096 379.516 136.018 379.151 135.883 378.797C135.753 378.443 135.544 378.151 135.258 377.922C134.971 377.693 134.581 377.578 134.086 377.578C133.758 377.578 133.456 377.648 133.18 377.789C132.904 377.924 132.667 378.128 132.469 378.398C132.271 378.669 132.117 379 132.008 379.391C131.898 379.781 131.844 380.232 131.844 380.742V381.07C131.844 381.471 131.898 381.849 132.008 382.203C132.122 382.552 132.286 382.859 132.5 383.125C132.719 383.391 132.982 383.599 133.289 383.75C133.602 383.901 133.956 383.977 134.352 383.977C134.862 383.977 135.294 383.872 135.648 383.664C136.003 383.456 136.312 383.177 136.578 382.828L137.453 383.523C137.271 383.799 137.039 384.062 136.758 384.312C136.477 384.562 136.13 384.766 135.719 384.922C135.312 385.078 134.831 385.156 134.273 385.156ZM142.602 376.547V385H141.148V376.547H142.602ZM145.438 376.547V377.719H138.367V376.547H145.438ZM149.867 379.57V380.758H146.055V379.57H149.867ZM156.141 383.078L159.016 376.547H160.406L156.641 385H155.641L151.891 376.547H153.281L156.141 383.078ZM152.859 376.547V385H151.414V376.547H152.859ZM159.375 385V376.547H160.828V385H159.375ZM168.141 383.555V379.203C168.141 378.87 168.073 378.581 167.938 378.336C167.807 378.086 167.609 377.893 167.344 377.758C167.078 377.622 166.75 377.555 166.359 377.555C165.995 377.555 165.674 377.617 165.398 377.742C165.128 377.867 164.914 378.031 164.758 378.234C164.607 378.438 164.531 378.656 164.531 378.891H163.086C163.086 378.589 163.164 378.289 163.32 377.992C163.477 377.695 163.701 377.427 163.992 377.188C164.289 376.943 164.643 376.75 165.055 376.609C165.471 376.464 165.935 376.391 166.445 376.391C167.06 376.391 167.602 376.495 168.07 376.703C168.544 376.911 168.914 377.227 169.18 377.648C169.451 378.065 169.586 378.589 169.586 379.219V383.156C169.586 383.438 169.609 383.737 169.656 384.055C169.708 384.372 169.784 384.646 169.883 384.875V385H168.375C168.302 384.833 168.245 384.612 168.203 384.336C168.161 384.055 168.141 383.794 168.141 383.555ZM168.391 379.875L168.406 380.891H166.945C166.534 380.891 166.167 380.924 165.844 380.992C165.521 381.055 165.25 381.151 165.031 381.281C164.812 381.411 164.646 381.576 164.531 381.773C164.417 381.966 164.359 382.193 164.359 382.453C164.359 382.719 164.419 382.961 164.539 383.18C164.659 383.398 164.839 383.573 165.078 383.703C165.323 383.828 165.622 383.891 165.977 383.891C166.419 383.891 166.81 383.797 167.148 383.609C167.487 383.422 167.755 383.193 167.953 382.922C168.156 382.651 168.266 382.388 168.281 382.133L168.898 382.828C168.862 383.047 168.763 383.289 168.602 383.555C168.44 383.82 168.224 384.076 167.953 384.32C167.688 384.56 167.37 384.76 167 384.922C166.635 385.078 166.224 385.156 165.766 385.156C165.193 385.156 164.69 385.044 164.258 384.82C163.831 384.596 163.497 384.297 163.258 383.922C163.023 383.542 162.906 383.117 162.906 382.648C162.906 382.195 162.995 381.797 163.172 381.453C163.349 381.104 163.604 380.815 163.938 380.586C164.271 380.352 164.672 380.174 165.141 380.055C165.609 379.935 166.133 379.875 166.711 379.875H168.391ZM177.32 376.547V377.742H173.414V385H171.969V376.547H177.32ZM183.562 383.555V379.203C183.562 378.87 183.495 378.581 183.359 378.336C183.229 378.086 183.031 377.893 182.766 377.758C182.5 377.622 182.172 377.555 181.781 377.555C181.417 377.555 181.096 377.617 180.82 377.742C180.549 377.867 180.336 378.031 180.18 378.234C180.029 378.438 179.953 378.656 179.953 378.891H178.508C178.508 378.589 178.586 378.289 178.742 377.992C178.898 377.695 179.122 377.427 179.414 377.188C179.711 376.943 180.065 376.75 180.477 376.609C180.893 376.464 181.357 376.391 181.867 376.391C182.482 376.391 183.023 376.495 183.492 376.703C183.966 376.911 184.336 377.227 184.602 377.648C184.872 378.065 185.008 378.589 185.008 379.219V383.156C185.008 383.438 185.031 383.737 185.078 384.055C185.13 384.372 185.206 384.646 185.305 384.875V385H183.797C183.724 384.833 183.667 384.612 183.625 384.336C183.583 384.055 183.562 383.794 183.562 383.555ZM183.812 379.875L183.828 380.891H182.367C181.956 380.891 181.589 380.924 181.266 380.992C180.943 381.055 180.672 381.151 180.453 381.281C180.234 381.411 180.068 381.576 179.953 381.773C179.839 381.966 179.781 382.193 179.781 382.453C179.781 382.719 179.841 382.961 179.961 383.18C180.081 383.398 180.26 383.573 180.5 383.703C180.745 383.828 181.044 383.891 181.398 383.891C181.841 383.891 182.232 383.797 182.57 383.609C182.909 383.422 183.177 383.193 183.375 382.922C183.578 382.651 183.688 382.388 183.703 382.133L184.32 382.828C184.284 383.047 184.185 383.289 184.023 383.555C183.862 383.82 183.646 384.076 183.375 384.32C183.109 384.56 182.792 384.76 182.422 384.922C182.057 385.078 181.646 385.156 181.188 385.156C180.615 385.156 180.112 385.044 179.68 384.82C179.253 384.596 178.919 384.297 178.68 383.922C178.445 383.542 178.328 383.117 178.328 382.648C178.328 382.195 178.417 381.797 178.594 381.453C178.771 381.104 179.026 380.815 179.359 380.586C179.693 380.352 180.094 380.174 180.562 380.055C181.031 379.935 181.555 379.875 182.133 379.875H183.812ZM190.438 380.961H188.883V380.07H190.32C190.721 380.07 191.039 380.021 191.273 379.922C191.508 379.818 191.674 379.674 191.773 379.492C191.872 379.31 191.922 379.096 191.922 378.852C191.922 378.633 191.865 378.427 191.75 378.234C191.641 378.036 191.464 377.878 191.219 377.758C190.974 377.633 190.646 377.57 190.234 377.57C189.901 377.57 189.599 377.63 189.328 377.75C189.057 377.865 188.841 378.023 188.68 378.227C188.523 378.424 188.445 378.648 188.445 378.898H187C187 378.383 187.146 377.94 187.438 377.57C187.734 377.195 188.128 376.906 188.617 376.703C189.112 376.5 189.651 376.398 190.234 376.398C190.724 376.398 191.161 376.453 191.547 376.562C191.938 376.667 192.268 376.823 192.539 377.031C192.81 377.234 193.016 377.49 193.156 377.797C193.302 378.099 193.375 378.451 193.375 378.852C193.375 379.138 193.307 379.409 193.172 379.664C193.036 379.919 192.841 380.146 192.586 380.344C192.331 380.536 192.021 380.688 191.656 380.797C191.297 380.906 190.891 380.961 190.438 380.961ZM188.883 380.414H190.438C190.943 380.414 191.388 380.464 191.773 380.562C192.159 380.656 192.482 380.797 192.742 380.984C193.003 381.172 193.198 381.404 193.328 381.68C193.464 381.951 193.531 382.263 193.531 382.617C193.531 383.013 193.451 383.37 193.289 383.688C193.133 384 192.909 384.266 192.617 384.484C192.326 384.703 191.977 384.87 191.57 384.984C191.169 385.099 190.724 385.156 190.234 385.156C189.688 385.156 189.156 385.062 188.641 384.875C188.125 384.688 187.701 384.398 187.367 384.008C187.034 383.612 186.867 383.109 186.867 382.5H188.312C188.312 382.755 188.393 382.997 188.555 383.227C188.716 383.456 188.94 383.641 189.227 383.781C189.518 383.922 189.854 383.992 190.234 383.992C190.641 383.992 190.979 383.93 191.25 383.805C191.521 383.68 191.724 383.513 191.859 383.305C192 383.096 192.07 382.87 192.07 382.625C192.07 382.307 192.008 382.052 191.883 381.859C191.758 381.667 191.565 381.526 191.305 381.438C191.049 381.344 190.721 381.297 190.32 381.297H188.883V380.414ZM196.969 382.711L200.867 376.547H202.32V385H200.867V378.836L196.969 385H195.531V376.547H196.969V382.711ZM210.375 380.211V381.383H205.906V380.211H210.375ZM206.211 376.547V385H204.766V376.547H206.211ZM211.547 376.547V385H210.094V376.547H211.547Z" fill="#1C2127"/>
<path d="M16.9355 51.7812V66H14.4941V51.7812H16.9355ZM25.4902 51.7812L19.709 59.8867H16.2422L15.9102 57.7578H18.3516L22.4922 51.7812H25.4902ZM22.9902 66L18.3906 59.5156L19.9727 57.6309L25.9297 66H22.9902ZM33.0586 63.8809V58.8418C33.0586 58.4642 32.9902 58.1387 32.8535 57.8652C32.7168 57.5918 32.5085 57.3802 32.2285 57.2305C31.9551 57.0807 31.61 57.0059 31.1934 57.0059C30.8092 57.0059 30.4772 57.071 30.1973 57.2012C29.9173 57.3314 29.6992 57.5072 29.543 57.7285C29.3867 57.9499 29.3086 58.2005 29.3086 58.4805H26.9648C26.9648 58.0638 27.0658 57.6602 27.2676 57.2695C27.4694 56.8789 27.7624 56.5306 28.1465 56.2246C28.5306 55.9186 28.9896 55.6777 29.5234 55.502C30.0573 55.3262 30.6562 55.2383 31.3203 55.2383C32.1146 55.2383 32.8177 55.3717 33.4297 55.6387C34.0482 55.9056 34.5332 56.3092 34.8848 56.8496C35.2428 57.3835 35.4219 58.054 35.4219 58.8613V63.5586C35.4219 64.0404 35.4544 64.4733 35.5195 64.8574C35.5911 65.235 35.6921 65.5638 35.8223 65.8438V66H33.4102C33.2995 65.7461 33.2116 65.4238 33.1465 65.0332C33.0879 64.6361 33.0586 64.252 33.0586 63.8809ZM33.4004 59.5742L33.4199 61.0293H31.7305C31.2943 61.0293 30.9102 61.0716 30.5781 61.1562C30.2461 61.2344 29.9694 61.3516 29.748 61.5078C29.5267 61.6641 29.3607 61.8529 29.25 62.0742C29.1393 62.2956 29.084 62.5462 29.084 62.8262C29.084 63.1061 29.1491 63.3633 29.2793 63.5977C29.4095 63.8255 29.5983 64.0046 29.8457 64.1348C30.0996 64.265 30.4056 64.3301 30.7637 64.3301C31.2454 64.3301 31.6654 64.2324 32.0234 64.0371C32.388 63.8353 32.6745 63.5911 32.8828 63.3047C33.0911 63.0117 33.2018 62.735 33.2148 62.4746L33.9766 63.5195C33.8984 63.7865 33.765 64.0729 33.5762 64.3789C33.3874 64.6849 33.14 64.9779 32.834 65.2578C32.5345 65.5312 32.1732 65.7559 31.75 65.9316C31.3333 66.1074 30.8516 66.1953 30.3047 66.1953C29.6146 66.1953 28.9993 66.0586 28.459 65.7852C27.9186 65.5052 27.4954 65.1309 27.1895 64.6621C26.8835 64.1868 26.7305 63.6497 26.7305 63.0508C26.7305 62.4909 26.8346 61.9961 27.043 61.5664C27.2578 61.1302 27.5703 60.7656 27.9805 60.4727C28.3971 60.1797 28.9049 59.9583 29.5039 59.8086C30.1029 59.6523 30.7865 59.5742 31.5547 59.5742H33.4004ZM40.4219 55.4336V66H38.0684V55.4336H40.4219ZM47.3164 55.4336L42.5605 61.791H39.875L39.5625 59.6621H41.5254L44.377 55.4336H47.3164ZM44.5625 66L41.3789 61.3906L43.2344 60.0527L47.6582 66H44.5625ZM48.1367 60.834V60.6094C48.1367 59.8477 48.2474 59.1413 48.4688 58.4902C48.6901 57.8327 49.0091 57.263 49.4258 56.7812C49.849 56.293 50.3633 55.9154 50.9688 55.6484C51.5807 55.375 52.2708 55.2383 53.0391 55.2383C53.8138 55.2383 54.5039 55.375 55.1094 55.6484C55.7214 55.9154 56.2389 56.293 56.6621 56.7812C57.0853 57.263 57.4076 57.8327 57.6289 58.4902C57.8503 59.1413 57.9609 59.8477 57.9609 60.6094V60.834C57.9609 61.5957 57.8503 62.3021 57.6289 62.9531C57.4076 63.6042 57.0853 64.1738 56.6621 64.6621C56.2389 65.1439 55.7246 65.5215 55.1191 65.7949C54.5137 66.0618 53.8268 66.1953 53.0586 66.1953C52.2839 66.1953 51.5905 66.0618 50.9785 65.7949C50.373 65.5215 49.8587 65.1439 49.4355 64.6621C49.0124 64.1738 48.6901 63.6042 48.4688 62.9531C48.2474 62.3021 48.1367 61.5957 48.1367 60.834ZM50.4902 60.6094V60.834C50.4902 61.3092 50.5391 61.7585 50.6367 62.1816C50.7344 62.6048 50.8874 62.9759 51.0957 63.2949C51.304 63.6139 51.571 63.8646 51.8965 64.0469C52.222 64.2292 52.6094 64.3203 53.0586 64.3203C53.4948 64.3203 53.8724 64.2292 54.1914 64.0469C54.5169 63.8646 54.7839 63.6139 54.9922 63.2949C55.2005 62.9759 55.3535 62.6048 55.4512 62.1816C55.5553 61.7585 55.6074 61.3092 55.6074 60.834V60.6094C55.6074 60.1406 55.5553 59.6979 55.4512 59.2812C55.3535 58.8581 55.1973 58.4837 54.9824 58.1582C54.7741 57.8327 54.5072 57.5788 54.1816 57.3965C53.8626 57.2077 53.4818 57.1133 53.0391 57.1133C52.5964 57.1133 52.2122 57.2077 51.8867 57.3965C51.5677 57.5788 51.304 57.8327 51.0957 58.1582C50.8874 58.4837 50.7344 58.8581 50.6367 59.2812C50.5391 59.6979 50.4902 60.1406 50.4902 60.6094ZM62.3652 62.5625L66.5156 55.4336H68.8691V66H66.5156V58.8613L62.3652 66H60.0117V55.4336H62.3652V62.5625ZM65.8906 51.3711H67.6387C67.6387 51.9115 67.5085 52.39 67.248 52.8066C66.9941 53.2168 66.6296 53.5391 66.1543 53.7734C65.6855 54.0078 65.1257 54.125 64.4746 54.125C63.4915 54.125 62.7135 53.8711 62.1406 53.3633C61.5742 52.849 61.291 52.1849 61.291 51.3711H63.0391C63.0391 51.7357 63.1465 52.0579 63.3613 52.3379C63.5827 52.6113 63.9538 52.748 64.4746 52.748C64.9889 52.748 65.3535 52.6113 65.5684 52.3379C65.7832 52.0579 65.8906 51.7357 65.8906 51.3711ZM88.8887 60.8438V61.0488C88.8887 61.7975 88.804 62.4876 88.6348 63.1191C88.472 63.7441 88.2279 64.2878 87.9023 64.75C87.5768 65.2122 87.1732 65.5703 86.6914 65.8242C86.2161 66.0781 85.6628 66.2051 85.0312 66.2051C84.4779 66.2051 83.9961 66.1107 83.5859 65.9219C83.1758 65.7331 82.8307 65.4694 82.5508 65.1309C82.2708 64.7858 82.0462 64.3822 81.877 63.9199C81.7077 63.4512 81.584 62.9368 81.5059 62.377V59.3203C81.584 58.7214 81.7044 58.1745 81.8672 57.6797C82.0365 57.1784 82.2611 56.7454 82.541 56.3809C82.8275 56.0163 83.1725 55.7363 83.5762 55.541C83.9798 55.3392 84.4583 55.2383 85.0117 55.2383C85.5195 55.2383 85.9785 55.3294 86.3887 55.5117C86.7988 55.6875 87.1602 55.9414 87.4727 56.2734C87.7852 56.599 88.0456 56.9928 88.2539 57.4551C88.4622 57.9108 88.6185 58.4251 88.7227 58.998C88.8333 59.571 88.8887 60.1862 88.8887 60.8438ZM86.5352 61.0488V60.8438C86.5352 60.4336 86.5091 60.043 86.457 59.6719C86.4049 59.3008 86.3236 58.9622 86.2129 58.6562C86.1087 58.3438 85.972 58.0736 85.8027 57.8457C85.6335 57.6113 85.4284 57.4323 85.1875 57.3086C84.9531 57.1784 84.6797 57.1133 84.3672 57.1133C83.944 57.1133 83.5924 57.1849 83.3125 57.3281C83.0391 57.4648 82.8307 57.6602 82.6875 57.9141C82.5508 58.1615 82.4629 58.4479 82.4238 58.7734V62.9336C82.4694 63.207 82.5638 63.4479 82.707 63.6562C82.8568 63.8646 83.0684 64.0306 83.3418 64.1543C83.6152 64.2715 83.9635 64.3301 84.3867 64.3301C84.7773 64.3301 85.1061 64.2487 85.373 64.0859C85.6465 63.9167 85.8678 63.6823 86.0371 63.3828C86.2129 63.0833 86.3398 62.735 86.418 62.3379C86.4961 61.9408 86.5352 61.5111 86.5352 61.0488ZM75.9395 61.0488V60.8438C75.9395 60.1862 75.9915 59.571 76.0957 58.998C76.1999 58.4251 76.3561 57.9108 76.5645 57.4551C76.7793 56.9928 77.043 56.599 77.3555 56.2734C77.668 55.9414 78.0293 55.6875 78.4395 55.5117C78.8496 55.3294 79.3086 55.2383 79.8164 55.2383C80.3633 55.2383 80.8353 55.3392 81.2324 55.541C81.6296 55.7363 81.9648 56.0163 82.2383 56.3809C82.5182 56.7454 82.7396 57.1784 82.9023 57.6797C83.0716 58.1745 83.1953 58.7214 83.2734 59.3203V62.2598C83.2018 62.8327 83.0814 63.36 82.9121 63.8418C82.7428 64.3236 82.5215 64.7402 82.248 65.0918C81.9746 65.4434 81.6361 65.7168 81.2324 65.9121C80.8288 66.1074 80.3503 66.2051 79.7969 66.2051C79.1719 66.2051 78.6185 66.0781 78.1367 65.8242C77.6549 65.5703 77.2513 65.2122 76.9258 64.75C76.6003 64.2878 76.3529 63.7441 76.1836 63.1191C76.0208 62.4876 75.9395 61.7975 75.9395 61.0488ZM78.293 60.8438V61.0488C78.293 61.5111 78.3288 61.9408 78.4004 62.3379C78.4785 62.735 78.599 63.0833 78.7617 63.3828C78.9245 63.6758 79.1393 63.9069 79.4062 64.0762C79.6732 64.2454 80.002 64.3301 80.3926 64.3301C80.8223 64.3301 81.1738 64.265 81.4473 64.1348C81.7207 64.0046 81.929 63.8255 82.0723 63.5977C82.222 63.3698 82.3197 63.1094 82.3652 62.8164V58.7734C82.3262 58.4479 82.235 58.1615 82.0918 57.9141C81.9486 57.6602 81.7402 57.4648 81.4668 57.3281C81.1934 57.1849 80.8418 57.1133 80.4121 57.1133C80.0215 57.1133 79.6895 57.2109 79.416 57.4062C79.1491 57.6016 78.931 57.8717 78.7617 58.2168C78.599 58.5553 78.4785 58.9525 78.4004 59.4082C78.3288 59.8574 78.293 60.3359 78.293 60.8438ZM81.1836 70.0625V51H83.5469V70.0625H81.1836ZM93.8594 64.8477L96.7305 55.4336H99.25L95.0117 67.6113C94.9141 67.8717 94.7871 68.1549 94.6309 68.4609C94.4746 68.7669 94.2695 69.0566 94.0156 69.3301C93.7682 69.61 93.459 69.8346 93.0879 70.0039C92.7168 70.1797 92.2676 70.2676 91.7402 70.2676C91.5319 70.2676 91.3301 70.248 91.1348 70.209C90.946 70.1764 90.7669 70.1406 90.5977 70.1016L90.5879 68.3047C90.653 68.3112 90.7311 68.3177 90.8223 68.3242C90.9199 68.3307 90.998 68.334 91.0566 68.334C91.4473 68.334 91.7728 68.2852 92.0332 68.1875C92.2936 68.0964 92.5052 67.9466 92.668 67.7383C92.8372 67.5299 92.9805 67.25 93.0977 66.8984L93.8594 64.8477ZM92.2383 55.4336L94.748 63.3438L95.168 65.8242L93.5371 66.2441L89.6992 55.4336H92.2383ZM107.814 59.8477V61.7031H102.346V59.8477H107.814ZM103.029 55.4336V66H100.676V55.4336H103.029ZM109.514 55.4336V66H107.16V55.4336H109.514ZM114.562 55.4336V66H112.209V55.4336H114.562ZM121.457 55.4336L116.701 61.791H114.016L113.703 59.6621H115.666L118.518 55.4336H121.457ZM118.703 66L115.52 61.3906L117.375 60.0527L121.799 66H118.703ZM123.156 66V55.4336H125.51V64.125H129.65V55.4336H132.014V66H123.156ZM133.449 64.1348L133.264 69.1348H131.105V66H129.836V64.1348H133.449ZM137.541 62.5625L141.691 55.4336H144.045V66H141.691V58.8613L137.541 66H135.188V55.4336H137.541V62.5625ZM146.086 60.834V60.6094C146.086 59.8477 146.197 59.1413 146.418 58.4902C146.639 57.8327 146.958 57.263 147.375 56.7812C147.798 56.293 148.312 55.9154 148.918 55.6484C149.53 55.375 150.22 55.2383 150.988 55.2383C151.763 55.2383 152.453 55.375 153.059 55.6484C153.671 55.9154 154.188 56.293 154.611 56.7812C155.035 57.263 155.357 57.8327 155.578 58.4902C155.799 59.1413 155.91 59.8477 155.91 60.6094V60.834C155.91 61.5957 155.799 62.3021 155.578 62.9531C155.357 63.6042 155.035 64.1738 154.611 64.6621C154.188 65.1439 153.674 65.5215 153.068 65.7949C152.463 66.0618 151.776 66.1953 151.008 66.1953C150.233 66.1953 149.54 66.0618 148.928 65.7949C148.322 65.5215 147.808 65.1439 147.385 64.6621C146.962 64.1738 146.639 63.6042 146.418 62.9531C146.197 62.3021 146.086 61.5957 146.086 60.834ZM148.439 60.6094V60.834C148.439 61.3092 148.488 61.7585 148.586 62.1816C148.684 62.6048 148.837 62.9759 149.045 63.2949C149.253 63.6139 149.52 63.8646 149.846 64.0469C150.171 64.2292 150.559 64.3203 151.008 64.3203C151.444 64.3203 151.822 64.2292 152.141 64.0469C152.466 63.8646 152.733 63.6139 152.941 63.2949C153.15 62.9759 153.303 62.6048 153.4 62.1816C153.505 61.7585 153.557 61.3092 153.557 60.834V60.6094C153.557 60.1406 153.505 59.6979 153.4 59.2812C153.303 58.8581 153.146 58.4837 152.932 58.1582C152.723 57.8327 152.456 57.5788 152.131 57.3965C151.812 57.2077 151.431 57.1133 150.988 57.1133C150.546 57.1133 150.161 57.2077 149.836 57.3965C149.517 57.5788 149.253 57.8327 149.045 58.1582C148.837 58.4837 148.684 58.8581 148.586 59.2812C148.488 59.6979 148.439 60.1406 148.439 60.6094ZM165.1 59.8477V61.7031H159.631V59.8477H165.1ZM160.314 55.4336V66H157.961V55.4336H160.314ZM166.799 55.4336V66H164.445V55.4336H166.799ZM175.266 63.8809V58.8418C175.266 58.4642 175.197 58.1387 175.061 57.8652C174.924 57.5918 174.715 57.3802 174.436 57.2305C174.162 57.0807 173.817 57.0059 173.4 57.0059C173.016 57.0059 172.684 57.071 172.404 57.2012C172.124 57.3314 171.906 57.5072 171.75 57.7285C171.594 57.9499 171.516 58.2005 171.516 58.4805H169.172C169.172 58.0638 169.273 57.6602 169.475 57.2695C169.676 56.8789 169.969 56.5306 170.354 56.2246C170.738 55.9186 171.197 55.6777 171.73 55.502C172.264 55.3262 172.863 55.2383 173.527 55.2383C174.322 55.2383 175.025 55.3717 175.637 55.6387C176.255 55.9056 176.74 56.3092 177.092 56.8496C177.45 57.3835 177.629 58.054 177.629 58.8613V63.5586C177.629 64.0404 177.661 64.4733 177.727 64.8574C177.798 65.235 177.899 65.5638 178.029 65.8438V66H175.617C175.507 65.7461 175.419 65.4238 175.354 65.0332C175.295 64.6361 175.266 64.252 175.266 63.8809ZM175.607 59.5742L175.627 61.0293H173.938C173.501 61.0293 173.117 61.0716 172.785 61.1562C172.453 61.2344 172.176 61.3516 171.955 61.5078C171.734 61.6641 171.568 61.8529 171.457 62.0742C171.346 62.2956 171.291 62.5462 171.291 62.8262C171.291 63.1061 171.356 63.3633 171.486 63.5977C171.617 63.8255 171.805 64.0046 172.053 64.1348C172.307 64.265 172.613 64.3301 172.971 64.3301C173.452 64.3301 173.872 64.2324 174.23 64.0371C174.595 63.8353 174.882 63.5911 175.09 63.3047C175.298 63.0117 175.409 62.735 175.422 62.4746L176.184 63.5195C176.105 63.7865 175.972 64.0729 175.783 64.3789C175.594 64.6849 175.347 64.9779 175.041 65.2578C174.742 65.5312 174.38 65.7559 173.957 65.9316C173.54 66.1074 173.059 66.1953 172.512 66.1953C171.822 66.1953 171.206 66.0586 170.666 65.7852C170.126 65.5052 169.702 65.1309 169.396 64.6621C169.09 64.1868 168.938 63.6497 168.938 63.0508C168.938 62.4909 169.042 61.9961 169.25 61.5664C169.465 61.1302 169.777 60.7656 170.188 60.4727C170.604 60.1797 171.112 59.9583 171.711 59.8086C172.31 59.6523 172.993 59.5742 173.762 59.5742H175.607ZM187.189 55.4336V57.3086H182.033V55.4336H187.189ZM189.035 55.4336V66H186.682V55.4336H189.035ZM181.457 55.4336H183.781L183.498 60.6582C183.459 61.4329 183.381 62.1165 183.264 62.709C183.153 63.2949 183.003 63.7995 182.814 64.2227C182.626 64.6393 182.395 64.9779 182.121 65.2383C181.848 65.4987 181.529 65.6908 181.164 65.8145C180.799 65.9382 180.389 66 179.934 66H179.201L179.191 64.0664L179.562 64.0371C179.803 64.0176 180.012 63.9557 180.188 63.8516C180.363 63.7409 180.513 63.5846 180.637 63.3828C180.767 63.181 180.871 62.9206 180.949 62.6016C181.034 62.2826 181.099 61.9049 181.145 61.4688C181.197 61.0326 181.236 60.5247 181.262 59.9453L181.457 55.4336ZM198.43 55.4336H200.783L200.666 59.1543C200.633 60.235 200.51 61.1628 200.295 61.9375C200.08 62.7122 199.8 63.3665 199.455 63.9004C199.11 64.4277 198.719 64.8607 198.283 65.1992C197.854 65.5378 197.401 65.8047 196.926 66H196.232V64.1445L196.564 64.125C196.844 63.8255 197.085 63.526 197.287 63.2266C197.495 62.9206 197.671 62.5853 197.814 62.2207C197.958 61.8496 198.068 61.4167 198.146 60.9219C198.231 60.4271 198.286 59.8379 198.312 59.1543L198.43 55.4336ZM199.055 55.4336H205.754V66H203.41V57.4258H199.055V55.4336ZM195.695 64.125H207.199V69.1445H204.846V66H198.078V69.1445H195.686L195.695 64.125ZM208.43 60.834V60.6094C208.43 59.8477 208.54 59.1413 208.762 58.4902C208.983 57.8327 209.302 57.263 209.719 56.7812C210.142 56.293 210.656 55.9154 211.262 55.6484C211.874 55.375 212.564 55.2383 213.332 55.2383C214.107 55.2383 214.797 55.375 215.402 55.6484C216.014 55.9154 216.532 56.293 216.955 56.7812C217.378 57.263 217.701 57.8327 217.922 58.4902C218.143 59.1413 218.254 59.8477 218.254 60.6094V60.834C218.254 61.5957 218.143 62.3021 217.922 62.9531C217.701 63.6042 217.378 64.1738 216.955 64.6621C216.532 65.1439 216.018 65.5215 215.412 65.7949C214.807 66.0618 214.12 66.1953 213.352 66.1953C212.577 66.1953 211.883 66.0618 211.271 65.7949C210.666 65.5215 210.152 65.1439 209.729 64.6621C209.305 64.1738 208.983 63.6042 208.762 62.9531C208.54 62.3021 208.43 61.5957 208.43 60.834ZM210.783 60.6094V60.834C210.783 61.3092 210.832 61.7585 210.93 62.1816C211.027 62.6048 211.18 62.9759 211.389 63.2949C211.597 63.6139 211.864 63.8646 212.189 64.0469C212.515 64.2292 212.902 64.3203 213.352 64.3203C213.788 64.3203 214.165 64.2292 214.484 64.0469C214.81 63.8646 215.077 63.6139 215.285 63.2949C215.493 62.9759 215.646 62.6048 215.744 62.1816C215.848 61.7585 215.9 61.3092 215.9 60.834V60.6094C215.9 60.1406 215.848 59.6979 215.744 59.2812C215.646 58.8581 215.49 58.4837 215.275 58.1582C215.067 57.8327 214.8 57.5788 214.475 57.3965C214.156 57.2077 213.775 57.1133 213.332 57.1133C212.889 57.1133 212.505 57.2077 212.18 57.3965C211.861 57.5788 211.597 57.8327 211.389 58.1582C211.18 58.4837 211.027 58.8581 210.93 59.2812C210.832 59.6979 210.783 60.1406 210.783 60.6094ZM227.17 55.4336V57.3086H222.014V55.4336H227.17ZM229.016 55.4336V66H226.662V55.4336H229.016ZM221.438 55.4336H223.762L223.479 60.6582C223.439 61.4329 223.361 62.1165 223.244 62.709C223.133 63.2949 222.984 63.7995 222.795 64.2227C222.606 64.6393 222.375 64.9779 222.102 65.2383C221.828 65.4987 221.509 65.6908 221.145 65.8145C220.78 65.9382 220.37 66 219.914 66H219.182L219.172 64.0664L219.543 64.0371C219.784 64.0176 219.992 63.9557 220.168 63.8516C220.344 63.7409 220.493 63.5846 220.617 63.3828C220.747 63.181 220.852 62.9206 220.93 62.6016C221.014 62.2826 221.079 61.9049 221.125 61.4688C221.177 61.0326 221.216 60.5247 221.242 59.9453L221.438 55.4336ZM235.021 61.7324L230.803 55.4336H233.693L236.154 59.5938H238.215L237.912 61.7324H235.021ZM236.213 61.3906L233.508 66H230.617L234.445 60.0527L236.213 61.3906ZM239.631 55.4336V66H237.287V55.4336H239.631ZM246.145 55.4336L241.926 61.7324H239.025L238.713 59.5938H240.783L243.244 55.4336H246.145ZM243.43 66L240.715 61.3906L242.541 60.0527L246.35 66H243.43ZM252.307 66.1953C251.525 66.1953 250.819 66.0684 250.188 65.8145C249.562 65.554 249.029 65.1927 248.586 64.7305C248.15 64.2682 247.814 63.7246 247.58 63.0996C247.346 62.4746 247.229 61.8008 247.229 61.0781V60.6875C247.229 59.8607 247.349 59.112 247.59 58.4414C247.831 57.7708 248.166 57.1979 248.596 56.7227C249.025 56.2409 249.533 55.873 250.119 55.6191C250.705 55.3652 251.34 55.2383 252.023 55.2383C252.779 55.2383 253.439 55.3652 254.006 55.6191C254.572 55.873 255.041 56.2311 255.412 56.6934C255.79 57.1491 256.07 57.6927 256.252 58.3242C256.441 58.9557 256.535 59.6523 256.535 60.4141V61.4199H248.371V59.7305H254.211V59.5449C254.198 59.1217 254.113 58.7246 253.957 58.3535C253.807 57.9824 253.576 57.6829 253.264 57.4551C252.951 57.2272 252.535 57.1133 252.014 57.1133C251.623 57.1133 251.275 57.1979 250.969 57.3672C250.669 57.5299 250.419 57.7676 250.217 58.0801C250.015 58.3926 249.859 58.7702 249.748 59.2129C249.644 59.6491 249.592 60.1406 249.592 60.6875V61.0781C249.592 61.5404 249.654 61.9701 249.777 62.3672C249.908 62.7578 250.096 63.0996 250.344 63.3926C250.591 63.6855 250.891 63.9167 251.242 64.0859C251.594 64.2487 251.994 64.3301 252.443 64.3301C253.01 64.3301 253.514 64.2161 253.957 63.9883C254.4 63.7604 254.784 63.4382 255.109 63.0215L256.35 64.2227C256.122 64.5547 255.826 64.8737 255.461 65.1797C255.096 65.4792 254.65 65.7233 254.123 65.9121C253.602 66.1009 252.997 66.1953 252.307 66.1953ZM265.588 59.8477V61.7031H260.119V59.8477H265.588ZM260.803 55.4336V66H258.449V55.4336H260.803ZM267.287 55.4336V66H264.934V55.4336H267.287ZM20.8418 73.8047H22.7461C22.7461 74.3841 22.6647 74.8626 22.502 75.2402C22.3457 75.6113 22.1113 75.9173 21.7988 76.1582C21.4928 76.3926 21.112 76.5814 20.6562 76.7246C20.207 76.8678 19.6862 76.998 19.0938 77.1152C18.5469 77.2324 18.0521 77.418 17.6094 77.6719C17.1732 77.9193 16.8053 78.2676 16.5059 78.7168C16.2129 79.1595 16.0013 79.7292 15.8711 80.4258C15.7409 81.1224 15.7018 81.972 15.7539 82.9746V83.6387L13.8887 83.8047V83.1406C13.8887 81.8971 14.0026 80.8132 14.2305 79.8887C14.4583 78.9642 14.7806 78.1862 15.1973 77.5547C15.6204 76.9167 16.1217 76.4089 16.7012 76.0312C17.2871 75.6536 17.9382 75.3932 18.6543 75.25C19.1426 75.1458 19.5495 75.0417 19.875 74.9375C20.2005 74.8268 20.4414 74.6868 20.5977 74.5176C20.7604 74.3418 20.8418 74.1042 20.8418 73.8047ZM19.1914 79.0293C19.8945 79.0293 20.5195 79.153 21.0664 79.4004C21.6133 79.6413 22.0755 79.9798 22.4531 80.416C22.8307 80.8522 23.1172 81.3665 23.3125 81.959C23.5143 82.5514 23.6152 83.196 23.6152 83.8926V84.1074C23.6152 84.8366 23.5078 85.5104 23.293 86.1289C23.0781 86.7474 22.7624 87.2878 22.3457 87.75C21.929 88.2057 21.418 88.5638 20.8125 88.8242C20.2135 89.0781 19.5267 89.2051 18.752 89.2051C17.9837 89.2051 17.2969 89.0716 16.6914 88.8047C16.0859 88.5378 15.5749 88.1667 15.1582 87.6914C14.7415 87.2096 14.4258 86.6465 14.2109 86.002C13.9961 85.3574 13.8887 84.6543 13.8887 83.8926V83.6777C13.8822 83.541 13.918 83.4076 13.9961 83.2773C14.0807 83.1471 14.1816 83.0072 14.2988 82.8574C14.416 82.7077 14.5202 82.5352 14.6113 82.3398C14.9368 81.6823 15.321 81.1061 15.7637 80.6113C16.2064 80.1165 16.7109 79.7292 17.2773 79.4492C17.8503 79.1693 18.4883 79.0293 19.1914 79.0293ZM18.7324 80.8945C18.1465 80.8945 17.668 81.0345 17.2969 81.3145C16.9323 81.5879 16.6621 81.9525 16.4863 82.4082C16.3171 82.8639 16.2324 83.3587 16.2324 83.8926V84.1074C16.2324 84.5436 16.2812 84.957 16.3789 85.3477C16.4766 85.7383 16.623 86.0833 16.8184 86.3828C17.0202 86.6758 17.2806 86.9069 17.5996 87.0762C17.9251 87.2454 18.3092 87.3301 18.752 87.3301C19.2012 87.3301 19.582 87.2454 19.8945 87.0762C20.2135 86.9069 20.4707 86.6758 20.666 86.3828C20.8678 86.0833 21.0143 85.7383 21.1055 85.3477C21.2031 84.957 21.252 84.5436 21.252 84.1074V83.8926C21.252 83.4889 21.2031 83.1081 21.1055 82.75C21.0143 82.3919 20.8678 82.0762 20.666 81.8027C20.4642 81.5228 20.2038 81.3014 19.8848 81.1387C19.5658 80.9759 19.1816 80.8945 18.7324 80.8945ZM27.209 81.793H30.3242C31.2357 81.793 32.0104 81.946 32.6484 82.252C33.2865 82.5579 33.7715 82.9844 34.1035 83.5312C34.4421 84.0716 34.6113 84.6901 34.6113 85.3867C34.6113 85.901 34.5169 86.3796 34.3281 86.8223C34.1393 87.2585 33.8594 87.6393 33.4883 87.9648C33.1237 88.2904 32.6745 88.5443 32.1406 88.7266C31.6133 88.9089 31.0078 89 30.3242 89H25.6465V78.4336H28.0098V87.1348H30.3242C30.793 87.1348 31.1673 87.0534 31.4473 86.8906C31.7272 86.7279 31.929 86.5163 32.0527 86.2559C32.1829 85.9954 32.248 85.7188 32.248 85.4258C32.248 85.1263 32.1829 84.8431 32.0527 84.5762C31.929 84.3092 31.7272 84.0911 31.4473 83.9219C31.1673 83.7526 30.793 83.668 30.3242 83.668H27.209V81.793ZM38.7715 78.4336V89H36.418V78.4336H38.7715ZM46.457 78.4336V89H44.0938V78.4336H46.457ZM49.9238 78.4336V80.2891H40.6855V78.4336H49.9238ZM53.2441 81.793H56.3594C57.2708 81.793 58.0456 81.946 58.6836 82.252C59.3216 82.5579 59.8066 82.9844 60.1387 83.5312C60.4772 84.0716 60.6465 84.6901 60.6465 85.3867C60.6465 85.901 60.5521 86.3796 60.3633 86.8223C60.1745 87.2585 59.8945 87.6393 59.5234 87.9648C59.1589 88.2904 58.7096 88.5443 58.1758 88.7266C57.6484 88.9089 57.043 89 56.3594 89H51.6816V78.4336H54.0449V87.1348H56.3594C56.8281 87.1348 57.2025 87.0534 57.4824 86.8906C57.7624 86.7279 57.9642 86.5163 58.0879 86.2559C58.2181 85.9954 58.2832 85.7188 58.2832 85.4258C58.2832 85.1263 58.2181 84.8431 58.0879 84.5762C57.9642 84.3092 57.7624 84.0911 57.4824 83.9219C57.2025 83.7526 56.8281 83.668 56.3594 83.668H53.2441V81.793ZM70.5781 87.8477L73.4492 78.4336H75.9688L71.7305 90.6113C71.6328 90.8717 71.5059 91.1549 71.3496 91.4609C71.1934 91.7669 70.9883 92.0566 70.7344 92.3301C70.487 92.61 70.1777 92.8346 69.8066 93.0039C69.4355 93.1797 68.9863 93.2676 68.459 93.2676C68.2507 93.2676 68.0488 93.248 67.8535 93.209C67.6647 93.1764 67.4857 93.1406 67.3164 93.1016L67.3066 91.3047C67.3717 91.3112 67.4499 91.3177 67.541 91.3242C67.6387 91.3307 67.7168 91.334 67.7754 91.334C68.166 91.334 68.4915 91.2852 68.752 91.1875C69.0124 91.0964 69.224 90.9466 69.3867 90.7383C69.556 90.5299 69.6992 90.25 69.8164 89.8984L70.5781 87.8477ZM68.957 78.4336L71.4668 86.3438L71.8867 88.8242L70.2559 89.2441L66.418 78.4336H68.957ZM87.4336 84.4785H84.0547L84.0352 82.8184H86.8086C87.2643 82.8184 87.6387 82.7728 87.9316 82.6816C88.2311 82.5905 88.4525 82.4538 88.5957 82.2715C88.7389 82.0827 88.8105 81.8548 88.8105 81.5879C88.8105 81.3665 88.7682 81.1745 88.6836 81.0117C88.599 80.8424 88.4688 80.7057 88.293 80.6016C88.1237 80.4909 87.9089 80.4128 87.6484 80.3672C87.3945 80.3151 87.0983 80.2891 86.7598 80.2891H84.8359V89H82.4824V78.4336H86.7598C87.4368 78.4336 88.0456 78.4922 88.5859 78.6094C89.1328 78.7266 89.5983 78.9056 89.9824 79.1465C90.3665 79.3874 90.6595 79.6934 90.8613 80.0645C91.0697 80.429 91.1738 80.8587 91.1738 81.3535C91.1738 81.679 91.1022 81.985 90.959 82.2715C90.8223 82.5579 90.6172 82.8118 90.3438 83.0332C90.0703 83.2546 89.735 83.4368 89.3379 83.5801C88.9408 83.7168 88.485 83.8014 87.9707 83.834L87.4336 84.4785ZM87.4336 89H83.3711L84.3086 87.1445H87.4336C87.8503 87.1445 88.1953 87.0924 88.4688 86.9883C88.7422 86.8841 88.944 86.7344 89.0742 86.5391C89.2109 86.3372 89.2793 86.0996 89.2793 85.8262C89.2793 85.5462 89.2142 85.3053 89.084 85.1035C88.9538 84.9017 88.752 84.7487 88.4785 84.6445C88.2116 84.5339 87.8633 84.4785 87.4336 84.4785H84.748L84.7676 82.8184H87.9609L88.6348 83.4629C89.3053 83.5085 89.862 83.6517 90.3047 83.8926C90.7474 84.1335 91.0794 84.4362 91.3008 84.8008C91.5221 85.1654 91.6328 85.5625 91.6328 85.9922C91.6328 86.487 91.5384 86.9232 91.3496 87.3008C91.1673 87.6784 90.8939 87.9941 90.5293 88.248C90.1712 88.4954 89.7318 88.6842 89.2109 88.8145C88.6901 88.9382 88.0977 89 87.4336 89ZM99.6211 86.8809V81.8418C99.6211 81.4642 99.5527 81.1387 99.416 80.8652C99.2793 80.5918 99.071 80.3802 98.791 80.2305C98.5176 80.0807 98.1725 80.0059 97.7559 80.0059C97.3717 80.0059 97.0397 80.071 96.7598 80.2012C96.4798 80.3314 96.2617 80.5072 96.1055 80.7285C95.9492 80.9499 95.8711 81.2005 95.8711 81.4805H93.5273C93.5273 81.0638 93.6283 80.6602 93.8301 80.2695C94.0319 79.8789 94.3249 79.5306 94.709 79.2246C95.0931 78.9186 95.5521 78.6777 96.0859 78.502C96.6198 78.3262 97.2188 78.2383 97.8828 78.2383C98.6771 78.2383 99.3802 78.3717 99.9922 78.6387C100.611 78.9056 101.096 79.3092 101.447 79.8496C101.805 80.3835 101.984 81.054 101.984 81.8613V86.5586C101.984 87.0404 102.017 87.4733 102.082 87.8574C102.154 88.235 102.255 88.5638 102.385 88.8438V89H99.9727C99.862 88.7461 99.7741 88.4238 99.709 88.0332C99.6504 87.6361 99.6211 87.252 99.6211 86.8809ZM99.9629 82.5742L99.9824 84.0293H98.293C97.8568 84.0293 97.4727 84.0716 97.1406 84.1562C96.8086 84.2344 96.5319 84.3516 96.3105 84.5078C96.0892 84.6641 95.9232 84.8529 95.8125 85.0742C95.7018 85.2956 95.6465 85.5462 95.6465 85.8262C95.6465 86.1061 95.7116 86.3633 95.8418 86.5977C95.972 86.8255 96.1608 87.0046 96.4082 87.1348C96.6621 87.265 96.9681 87.3301 97.3262 87.3301C97.8079 87.3301 98.2279 87.2324 98.5859 87.0371C98.9505 86.8353 99.237 86.5911 99.4453 86.3047C99.6536 86.0117 99.7643 85.735 99.7773 85.4746L100.539 86.5195C100.461 86.7865 100.327 87.0729 100.139 87.3789C99.9499 87.6849 99.7025 87.9779 99.3965 88.2578C99.097 88.5312 98.7357 88.7559 98.3125 88.9316C97.8958 89.1074 97.4141 89.1953 96.8672 89.1953C96.1771 89.1953 95.5618 89.0586 95.0215 88.7852C94.4811 88.5052 94.0579 88.1309 93.752 87.6621C93.446 87.1868 93.293 86.6497 93.293 86.0508C93.293 85.4909 93.3971 84.9961 93.6055 84.5664C93.8203 84.1302 94.1328 83.7656 94.543 83.4727C94.9596 83.1797 95.4674 82.9583 96.0664 82.8086C96.6654 82.6523 97.349 82.5742 98.1172 82.5742H99.9629ZM104.523 78.4336H106.877V87.125H110.227V78.4336H112.6V87.125H115.939V78.4336H118.293V89H104.523V78.4336ZM125.49 89.1953C124.709 89.1953 124.003 89.0684 123.371 88.8145C122.746 88.554 122.212 88.1927 121.77 87.7305C121.333 87.2682 120.998 86.7246 120.764 86.0996C120.529 85.4746 120.412 84.8008 120.412 84.0781V83.6875C120.412 82.8607 120.533 82.112 120.773 81.4414C121.014 80.7708 121.35 80.1979 121.779 79.7227C122.209 79.2409 122.717 78.873 123.303 78.6191C123.889 78.3652 124.523 78.2383 125.207 78.2383C125.962 78.2383 126.623 78.3652 127.189 78.6191C127.756 78.873 128.225 79.2311 128.596 79.6934C128.973 80.1491 129.253 80.6927 129.436 81.3242C129.624 81.9557 129.719 82.6523 129.719 83.4141V84.4199H121.555V82.7305H127.395V82.5449C127.382 82.1217 127.297 81.7246 127.141 81.3535C126.991 80.9824 126.76 80.6829 126.447 80.4551C126.135 80.2272 125.718 80.1133 125.197 80.1133C124.807 80.1133 124.458 80.1979 124.152 80.3672C123.853 80.5299 123.602 80.7676 123.4 81.0801C123.199 81.3926 123.042 81.7702 122.932 82.2129C122.827 82.6491 122.775 83.1406 122.775 83.6875V84.0781C122.775 84.5404 122.837 84.9701 122.961 85.3672C123.091 85.7578 123.28 86.0996 123.527 86.3926C123.775 86.6855 124.074 86.9167 124.426 87.0859C124.777 87.2487 125.178 87.3301 125.627 87.3301C126.193 87.3301 126.698 87.2161 127.141 86.9883C127.583 86.7604 127.967 86.4382 128.293 86.0215L129.533 87.2227C129.305 87.5547 129.009 87.8737 128.645 88.1797C128.28 88.4792 127.834 88.7233 127.307 88.9121C126.786 89.1009 126.18 89.1953 125.49 89.1953ZM138.586 78.4336V80.3086H133.977V89H131.623V78.4336H138.586ZM139.309 83.834V83.6094C139.309 82.8477 139.419 82.1413 139.641 81.4902C139.862 80.8327 140.181 80.263 140.598 79.7812C141.021 79.293 141.535 78.9154 142.141 78.6484C142.753 78.375 143.443 78.2383 144.211 78.2383C144.986 78.2383 145.676 78.375 146.281 78.6484C146.893 78.9154 147.411 79.293 147.834 79.7812C148.257 80.263 148.579 80.8327 148.801 81.4902C149.022 82.1413 149.133 82.8477 149.133 83.6094V83.834C149.133 84.5957 149.022 85.3021 148.801 85.9531C148.579 86.6042 148.257 87.1738 147.834 87.6621C147.411 88.1439 146.896 88.5215 146.291 88.7949C145.686 89.0618 144.999 89.1953 144.23 89.1953C143.456 89.1953 142.762 89.0618 142.15 88.7949C141.545 88.5215 141.031 88.1439 140.607 87.6621C140.184 87.1738 139.862 86.6042 139.641 85.9531C139.419 85.3021 139.309 84.5957 139.309 83.834ZM141.662 83.6094V83.834C141.662 84.3092 141.711 84.7585 141.809 85.1816C141.906 85.6048 142.059 85.9759 142.268 86.2949C142.476 86.6139 142.743 86.8646 143.068 87.0469C143.394 87.2292 143.781 87.3203 144.23 87.3203C144.667 87.3203 145.044 87.2292 145.363 87.0469C145.689 86.8646 145.956 86.6139 146.164 86.2949C146.372 85.9759 146.525 85.6048 146.623 85.1816C146.727 84.7585 146.779 84.3092 146.779 83.834V83.6094C146.779 83.1406 146.727 82.6979 146.623 82.2812C146.525 81.8581 146.369 81.4837 146.154 81.1582C145.946 80.8327 145.679 80.5788 145.354 80.3965C145.035 80.2077 144.654 80.1133 144.211 80.1133C143.768 80.1133 143.384 80.2077 143.059 80.3965C142.74 80.5788 142.476 80.8327 142.268 81.1582C142.059 81.4837 141.906 81.8581 141.809 82.2812C141.711 82.6979 141.662 83.1406 141.662 83.6094ZM160.402 87.3203C160.786 87.3203 161.132 87.2454 161.438 87.0957C161.75 86.9395 162.001 86.7246 162.189 86.4512C162.385 86.1777 162.492 85.862 162.512 85.5039H164.729C164.715 86.1875 164.514 86.8092 164.123 87.3691C163.732 87.929 163.215 88.375 162.57 88.707C161.926 89.0326 161.213 89.1953 160.432 89.1953C159.624 89.1953 158.921 89.0586 158.322 88.7852C157.723 88.5052 157.225 88.1211 156.828 87.6328C156.431 87.1445 156.132 86.5814 155.93 85.9434C155.734 85.3053 155.637 84.6217 155.637 83.8926V83.5508C155.637 82.8216 155.734 82.138 155.93 81.5C156.132 80.8555 156.431 80.2891 156.828 79.8008C157.225 79.3125 157.723 78.9316 158.322 78.6582C158.921 78.3783 159.621 78.2383 160.422 78.2383C161.268 78.2383 162.01 78.4076 162.648 78.7461C163.286 79.0781 163.788 79.5436 164.152 80.1426C164.523 80.735 164.715 81.4251 164.729 82.2129H162.512C162.492 81.8223 162.395 81.4707 162.219 81.1582C162.049 80.8392 161.809 80.5853 161.496 80.3965C161.19 80.2077 160.822 80.1133 160.393 80.1133C159.917 80.1133 159.523 80.2109 159.211 80.4062C158.898 80.5951 158.654 80.8555 158.479 81.1875C158.303 81.513 158.176 81.8809 158.098 82.291C158.026 82.6947 157.99 83.1146 157.99 83.5508V83.8926C157.99 84.3288 158.026 84.752 158.098 85.1621C158.169 85.5723 158.293 85.9401 158.469 86.2656C158.651 86.5846 158.898 86.8418 159.211 87.0371C159.523 87.2259 159.921 87.3203 160.402 87.3203ZM172.492 86.8809V81.8418C172.492 81.4642 172.424 81.1387 172.287 80.8652C172.15 80.5918 171.942 80.3802 171.662 80.2305C171.389 80.0807 171.044 80.0059 170.627 80.0059C170.243 80.0059 169.911 80.071 169.631 80.2012C169.351 80.3314 169.133 80.5072 168.977 80.7285C168.82 80.9499 168.742 81.2005 168.742 81.4805H166.398C166.398 81.0638 166.499 80.6602 166.701 80.2695C166.903 79.8789 167.196 79.5306 167.58 79.2246C167.964 78.9186 168.423 78.6777 168.957 78.502C169.491 78.3262 170.09 78.2383 170.754 78.2383C171.548 78.2383 172.251 78.3717 172.863 78.6387C173.482 78.9056 173.967 79.3092 174.318 79.8496C174.676 80.3835 174.855 81.054 174.855 81.8613V86.5586C174.855 87.0404 174.888 87.4733 174.953 87.8574C175.025 88.235 175.126 88.5638 175.256 88.8438V89H172.844C172.733 88.7461 172.645 88.4238 172.58 88.0332C172.521 87.6361 172.492 87.252 172.492 86.8809ZM172.834 82.5742L172.854 84.0293H171.164C170.728 84.0293 170.344 84.0716 170.012 84.1562C169.68 84.2344 169.403 84.3516 169.182 84.5078C168.96 84.6641 168.794 84.8529 168.684 85.0742C168.573 85.2956 168.518 85.5462 168.518 85.8262C168.518 86.1061 168.583 86.3633 168.713 86.5977C168.843 86.8255 169.032 87.0046 169.279 87.1348C169.533 87.265 169.839 87.3301 170.197 87.3301C170.679 87.3301 171.099 87.2324 171.457 87.0371C171.822 86.8353 172.108 86.5911 172.316 86.3047C172.525 86.0117 172.635 85.735 172.648 85.4746L173.41 86.5195C173.332 86.7865 173.199 87.0729 173.01 87.3789C172.821 87.6849 172.574 87.9779 172.268 88.2578C171.968 88.5312 171.607 88.7559 171.184 88.9316C170.767 89.1074 170.285 89.1953 169.738 89.1953C169.048 89.1953 168.433 89.0586 167.893 88.7852C167.352 88.5052 166.929 88.1309 166.623 87.6621C166.317 87.1868 166.164 86.6497 166.164 86.0508C166.164 85.4909 166.268 84.9961 166.477 84.5664C166.691 84.1302 167.004 83.7656 167.414 83.4727C167.831 83.1797 168.339 82.9583 168.938 82.8086C169.536 82.6523 170.22 82.5742 170.988 82.5742H172.834ZM179.748 85.5625L183.898 78.4336H186.252V89H183.898V81.8613L179.748 89H177.395V78.4336H179.748V85.5625ZM183.273 74.3711H185.021C185.021 74.9115 184.891 75.39 184.631 75.8066C184.377 76.2168 184.012 76.5391 183.537 76.7734C183.068 77.0078 182.508 77.125 181.857 77.125C180.874 77.125 180.096 76.8711 179.523 76.3633C178.957 75.849 178.674 75.1849 178.674 74.3711H180.422C180.422 74.7357 180.529 75.0579 180.744 75.3379C180.965 75.6113 181.337 75.748 181.857 75.748C182.372 75.748 182.736 75.6113 182.951 75.3379C183.166 75.0579 183.273 74.7357 183.273 74.3711ZM193.645 78.4336V89H191.281V78.4336H193.645ZM197.111 78.4336V80.2891H187.873V78.4336H197.111ZM204.484 86.8809V81.8418C204.484 81.4642 204.416 81.1387 204.279 80.8652C204.143 80.5918 203.934 80.3802 203.654 80.2305C203.381 80.0807 203.036 80.0059 202.619 80.0059C202.235 80.0059 201.903 80.071 201.623 80.2012C201.343 80.3314 201.125 80.5072 200.969 80.7285C200.812 80.9499 200.734 81.2005 200.734 81.4805H198.391C198.391 81.0638 198.492 80.6602 198.693 80.2695C198.895 79.8789 199.188 79.5306 199.572 79.2246C199.956 78.9186 200.415 78.6777 200.949 78.502C201.483 78.3262 202.082 78.2383 202.746 78.2383C203.54 78.2383 204.243 78.3717 204.855 78.6387C205.474 78.9056 205.959 79.3092 206.311 79.8496C206.669 80.3835 206.848 81.054 206.848 81.8613V86.5586C206.848 87.0404 206.88 87.4733 206.945 87.8574C207.017 88.235 207.118 88.5638 207.248 88.8438V89H204.836C204.725 88.7461 204.637 88.4238 204.572 88.0332C204.514 87.6361 204.484 87.252 204.484 86.8809ZM204.826 82.5742L204.846 84.0293H203.156C202.72 84.0293 202.336 84.0716 202.004 84.1562C201.672 84.2344 201.395 84.3516 201.174 84.5078C200.952 84.6641 200.786 84.8529 200.676 85.0742C200.565 85.2956 200.51 85.5462 200.51 85.8262C200.51 86.1061 200.575 86.3633 200.705 86.5977C200.835 86.8255 201.024 87.0046 201.271 87.1348C201.525 87.265 201.831 87.3301 202.189 87.3301C202.671 87.3301 203.091 87.2324 203.449 87.0371C203.814 86.8353 204.1 86.5911 204.309 86.3047C204.517 86.0117 204.628 85.735 204.641 85.4746L205.402 86.5195C205.324 86.7865 205.191 87.0729 205.002 87.3789C204.813 87.6849 204.566 87.9779 204.26 88.2578C203.96 88.5312 203.599 88.7559 203.176 88.9316C202.759 89.1074 202.277 89.1953 201.73 89.1953C201.04 89.1953 200.425 89.0586 199.885 88.7852C199.344 88.5052 198.921 88.1309 198.615 87.6621C198.309 87.1868 198.156 86.6497 198.156 86.0508C198.156 85.4909 198.26 84.9961 198.469 84.5664C198.684 84.1302 198.996 83.7656 199.406 83.4727C199.823 83.1797 200.331 82.9583 200.93 82.8086C201.529 82.6523 202.212 82.5742 202.98 82.5742H204.826ZM213.713 84.8105H211.535C211.542 84.2051 211.594 83.6973 211.691 83.2871C211.789 82.8704 211.952 82.4928 212.18 82.1543C212.414 81.8158 212.723 81.4577 213.107 81.0801C213.407 80.7936 213.677 80.5234 213.918 80.2695C214.159 80.0091 214.351 79.7357 214.494 79.4492C214.637 79.1562 214.709 78.821 214.709 78.4434C214.709 78.0332 214.641 77.6849 214.504 77.3984C214.367 77.112 214.165 76.8939 213.898 76.7441C213.638 76.5944 213.312 76.5195 212.922 76.5195C212.596 76.5195 212.29 76.5846 212.004 76.7148C211.717 76.8385 211.486 77.0339 211.311 77.3008C211.135 77.5612 211.04 77.9062 211.027 78.3359H208.674C208.687 77.5156 208.882 76.8255 209.26 76.2656C209.637 75.7057 210.145 75.2858 210.783 75.0059C211.421 74.7259 212.134 74.5859 212.922 74.5859C213.794 74.5859 214.54 74.7357 215.158 75.0352C215.777 75.3281 216.249 75.7578 216.574 76.3242C216.906 76.8841 217.072 77.5612 217.072 78.3555C217.072 78.9284 216.958 79.4492 216.73 79.918C216.503 80.3802 216.206 80.8132 215.842 81.2168C215.477 81.6139 215.083 82.0111 214.66 82.4082C214.296 82.7402 214.048 83.1016 213.918 83.4922C213.788 83.8763 213.719 84.3158 213.713 84.8105ZM211.34 87.8574C211.34 87.5059 211.46 87.2096 211.701 86.9688C211.942 86.7214 212.271 86.5977 212.688 86.5977C213.104 86.5977 213.433 86.7214 213.674 86.9688C213.915 87.2096 214.035 87.5059 214.035 87.8574C214.035 88.209 213.915 88.5085 213.674 88.7559C213.433 88.9967 213.104 89.1172 212.688 89.1172C212.271 89.1172 211.942 88.9967 211.701 88.7559C211.46 88.5085 211.34 88.209 211.34 87.8574Z" fill="#1C2127"/>
<path d="M4.9375 4.9375V22H2.00781V4.9375H4.9375ZM15.2031 4.9375L8.26562 14.6641H4.10547L3.70703 12.1094H6.63672L11.6055 4.9375H15.2031ZM12.2031 22L6.68359 14.2188L8.58203 11.957L15.7305 22H12.2031ZM24.2852 19.457V13.4102C24.2852 12.957 24.2031 12.5664 24.0391 12.2383C23.875 11.9102 23.625 11.6562 23.2891 11.4766C22.9609 11.2969 22.5469 11.207 22.0469 11.207C21.5859 11.207 21.1875 11.2852 20.8516 11.4414C20.5156 11.5977 20.2539 11.8086 20.0664 12.0742C19.8789 12.3398 19.7852 12.6406 19.7852 12.9766H16.9727C16.9727 12.4766 17.0938 11.9922 17.3359 11.5234C17.5781 11.0547 17.9297 10.6367 18.3906 10.2695C18.8516 9.90234 19.4023 9.61328 20.043 9.40234C20.6836 9.19141 21.4023 9.08594 22.1992 9.08594C23.1523 9.08594 23.9961 9.24609 24.7305 9.56641C25.4727 9.88672 26.0547 10.3711 26.4766 11.0195C26.9062 11.6602 27.1211 12.4648 27.1211 13.4336V19.0703C27.1211 19.6484 27.1602 20.168 27.2383 20.6289C27.3242 21.082 27.4453 21.4766 27.6016 21.8125V22H24.707C24.5742 21.6953 24.4688 21.3086 24.3906 20.8398C24.3203 20.3633 24.2852 19.9023 24.2852 19.457ZM24.6953 14.2891L24.7188 16.0352H22.6914C22.168 16.0352 21.707 16.0859 21.3086 16.1875C20.9102 16.2812 20.5781 16.4219 20.3125 16.6094C20.0469 16.7969 19.8477 17.0234 19.7148 17.2891C19.582 17.5547 19.5156 17.8555 19.5156 18.1914C19.5156 18.5273 19.5938 18.8359 19.75 19.1172C19.9062 19.3906 20.1328 19.6055 20.4297 19.7617C20.7344 19.918 21.1016 19.9961 21.5312 19.9961C22.1094 19.9961 22.6133 19.8789 23.043 19.6445C23.4805 19.4023 23.8242 19.1094 24.0742 18.7656C24.3242 18.4141 24.457 18.082 24.4727 17.7695L25.3867 19.0234C25.293 19.3438 25.1328 19.6875 24.9062 20.0547C24.6797 20.4219 24.3828 20.7734 24.0156 21.1094C23.6562 21.4375 23.2227 21.707 22.7148 21.918C22.2148 22.1289 21.6367 22.2344 20.9805 22.2344C20.1523 22.2344 19.4141 22.0703 18.7656 21.7422C18.1172 21.4062 17.6094 20.957 17.2422 20.3945C16.875 19.8242 16.6914 19.1797 16.6914 18.4609C16.6914 17.7891 16.8164 17.1953 17.0664 16.6797C17.3242 16.1562 17.6992 15.7188 18.1914 15.3672C18.6914 15.0156 19.3008 14.75 20.0195 14.5703C20.7383 14.3828 21.5586 14.2891 22.4805 14.2891H24.6953ZM38.5938 9.32031V11.5703H32.4062V9.32031H38.5938ZM40.8086 9.32031V22H37.9844V9.32031H40.8086ZM31.7148 9.32031H34.5039L34.1641 15.5898C34.1172 16.5195 34.0234 17.3398 33.8828 18.0508C33.75 18.7539 33.5703 19.3594 33.3438 19.8672C33.1172 20.3672 32.8398 20.7734 32.5117 21.0859C32.1836 21.3984 31.8008 21.6289 31.3633 21.7773C30.9258 21.9258 30.4336 22 29.8867 22H29.0078L28.9961 19.6797L29.4414 19.6445C29.7305 19.6211 29.9805 19.5469 30.1914 19.4219C30.4023 19.2891 30.582 19.1016 30.7305 18.8594C30.8867 18.6172 31.0117 18.3047 31.1055 17.9219C31.207 17.5391 31.2852 17.0859 31.3398 16.5625C31.4023 16.0391 31.4492 15.4297 31.4805 14.7344L31.7148 9.32031ZM45.9062 13.3516H49.6445C50.7383 13.3516 51.668 13.5352 52.4336 13.9023C53.1992 14.2695 53.7812 14.7812 54.1797 15.4375C54.5859 16.0859 54.7891 16.8281 54.7891 17.6641C54.7891 18.2812 54.6758 18.8555 54.4492 19.3867C54.2227 19.9102 53.8867 20.3672 53.4414 20.7578C53.0039 21.1484 52.4648 21.4531 51.8242 21.6719C51.1914 21.8906 50.4648 22 49.6445 22H44.0312V9.32031H46.8672V19.7617H49.6445C50.207 19.7617 50.6562 19.6641 50.9922 19.4688C51.3281 19.2734 51.5703 19.0195 51.7188 18.707C51.875 18.3945 51.9531 18.0625 51.9531 17.7109C51.9531 17.3516 51.875 17.0117 51.7188 16.6914C51.5703 16.3711 51.3281 16.1094 50.9922 15.9062C50.6562 15.7031 50.207 15.6016 49.6445 15.6016H45.9062V13.3516ZM60.0977 9.32031V22H57.2734V9.32031H60.0977ZM68.3711 9.32031L62.6641 16.9492H59.4414L59.0664 14.3945H61.4219L64.8438 9.32031H68.3711ZM65.0664 22L61.2461 16.4688L63.4727 14.8633L68.7812 22H65.0664ZM73.9961 20.6172L77.4414 9.32031H80.4648L75.3789 23.9336C75.2617 24.2461 75.1094 24.5859 74.9219 24.9531C74.7344 25.3203 74.4883 25.668 74.1836 25.9961C73.8867 26.332 73.5156 26.6016 73.0703 26.8047C72.625 27.0156 72.0859 27.1211 71.4531 27.1211C71.2031 27.1211 70.9609 27.0977 70.7266 27.0508C70.5 27.0117 70.2852 26.9688 70.082 26.9219L70.0703 24.7656C70.1484 24.7734 70.2422 24.7812 70.3516 24.7891C70.4688 24.7969 70.5625 24.8008 70.6328 24.8008C71.1016 24.8008 71.4922 24.7422 71.8047 24.625C72.1172 24.5156 72.3711 24.3359 72.5664 24.0859C72.7695 23.8359 72.9414 23.5 73.082 23.0781L73.9961 20.6172ZM72.0508 9.32031L75.0625 18.8125L75.5664 21.7891L73.6094 22.293L69.0039 9.32031H72.0508ZM90.1094 9.32031V11.5703H83.9219V9.32031H90.1094ZM92.3242 9.32031V22H89.5V9.32031H92.3242ZM83.2305 9.32031H86.0195L85.6797 15.5898C85.6328 16.5195 85.5391 17.3398 85.3984 18.0508C85.2656 18.7539 85.0859 19.3594 84.8594 19.8672C84.6328 20.3672 84.3555 20.7734 84.0273 21.0859C83.6992 21.3984 83.3164 21.6289 82.8789 21.7773C82.4414 21.9258 81.9492 22 81.4023 22H80.5234L80.5117 19.6797L80.957 19.6445C81.2461 19.6211 81.4961 19.5469 81.707 19.4219C81.918 19.2891 82.0977 19.1016 82.2461 18.8594C82.4023 18.6172 82.5273 18.3047 82.6211 17.9219C82.7227 17.5391 82.8008 17.0859 82.8555 16.5625C82.918 16.0391 82.9648 15.4297 82.9961 14.7344L83.2305 9.32031ZM97.9961 15.8008H100.926L97.3281 22H94.4102L97.9961 15.8008ZM100.059 9.32031H105.496V22H102.684V11.5469H100.059C99.5273 11.5469 99.0898 11.6406 98.7461 11.8281C98.4023 12.0078 98.1484 12.2461 97.9844 12.543C97.8203 12.832 97.7383 13.1289 97.7383 13.4336C97.7383 13.7383 97.8125 14.0312 97.9609 14.3125C98.1172 14.5938 98.3555 14.8242 98.6758 15.0039C99.0039 15.1836 99.4141 15.2734 99.9062 15.2734H103.633V17.3359H99.9062C99.125 17.3359 98.4258 17.2383 97.8086 17.043C97.1914 16.8398 96.668 16.5625 96.2383 16.2109C95.8086 15.8516 95.4805 15.4336 95.2539 14.957C95.0273 14.4727 94.9141 13.9453 94.9141 13.375C94.9141 12.7891 95.0312 12.25 95.2656 11.7578C95.5 11.2656 95.8359 10.8359 96.2734 10.4688C96.7188 10.1016 97.2578 9.82031 97.8906 9.625C98.5312 9.42188 99.2539 9.32031 100.059 9.32031ZM114.52 9.32031V22H111.684V9.32031H114.52ZM118.68 9.32031V11.5469H107.594V9.32031H118.68ZM119.582 15.8008V15.5312C119.582 14.6172 119.715 13.7695 119.98 12.9883C120.246 12.1992 120.629 11.5156 121.129 10.9375C121.637 10.3516 122.254 9.89844 122.98 9.57812C123.715 9.25 124.543 9.08594 125.465 9.08594C126.395 9.08594 127.223 9.25 127.949 9.57812C128.684 9.89844 129.305 10.3516 129.812 10.9375C130.32 11.5156 130.707 12.1992 130.973 12.9883C131.238 13.7695 131.371 14.6172 131.371 15.5312V15.8008C131.371 16.7148 131.238 17.5625 130.973 18.3438C130.707 19.125 130.32 19.8086 129.812 20.3945C129.305 20.9727 128.688 21.4258 127.961 21.7539C127.234 22.0742 126.41 22.2344 125.488 22.2344C124.559 22.2344 123.727 22.0742 122.992 21.7539C122.266 21.4258 121.648 20.9727 121.141 20.3945C120.633 19.8086 120.246 19.125 119.98 18.3438C119.715 17.5625 119.582 16.7148 119.582 15.8008ZM122.406 15.5312V15.8008C122.406 16.3711 122.465 16.9102 122.582 17.418C122.699 17.9258 122.883 18.3711 123.133 18.7539C123.383 19.1367 123.703 19.4375 124.094 19.6562C124.484 19.875 124.949 19.9844 125.488 19.9844C126.012 19.9844 126.465 19.875 126.848 19.6562C127.238 19.4375 127.559 19.1367 127.809 18.7539C128.059 18.3711 128.242 17.9258 128.359 17.418C128.484 16.9102 128.547 16.3711 128.547 15.8008V15.5312C128.547 14.9688 128.484 14.4375 128.359 13.9375C128.242 13.4297 128.055 12.9805 127.797 12.5898C127.547 12.1992 127.227 11.8945 126.836 11.6758C126.453 11.4492 125.996 11.3359 125.465 11.3359C124.934 11.3359 124.473 11.4492 124.082 11.6758C123.699 11.8945 123.383 12.1992 123.133 12.5898C122.883 12.9805 122.699 13.4297 122.582 13.9375C122.465 14.4375 122.406 14.9688 122.406 15.5312ZM136.574 11.7578V26.875H133.75V9.32031H136.352L136.574 11.7578ZM144.836 15.543V15.7891C144.836 16.7109 144.727 17.5664 144.508 18.3555C144.297 19.1367 143.98 19.8203 143.559 20.4062C143.145 20.9844 142.633 21.4336 142.023 21.7539C141.414 22.0742 140.711 22.2344 139.914 22.2344C139.125 22.2344 138.434 22.0898 137.84 21.8008C137.254 21.5039 136.758 21.0859 136.352 20.5469C135.945 20.0078 135.617 19.375 135.367 18.6484C135.125 17.9141 134.953 17.1094 134.852 16.2344V15.2852C134.953 14.3555 135.125 13.5117 135.367 12.7539C135.617 11.9961 135.945 11.3438 136.352 10.7969C136.758 10.25 137.254 9.82812 137.84 9.53125C138.426 9.23438 139.109 9.08594 139.891 9.08594C140.688 9.08594 141.395 9.24219 142.012 9.55469C142.629 9.85938 143.148 10.2969 143.57 10.8672C143.992 11.4297 144.309 12.1094 144.52 12.9062C144.73 13.6953 144.836 14.5742 144.836 15.543ZM142.012 15.7891V15.543C142.012 14.957 141.957 14.4141 141.848 13.9141C141.738 13.4062 141.566 12.9609 141.332 12.5781C141.098 12.1953 140.797 11.8984 140.43 11.6875C140.07 11.4688 139.637 11.3594 139.129 11.3594C138.629 11.3594 138.199 11.4453 137.84 11.6172C137.48 11.7812 137.18 12.0117 136.938 12.3086C136.695 12.6055 136.508 12.9531 136.375 13.3516C136.242 13.7422 136.148 14.168 136.094 14.6289V16.9023C136.188 17.4648 136.348 17.9805 136.574 18.4492C136.801 18.918 137.121 19.293 137.535 19.5742C137.957 19.8477 138.496 19.9844 139.152 19.9844C139.66 19.9844 140.094 19.875 140.453 19.6562C140.812 19.4375 141.105 19.1367 141.332 18.7539C141.566 18.3633 141.738 17.9141 141.848 17.4062C141.957 16.8984 142.012 16.3594 142.012 15.7891Z" fill="#1C2127"/>
<defs>
<filter id="filter0_d_438_282" x="9" y="104" width="282" height="47" filterUnits="userSpaceOnUse" color-interpolation-filters="sRGB">
<feFlood flood-opacity="0" result="BackgroundImageFix"/>
<feColorMatrix in="SourceAlpha" type="matrix" values="0 0 0 0 0 0 0 0 0 0 0 0 0 0 0 0 0 0 127 0" result="hardAlpha"/>
<feOffset dy="4"/>
<feGaussianBlur stdDeviation="2"/>
<feComposite in2="hardAlpha" operator="out"/>
<feColorMatrix type="matrix" values="0 0 0 0 0 0 0 0 0 0 0 0 0 0 0 0 0 0 0.25 0"/>
<feBlend mode="normal" in2="BackgroundImageFix" result="effect1_dropShadow_438_282"/>
<feBlend mode="normal" in="SourceGraphic" in2="effect1_dropShadow_438_282" result="shape"/>
</filter>
<filter id="filter1_d_438_282" x="9" y="168" width="282" height="47" filterUnits="userSpaceOnUse" color-interpolation-filters="sRGB">
<feFlood flood-opacity="0" result="BackgroundImageFix"/>
<feColorMatrix in="SourceAlpha" type="matrix" values="0 0 0 0 0 0 0 0 0 0 0 0 0 0 0 0 0 0 127 0" result="hardAlpha"/>
<feOffset dy="4"/>
<feGaussianBlur stdDeviation="2"/>
<feComposite in2="hardAlpha" operator="out"/>
<feColorMatrix type="matrix" values="0 0 0 0 0 0 0 0 0 0 0 0 0 0 0 0 0 0 0.25 0"/>
<feBlend mode="normal" in2="BackgroundImageFix" result="effect1_dropShadow_438_282"/>
<feBlend mode="normal" in="SourceGraphic" in2="effect1_dropShadow_438_282" result="shape"/>
</filter>
<filter id="filter2_d_438_282" x="9" y="232" width="282" height="47" filterUnits="userSpaceOnUse" color-interpolation-filters="sRGB">
<feFlood flood-opacity="0" result="BackgroundImageFix"/>
<feColorMatrix in="SourceAlpha" type="matrix" values="0 0 0 0 0 0 0 0 0 0 0 0 0 0 0 0 0 0 127 0" result="hardAlpha"/>
<feOffset dy="4"/>
<feGaussianBlur stdDeviation="2"/>
<feComposite in2="hardAlpha" operator="out"/>
<feColorMatrix type="matrix" values="0 0 0 0 0 0 0 0 0 0 0 0 0 0 0 0 0 0 0.25 0"/>
<feBlend mode="normal" in2="BackgroundImageFix" result="effect1_dropShadow_438_282"/>
<feBlend mode="normal" in="SourceGraphic" in2="effect1_dropShadow_438_282" result="shape"/>
</filter>
<filter id="filter3_d_438_282" x="9" y="296" width="282" height="47" filterUnits="userSpaceOnUse" color-interpolation-filters="sRGB">
<feFlood flood-opacity="0" result="BackgroundImageFix"/>
<feColorMatrix in="SourceAlpha" type="matrix" values="0 0 0 0 0 0 0 0 0 0 0 0 0 0 0 0 0 0 127 0" result="hardAlpha"/>
<feOffset dy="4"/>
<feGaussianBlur stdDeviation="2"/>
<feComposite in2="hardAlpha" operator="out"/>
<feColorMatrix type="matrix" values="0 0 0 0 0 0 0 0 0 0 0 0 0 0 0 0 0 0 0.25 0"/>
<feBlend mode="normal" in2="BackgroundImageFix" result="effect1_dropShadow_438_282"/>
<feBlend mode="normal" in="SourceGraphic" in2="effect1_dropShadow_438_282" result="shape"/>
</filter>
<filter id="filter4_d_438_282" x="9" y="360" width="282" height="47" filterUnits="userSpaceOnUse" color-interpolation-filters="sRGB">
<feFlood flood-opacity="0" result="BackgroundImageFix"/>
<feColorMatrix in="SourceAlpha" type="matrix" values="0 0 0 0 0 0 0 0 0 0 0 0 0 0 0 0 0 0 127 0" result="hardAlpha"/>
<feOffset dy="4"/>
<feGaussianBlur stdDeviation="2"/>
<feComposite in2="hardAlpha" operator="out"/>
<feColorMatrix type="matrix" values="0 0 0 0 0 0 0 0 0 0 0 0 0 0 0 0 0 0 0.25 0"/>
<feBlend mode="normal" in2="BackgroundImageFix" result="effect1_dropShadow_438_282"/>
<feBlend mode="normal" in="SourceGraphic" in2="effect1_dropShadow_438_282" result="shape"/>
</filter>
</defs>
</svg>
