<svg width="11" height="22" viewBox="0 0 11 22" fill="none" xmlns="http://www.w3.org/2000/svg">
<path fill-rule="evenodd" clip-rule="evenodd" d="M5.5 21.9995C8.54 21.9995 11 19.5395 11 16.4995V4.99951H9.5V16.4995C9.5 18.7095 7.71 20.4995 5.5 20.4995C3.29 20.4995 1.5 18.7095 1.5 16.4995V3.99951C1.5 2.61951 2.62 1.49951 4 1.49951C5.38 1.49951 6.5 2.61951 6.5 3.99951V14.4995C6.5 15.0495 6.05 15.4995 5.5 15.4995C4.95 15.4995 4.5 15.0495 4.5 14.4995V4.99951H3V14.4995C3 15.8795 4.12 16.9995 5.5 16.9995C6.88 16.9995 8 15.8795 8 14.4995V3.99951C8 1.78951 6.21 -0.000488281 4 -0.000488281C1.79 -0.000488281 0 1.78951 0 3.99951V16.4995C0 19.5395 2.46 21.9995 5.5 21.9995Z" fill="#1D1D1D"/>
</svg>
