<svg width="300" height="378" viewBox="0 0 300 378" fill="none" xmlns="http://www.w3.org/2000/svg">
<path d="M15.3555 13V13.9375C15.3555 15.2266 15.1875 16.3828 14.8516 17.4062C14.5156 18.4297 14.0352 19.3008 13.4102 20.0195C12.793 20.7383 12.0508 21.2891 11.1836 21.6719C10.3164 22.0469 9.35547 22.2344 8.30078 22.2344C7.25391 22.2344 6.29688 22.0469 5.42969 21.6719C4.57031 21.2891 3.82422 20.7383 3.19141 20.0195C2.55859 19.3008 2.06641 18.4297 1.71484 17.4062C1.37109 16.3828 1.19922 15.2266 1.19922 13.9375V13C1.19922 11.7109 1.37109 10.5586 1.71484 9.54297C2.05859 8.51953 2.54297 7.64844 3.16797 6.92969C3.80078 6.20312 4.54688 5.65234 5.40625 5.27734C6.27344 4.89453 7.23047 4.70312 8.27734 4.70312C9.33203 4.70312 10.293 4.89453 11.1602 5.27734C12.0273 5.65234 12.7734 6.20312 13.3984 6.92969C14.0234 7.64844 14.5039 8.51953 14.8398 9.54297C15.1836 10.5586 15.3555 11.7109 15.3555 13ZM12.4141 13.9375V12.9766C12.4141 12.0234 12.3203 11.1836 12.1328 10.457C11.9531 9.72266 11.6836 9.10938 11.3242 8.61719C10.9727 8.11719 10.5391 7.74219 10.0234 7.49219C9.50781 7.23438 8.92578 7.10547 8.27734 7.10547C7.62891 7.10547 7.05078 7.23438 6.54297 7.49219C6.03516 7.74219 5.60156 8.11719 5.24219 8.61719C4.89062 9.10938 4.62109 9.72266 4.43359 10.457C4.24609 11.1836 4.15234 12.0234 4.15234 12.9766V13.9375C4.15234 14.8906 4.24609 15.7344 4.43359 16.4688C4.62109 17.2031 4.89453 17.8242 5.25391 18.332C5.62109 18.832 6.05859 19.2109 6.56641 19.4688C7.07422 19.7188 7.65234 19.8438 8.30078 19.8438C8.95703 19.8438 9.53906 19.7188 10.0469 19.4688C10.5547 19.2109 10.9844 18.832 11.3359 18.332C11.6875 17.8242 11.9531 17.2031 12.1328 16.4688C12.3203 15.7344 12.4141 14.8906 12.4141 13.9375ZM25.9727 3.76562H28.2578C28.2578 4.46094 28.1602 5.03516 27.9648 5.48828C27.7773 5.93359 27.4961 6.30078 27.1211 6.58984C26.7539 6.87109 26.2969 7.09766 25.75 7.26953C25.2109 7.44141 24.5859 7.59766 23.875 7.73828C23.2188 7.87891 22.625 8.10156 22.0938 8.40625C21.5703 8.70312 21.1289 9.12109 20.7695 9.66016C20.418 10.1914 20.1641 10.875 20.0078 11.7109C19.8516 12.5469 19.8047 13.5664 19.8672 14.7695V15.5664L17.6289 15.7656V14.9688C17.6289 13.4766 17.7656 12.1758 18.0391 11.0664C18.3125 9.95703 18.6992 9.02344 19.1992 8.26562C19.707 7.5 20.3086 6.89063 21.0039 6.4375C21.707 5.98437 22.4883 5.67188 23.3477 5.5C23.9336 5.375 24.4219 5.25 24.8125 5.125C25.2031 4.99219 25.4922 4.82422 25.6797 4.62109C25.875 4.41016 25.9727 4.125 25.9727 3.76562ZM23.9922 10.0352C24.8359 10.0352 25.5859 10.1836 26.2422 10.4805C26.8984 10.7695 27.4531 11.1758 27.9062 11.6992C28.3594 12.2227 28.7031 12.8398 28.9375 13.5508C29.1797 14.2617 29.3008 15.0352 29.3008 15.8711V16.1289C29.3008 17.0039 29.1719 17.8125 28.9141 18.5547C28.6562 19.2969 28.2773 19.9453 27.7773 20.5C27.2773 21.0469 26.6641 21.4766 25.9375 21.7891C25.2188 22.0938 24.3945 22.2461 23.4648 22.2461C22.543 22.2461 21.7188 22.0859 20.9922 21.7656C20.2656 21.4453 19.6523 21 19.1523 20.4297C18.6523 19.8516 18.2734 19.1758 18.0156 18.4023C17.7578 17.6289 17.6289 16.7852 17.6289 15.8711V15.6133C17.6211 15.4492 17.6641 15.2891 17.7578 15.1328C17.8594 14.9766 17.9805 14.8086 18.1211 14.6289C18.2617 14.4492 18.3867 14.2422 18.4961 14.0078C18.8867 13.2188 19.3477 12.5273 19.8789 11.9336C20.4102 11.3398 21.0156 10.875 21.6953 10.5391C22.3828 10.2031 23.1484 10.0352 23.9922 10.0352ZM23.4414 12.2734C22.7383 12.2734 22.1641 12.4414 21.7188 12.7773C21.2812 13.1055 20.957 13.543 20.7461 14.0898C20.543 14.6367 20.4414 15.2305 20.4414 15.8711V16.1289C20.4414 16.6523 20.5 17.1484 20.6172 17.6172C20.7344 18.0859 20.9102 18.5 21.1445 18.8594C21.3867 19.2109 21.6992 19.4883 22.082 19.6914C22.4727 19.8945 22.9336 19.9961 23.4648 19.9961C24.0039 19.9961 24.4609 19.8945 24.8359 19.6914C25.2188 19.4883 25.5273 19.2109 25.7617 18.8594C26.0039 18.5 26.1797 18.0859 26.2891 17.6172C26.4062 17.1484 26.4648 16.6523 26.4648 16.1289V15.8711C26.4648 15.3867 26.4062 14.9297 26.2891 14.5C26.1797 14.0703 26.0039 13.6914 25.7617 13.3633C25.5195 13.0273 25.207 12.7617 24.8242 12.5664C24.4414 12.3711 23.9805 12.2734 23.4414 12.2734ZM34.1406 11.7578V26.875H31.3164V9.32031H33.918L34.1406 11.7578ZM42.4023 15.543V15.7891C42.4023 16.7109 42.293 17.5664 42.0742 18.3555C41.8633 19.1367 41.5469 19.8203 41.125 20.4062C40.7109 20.9844 40.1992 21.4336 39.5898 21.7539C38.9805 22.0742 38.2773 22.2344 37.4805 22.2344C36.6914 22.2344 36 22.0898 35.4062 21.8008C34.8203 21.5039 34.3242 21.0859 33.918 20.5469C33.5117 20.0078 33.1836 19.375 32.9336 18.6484C32.6914 17.9141 32.5195 17.1094 32.418 16.2344V15.2852C32.5195 14.3555 32.6914 13.5117 32.9336 12.7539C33.1836 11.9961 33.5117 11.3438 33.918 10.7969C34.3242 10.25 34.8203 9.82812 35.4062 9.53125C35.9922 9.23438 36.6758 9.08594 37.457 9.08594C38.2539 9.08594 38.9609 9.24219 39.5781 9.55469C40.1953 9.85938 40.7148 10.2969 41.1367 10.8672C41.5586 11.4297 41.875 12.1094 42.0859 12.9062C42.2969 13.6953 42.4023 14.5742 42.4023 15.543ZM39.5781 15.7891V15.543C39.5781 14.957 39.5234 14.4141 39.4141 13.9141C39.3047 13.4062 39.1328 12.9609 38.8984 12.5781C38.6641 12.1953 38.3633 11.8984 37.9961 11.6875C37.6367 11.4688 37.2031 11.3594 36.6953 11.3594C36.1953 11.3594 35.7656 11.4453 35.4062 11.6172C35.0469 11.7812 34.7461 12.0117 34.5039 12.3086C34.2617 12.6055 34.0742 12.9531 33.9414 13.3516C33.8086 13.7422 33.7148 14.168 33.6602 14.6289V16.9023C33.7539 17.4648 33.9141 17.9805 34.1406 18.4492C34.3672 18.918 34.6875 19.293 35.1016 19.5742C35.5234 19.8477 36.0625 19.9844 36.7188 19.9844C37.2266 19.9844 37.6602 19.875 38.0195 19.6562C38.3789 19.4375 38.6719 19.1367 38.8984 18.7539C39.1328 18.3633 39.3047 17.9141 39.4141 17.4062C39.5234 16.8984 39.5781 16.3594 39.5781 15.7891ZM51.9531 19.457V13.4102C51.9531 12.957 51.8711 12.5664 51.707 12.2383C51.543 11.9102 51.293 11.6562 50.957 11.4766C50.6289 11.2969 50.2148 11.207 49.7148 11.207C49.2539 11.207 48.8555 11.2852 48.5195 11.4414C48.1836 11.5977 47.9219 11.8086 47.7344 12.0742C47.5469 12.3398 47.4531 12.6406 47.4531 12.9766H44.6406C44.6406 12.4766 44.7617 11.9922 45.0039 11.5234C45.2461 11.0547 45.5977 10.6367 46.0586 10.2695C46.5195 9.90234 47.0703 9.61328 47.7109 9.40234C48.3516 9.19141 49.0703 9.08594 49.8672 9.08594C50.8203 9.08594 51.6641 9.24609 52.3984 9.56641C53.1406 9.88672 53.7227 10.3711 54.1445 11.0195C54.5742 11.6602 54.7891 12.4648 54.7891 13.4336V19.0703C54.7891 19.6484 54.8281 20.168 54.9062 20.6289C54.9922 21.082 55.1133 21.4766 55.2695 21.8125V22H52.375C52.2422 21.6953 52.1367 21.3086 52.0586 20.8398C51.9883 20.3633 51.9531 19.9023 51.9531 19.457ZM52.3633 14.2891L52.3867 16.0352H50.3594C49.8359 16.0352 49.375 16.0859 48.9766 16.1875C48.5781 16.2812 48.2461 16.4219 47.9805 16.6094C47.7148 16.7969 47.5156 17.0234 47.3828 17.2891C47.25 17.5547 47.1836 17.8555 47.1836 18.1914C47.1836 18.5273 47.2617 18.8359 47.418 19.1172C47.5742 19.3906 47.8008 19.6055 48.0977 19.7617C48.4023 19.918 48.7695 19.9961 49.1992 19.9961C49.7773 19.9961 50.2812 19.8789 50.7109 19.6445C51.1484 19.4023 51.4922 19.1094 51.7422 18.7656C51.9922 18.4141 52.125 18.082 52.1406 17.7695L53.0547 19.0234C52.9609 19.3438 52.8008 19.6875 52.5742 20.0547C52.3477 20.4219 52.0508 20.7734 51.6836 21.1094C51.3242 21.4375 50.8906 21.707 50.3828 21.918C49.8828 22.1289 49.3047 22.2344 48.6484 22.2344C47.8203 22.2344 47.082 22.0703 46.4336 21.7422C45.7852 21.4062 45.2773 20.957 44.9102 20.3945C44.543 19.8242 44.3594 19.1797 44.3594 18.4609C44.3594 17.7891 44.4844 17.1953 44.7344 16.6797C44.9922 16.1562 45.3672 15.7188 45.8594 15.3672C46.3594 15.0156 46.9688 14.75 47.6875 14.5703C48.4062 14.3828 49.2266 14.2891 50.1484 14.2891H52.3633ZM63.4375 9.32031V22H60.6016V9.32031H63.4375ZM67.5977 9.32031V11.5469H56.5117V9.32031H67.5977ZM78.1445 14.6172V16.8438H71.582V14.6172H78.1445ZM72.4023 9.32031V22H69.5781V9.32031H72.4023ZM80.1836 9.32031V22H77.3594V9.32031H80.1836ZM90.3438 19.457V13.4102C90.3438 12.957 90.2617 12.5664 90.0977 12.2383C89.9336 11.9102 89.6836 11.6562 89.3477 11.4766C89.0195 11.2969 88.6055 11.207 88.1055 11.207C87.6445 11.207 87.2461 11.2852 86.9102 11.4414C86.5742 11.5977 86.3125 11.8086 86.125 12.0742C85.9375 12.3398 85.8438 12.6406 85.8438 12.9766H83.0312C83.0312 12.4766 83.1523 11.9922 83.3945 11.5234C83.6367 11.0547 83.9883 10.6367 84.4492 10.2695C84.9102 9.90234 85.4609 9.61328 86.1016 9.40234C86.7422 9.19141 87.4609 9.08594 88.2578 9.08594C89.2109 9.08594 90.0547 9.24609 90.7891 9.56641C91.5312 9.88672 92.1133 10.3711 92.5352 11.0195C92.9648 11.6602 93.1797 12.4648 93.1797 13.4336V19.0703C93.1797 19.6484 93.2188 20.168 93.2969 20.6289C93.3828 21.082 93.5039 21.4766 93.6602 21.8125V22H90.7656C90.6328 21.6953 90.5273 21.3086 90.4492 20.8398C90.3789 20.3633 90.3438 19.9023 90.3438 19.457ZM90.7539 14.2891L90.7773 16.0352H88.75C88.2266 16.0352 87.7656 16.0859 87.3672 16.1875C86.9688 16.2812 86.6367 16.4219 86.3711 16.6094C86.1055 16.7969 85.9062 17.0234 85.7734 17.2891C85.6406 17.5547 85.5742 17.8555 85.5742 18.1914C85.5742 18.5273 85.6523 18.8359 85.8086 19.1172C85.9648 19.3906 86.1914 19.6055 86.4883 19.7617C86.793 19.918 87.1602 19.9961 87.5898 19.9961C88.168 19.9961 88.6719 19.8789 89.1016 19.6445C89.5391 19.4023 89.8828 19.1094 90.1328 18.7656C90.3828 18.4141 90.5156 18.082 90.5312 17.7695L91.4453 19.0234C91.3516 19.3438 91.1914 19.6875 90.9648 20.0547C90.7383 20.4219 90.4414 20.7734 90.0742 21.1094C89.7148 21.4375 89.2812 21.707 88.7734 21.918C88.2734 22.1289 87.6953 22.2344 87.0391 22.2344C86.2109 22.2344 85.4727 22.0703 84.8242 21.7422C84.1758 21.4062 83.668 20.957 83.3008 20.3945C82.9336 19.8242 82.75 19.1797 82.75 18.4609C82.75 17.7891 82.875 17.1953 83.125 16.6797C83.3828 16.1562 83.7578 15.7188 84.25 15.3672C84.75 15.0156 85.3594 14.75 86.0781 14.5703C86.7969 14.3828 87.6172 14.2891 88.5391 14.2891H90.7539ZM98.8047 15.8008H101.734L98.1367 22H95.2188L98.8047 15.8008ZM100.867 9.32031H106.305V22H103.492V11.5469H100.867C100.336 11.5469 99.8984 11.6406 99.5547 11.8281C99.2109 12.0078 98.957 12.2461 98.793 12.543C98.6289 12.832 98.5469 13.1289 98.5469 13.4336C98.5469 13.7383 98.6211 14.0312 98.7695 14.3125C98.9258 14.5938 99.1641 14.8242 99.4844 15.0039C99.8125 15.1836 100.223 15.2734 100.715 15.2734H104.441V17.3359H100.715C99.9336 17.3359 99.2344 17.2383 98.6172 17.043C98 16.8398 97.4766 16.5625 97.0469 16.2109C96.6172 15.8516 96.2891 15.4336 96.0625 14.957C95.8359 14.4727 95.7227 13.9453 95.7227 13.375C95.7227 12.7891 95.8398 12.25 96.0742 11.7578C96.3086 11.2656 96.6445 10.8359 97.082 10.4688C97.5273 10.1016 98.0664 9.82031 98.6992 9.625C99.3398 9.42188 100.062 9.32031 100.867 9.32031ZM120.602 19.9844C121.062 19.9844 121.477 19.8945 121.844 19.7148C122.219 19.5273 122.52 19.2695 122.746 18.9414C122.98 18.6133 123.109 18.2344 123.133 17.8047H125.793C125.777 18.625 125.535 19.3711 125.066 20.043C124.598 20.7148 123.977 21.25 123.203 21.6484C122.43 22.0391 121.574 22.2344 120.637 22.2344C119.668 22.2344 118.824 22.0703 118.105 21.7422C117.387 21.4062 116.789 20.9453 116.312 20.3594C115.836 19.7734 115.477 19.0977 115.234 18.332C115 17.5664 114.883 16.7461 114.883 15.8711V15.4609C114.883 14.5859 115 13.7656 115.234 13C115.477 12.2266 115.836 11.5469 116.312 10.9609C116.789 10.375 117.387 9.91797 118.105 9.58984C118.824 9.25391 119.664 9.08594 120.625 9.08594C121.641 9.08594 122.531 9.28906 123.297 9.69531C124.062 10.0938 124.664 10.6523 125.102 11.3711C125.547 12.082 125.777 12.9102 125.793 13.8555H123.133C123.109 13.3867 122.992 12.9648 122.781 12.5898C122.578 12.207 122.289 11.9023 121.914 11.6758C121.547 11.4492 121.105 11.3359 120.59 11.3359C120.02 11.3359 119.547 11.4531 119.172 11.6875C118.797 11.9141 118.504 12.2266 118.293 12.625C118.082 13.0156 117.93 13.457 117.836 13.9492C117.75 14.4336 117.707 14.9375 117.707 15.4609V15.8711C117.707 16.3945 117.75 16.9023 117.836 17.3945C117.922 17.8867 118.07 18.3281 118.281 18.7188C118.5 19.1016 118.797 19.4102 119.172 19.6445C119.547 19.8711 120.023 19.9844 120.602 19.9844ZM134.125 16.5742H130.07L130.047 14.582H133.375C133.922 14.582 134.371 14.5273 134.723 14.418C135.082 14.3086 135.348 14.1445 135.52 13.9258C135.691 13.6992 135.777 13.4258 135.777 13.1055C135.777 12.8398 135.727 12.6094 135.625 12.4141C135.523 12.2109 135.367 12.0469 135.156 11.9219C134.953 11.7891 134.695 11.6953 134.383 11.6406C134.078 11.5781 133.723 11.5469 133.316 11.5469H131.008V22H128.184V9.32031H133.316C134.129 9.32031 134.859 9.39062 135.508 9.53125C136.164 9.67188 136.723 9.88672 137.184 10.1758C137.645 10.4648 137.996 10.832 138.238 11.2773C138.488 11.7148 138.613 12.2305 138.613 12.8242C138.613 13.2148 138.527 13.582 138.355 13.9258C138.191 14.2695 137.945 14.5742 137.617 14.8398C137.289 15.1055 136.887 15.3242 136.41 15.4961C135.934 15.6602 135.387 15.7617 134.77 15.8008L134.125 16.5742ZM134.125 22H129.25L130.375 19.7734H134.125C134.625 19.7734 135.039 19.7109 135.367 19.5859C135.695 19.4609 135.938 19.2812 136.094 19.0469C136.258 18.8047 136.34 18.5195 136.34 18.1914C136.34 17.8555 136.262 17.5664 136.105 17.3242C135.949 17.082 135.707 16.8984 135.379 16.7734C135.059 16.6406 134.641 16.5742 134.125 16.5742H130.902L130.926 14.582H134.758L135.566 15.3555C136.371 15.4102 137.039 15.582 137.57 15.8711C138.102 16.1602 138.5 16.5234 138.766 16.9609C139.031 17.3984 139.164 17.875 139.164 18.3906C139.164 18.9844 139.051 19.5078 138.824 19.9609C138.605 20.4141 138.277 20.793 137.84 21.0977C137.41 21.3945 136.883 21.6211 136.258 21.7773C135.633 21.9258 134.922 22 134.125 22ZM144.273 15.8008H147.203L143.605 22H140.688L144.273 15.8008ZM146.336 9.32031H151.773V22H148.961V11.5469H146.336C145.805 11.5469 145.367 11.6406 145.023 11.8281C144.68 12.0078 144.426 12.2461 144.262 12.543C144.098 12.832 144.016 13.1289 144.016 13.4336C144.016 13.7383 144.09 14.0312 144.238 14.3125C144.395 14.5938 144.633 14.8242 144.953 15.0039C145.281 15.1836 145.691 15.2734 146.184 15.2734H149.91V17.3359H146.184C145.402 17.3359 144.703 17.2383 144.086 17.043C143.469 16.8398 142.945 16.5625 142.516 16.2109C142.086 15.8516 141.758 15.4336 141.531 14.957C141.305 14.4727 141.191 13.9453 141.191 13.375C141.191 12.7891 141.309 12.25 141.543 11.7578C141.777 11.2656 142.113 10.8359 142.551 10.4688C142.996 10.1016 143.535 9.82031 144.168 9.625C144.809 9.42188 145.531 9.32031 146.336 9.32031ZM160.164 15.9414H157.727V14.5117H159.695C160.195 14.5117 160.594 14.4453 160.891 14.3125C161.195 14.1797 161.41 13.9961 161.535 13.7617C161.668 13.5195 161.734 13.2383 161.734 12.918C161.734 12.6367 161.668 12.3711 161.535 12.1211C161.41 11.8633 161.195 11.6523 160.891 11.4883C160.586 11.3242 160.172 11.2422 159.648 11.2422C159.219 11.2422 158.832 11.3125 158.488 11.4531C158.152 11.5938 157.887 11.7891 157.691 12.0391C157.496 12.2891 157.398 12.5781 157.398 12.9062H154.574C154.574 12.1172 154.797 11.4375 155.242 10.8672C155.695 10.2969 156.301 9.85938 157.059 9.55469C157.816 9.25 158.648 9.09766 159.555 9.09766C160.328 9.09766 161.023 9.17969 161.641 9.34375C162.258 9.5 162.781 9.73438 163.211 10.0469C163.648 10.3516 163.98 10.7344 164.207 11.1953C164.441 11.6484 164.559 12.1758 164.559 12.7773C164.559 13.207 164.457 13.6133 164.254 13.9961C164.051 14.3789 163.758 14.7188 163.375 15.0156C162.992 15.3047 162.527 15.5312 161.98 15.6953C161.441 15.8594 160.836 15.9414 160.164 15.9414ZM157.727 15.1211H160.164C160.914 15.1211 161.578 15.1953 162.156 15.3438C162.734 15.4844 163.219 15.6953 163.609 15.9766C164 16.2578 164.293 16.6055 164.488 17.0195C164.691 17.4258 164.793 17.8945 164.793 18.4258C164.793 19.0195 164.664 19.5547 164.406 20.0312C164.156 20.5 163.797 20.8984 163.328 21.2266C162.867 21.5547 162.316 21.8047 161.676 21.9766C161.035 22.1484 160.328 22.2344 159.555 22.2344C158.711 22.2344 157.891 22.0938 157.094 21.8125C156.305 21.5312 155.652 21.0977 155.137 20.5117C154.629 19.918 154.375 19.1641 154.375 18.25H157.199C157.199 18.5703 157.297 18.8711 157.492 19.1523C157.688 19.4336 157.969 19.6641 158.336 19.8438C158.703 20.0156 159.145 20.1016 159.66 20.1016C160.191 20.1016 160.625 20.0195 160.961 19.8555C161.297 19.6836 161.547 19.4609 161.711 19.1875C161.875 18.9062 161.957 18.6094 161.957 18.2969C161.957 17.875 161.875 17.5352 161.711 17.2773C161.547 17.0195 161.297 16.832 160.961 16.7148C160.625 16.5898 160.203 16.5273 159.695 16.5273H157.727V15.1211ZM169.293 13.3516H173.031C174.125 13.3516 175.055 13.5352 175.82 13.9023C176.586 14.2695 177.168 14.7812 177.566 15.4375C177.973 16.0859 178.176 16.8281 178.176 17.6641C178.176 18.2812 178.062 18.8555 177.836 19.3867C177.609 19.9102 177.273 20.3672 176.828 20.7578C176.391 21.1484 175.852 21.4531 175.211 21.6719C174.578 21.8906 173.852 22 173.031 22H167.418V9.32031H170.254V19.7617H173.031C173.594 19.7617 174.043 19.6641 174.379 19.4688C174.715 19.2734 174.957 19.0195 175.105 18.707C175.262 18.3945 175.34 18.0625 175.34 17.7109C175.34 17.3516 175.262 17.0117 175.105 16.6914C174.957 16.3711 174.715 16.1094 174.379 15.9062C174.043 15.7031 173.594 15.6016 173.031 15.6016H169.293V13.3516Z" fill="#1C2127"/>
<rect x="0.5" y="38.5" width="299" height="38" rx="2.5" fill="white" stroke="#9FC7F0"/>
<path d="M15.3594 57.5312H12.1562L12.1406 56.7188H14.8984C15.4609 56.7188 15.9401 56.638 16.3359 56.4766C16.7318 56.3151 17.0312 56.0755 17.2344 55.7578C17.4427 55.4349 17.5469 55.0391 17.5469 54.5703C17.5469 54.0911 17.4453 53.6953 17.2422 53.3828C17.0391 53.0651 16.7344 52.8307 16.3281 52.6797C15.9219 52.5286 15.4115 52.4531 14.7969 52.4531H12.4062V63H11.4453V51.625H14.7969C15.375 51.625 15.8932 51.6823 16.3516 51.7969C16.8099 51.9115 17.2005 52.0911 17.5234 52.3359C17.8464 52.5807 18.0911 52.8906 18.2578 53.2656C18.4297 53.6354 18.5156 54.0781 18.5156 54.5938C18.5156 55.0625 18.4115 55.487 18.2031 55.8672C17.9948 56.2422 17.7005 56.5495 17.3203 56.7891C16.9453 57.0234 16.4948 57.1693 15.9688 57.2266L15.3594 57.5312ZM15.2891 63H11.8516L12.3438 62.1797H15.2891C15.8516 62.1797 16.3307 62.0859 16.7266 61.8984C17.1276 61.7057 17.4349 61.4323 17.6484 61.0781C17.862 60.724 17.9688 60.3021 17.9688 59.8125C17.9688 59.3802 17.875 58.9922 17.6875 58.6484C17.5 58.3047 17.2135 58.0339 16.8281 57.8359C16.4427 57.6328 15.9531 57.5312 15.3594 57.5312H13.3672L13.3828 56.7188H16.2031L16.375 57.0078C16.8854 57.0599 17.3307 57.2188 17.7109 57.4844C18.0964 57.7448 18.3932 58.0755 18.6016 58.4766C18.8151 58.8776 18.9219 59.3177 18.9219 59.7969C18.9219 60.4844 18.7682 61.0677 18.4609 61.5469C18.1589 62.0208 17.7344 62.3828 17.1875 62.6328C16.6458 62.8776 16.013 63 15.2891 63ZM26.1797 61.4844V57.125C26.1797 56.724 26.0964 56.3776 25.9297 56.0859C25.763 55.7943 25.5182 55.5703 25.1953 55.4141C24.8724 55.2578 24.474 55.1797 24 55.1797C23.5625 55.1797 23.1719 55.2578 22.8281 55.4141C22.4896 55.5651 22.2214 55.7708 22.0234 56.0312C21.8307 56.2865 21.7344 56.5703 21.7344 56.8828L20.7969 56.875C20.7969 56.5573 20.875 56.25 21.0312 55.9531C21.1875 55.6562 21.4089 55.3906 21.6953 55.1562C21.9818 54.9219 22.3229 54.737 22.7188 54.6016C23.1198 54.4609 23.5599 54.3906 24.0391 54.3906C24.6432 54.3906 25.1745 54.4922 25.6328 54.6953C26.0964 54.8984 26.4583 55.2031 26.7188 55.6094C26.9792 56.0156 27.1094 56.526 27.1094 57.1406V61.2266C27.1094 61.5182 27.1302 61.8203 27.1719 62.1328C27.2188 62.4453 27.2839 62.7031 27.3672 62.9062V63H26.375C26.3125 62.8125 26.263 62.5781 26.2266 62.2969C26.1953 62.0104 26.1797 61.7396 26.1797 61.4844ZM26.3984 58.0781L26.4141 58.7969H24.5781C24.099 58.7969 23.6693 58.8411 23.2891 58.9297C22.9141 59.013 22.5964 59.138 22.3359 59.3047C22.0755 59.4661 21.875 59.6615 21.7344 59.8906C21.599 60.1198 21.5312 60.3802 21.5312 60.6719C21.5312 60.974 21.6068 61.25 21.7578 61.5C21.9141 61.75 22.1328 61.9505 22.4141 62.1016C22.7005 62.2474 23.0391 62.3203 23.4297 62.3203C23.9505 62.3203 24.4089 62.224 24.8047 62.0312C25.2057 61.8385 25.5365 61.5859 25.7969 61.2734C26.0573 60.9609 26.2318 60.6198 26.3203 60.25L26.7266 60.7891C26.6589 61.0495 26.5339 61.3177 26.3516 61.5938C26.1745 61.8646 25.9427 62.1198 25.6562 62.3594C25.3698 62.5938 25.0312 62.7865 24.6406 62.9375C24.2552 63.0833 23.8177 63.1562 23.3281 63.1562C22.776 63.1562 22.2943 63.0521 21.8828 62.8438C21.4766 62.6354 21.1589 62.3516 20.9297 61.9922C20.7057 61.6276 20.5938 61.2161 20.5938 60.7578C20.5938 60.3411 20.6823 59.9688 20.8594 59.6406C21.0365 59.3073 21.2917 59.026 21.625 58.7969C21.9635 58.5625 22.3698 58.3854 22.8438 58.2656C23.3229 58.1406 23.8594 58.0781 24.4531 58.0781H26.3984ZM29.6797 54.5469H30.6094V62.1953H34.375V54.5469H35.3125V62.1953H39.0391V54.5469H39.9688V63H29.6797V54.5469ZM45.5859 63.1562C45.0339 63.1562 44.526 63.0547 44.0625 62.8516C43.6042 62.6484 43.2031 62.362 42.8594 61.9922C42.5208 61.6224 42.2578 61.1849 42.0703 60.6797C41.888 60.1693 41.7969 59.612 41.7969 59.0078V58.6719C41.7969 58.0208 41.8932 57.4323 42.0859 56.9062C42.2786 56.3802 42.5443 55.9297 42.8828 55.5547C43.2214 55.1797 43.6068 54.8932 44.0391 54.6953C44.4766 54.4922 44.9349 54.3906 45.4141 54.3906C45.9505 54.3906 46.4271 54.487 46.8438 54.6797C47.2604 54.8672 47.6094 55.1354 47.8906 55.4844C48.1771 55.8281 48.3932 56.237 48.5391 56.7109C48.6849 57.1797 48.7578 57.6979 48.7578 58.2656V58.8359H42.3594V58.0391H47.8281V57.9297C47.8177 57.4557 47.7214 57.013 47.5391 56.6016C47.362 56.1849 47.0964 55.8464 46.7422 55.5859C46.388 55.3255 45.9453 55.1953 45.4141 55.1953C45.0182 55.1953 44.6536 55.2786 44.3203 55.4453C43.9922 55.612 43.7083 55.8516 43.4688 56.1641C43.2344 56.4714 43.0521 56.8385 42.9219 57.2656C42.7969 57.6875 42.7344 58.1562 42.7344 58.6719V59.0078C42.7344 59.4766 42.8021 59.9141 42.9375 60.3203C43.0781 60.7214 43.276 61.0755 43.5312 61.3828C43.7917 61.6901 44.099 61.9297 44.4531 62.1016C44.8073 62.2734 45.1979 62.3594 45.625 62.3594C46.125 62.3594 46.5677 62.2682 46.9531 62.0859C47.3385 61.8984 47.6849 61.6042 47.9922 61.2031L48.5781 61.6562C48.3958 61.9271 48.1667 62.1771 47.8906 62.4062C47.6198 62.6354 47.2943 62.8177 46.9141 62.9531C46.5339 63.0885 46.0911 63.1562 45.5859 63.1562ZM55.4922 61.4844L60.0625 54.5469H61V63H60.0625V56.0625L55.4922 63H54.5703V54.5469H55.4922V61.4844ZM68.1797 61.7188L71.5391 54.5469H72.4688L68.5078 63H67.8516L63.8984 54.5469H64.8281L68.1797 61.7188ZM64.5391 54.5469V63H63.6094V54.5469H64.5391ZM71.7578 63V54.5469H72.6953V63H71.7578ZM77.0547 59.125H78.0859L75.7422 63H74.7109L77.0547 59.125ZM78.0469 54.5469H81.3672V63H80.4375V55.3438H78.0469C77.5521 55.3438 77.1484 55.4271 76.8359 55.5938C76.5286 55.7552 76.3021 55.9688 76.1562 56.2344C76.0156 56.5 75.9453 56.7839 75.9453 57.0859C75.9453 57.3724 76.0078 57.6458 76.1328 57.9062C76.263 58.1667 76.4635 58.3802 76.7344 58.5469C77.0052 58.7083 77.3568 58.7891 77.7891 58.7891H80.7734V59.5938H77.7891C77.3464 59.5938 76.9531 59.5312 76.6094 59.4062C76.2656 59.2812 75.974 59.1068 75.7344 58.8828C75.5 58.6536 75.3203 58.3854 75.1953 58.0781C75.0755 57.7656 75.0156 57.4297 75.0156 57.0703C75.0156 56.7057 75.0807 56.3724 75.2109 56.0703C75.3464 55.763 75.5417 55.4948 75.7969 55.2656C76.0573 55.0365 76.375 54.8594 76.75 54.7344C77.1302 54.6094 77.5625 54.5469 78.0469 54.5469Z" fill="#605F5F"/>
<rect x="0.5" y="87.5" width="299" height="38" rx="2.5" fill="white" stroke="#9FC7F0"/>
<path d="M15.3594 106.531H12.1562L12.1406 105.719H14.8984C15.4609 105.719 15.9401 105.638 16.3359 105.477C16.7318 105.315 17.0312 105.076 17.2344 104.758C17.4427 104.435 17.5469 104.039 17.5469 103.57C17.5469 103.091 17.4453 102.695 17.2422 102.383C17.0391 102.065 16.7344 101.831 16.3281 101.68C15.9219 101.529 15.4115 101.453 14.7969 101.453H12.4062V112H11.4453V100.625H14.7969C15.375 100.625 15.8932 100.682 16.3516 100.797C16.8099 100.911 17.2005 101.091 17.5234 101.336C17.8464 101.581 18.0911 101.891 18.2578 102.266C18.4297 102.635 18.5156 103.078 18.5156 103.594C18.5156 104.062 18.4115 104.487 18.2031 104.867C17.9948 105.242 17.7005 105.549 17.3203 105.789C16.9453 106.023 16.4948 106.169 15.9688 106.227L15.3594 106.531ZM15.2891 112H11.8516L12.3438 111.18H15.2891C15.8516 111.18 16.3307 111.086 16.7266 110.898C17.1276 110.706 17.4349 110.432 17.6484 110.078C17.862 109.724 17.9688 109.302 17.9688 108.812C17.9688 108.38 17.875 107.992 17.6875 107.648C17.5 107.305 17.2135 107.034 16.8281 106.836C16.4427 106.633 15.9531 106.531 15.3594 106.531H13.3672L13.3828 105.719H16.2031L16.375 106.008C16.8854 106.06 17.3307 106.219 17.7109 106.484C18.0964 106.745 18.3932 107.076 18.6016 107.477C18.8151 107.878 18.9219 108.318 18.9219 108.797C18.9219 109.484 18.7682 110.068 18.4609 110.547C18.1589 111.021 17.7344 111.383 17.1875 111.633C16.6458 111.878 16.013 112 15.2891 112ZM26.1797 110.484V106.125C26.1797 105.724 26.0964 105.378 25.9297 105.086C25.763 104.794 25.5182 104.57 25.1953 104.414C24.8724 104.258 24.474 104.18 24 104.18C23.5625 104.18 23.1719 104.258 22.8281 104.414C22.4896 104.565 22.2214 104.771 22.0234 105.031C21.8307 105.286 21.7344 105.57 21.7344 105.883L20.7969 105.875C20.7969 105.557 20.875 105.25 21.0312 104.953C21.1875 104.656 21.4089 104.391 21.6953 104.156C21.9818 103.922 22.3229 103.737 22.7188 103.602C23.1198 103.461 23.5599 103.391 24.0391 103.391C24.6432 103.391 25.1745 103.492 25.6328 103.695C26.0964 103.898 26.4583 104.203 26.7188 104.609C26.9792 105.016 27.1094 105.526 27.1094 106.141V110.227C27.1094 110.518 27.1302 110.82 27.1719 111.133C27.2188 111.445 27.2839 111.703 27.3672 111.906V112H26.375C26.3125 111.812 26.263 111.578 26.2266 111.297C26.1953 111.01 26.1797 110.74 26.1797 110.484ZM26.3984 107.078L26.4141 107.797H24.5781C24.099 107.797 23.6693 107.841 23.2891 107.93C22.9141 108.013 22.5964 108.138 22.3359 108.305C22.0755 108.466 21.875 108.661 21.7344 108.891C21.599 109.12 21.5312 109.38 21.5312 109.672C21.5312 109.974 21.6068 110.25 21.7578 110.5C21.9141 110.75 22.1328 110.951 22.4141 111.102C22.7005 111.247 23.0391 111.32 23.4297 111.32C23.9505 111.32 24.4089 111.224 24.8047 111.031C25.2057 110.839 25.5365 110.586 25.7969 110.273C26.0573 109.961 26.2318 109.62 26.3203 109.25L26.7266 109.789C26.6589 110.049 26.5339 110.318 26.3516 110.594C26.1745 110.865 25.9427 111.12 25.6562 111.359C25.3698 111.594 25.0312 111.786 24.6406 111.938C24.2552 112.083 23.8177 112.156 23.3281 112.156C22.776 112.156 22.2943 112.052 21.8828 111.844C21.4766 111.635 21.1589 111.352 20.9297 110.992C20.7057 110.628 20.5938 110.216 20.5938 109.758C20.5938 109.341 20.6823 108.969 20.8594 108.641C21.0365 108.307 21.2917 108.026 21.625 107.797C21.9635 107.562 22.3698 107.385 22.8438 107.266C23.3229 107.141 23.8594 107.078 24.4531 107.078H26.3984ZM29.6797 103.547H30.6094V111.195H34.375V103.547H35.3125V111.195H39.0391V103.547H39.9688V112H29.6797V103.547ZM49.4922 112.156C48.9401 112.156 48.4323 112.055 47.9688 111.852C47.5104 111.648 47.1094 111.362 46.7656 110.992C46.4271 110.622 46.1641 110.185 45.9766 109.68C45.7943 109.169 45.7031 108.612 45.7031 108.008V107.672C45.7031 107.021 45.7995 106.432 45.9922 105.906C46.1849 105.38 46.4505 104.93 46.7891 104.555C47.1276 104.18 47.513 103.893 47.9453 103.695C48.3828 103.492 48.8411 103.391 49.3203 103.391C49.8568 103.391 50.3333 103.487 50.75 103.68C51.1667 103.867 51.5156 104.135 51.7969 104.484C52.0833 104.828 52.2995 105.237 52.4453 105.711C52.5911 106.18 52.6641 106.698 52.6641 107.266V107.836H46.2656V107.039H51.7344V106.93C51.724 106.456 51.6276 106.013 51.4453 105.602C51.2682 105.185 51.0026 104.846 50.6484 104.586C50.2943 104.326 49.8516 104.195 49.3203 104.195C48.9245 104.195 48.5599 104.279 48.2266 104.445C47.8984 104.612 47.6146 104.852 47.375 105.164C47.1406 105.471 46.9583 105.839 46.8281 106.266C46.7031 106.688 46.6406 107.156 46.6406 107.672V108.008C46.6406 108.477 46.7083 108.914 46.8438 109.32C46.9844 109.721 47.1823 110.076 47.4375 110.383C47.6979 110.69 48.0052 110.93 48.3594 111.102C48.7135 111.273 49.1042 111.359 49.5312 111.359C50.0312 111.359 50.474 111.268 50.8594 111.086C51.2448 110.898 51.5911 110.604 51.8984 110.203L52.4844 110.656C52.3021 110.927 52.0729 111.177 51.7969 111.406C51.526 111.635 51.2005 111.818 50.8203 111.953C50.4401 112.089 49.9974 112.156 49.4922 112.156ZM57.4141 106.578V107.383H53.6719V106.578H57.4141ZM59.9844 105.297V112H59.0469V103.547H59.9453L59.9844 105.297ZM59.8125 107.25L59.3594 107.016C59.3906 106.516 59.4844 106.047 59.6406 105.609C59.8021 105.172 60.026 104.786 60.3125 104.453C60.599 104.12 60.9427 103.859 61.3438 103.672C61.7448 103.484 62.2005 103.391 62.7109 103.391C63.1224 103.391 63.4948 103.448 63.8281 103.562C64.1667 103.672 64.4531 103.846 64.6875 104.086C64.9271 104.32 65.112 104.628 65.2422 105.008C65.3724 105.388 65.4375 105.844 65.4375 106.375V112H64.5078V106.406C64.5078 105.844 64.4193 105.404 64.2422 105.086C64.0703 104.768 63.8281 104.542 63.5156 104.406C63.2083 104.271 62.8516 104.203 62.4453 104.203C61.9661 104.203 61.5599 104.302 61.2266 104.5C60.8984 104.693 60.6302 104.945 60.4219 105.258C60.2188 105.565 60.0677 105.896 59.9688 106.25C59.8698 106.599 59.8177 106.932 59.8125 107.25ZM65.4297 106.516L64.8047 106.531C64.8307 106.12 64.9245 105.727 65.0859 105.352C65.2526 104.977 65.4792 104.643 65.7656 104.352C66.0521 104.055 66.3932 103.82 66.7891 103.648C67.1901 103.477 67.6406 103.391 68.1406 103.391C68.5781 103.391 68.9688 103.451 69.3125 103.57C69.6562 103.685 69.9453 103.87 70.1797 104.125C70.4193 104.375 70.6016 104.695 70.7266 105.086C70.8516 105.477 70.9141 105.945 70.9141 106.492V112H69.9766V106.484C69.9766 105.885 69.888 105.422 69.7109 105.094C69.5391 104.76 69.2995 104.529 68.9922 104.398C68.6849 104.268 68.3255 104.203 67.9141 104.203C67.5078 104.208 67.151 104.284 66.8438 104.43C66.5365 104.57 66.2786 104.758 66.0703 104.992C65.8672 105.221 65.7109 105.469 65.6016 105.734C65.4974 106 65.4401 106.26 65.4297 106.516ZM78.4297 110.484V106.125C78.4297 105.724 78.3464 105.378 78.1797 105.086C78.013 104.794 77.7682 104.57 77.4453 104.414C77.1224 104.258 76.724 104.18 76.25 104.18C75.8125 104.18 75.4219 104.258 75.0781 104.414C74.7396 104.565 74.4714 104.771 74.2734 105.031C74.0807 105.286 73.9844 105.57 73.9844 105.883L73.0469 105.875C73.0469 105.557 73.125 105.25 73.2812 104.953C73.4375 104.656 73.6589 104.391 73.9453 104.156C74.2318 103.922 74.5729 103.737 74.9688 103.602C75.3698 103.461 75.8099 103.391 76.2891 103.391C76.8932 103.391 77.4245 103.492 77.8828 103.695C78.3464 103.898 78.7083 104.203 78.9688 104.609C79.2292 105.016 79.3594 105.526 79.3594 106.141V110.227C79.3594 110.518 79.3802 110.82 79.4219 111.133C79.4688 111.445 79.5339 111.703 79.6172 111.906V112H78.625C78.5625 111.812 78.513 111.578 78.4766 111.297C78.4453 111.01 78.4297 110.74 78.4297 110.484ZM78.6484 107.078L78.6641 107.797H76.8281C76.349 107.797 75.9193 107.841 75.5391 107.93C75.1641 108.013 74.8464 108.138 74.5859 108.305C74.3255 108.466 74.125 108.661 73.9844 108.891C73.849 109.12 73.7812 109.38 73.7812 109.672C73.7812 109.974 73.8568 110.25 74.0078 110.5C74.1641 110.75 74.3828 110.951 74.6641 111.102C74.9505 111.247 75.2891 111.32 75.6797 111.32C76.2005 111.32 76.6589 111.224 77.0547 111.031C77.4557 110.839 77.7865 110.586 78.0469 110.273C78.3073 109.961 78.4818 109.62 78.5703 109.25L78.9766 109.789C78.9089 110.049 78.7839 110.318 78.6016 110.594C78.4245 110.865 78.1927 111.12 77.9062 111.359C77.6198 111.594 77.2812 111.786 76.8906 111.938C76.5052 112.083 76.0677 112.156 75.5781 112.156C75.026 112.156 74.5443 112.052 74.1328 111.844C73.7266 111.635 73.4089 111.352 73.1797 110.992C72.9557 110.628 72.8438 110.216 72.8438 109.758C72.8438 109.341 72.9323 108.969 73.1094 108.641C73.2865 108.307 73.5417 108.026 73.875 107.797C74.2135 107.562 74.6198 107.385 75.0938 107.266C75.5729 107.141 76.1094 107.078 76.7031 107.078H78.6484ZM82.9062 103.547V112H81.9766V103.547H82.9062ZM81.8125 101.102C81.8125 100.924 81.8672 100.776 81.9766 100.656C82.0911 100.531 82.2474 100.469 82.4453 100.469C82.6432 100.469 82.7995 100.531 82.9141 100.656C83.0339 100.776 83.0938 100.924 83.0938 101.102C83.0938 101.273 83.0339 101.422 82.9141 101.547C82.7995 101.667 82.6432 101.727 82.4453 101.727C82.2474 101.727 82.0911 101.667 81.9766 101.547C81.8672 101.422 81.8125 101.273 81.8125 101.102ZM86.5 100V112H85.5703V100H86.5Z" fill="#605F5F"/>
<rect x="0.5" y="136.5" width="299" height="160" rx="2.5" fill="white" stroke="#9FC7F0"/>
<path d="M15.3594 155.531H12.1562L12.1406 154.719H14.8984C15.4609 154.719 15.9401 154.638 16.3359 154.477C16.7318 154.315 17.0312 154.076 17.2344 153.758C17.4427 153.435 17.5469 153.039 17.5469 152.57C17.5469 152.091 17.4453 151.695 17.2422 151.383C17.0391 151.065 16.7344 150.831 16.3281 150.68C15.9219 150.529 15.4115 150.453 14.7969 150.453H12.4062V161H11.4453V149.625H14.7969C15.375 149.625 15.8932 149.682 16.3516 149.797C16.8099 149.911 17.2005 150.091 17.5234 150.336C17.8464 150.581 18.0911 150.891 18.2578 151.266C18.4297 151.635 18.5156 152.078 18.5156 152.594C18.5156 153.062 18.4115 153.487 18.2031 153.867C17.9948 154.242 17.7005 154.549 17.3203 154.789C16.9453 155.023 16.4948 155.169 15.9688 155.227L15.3594 155.531ZM15.2891 161H11.8516L12.3438 160.18H15.2891C15.8516 160.18 16.3307 160.086 16.7266 159.898C17.1276 159.706 17.4349 159.432 17.6484 159.078C17.862 158.724 17.9688 158.302 17.9688 157.812C17.9688 157.38 17.875 156.992 17.6875 156.648C17.5 156.305 17.2135 156.034 16.8281 155.836C16.4427 155.633 15.9531 155.531 15.3594 155.531H13.3672L13.3828 154.719H16.2031L16.375 155.008C16.8854 155.06 17.3307 155.219 17.7109 155.484C18.0964 155.745 18.3932 156.076 18.6016 156.477C18.8151 156.878 18.9219 157.318 18.9219 157.797C18.9219 158.484 18.7682 159.068 18.4609 159.547C18.1589 160.021 17.7344 160.383 17.1875 160.633C16.6458 160.878 16.013 161 15.2891 161ZM26.1797 159.484V155.125C26.1797 154.724 26.0964 154.378 25.9297 154.086C25.763 153.794 25.5182 153.57 25.1953 153.414C24.8724 153.258 24.474 153.18 24 153.18C23.5625 153.18 23.1719 153.258 22.8281 153.414C22.4896 153.565 22.2214 153.771 22.0234 154.031C21.8307 154.286 21.7344 154.57 21.7344 154.883L20.7969 154.875C20.7969 154.557 20.875 154.25 21.0312 153.953C21.1875 153.656 21.4089 153.391 21.6953 153.156C21.9818 152.922 22.3229 152.737 22.7188 152.602C23.1198 152.461 23.5599 152.391 24.0391 152.391C24.6432 152.391 25.1745 152.492 25.6328 152.695C26.0964 152.898 26.4583 153.203 26.7188 153.609C26.9792 154.016 27.1094 154.526 27.1094 155.141V159.227C27.1094 159.518 27.1302 159.82 27.1719 160.133C27.2188 160.445 27.2839 160.703 27.3672 160.906V161H26.375C26.3125 160.812 26.263 160.578 26.2266 160.297C26.1953 160.01 26.1797 159.74 26.1797 159.484ZM26.3984 156.078L26.4141 156.797H24.5781C24.099 156.797 23.6693 156.841 23.2891 156.93C22.9141 157.013 22.5964 157.138 22.3359 157.305C22.0755 157.466 21.875 157.661 21.7344 157.891C21.599 158.12 21.5312 158.38 21.5312 158.672C21.5312 158.974 21.6068 159.25 21.7578 159.5C21.9141 159.75 22.1328 159.951 22.4141 160.102C22.7005 160.247 23.0391 160.32 23.4297 160.32C23.9505 160.32 24.4089 160.224 24.8047 160.031C25.2057 159.839 25.5365 159.586 25.7969 159.273C26.0573 158.961 26.2318 158.62 26.3203 158.25L26.7266 158.789C26.6589 159.049 26.5339 159.318 26.3516 159.594C26.1745 159.865 25.9427 160.12 25.6562 160.359C25.3698 160.594 25.0312 160.786 24.6406 160.938C24.2552 161.083 23.8177 161.156 23.3281 161.156C22.776 161.156 22.2943 161.052 21.8828 160.844C21.4766 160.635 21.1589 160.352 20.9297 159.992C20.7057 159.628 20.5938 159.216 20.5938 158.758C20.5938 158.341 20.6823 157.969 20.8594 157.641C21.0365 157.307 21.2917 157.026 21.625 156.797C21.9635 156.562 22.3698 156.385 22.8438 156.266C23.3229 156.141 23.8594 156.078 24.4531 156.078H26.3984ZM29.6797 152.547H30.6094V160.195H34.375V152.547H35.3125V160.195H39.0391V152.547H39.9688V161H29.6797V152.547ZM45.5859 161.156C45.0339 161.156 44.526 161.055 44.0625 160.852C43.6042 160.648 43.2031 160.362 42.8594 159.992C42.5208 159.622 42.2578 159.185 42.0703 158.68C41.888 158.169 41.7969 157.612 41.7969 157.008V156.672C41.7969 156.021 41.8932 155.432 42.0859 154.906C42.2786 154.38 42.5443 153.93 42.8828 153.555C43.2214 153.18 43.6068 152.893 44.0391 152.695C44.4766 152.492 44.9349 152.391 45.4141 152.391C45.9505 152.391 46.4271 152.487 46.8438 152.68C47.2604 152.867 47.6094 153.135 47.8906 153.484C48.1771 153.828 48.3932 154.237 48.5391 154.711C48.6849 155.18 48.7578 155.698 48.7578 156.266V156.836H42.3594V156.039H47.8281V155.93C47.8177 155.456 47.7214 155.013 47.5391 154.602C47.362 154.185 47.0964 153.846 46.7422 153.586C46.388 153.326 45.9453 153.195 45.4141 153.195C45.0182 153.195 44.6536 153.279 44.3203 153.445C43.9922 153.612 43.7083 153.852 43.4688 154.164C43.2344 154.471 43.0521 154.839 42.9219 155.266C42.7969 155.688 42.7344 156.156 42.7344 156.672V157.008C42.7344 157.477 42.8021 157.914 42.9375 158.32C43.0781 158.721 43.276 159.076 43.5312 159.383C43.7917 159.69 44.099 159.93 44.4531 160.102C44.8073 160.273 45.1979 160.359 45.625 160.359C46.125 160.359 46.5677 160.268 46.9531 160.086C47.3385 159.898 47.6849 159.604 47.9922 159.203L48.5781 159.656C48.3958 159.927 48.1667 160.177 47.8906 160.406C47.6198 160.635 47.2943 160.818 46.9141 160.953C46.5339 161.089 46.0911 161.156 45.5859 161.156ZM57.625 160.352C58.0208 160.352 58.3906 160.279 58.7344 160.133C59.0833 159.982 59.3698 159.76 59.5938 159.469C59.8229 159.172 59.9531 158.81 59.9844 158.383H60.875C60.849 158.919 60.6849 159.398 60.3828 159.82C60.0859 160.237 59.6953 160.565 59.2109 160.805C58.7318 161.039 58.2031 161.156 57.625 161.156C57.0365 161.156 56.5156 161.049 56.0625 160.836C55.6146 160.622 55.2396 160.326 54.9375 159.945C54.6354 159.56 54.4062 159.112 54.25 158.602C54.099 158.086 54.0234 157.531 54.0234 156.938V156.609C54.0234 156.016 54.099 155.464 54.25 154.953C54.4062 154.438 54.6354 153.99 54.9375 153.609C55.2396 153.224 55.6146 152.924 56.0625 152.711C56.5104 152.497 57.0286 152.391 57.6172 152.391C58.2214 152.391 58.763 152.513 59.2422 152.758C59.7266 153.003 60.112 153.349 60.3984 153.797C60.6901 154.245 60.849 154.776 60.875 155.391H59.9844C59.9583 154.938 59.8385 154.547 59.625 154.219C59.4115 153.891 59.1302 153.638 58.7812 153.461C58.4323 153.284 58.0443 153.195 57.6172 153.195C57.138 153.195 56.7292 153.289 56.3906 153.477C56.0521 153.659 55.776 153.911 55.5625 154.234C55.3542 154.552 55.2005 154.917 55.1016 155.328C55.0026 155.734 54.9531 156.161 54.9531 156.609V156.938C54.9531 157.391 55 157.823 55.0938 158.234C55.1927 158.641 55.3464 159.003 55.5547 159.32C55.7682 159.638 56.0443 159.891 56.3828 160.078C56.7266 160.26 57.1406 160.352 57.625 160.352ZM62.2422 156.906V156.648C62.2422 156.034 62.3307 155.466 62.5078 154.945C62.6849 154.424 62.9375 153.974 63.2656 153.594C63.599 153.214 63.9974 152.919 64.4609 152.711C64.9245 152.497 65.4401 152.391 66.0078 152.391C66.5807 152.391 67.099 152.497 67.5625 152.711C68.026 152.919 68.4245 153.214 68.7578 153.594C69.0911 153.974 69.3464 154.424 69.5234 154.945C69.7005 155.466 69.7891 156.034 69.7891 156.648V156.906C69.7891 157.521 69.7005 158.089 69.5234 158.609C69.3464 159.125 69.0911 159.573 68.7578 159.953C68.4297 160.333 68.0339 160.63 67.5703 160.844C67.1068 161.052 66.5911 161.156 66.0234 161.156C65.4505 161.156 64.9323 161.052 64.4688 160.844C64.0052 160.63 63.6068 160.333 63.2734 159.953C62.9401 159.573 62.6849 159.125 62.5078 158.609C62.3307 158.089 62.2422 157.521 62.2422 156.906ZM63.1719 156.648V156.906C63.1719 157.37 63.2344 157.81 63.3594 158.227C63.4844 158.638 63.6667 159.005 63.9062 159.328C64.1458 159.646 64.4427 159.896 64.7969 160.078C65.151 160.26 65.5599 160.352 66.0234 160.352C66.4818 160.352 66.8854 160.26 67.2344 160.078C67.5885 159.896 67.8854 159.646 68.125 159.328C68.3646 159.005 68.5443 158.638 68.6641 158.227C68.7891 157.81 68.8516 157.37 68.8516 156.906V156.648C68.8516 156.19 68.7891 155.755 68.6641 155.344C68.5443 154.932 68.362 154.565 68.1172 154.242C67.8776 153.919 67.5807 153.664 67.2266 153.477C66.8724 153.289 66.4661 153.195 66.0078 153.195C65.5495 153.195 65.1432 153.289 64.7891 153.477C64.4401 153.664 64.1432 153.919 63.8984 154.242C63.6589 154.565 63.4766 154.932 63.3516 155.344C63.2318 155.755 63.1719 156.19 63.1719 156.648ZM71.2109 156.906V156.648C71.2109 156.034 71.2995 155.466 71.4766 154.945C71.6536 154.424 71.9062 153.974 72.2344 153.594C72.5677 153.214 72.9661 152.919 73.4297 152.711C73.8932 152.497 74.4089 152.391 74.9766 152.391C75.5495 152.391 76.0677 152.497 76.5312 152.711C76.9948 152.919 77.3932 153.214 77.7266 153.594C78.0599 153.974 78.3151 154.424 78.4922 154.945C78.6693 155.466 78.7578 156.034 78.7578 156.648V156.906C78.7578 157.521 78.6693 158.089 78.4922 158.609C78.3151 159.125 78.0599 159.573 77.7266 159.953C77.3984 160.333 77.0026 160.63 76.5391 160.844C76.0755 161.052 75.5599 161.156 74.9922 161.156C74.4193 161.156 73.901 161.052 73.4375 160.844C72.974 160.63 72.5755 160.333 72.2422 159.953C71.9089 159.573 71.6536 159.125 71.4766 158.609C71.2995 158.089 71.2109 157.521 71.2109 156.906ZM72.1406 156.648V156.906C72.1406 157.37 72.2031 157.81 72.3281 158.227C72.4531 158.638 72.6354 159.005 72.875 159.328C73.1146 159.646 73.4115 159.896 73.7656 160.078C74.1198 160.26 74.5286 160.352 74.9922 160.352C75.4505 160.352 75.8542 160.26 76.2031 160.078C76.5573 159.896 76.8542 159.646 77.0938 159.328C77.3333 159.005 77.513 158.638 77.6328 158.227C77.7578 157.81 77.8203 157.37 77.8203 156.906V156.648C77.8203 156.19 77.7578 155.755 77.6328 155.344C77.513 154.932 77.3307 154.565 77.0859 154.242C76.8464 153.919 76.5495 153.664 76.1953 153.477C75.8411 153.289 75.4349 153.195 74.9766 153.195C74.5182 153.195 74.112 153.289 73.7578 153.477C73.4089 153.664 73.112 153.919 72.8672 154.242C72.6276 154.565 72.4453 154.932 72.3203 155.344C72.2005 155.755 72.1406 156.19 72.1406 156.648ZM86.1797 148.867H86.9844C86.9844 149.258 86.9141 149.583 86.7734 149.844C86.638 150.104 86.4453 150.315 86.1953 150.477C85.9453 150.638 85.651 150.766 85.3125 150.859C84.9792 150.948 84.6146 151.023 84.2188 151.086C83.7344 151.159 83.2891 151.318 82.8828 151.562C82.4818 151.807 82.138 152.143 81.8516 152.57C81.5651 152.992 81.349 153.516 81.2031 154.141C81.0625 154.76 81.0052 155.487 81.0312 156.32V157.047H80.2266V156.32C80.2266 155.404 80.3151 154.591 80.4922 153.883C80.6745 153.169 80.9323 152.56 81.2656 152.055C81.6042 151.549 82.0052 151.148 82.4688 150.852C82.9375 150.549 83.4557 150.352 84.0234 150.258C84.5547 150.174 84.9766 150.073 85.2891 149.953C85.6068 149.833 85.8333 149.685 85.9688 149.508C86.1094 149.331 86.1797 149.117 86.1797 148.867ZM84.1016 153.102C84.6536 153.102 85.151 153.195 85.5938 153.383C86.0365 153.57 86.4141 153.836 86.7266 154.18C87.0443 154.518 87.2865 154.919 87.4531 155.383C87.625 155.841 87.7109 156.344 87.7109 156.891V157.141C87.7109 157.724 87.6224 158.26 87.4453 158.75C87.2734 159.24 87.0234 159.664 86.6953 160.023C86.3724 160.383 85.9792 160.661 85.5156 160.859C85.0573 161.057 84.5443 161.156 83.9766 161.156C83.4036 161.156 82.888 161.057 82.4297 160.859C81.9714 160.661 81.5781 160.383 81.25 160.023C80.9219 159.664 80.6693 159.24 80.4922 158.75C80.3151 158.26 80.2266 157.724 80.2266 157.141V156.891C80.2266 156.74 80.2422 156.591 80.2734 156.445C80.3099 156.299 80.3542 156.156 80.4062 156.016C80.4583 155.87 80.5104 155.727 80.5625 155.586C80.7448 155.112 81.0026 154.69 81.3359 154.32C81.6693 153.945 82.0677 153.648 82.5312 153.43C83 153.211 83.5234 153.102 84.1016 153.102ZM83.9609 153.898C83.3516 153.898 82.8385 154.039 82.4219 154.32C82.0104 154.596 81.6979 154.964 81.4844 155.422C81.2708 155.875 81.1641 156.365 81.1641 156.891V157.141C81.1641 157.573 81.224 157.982 81.3438 158.367C81.4635 158.753 81.6406 159.096 81.875 159.398C82.1146 159.695 82.4089 159.93 82.7578 160.102C83.1068 160.273 83.513 160.359 83.9766 160.359C84.4349 160.359 84.8385 160.273 85.1875 160.102C85.5365 159.93 85.8281 159.695 86.0625 159.398C86.2969 159.096 86.474 158.753 86.5938 158.367C86.7135 157.982 86.7734 157.573 86.7734 157.141V156.891C86.7734 156.495 86.7135 156.117 86.5938 155.758C86.474 155.398 86.2943 155.081 86.0547 154.805C85.8203 154.523 85.526 154.302 85.1719 154.141C84.8229 153.979 84.4193 153.898 83.9609 153.898ZM100.688 160.195L100.617 163.508H99.7656V161H98.7656V160.195H100.688ZM89.3828 152.547H90.3125V160.195H94.0781V152.547H95.0156V160.195H98.7422V152.547H99.6719V161H89.3828V152.547ZM105.57 161.156C105.018 161.156 104.51 161.055 104.047 160.852C103.589 160.648 103.188 160.362 102.844 159.992C102.505 159.622 102.242 159.185 102.055 158.68C101.872 158.169 101.781 157.612 101.781 157.008V156.672C101.781 156.021 101.878 155.432 102.07 154.906C102.263 154.38 102.529 153.93 102.867 153.555C103.206 153.18 103.591 152.893 104.023 152.695C104.461 152.492 104.919 152.391 105.398 152.391C105.935 152.391 106.411 152.487 106.828 152.68C107.245 152.867 107.594 153.135 107.875 153.484C108.161 153.828 108.378 154.237 108.523 154.711C108.669 155.18 108.742 155.698 108.742 156.266V156.836H102.344V156.039H107.812V155.93C107.802 155.456 107.706 155.013 107.523 154.602C107.346 154.185 107.081 153.846 106.727 153.586C106.372 153.326 105.93 153.195 105.398 153.195C105.003 153.195 104.638 153.279 104.305 153.445C103.977 153.612 103.693 153.852 103.453 154.164C103.219 154.471 103.036 154.839 102.906 155.266C102.781 155.688 102.719 156.156 102.719 156.672V157.008C102.719 157.477 102.786 157.914 102.922 158.32C103.062 158.721 103.26 159.076 103.516 159.383C103.776 159.69 104.083 159.93 104.438 160.102C104.792 160.273 105.182 160.359 105.609 160.359C106.109 160.359 106.552 160.268 106.938 160.086C107.323 159.898 107.669 159.604 107.977 159.203L108.562 159.656C108.38 159.927 108.151 160.177 107.875 160.406C107.604 160.635 107.279 160.818 106.898 160.953C106.518 161.089 106.076 161.156 105.57 161.156ZM116.352 156.328V157.125H111.336V156.328H116.352ZM111.578 152.547V161H110.648V152.547H111.578ZM117.07 152.547V161H116.133V152.547H117.07ZM120.57 159.484L125.141 152.547H126.078V161H125.141V154.062L120.57 161H119.648V152.547H120.57V159.484ZM131.852 161.156C131.299 161.156 130.792 161.055 130.328 160.852C129.87 160.648 129.469 160.362 129.125 159.992C128.786 159.622 128.523 159.185 128.336 158.68C128.154 158.169 128.062 157.612 128.062 157.008V156.672C128.062 156.021 128.159 155.432 128.352 154.906C128.544 154.38 128.81 153.93 129.148 153.555C129.487 153.18 129.872 152.893 130.305 152.695C130.742 152.492 131.201 152.391 131.68 152.391C132.216 152.391 132.693 152.487 133.109 152.68C133.526 152.867 133.875 153.135 134.156 153.484C134.443 153.828 134.659 154.237 134.805 154.711C134.951 155.18 135.023 155.698 135.023 156.266V156.836H128.625V156.039H134.094V155.93C134.083 155.456 133.987 155.013 133.805 154.602C133.628 154.185 133.362 153.846 133.008 153.586C132.654 153.326 132.211 153.195 131.68 153.195C131.284 153.195 130.919 153.279 130.586 153.445C130.258 153.612 129.974 153.852 129.734 154.164C129.5 154.471 129.318 154.839 129.188 155.266C129.062 155.688 129 156.156 129 156.672V157.008C129 157.477 129.068 157.914 129.203 158.32C129.344 158.721 129.542 159.076 129.797 159.383C130.057 159.69 130.365 159.93 130.719 160.102C131.073 160.273 131.464 160.359 131.891 160.359C132.391 160.359 132.833 160.268 133.219 160.086C133.604 159.898 133.951 159.604 134.258 159.203L134.844 159.656C134.661 159.927 134.432 160.177 134.156 160.406C133.885 160.635 133.56 160.818 133.18 160.953C132.799 161.089 132.357 161.156 131.852 161.156Z" fill="#605F5F"/>
<rect y="339" width="300" height="39" rx="3" fill="#1C548D"/>
<path d="M120.227 358V358.625C120.227 359.484 120.115 360.255 119.891 360.938C119.667 361.62 119.346 362.201 118.93 362.68C118.518 363.159 118.023 363.526 117.445 363.781C116.867 364.031 116.227 364.156 115.523 364.156C114.826 364.156 114.188 364.031 113.609 363.781C113.036 363.526 112.539 363.159 112.117 362.68C111.695 362.201 111.367 361.62 111.133 360.938C110.904 360.255 110.789 359.484 110.789 358.625V358C110.789 357.141 110.904 356.372 111.133 355.695C111.362 355.013 111.685 354.432 112.102 353.953C112.523 353.469 113.021 353.102 113.594 352.852C114.172 352.596 114.81 352.469 115.508 352.469C116.211 352.469 116.852 352.596 117.43 352.852C118.008 353.102 118.505 353.469 118.922 353.953C119.339 354.432 119.659 355.013 119.883 355.695C120.112 356.372 120.227 357.141 120.227 358ZM118.266 358.625V357.984C118.266 357.349 118.203 356.789 118.078 356.305C117.958 355.815 117.779 355.406 117.539 355.078C117.305 354.745 117.016 354.495 116.672 354.328C116.328 354.156 115.94 354.07 115.508 354.07C115.076 354.07 114.69 354.156 114.352 354.328C114.013 354.495 113.724 354.745 113.484 355.078C113.25 355.406 113.07 355.815 112.945 356.305C112.82 356.789 112.758 357.349 112.758 357.984V358.625C112.758 359.26 112.82 359.823 112.945 360.312C113.07 360.802 113.253 361.216 113.492 361.555C113.737 361.888 114.029 362.141 114.367 362.312C114.706 362.479 115.091 362.562 115.523 362.562C115.961 362.562 116.349 362.479 116.688 362.312C117.026 362.141 117.312 361.888 117.547 361.555C117.781 361.216 117.958 360.802 118.078 360.312C118.203 359.823 118.266 359.26 118.266 358.625ZM125.922 355.547V364H124.031V355.547H125.922ZM128.695 355.547V357.031H121.305V355.547H128.695ZM135.625 355.547V357.047H131.453V355.547H135.625ZM131.898 355.547V364H130.016V355.547H131.898ZM137.102 355.547V364H135.211V355.547H137.102ZM140.984 357.172V367.25H139.102V355.547H140.836L140.984 357.172ZM146.492 359.695V359.859C146.492 360.474 146.419 361.044 146.273 361.57C146.133 362.091 145.922 362.547 145.641 362.938C145.365 363.323 145.023 363.622 144.617 363.836C144.211 364.049 143.742 364.156 143.211 364.156C142.685 364.156 142.224 364.06 141.828 363.867C141.438 363.669 141.107 363.391 140.836 363.031C140.565 362.672 140.346 362.25 140.18 361.766C140.018 361.276 139.904 360.74 139.836 360.156V359.523C139.904 358.904 140.018 358.341 140.18 357.836C140.346 357.331 140.565 356.896 140.836 356.531C141.107 356.167 141.438 355.885 141.828 355.688C142.219 355.49 142.674 355.391 143.195 355.391C143.727 355.391 144.198 355.495 144.609 355.703C145.021 355.906 145.367 356.198 145.648 356.578C145.93 356.953 146.141 357.406 146.281 357.938C146.422 358.464 146.492 359.049 146.492 359.695ZM144.609 359.859V359.695C144.609 359.305 144.573 358.943 144.5 358.609C144.427 358.271 144.312 357.974 144.156 357.719C144 357.464 143.799 357.266 143.555 357.125C143.315 356.979 143.026 356.906 142.688 356.906C142.354 356.906 142.068 356.964 141.828 357.078C141.589 357.188 141.388 357.341 141.227 357.539C141.065 357.737 140.94 357.969 140.852 358.234C140.763 358.495 140.701 358.779 140.664 359.086V360.602C140.727 360.977 140.833 361.32 140.984 361.633C141.135 361.945 141.349 362.195 141.625 362.383C141.906 362.565 142.266 362.656 142.703 362.656C143.042 362.656 143.331 362.583 143.57 362.438C143.81 362.292 144.005 362.091 144.156 361.836C144.312 361.576 144.427 361.276 144.5 360.938C144.573 360.599 144.609 360.24 144.609 359.859ZM152.859 362.305V358.273C152.859 357.971 152.805 357.711 152.695 357.492C152.586 357.273 152.419 357.104 152.195 356.984C151.977 356.865 151.701 356.805 151.367 356.805C151.06 356.805 150.794 356.857 150.57 356.961C150.346 357.065 150.172 357.206 150.047 357.383C149.922 357.56 149.859 357.76 149.859 357.984H147.984C147.984 357.651 148.065 357.328 148.227 357.016C148.388 356.703 148.622 356.424 148.93 356.18C149.237 355.935 149.604 355.742 150.031 355.602C150.458 355.461 150.938 355.391 151.469 355.391C152.104 355.391 152.667 355.497 153.156 355.711C153.651 355.924 154.039 356.247 154.32 356.68C154.607 357.107 154.75 357.643 154.75 358.289V362.047C154.75 362.432 154.776 362.779 154.828 363.086C154.885 363.388 154.966 363.651 155.07 363.875V364H153.141C153.052 363.797 152.982 363.539 152.93 363.227C152.883 362.909 152.859 362.602 152.859 362.305ZM153.133 358.859L153.148 360.023H151.797C151.448 360.023 151.141 360.057 150.875 360.125C150.609 360.188 150.388 360.281 150.211 360.406C150.034 360.531 149.901 360.682 149.812 360.859C149.724 361.036 149.68 361.237 149.68 361.461C149.68 361.685 149.732 361.891 149.836 362.078C149.94 362.26 150.091 362.404 150.289 362.508C150.492 362.612 150.737 362.664 151.023 362.664C151.409 362.664 151.745 362.586 152.031 362.43C152.323 362.268 152.552 362.073 152.719 361.844C152.885 361.609 152.974 361.388 152.984 361.18L153.594 362.016C153.531 362.229 153.424 362.458 153.273 362.703C153.122 362.948 152.924 363.182 152.68 363.406C152.44 363.625 152.151 363.805 151.812 363.945C151.479 364.086 151.094 364.156 150.656 364.156C150.104 364.156 149.612 364.047 149.18 363.828C148.747 363.604 148.409 363.305 148.164 362.93C147.919 362.549 147.797 362.12 147.797 361.641C147.797 361.193 147.88 360.797 148.047 360.453C148.219 360.104 148.469 359.812 148.797 359.578C149.13 359.344 149.536 359.167 150.016 359.047C150.495 358.922 151.042 358.859 151.656 358.859H153.133ZM160.828 360.383H158.125L158.109 359.055H160.328C160.693 359.055 160.992 359.018 161.227 358.945C161.466 358.872 161.643 358.763 161.758 358.617C161.872 358.466 161.93 358.284 161.93 358.07C161.93 357.893 161.896 357.74 161.828 357.609C161.76 357.474 161.656 357.365 161.516 357.281C161.38 357.193 161.208 357.13 161 357.094C160.797 357.052 160.56 357.031 160.289 357.031H158.75V364H156.867V355.547H160.289C160.831 355.547 161.318 355.594 161.75 355.688C162.188 355.781 162.56 355.924 162.867 356.117C163.174 356.31 163.409 356.555 163.57 356.852C163.737 357.143 163.82 357.487 163.82 357.883C163.82 358.143 163.763 358.388 163.648 358.617C163.539 358.846 163.375 359.049 163.156 359.227C162.938 359.404 162.669 359.549 162.352 359.664C162.034 359.773 161.669 359.841 161.258 359.867L160.828 360.383ZM160.828 364H157.578L158.328 362.516H160.828C161.161 362.516 161.438 362.474 161.656 362.391C161.875 362.307 162.036 362.188 162.141 362.031C162.25 361.87 162.305 361.68 162.305 361.461C162.305 361.237 162.253 361.044 162.148 360.883C162.044 360.721 161.883 360.599 161.664 360.516C161.451 360.427 161.172 360.383 160.828 360.383H158.68L158.695 359.055H161.25L161.789 359.57C162.326 359.607 162.771 359.721 163.125 359.914C163.479 360.107 163.745 360.349 163.922 360.641C164.099 360.932 164.188 361.25 164.188 361.594C164.188 361.99 164.112 362.339 163.961 362.641C163.815 362.943 163.596 363.195 163.305 363.398C163.018 363.596 162.667 363.747 162.25 363.852C161.833 363.951 161.359 364 160.828 364ZM167.758 361.25L171.078 355.547H172.961V364H171.078V358.289L167.758 364H165.875V355.547H167.758V361.25ZM178.875 355.547V364H176.984V355.547H178.875ZM181.648 355.547V357.031H174.258V355.547H181.648ZM184.305 358.234H186.797C187.526 358.234 188.146 358.357 188.656 358.602C189.167 358.846 189.555 359.188 189.82 359.625C190.091 360.057 190.227 360.552 190.227 361.109C190.227 361.521 190.151 361.904 190 362.258C189.849 362.607 189.625 362.911 189.328 363.172C189.036 363.432 188.677 363.635 188.25 363.781C187.828 363.927 187.344 364 186.797 364H183.055V355.547H184.945V362.508H186.797C187.172 362.508 187.471 362.443 187.695 362.312C187.919 362.182 188.081 362.013 188.18 361.805C188.284 361.596 188.336 361.375 188.336 361.141C188.336 360.901 188.284 360.674 188.18 360.461C188.081 360.247 187.919 360.073 187.695 359.938C187.471 359.802 187.172 359.734 186.797 359.734H184.305V358.234Z" fill="white"/>
<g clip-path="url(#clip0_438_314)">
<path fill-rule="evenodd" clip-rule="evenodd" d="M5.5 329C8.54 329 11 326.54 11 323.5V312H9.5V323.5C9.5 325.71 7.71 327.5 5.5 327.5C3.29 327.5 1.5 325.71 1.5 323.5V311C1.5 309.62 2.62 308.5 4 308.5C5.38 308.5 6.5 309.62 6.5 311V321.5C6.5 322.05 6.05 322.5 5.5 322.5C4.95 322.5 4.5 322.05 4.5 321.5V312H3V321.5C3 322.88 4.12 324 5.5 324C6.88 324 8 322.88 8 321.5V311C8 308.79 6.21 307 4 307C1.79 307 0 308.79 0 311V323.5C0 326.54 2.46 329 5.5 329Z" fill="#1D1D1D"/>
</g>
<path d="M31.0078 312.625V324H29.5078V313.859H23.8984V324H22.3906V312.625H31.0078ZM34.9688 317.172V327.25H33.5156V315.547H34.8438L34.9688 317.172ZM40.6641 319.703V319.867C40.6641 320.482 40.5911 321.052 40.4453 321.578C40.2995 322.099 40.0859 322.552 39.8047 322.938C39.5286 323.323 39.1875 323.622 38.7812 323.836C38.375 324.049 37.9089 324.156 37.3828 324.156C36.8464 324.156 36.3724 324.068 35.9609 323.891C35.5495 323.714 35.2005 323.456 34.9141 323.117C34.6276 322.779 34.3984 322.372 34.2266 321.898C34.0599 321.424 33.9453 320.891 33.8828 320.297V319.422C33.9453 318.797 34.0625 318.237 34.2344 317.742C34.4062 317.247 34.6328 316.826 34.9141 316.477C35.2005 316.122 35.5469 315.854 35.9531 315.672C36.3594 315.484 36.8281 315.391 37.3594 315.391C37.8906 315.391 38.362 315.495 38.7734 315.703C39.1849 315.906 39.5312 316.198 39.8125 316.578C40.0938 316.958 40.3047 317.414 40.4453 317.945C40.5911 318.471 40.6641 319.057 40.6641 319.703ZM39.2109 319.867V319.703C39.2109 319.281 39.1667 318.885 39.0781 318.516C38.9896 318.141 38.8516 317.812 38.6641 317.531C38.4818 317.245 38.2474 317.021 37.9609 316.859C37.6745 316.693 37.3333 316.609 36.9375 316.609C36.5729 316.609 36.2552 316.672 35.9844 316.797C35.7188 316.922 35.4922 317.091 35.3047 317.305C35.1172 317.513 34.9635 317.753 34.8438 318.023C34.7292 318.289 34.6432 318.565 34.5859 318.852V320.875C34.6901 321.24 34.8359 321.583 35.0234 321.906C35.2109 322.224 35.4609 322.482 35.7734 322.68C36.0859 322.872 36.4792 322.969 36.9531 322.969C37.3438 322.969 37.6797 322.888 37.9609 322.727C38.2474 322.56 38.4818 322.333 38.6641 322.047C38.8516 321.76 38.9896 321.432 39.0781 321.062C39.1667 320.688 39.2109 320.289 39.2109 319.867ZM44.0703 321.711L47.9688 315.547H49.4219V324H47.9688V317.836L44.0703 324H42.6328V315.547H44.0703V321.711ZM53.3125 315.547V324H51.8672V315.547H53.3125ZM58.8594 315.547L54.8516 320.391H52.8281L52.6094 319.125H54.2656L57.1016 315.547H58.8594ZM57.3047 324L54.1953 320.172L55.125 319.125L59.1406 324H57.3047ZM61.8438 317.172V327.25H60.3906V315.547H61.7188L61.8438 317.172ZM67.5391 319.703V319.867C67.5391 320.482 67.4661 321.052 67.3203 321.578C67.1745 322.099 66.9609 322.552 66.6797 322.938C66.4036 323.323 66.0625 323.622 65.6562 323.836C65.25 324.049 64.7839 324.156 64.2578 324.156C63.7214 324.156 63.2474 324.068 62.8359 323.891C62.4245 323.714 62.0755 323.456 61.7891 323.117C61.5026 322.779 61.2734 322.372 61.1016 321.898C60.9349 321.424 60.8203 320.891 60.7578 320.297V319.422C60.8203 318.797 60.9375 318.237 61.1094 317.742C61.2812 317.247 61.5078 316.826 61.7891 316.477C62.0755 316.122 62.4219 315.854 62.8281 315.672C63.2344 315.484 63.7031 315.391 64.2344 315.391C64.7656 315.391 65.237 315.495 65.6484 315.703C66.0599 315.906 66.4062 316.198 66.6875 316.578C66.9688 316.958 67.1797 317.414 67.3203 317.945C67.4661 318.471 67.5391 319.057 67.5391 319.703ZM66.0859 319.867V319.703C66.0859 319.281 66.0417 318.885 65.9531 318.516C65.8646 318.141 65.7266 317.812 65.5391 317.531C65.3568 317.245 65.1224 317.021 64.8359 316.859C64.5495 316.693 64.2083 316.609 63.8125 316.609C63.4479 316.609 63.1302 316.672 62.8594 316.797C62.5938 316.922 62.3672 317.091 62.1797 317.305C61.9922 317.513 61.8385 317.753 61.7188 318.023C61.6042 318.289 61.5182 318.565 61.4609 318.852V320.875C61.5651 321.24 61.7109 321.583 61.8984 321.906C62.0859 322.224 62.3359 322.482 62.6484 322.68C62.9609 322.872 63.3542 322.969 63.8281 322.969C64.2188 322.969 64.5547 322.888 64.8359 322.727C65.1224 322.56 65.3568 322.333 65.5391 322.047C65.7266 321.76 65.8646 321.432 65.9531 321.062C66.0417 320.688 66.0859 320.289 66.0859 319.867ZM72.8906 324.156C72.3021 324.156 71.7682 324.057 71.2891 323.859C70.8151 323.656 70.4062 323.372 70.0625 323.008C69.724 322.643 69.4635 322.211 69.2812 321.711C69.099 321.211 69.0078 320.664 69.0078 320.07V319.742C69.0078 319.055 69.1094 318.443 69.3125 317.906C69.5156 317.365 69.7917 316.906 70.1406 316.531C70.4896 316.156 70.8854 315.872 71.3281 315.68C71.7708 315.487 72.2292 315.391 72.7031 315.391C73.3073 315.391 73.8281 315.495 74.2656 315.703C74.7083 315.911 75.0703 316.203 75.3516 316.578C75.6328 316.948 75.8411 317.385 75.9766 317.891C76.112 318.391 76.1797 318.938 76.1797 319.531V320.18H69.8672V319H74.7344V318.891C74.7135 318.516 74.6354 318.151 74.5 317.797C74.3698 317.443 74.1615 317.151 73.875 316.922C73.5885 316.693 73.1979 316.578 72.7031 316.578C72.375 316.578 72.0729 316.648 71.7969 316.789C71.5208 316.924 71.2839 317.128 71.0859 317.398C70.888 317.669 70.7344 318 70.625 318.391C70.5156 318.781 70.4609 319.232 70.4609 319.742V320.07C70.4609 320.471 70.5156 320.849 70.625 321.203C70.7396 321.552 70.9036 321.859 71.1172 322.125C71.3359 322.391 71.599 322.599 71.9062 322.75C72.2188 322.901 72.5729 322.977 72.9688 322.977C73.4792 322.977 73.9115 322.872 74.2656 322.664C74.6198 322.456 74.9297 322.177 75.1953 321.828L76.0703 322.523C75.888 322.799 75.6562 323.062 75.375 323.312C75.0938 323.562 74.7474 323.766 74.3359 323.922C73.9297 324.078 73.4479 324.156 72.8906 324.156ZM83.5 315.547V316.742H79.2266V315.547H83.5ZM79.4375 315.547V324H77.9922V315.547H79.4375ZM84.7812 315.547V324H83.3281V315.547H84.7812ZM88.6641 321.711L92.5625 315.547H94.0156V324H92.5625V317.836L88.6641 324H87.2266V315.547H88.6641V321.711ZM99.7812 315.547V324H98.3281V315.547H99.7812ZM102.617 315.547V316.719H95.5469V315.547H102.617ZM105.227 318.453H107.766C108.448 318.453 109.023 318.573 109.492 318.812C109.961 319.047 110.315 319.372 110.555 319.789C110.799 320.201 110.922 320.669 110.922 321.195C110.922 321.586 110.854 321.953 110.719 322.297C110.583 322.635 110.38 322.932 110.109 323.188C109.844 323.443 109.513 323.643 109.117 323.789C108.727 323.93 108.276 324 107.766 324H104.172V315.547H105.617V322.812H107.766C108.182 322.812 108.516 322.737 108.766 322.586C109.016 322.435 109.195 322.24 109.305 322C109.414 321.76 109.469 321.51 109.469 321.25C109.469 320.995 109.414 320.745 109.305 320.5C109.195 320.255 109.016 320.052 108.766 319.891C108.516 319.724 108.182 319.641 107.766 319.641H105.227V318.453ZM126.414 319.922V320.086C126.414 320.68 126.349 321.227 126.219 321.727C126.089 322.221 125.893 322.651 125.633 323.016C125.378 323.38 125.06 323.664 124.68 323.867C124.299 324.065 123.859 324.164 123.359 324.164C122.948 324.164 122.586 324.109 122.273 324C121.961 323.885 121.695 323.721 121.477 323.508C121.263 323.294 121.091 323.039 120.961 322.742C120.836 322.44 120.75 322.102 120.703 321.727V317.977C120.75 317.576 120.836 317.216 120.961 316.898C121.091 316.581 121.263 316.31 121.477 316.086C121.695 315.862 121.958 315.69 122.266 315.57C122.573 315.451 122.932 315.391 123.344 315.391C123.75 315.391 124.115 315.464 124.438 315.609C124.766 315.75 125.052 315.953 125.297 316.219C125.547 316.484 125.753 316.805 125.914 317.18C126.081 317.549 126.206 317.966 126.289 318.43C126.372 318.893 126.414 319.391 126.414 319.922ZM124.969 320.086V319.922C124.969 319.557 124.943 319.211 124.891 318.883C124.844 318.549 124.768 318.245 124.664 317.969C124.565 317.688 124.435 317.443 124.273 317.234C124.112 317.026 123.917 316.865 123.688 316.75C123.464 316.635 123.206 316.578 122.914 316.578C122.602 316.578 122.341 316.617 122.133 316.695C121.93 316.773 121.771 316.878 121.656 317.008C121.542 317.133 121.458 317.266 121.406 317.406V322.305C121.469 322.419 121.56 322.529 121.68 322.633C121.799 322.732 121.961 322.815 122.164 322.883C122.367 322.945 122.622 322.977 122.93 322.977C123.294 322.977 123.604 322.904 123.859 322.758C124.12 322.607 124.331 322.398 124.492 322.133C124.659 321.867 124.779 321.56 124.852 321.211C124.93 320.862 124.969 320.487 124.969 320.086ZM116.375 320.086V319.922C116.375 319.391 116.417 318.893 116.5 318.43C116.583 317.966 116.708 317.549 116.875 317.18C117.042 316.805 117.247 316.484 117.492 316.219C117.742 315.953 118.029 315.75 118.352 315.609C118.68 315.464 119.047 315.391 119.453 315.391C119.854 315.391 120.203 315.451 120.5 315.57C120.802 315.69 121.057 315.862 121.266 316.086C121.474 316.31 121.641 316.581 121.766 316.898C121.891 317.216 121.979 317.576 122.031 317.977V321.578C121.984 321.974 121.898 322.331 121.773 322.648C121.648 322.966 121.482 323.24 121.273 323.469C121.065 323.693 120.807 323.865 120.5 323.984C120.198 324.104 119.844 324.164 119.438 324.164C118.938 324.164 118.497 324.065 118.117 323.867C117.737 323.664 117.417 323.38 117.156 323.016C116.901 322.651 116.706 322.221 116.57 321.727C116.44 321.227 116.375 320.68 116.375 320.086ZM117.828 319.922V320.086C117.828 320.487 117.862 320.862 117.93 321.211C118.003 321.56 118.115 321.867 118.266 322.133C118.422 322.398 118.625 322.607 118.875 322.758C119.125 322.904 119.432 322.977 119.797 322.977C120.109 322.977 120.367 322.938 120.57 322.859C120.773 322.781 120.935 322.68 121.055 322.555C121.174 322.43 121.266 322.299 121.328 322.164V317.406C121.276 317.266 121.19 317.133 121.07 317.008C120.956 316.878 120.797 316.773 120.594 316.695C120.391 316.617 120.13 316.578 119.812 316.578C119.448 316.578 119.138 316.667 118.883 316.844C118.628 317.021 118.422 317.263 118.266 317.57C118.115 317.878 118.003 318.234 117.93 318.641C117.862 319.042 117.828 319.469 117.828 319.922ZM120.609 327.25V312H122.062V327.25H120.609ZM133.289 322.555V318.203C133.289 317.87 133.221 317.581 133.086 317.336C132.956 317.086 132.758 316.893 132.492 316.758C132.227 316.622 131.898 316.555 131.508 316.555C131.143 316.555 130.823 316.617 130.547 316.742C130.276 316.867 130.062 317.031 129.906 317.234C129.755 317.438 129.68 317.656 129.68 317.891H128.234C128.234 317.589 128.312 317.289 128.469 316.992C128.625 316.695 128.849 316.427 129.141 316.188C129.438 315.943 129.792 315.75 130.203 315.609C130.62 315.464 131.083 315.391 131.594 315.391C132.208 315.391 132.75 315.495 133.219 315.703C133.693 315.911 134.062 316.227 134.328 316.648C134.599 317.065 134.734 317.589 134.734 318.219V322.156C134.734 322.438 134.758 322.737 134.805 323.055C134.857 323.372 134.932 323.646 135.031 323.875V324H133.523C133.451 323.833 133.393 323.612 133.352 323.336C133.31 323.055 133.289 322.794 133.289 322.555ZM133.539 318.875L133.555 319.891H132.094C131.682 319.891 131.315 319.924 130.992 319.992C130.669 320.055 130.398 320.151 130.18 320.281C129.961 320.411 129.794 320.576 129.68 320.773C129.565 320.966 129.508 321.193 129.508 321.453C129.508 321.719 129.568 321.961 129.688 322.18C129.807 322.398 129.987 322.573 130.227 322.703C130.471 322.828 130.771 322.891 131.125 322.891C131.568 322.891 131.958 322.797 132.297 322.609C132.635 322.422 132.904 322.193 133.102 321.922C133.305 321.651 133.414 321.388 133.43 321.133L134.047 321.828C134.01 322.047 133.911 322.289 133.75 322.555C133.589 322.82 133.372 323.076 133.102 323.32C132.836 323.56 132.518 323.76 132.148 323.922C131.784 324.078 131.372 324.156 130.914 324.156C130.341 324.156 129.839 324.044 129.406 323.82C128.979 323.596 128.646 323.297 128.406 322.922C128.172 322.542 128.055 322.117 128.055 321.648C128.055 321.195 128.143 320.797 128.32 320.453C128.497 320.104 128.753 319.815 129.086 319.586C129.419 319.352 129.82 319.174 130.289 319.055C130.758 318.935 131.281 318.875 131.859 318.875H133.539ZM138.57 321.711L142.469 315.547H143.922V324H142.469V317.836L138.57 324H137.133V315.547H138.57V321.711ZM141.68 312.484H142.852C142.852 312.891 142.758 313.253 142.57 313.57C142.383 313.883 142.115 314.128 141.766 314.305C141.417 314.482 141.003 314.57 140.523 314.57C139.799 314.57 139.227 314.378 138.805 313.992C138.388 313.602 138.18 313.099 138.18 312.484H139.352C139.352 312.792 139.44 313.062 139.617 313.297C139.794 313.531 140.096 313.648 140.523 313.648C140.94 313.648 141.237 313.531 141.414 313.297C141.591 313.062 141.68 312.792 141.68 312.484ZM151.891 315.547V316.742H147.805V315.547H151.891ZM153.164 315.547V324H151.719V315.547H153.164ZM147.453 315.547H148.906L148.688 319.625C148.651 320.255 148.591 320.812 148.508 321.297C148.43 321.776 148.32 322.188 148.18 322.531C148.044 322.875 147.872 323.156 147.664 323.375C147.461 323.589 147.216 323.747 146.93 323.852C146.643 323.951 146.312 324 145.938 324H145.484V322.727L145.797 322.703C146.021 322.688 146.211 322.635 146.367 322.547C146.529 322.458 146.664 322.328 146.773 322.156C146.883 321.979 146.971 321.753 147.039 321.477C147.112 321.201 147.167 320.872 147.203 320.492C147.245 320.112 147.276 319.669 147.297 319.164L147.453 315.547Z" fill="#1C2127"/>
<defs>
<clipPath id="clip0_438_314">
<rect width="11" height="22" fill="white" transform="translate(0 307)"/>
</clipPath>
</defs>
</svg>
