<svg width="876" height="428" viewBox="0 0 876 428" fill="none" xmlns="http://www.w3.org/2000/svg">
<rect y="48" width="876" height="380" fill="#D9D9D9" fill-opacity="0.2"/>
<path d="M6.75 7.25V30H2.84375V7.25H6.75ZM20.4375 7.25L11.1875 20.2188H5.64062L5.10938 16.8125H9.01562L15.6406 7.25H20.4375ZM16.4375 30L9.07812 19.625L11.6094 16.6094L21.1406 30H16.4375ZM32.5469 26.6094V18.5469C32.5469 17.9427 32.4375 17.4219 32.2188 16.9844C32 16.5469 31.6667 16.2083 31.2188 15.9688C30.7812 15.7292 30.2292 15.6094 29.5625 15.6094C28.9479 15.6094 28.4167 15.7135 27.9688 15.9219C27.5208 16.1302 27.1719 16.4115 26.9219 16.7656C26.6719 17.1198 26.5469 17.5208 26.5469 17.9688H22.7969C22.7969 17.3021 22.9583 16.6562 23.2812 16.0312C23.6042 15.4062 24.0729 14.849 24.6875 14.3594C25.3021 13.8698 26.0365 13.4844 26.8906 13.2031C27.7448 12.9219 28.7031 12.7812 29.7656 12.7812C31.0365 12.7812 32.1615 12.9948 33.1406 13.4219C34.1302 13.849 34.9062 14.4948 35.4688 15.3594C36.0417 16.2135 36.3281 17.2865 36.3281 18.5781V26.0938C36.3281 26.8646 36.3802 27.5573 36.4844 28.1719C36.599 28.776 36.7604 29.3021 36.9688 29.75V30H33.1094C32.9323 29.5938 32.7917 29.0781 32.6875 28.4531C32.5938 27.8177 32.5469 27.2031 32.5469 26.6094ZM33.0938 19.7188L33.125 22.0469H30.4219C29.724 22.0469 29.1094 22.1146 28.5781 22.25C28.0469 22.375 27.6042 22.5625 27.25 22.8125C26.8958 23.0625 26.6302 23.3646 26.4531 23.7188C26.276 24.0729 26.1875 24.474 26.1875 24.9219C26.1875 25.3698 26.2917 25.7812 26.5 26.1562C26.7083 26.5208 27.0104 26.8073 27.4062 27.0156C27.8125 27.224 28.3021 27.3281 28.875 27.3281C29.6458 27.3281 30.3177 27.1719 30.8906 26.8594C31.474 26.5365 31.9323 26.1458 32.2656 25.6875C32.599 25.2188 32.776 24.776 32.7969 24.3594L34.0156 26.0312C33.8906 26.4583 33.6771 26.9167 33.375 27.4062C33.0729 27.8958 32.6771 28.3646 32.1875 28.8125C31.7083 29.25 31.1302 29.6094 30.4531 29.8906C29.7865 30.1719 29.0156 30.3125 28.1406 30.3125C27.0365 30.3125 26.0521 30.0938 25.1875 29.6562C24.3229 29.2083 23.6458 28.6094 23.1562 27.8594C22.6667 27.099 22.4219 26.2396 22.4219 25.2812C22.4219 24.3854 22.5885 23.5938 22.9219 22.9062C23.2656 22.2083 23.7656 21.625 24.4219 21.1562C25.0885 20.6875 25.901 20.3333 26.8594 20.0938C27.8177 19.8438 28.9115 19.7188 30.1406 19.7188H33.0938ZM51.625 13.0938V16.0938H43.375V13.0938H51.625ZM54.5781 13.0938V30H50.8125V13.0938H54.5781ZM42.4531 13.0938H46.1719L45.7188 21.4531C45.6562 22.6927 45.5312 23.7865 45.3438 24.7344C45.1667 25.6719 44.9271 26.4792 44.625 27.1562C44.3229 27.8229 43.9531 28.3646 43.5156 28.7812C43.0781 29.1979 42.5677 29.5052 41.9844 29.7031C41.401 29.901 40.7448 30 40.0156 30H38.8438L38.8281 26.9062L39.4219 26.8594C39.8073 26.8281 40.1406 26.7292 40.4219 26.5625C40.7031 26.3854 40.9427 26.1354 41.1406 25.8125C41.349 25.4896 41.5156 25.0729 41.6406 24.5625C41.776 24.0521 41.8802 23.4479 41.9531 22.75C42.0365 22.0521 42.099 21.2396 42.1406 20.3125L42.4531 13.0938ZM61.375 18.4688H66.3594C67.8177 18.4688 69.0573 18.7135 70.0781 19.2031C71.099 19.6927 71.875 20.375 72.4062 21.25C72.9479 22.1146 73.2188 23.1042 73.2188 24.2188C73.2188 25.0417 73.0677 25.8073 72.7656 26.5156C72.4635 27.2135 72.0156 27.8229 71.4219 28.3438C70.8385 28.8646 70.1198 29.2708 69.2656 29.5625C68.4219 29.8542 67.4531 30 66.3594 30H58.875V13.0938H62.6562V27.0156H66.3594C67.1094 27.0156 67.7083 26.8854 68.1562 26.625C68.6042 26.3646 68.9271 26.026 69.125 25.6094C69.3333 25.1927 69.4375 24.75 69.4375 24.2812C69.4375 23.8021 69.3333 23.349 69.125 22.9219C68.9271 22.4948 68.6042 22.1458 68.1562 21.875C67.7083 21.6042 67.1094 21.4688 66.3594 21.4688H61.375V18.4688ZM80.2969 13.0938V30H76.5312V13.0938H80.2969ZM91.3281 13.0938L83.7188 23.2656H79.4219L78.9219 19.8594H82.0625L86.625 13.0938H91.3281ZM86.9219 30L81.8281 22.625L84.7969 20.4844L91.875 30H86.9219ZM98.8281 28.1562L103.422 13.0938H107.453L100.672 32.5781C100.516 32.9948 100.312 33.4479 100.062 33.9375C99.8125 34.4271 99.4844 34.8906 99.0781 35.3281C98.6823 35.776 98.1875 36.1354 97.5938 36.4062C97 36.6875 96.2812 36.8281 95.4375 36.8281C95.1042 36.8281 94.7812 36.7969 94.4688 36.7344C94.1667 36.6823 93.8802 36.625 93.6094 36.5625L93.5938 33.6875C93.6979 33.6979 93.8229 33.7083 93.9688 33.7188C94.125 33.7292 94.25 33.7344 94.3438 33.7344C94.9688 33.7344 95.4896 33.6562 95.9062 33.5C96.3229 33.3542 96.6615 33.1146 96.9219 32.7812C97.1927 32.4479 97.4219 32 97.6094 31.4375L98.8281 28.1562ZM96.2344 13.0938L100.25 25.75L100.922 29.7188L98.3125 30.3906L92.1719 13.0938H96.2344ZM120.312 13.0938V16.0938H112.062V13.0938H120.312ZM123.266 13.0938V30H119.5V13.0938H123.266ZM111.141 13.0938H114.859L114.406 21.4531C114.344 22.6927 114.219 23.7865 114.031 24.7344C113.854 25.6719 113.615 26.4792 113.312 27.1562C113.01 27.8229 112.641 28.3646 112.203 28.7812C111.766 29.1979 111.255 29.5052 110.672 29.7031C110.089 29.901 109.432 30 108.703 30H107.531L107.516 26.9062L108.109 26.8594C108.495 26.8281 108.828 26.7292 109.109 26.5625C109.391 26.3854 109.63 26.1354 109.828 25.8125C110.036 25.4896 110.203 25.0729 110.328 24.5625C110.464 24.0521 110.568 23.4479 110.641 22.75C110.724 22.0521 110.786 21.2396 110.828 20.3125L111.141 13.0938ZM130.828 21.7344H134.734L129.938 30H126.047L130.828 21.7344ZM133.578 13.0938H140.828V30H137.078V16.0625H133.578C132.87 16.0625 132.286 16.1875 131.828 16.4375C131.37 16.6771 131.031 16.9948 130.812 17.3906C130.594 17.776 130.484 18.1719 130.484 18.5781C130.484 18.9844 130.583 19.375 130.781 19.75C130.99 20.125 131.307 20.4323 131.734 20.6719C132.172 20.9115 132.719 21.0312 133.375 21.0312H138.344V23.7812H133.375C132.333 23.7812 131.401 23.651 130.578 23.3906C129.755 23.1198 129.057 22.75 128.484 22.2812C127.911 21.8021 127.474 21.2448 127.172 20.6094C126.87 19.9635 126.719 19.2604 126.719 18.5C126.719 17.7188 126.875 17 127.188 16.3438C127.5 15.6875 127.948 15.1146 128.531 14.625C129.125 14.1354 129.844 13.7604 130.688 13.5C131.542 13.2292 132.505 13.0938 133.578 13.0938ZM152.859 13.0938V30H149.078V13.0938H152.859ZM158.406 13.0938V16.0625H143.625V13.0938H158.406ZM159.609 21.7344V21.375C159.609 20.1562 159.786 19.026 160.141 17.9844C160.495 16.9323 161.005 16.0208 161.672 15.25C162.349 14.4688 163.172 13.8646 164.141 13.4375C165.12 13 166.224 12.7812 167.453 12.7812C168.693 12.7812 169.797 13 170.766 13.4375C171.745 13.8646 172.573 14.4688 173.25 15.25C173.927 16.0208 174.443 16.9323 174.797 17.9844C175.151 19.026 175.328 20.1562 175.328 21.375V21.7344C175.328 22.9531 175.151 24.0833 174.797 25.125C174.443 26.1667 173.927 27.0781 173.25 27.8594C172.573 28.6302 171.75 29.2344 170.781 29.6719C169.812 30.099 168.714 30.3125 167.484 30.3125C166.245 30.3125 165.135 30.099 164.156 29.6719C163.188 29.2344 162.365 28.6302 161.688 27.8594C161.01 27.0781 160.495 26.1667 160.141 25.125C159.786 24.0833 159.609 22.9531 159.609 21.7344ZM163.375 21.375V21.7344C163.375 22.4948 163.453 23.2135 163.609 23.8906C163.766 24.5677 164.01 25.1615 164.344 25.6719C164.677 26.1823 165.104 26.5833 165.625 26.875C166.146 27.1667 166.766 27.3125 167.484 27.3125C168.182 27.3125 168.786 27.1667 169.297 26.875C169.818 26.5833 170.245 26.1823 170.578 25.6719C170.911 25.1615 171.156 24.5677 171.312 23.8906C171.479 23.2135 171.562 22.4948 171.562 21.7344V21.375C171.562 20.625 171.479 19.9167 171.312 19.25C171.156 18.5729 170.906 17.974 170.562 17.4531C170.229 16.9323 169.802 16.526 169.281 16.2344C168.771 15.9323 168.161 15.7812 167.453 15.7812C166.745 15.7812 166.13 15.9323 165.609 16.2344C165.099 16.526 164.677 16.9323 164.344 17.4531C164.01 17.974 163.766 18.5729 163.609 19.25C163.453 19.9167 163.375 20.625 163.375 21.375ZM182.266 16.3438V36.5H178.5V13.0938H181.969L182.266 16.3438ZM193.281 21.3906V21.7188C193.281 22.9479 193.135 24.0885 192.844 25.1406C192.562 26.1823 192.141 27.0938 191.578 27.875C191.026 28.6458 190.344 29.2448 189.531 29.6719C188.719 30.099 187.781 30.3125 186.719 30.3125C185.667 30.3125 184.745 30.1198 183.953 29.7344C183.172 29.3385 182.51 28.7812 181.969 28.0625C181.427 27.3438 180.99 26.5 180.656 25.5312C180.333 24.5521 180.104 23.4792 179.969 22.3125V21.0469C180.104 19.8073 180.333 18.6823 180.656 17.6719C180.99 16.6615 181.427 15.7917 181.969 15.0625C182.51 14.3333 183.172 13.7708 183.953 13.375C184.734 12.9792 185.646 12.7812 186.688 12.7812C187.75 12.7812 188.693 12.9896 189.516 13.4062C190.339 13.8125 191.031 14.3958 191.594 15.1562C192.156 15.9062 192.578 16.8125 192.859 17.875C193.141 18.9271 193.281 20.099 193.281 21.3906ZM189.516 21.7188V21.3906C189.516 20.6094 189.443 19.8854 189.297 19.2188C189.151 18.5417 188.922 17.9479 188.609 17.4375C188.297 16.9271 187.896 16.5312 187.406 16.25C186.927 15.9583 186.349 15.8125 185.672 15.8125C185.005 15.8125 184.432 15.9271 183.953 16.1562C183.474 16.375 183.073 16.6823 182.75 17.0781C182.427 17.474 182.177 17.9375 182 18.4688C181.823 18.9896 181.698 19.5573 181.625 20.1719V23.2031C181.75 23.9531 181.964 24.6406 182.266 25.2656C182.568 25.8906 182.995 26.3906 183.547 26.7656C184.109 27.1302 184.828 27.3125 185.703 27.3125C186.38 27.3125 186.958 27.1667 187.438 26.875C187.917 26.5833 188.307 26.1823 188.609 25.6719C188.922 25.151 189.151 24.5521 189.297 23.875C189.443 23.1979 189.516 22.4792 189.516 21.7188Z" fill="#1C2127"/>
<path d="M209.24 61.7812V76H206.799V61.7812H209.24ZM217.795 61.7812L212.014 69.8867H208.547L208.215 67.7578H210.656L214.797 61.7812H217.795ZM215.295 76L210.695 69.5156L212.277 67.6309L218.234 76H215.295ZM225.363 73.8809V68.8418C225.363 68.4642 225.295 68.1387 225.158 67.8652C225.021 67.5918 224.813 67.3802 224.533 67.2305C224.26 67.0807 223.915 67.0059 223.498 67.0059C223.114 67.0059 222.782 67.071 222.502 67.2012C222.222 67.3314 222.004 67.5072 221.848 67.7285C221.691 67.9499 221.613 68.2005 221.613 68.4805H219.27C219.27 68.0638 219.37 67.6602 219.572 67.2695C219.774 66.8789 220.067 66.5306 220.451 66.2246C220.835 65.9186 221.294 65.6777 221.828 65.502C222.362 65.3262 222.961 65.2383 223.625 65.2383C224.419 65.2383 225.122 65.3717 225.734 65.6387C226.353 65.9056 226.838 66.3092 227.189 66.8496C227.548 67.3835 227.727 68.054 227.727 68.8613V73.5586C227.727 74.0404 227.759 74.4733 227.824 74.8574C227.896 75.235 227.997 75.5638 228.127 75.8438V76H225.715C225.604 75.7461 225.516 75.4238 225.451 75.0332C225.393 74.6361 225.363 74.252 225.363 73.8809ZM225.705 69.5742L225.725 71.0293H224.035C223.599 71.0293 223.215 71.0716 222.883 71.1562C222.551 71.2344 222.274 71.3516 222.053 71.5078C221.831 71.6641 221.665 71.8529 221.555 72.0742C221.444 72.2956 221.389 72.5462 221.389 72.8262C221.389 73.1061 221.454 73.3633 221.584 73.5977C221.714 73.8255 221.903 74.0046 222.15 74.1348C222.404 74.265 222.71 74.3301 223.068 74.3301C223.55 74.3301 223.97 74.2324 224.328 74.0371C224.693 73.8353 224.979 73.5911 225.188 73.3047C225.396 73.0117 225.507 72.735 225.52 72.4746L226.281 73.5195C226.203 73.7865 226.07 74.0729 225.881 74.3789C225.692 74.6849 225.445 74.9779 225.139 75.2578C224.839 75.5312 224.478 75.7559 224.055 75.9316C223.638 76.1074 223.156 76.1953 222.609 76.1953C221.919 76.1953 221.304 76.0586 220.764 75.7852C220.223 75.5052 219.8 75.1309 219.494 74.6621C219.188 74.1868 219.035 73.6497 219.035 73.0508C219.035 72.4909 219.139 71.9961 219.348 71.5664C219.562 71.1302 219.875 70.7656 220.285 70.4727C220.702 70.1797 221.21 69.9583 221.809 69.8086C222.408 69.6523 223.091 69.5742 223.859 69.5742H225.705ZM232.727 65.4336V76H230.373V65.4336H232.727ZM239.621 65.4336L234.865 71.791H232.18L231.867 69.6621H233.83L236.682 65.4336H239.621ZM236.867 76L233.684 71.3906L235.539 70.0527L239.963 76H236.867ZM240.441 70.834V70.6094C240.441 69.8477 240.552 69.1413 240.773 68.4902C240.995 67.8327 241.314 67.263 241.73 66.7812C242.154 66.293 242.668 65.9154 243.273 65.6484C243.885 65.375 244.576 65.2383 245.344 65.2383C246.118 65.2383 246.809 65.375 247.414 65.6484C248.026 65.9154 248.544 66.293 248.967 66.7812C249.39 67.263 249.712 67.8327 249.934 68.4902C250.155 69.1413 250.266 69.8477 250.266 70.6094V70.834C250.266 71.5957 250.155 72.3021 249.934 72.9531C249.712 73.6042 249.39 74.1738 248.967 74.6621C248.544 75.1439 248.029 75.5215 247.424 75.7949C246.818 76.0618 246.132 76.1953 245.363 76.1953C244.589 76.1953 243.895 76.0618 243.283 75.7949C242.678 75.5215 242.163 75.1439 241.74 74.6621C241.317 74.1738 240.995 73.6042 240.773 72.9531C240.552 72.3021 240.441 71.5957 240.441 70.834ZM242.795 70.6094V70.834C242.795 71.3092 242.844 71.7585 242.941 72.1816C243.039 72.6048 243.192 72.9759 243.4 73.2949C243.609 73.6139 243.876 73.8646 244.201 74.0469C244.527 74.2292 244.914 74.3203 245.363 74.3203C245.799 74.3203 246.177 74.2292 246.496 74.0469C246.822 73.8646 247.089 73.6139 247.297 73.2949C247.505 72.9759 247.658 72.6048 247.756 72.1816C247.86 71.7585 247.912 71.3092 247.912 70.834V70.6094C247.912 70.1406 247.86 69.6979 247.756 69.2812C247.658 68.8581 247.502 68.4837 247.287 68.1582C247.079 67.8327 246.812 67.5788 246.486 67.3965C246.167 67.2077 245.786 67.1133 245.344 67.1133C244.901 67.1133 244.517 67.2077 244.191 67.3965C243.872 67.5788 243.609 67.8327 243.4 68.1582C243.192 68.4837 243.039 68.8581 242.941 69.2812C242.844 69.6979 242.795 70.1406 242.795 70.6094ZM254.67 72.5625L258.82 65.4336H261.174V76H258.82V68.8613L254.67 76H252.316V65.4336H254.67V72.5625ZM258.195 61.3711H259.943C259.943 61.9115 259.813 62.39 259.553 62.8066C259.299 63.2168 258.934 63.5391 258.459 63.7734C257.99 64.0078 257.43 64.125 256.779 64.125C255.796 64.125 255.018 63.8711 254.445 63.3633C253.879 62.849 253.596 62.1849 253.596 61.3711H255.344C255.344 61.7357 255.451 62.0579 255.666 62.3379C255.887 62.6113 256.258 62.748 256.779 62.748C257.294 62.748 257.658 62.6113 257.873 62.3379C258.088 62.0579 258.195 61.7357 258.195 61.3711ZM281.193 70.8438V71.0488C281.193 71.7975 281.109 72.4876 280.939 73.1191C280.777 73.7441 280.533 74.2878 280.207 74.75C279.882 75.2122 279.478 75.5703 278.996 75.8242C278.521 76.0781 277.967 76.2051 277.336 76.2051C276.783 76.2051 276.301 76.1107 275.891 75.9219C275.48 75.7331 275.135 75.4694 274.855 75.1309C274.576 74.7858 274.351 74.3822 274.182 73.9199C274.012 73.4512 273.889 72.9368 273.811 72.377V69.3203C273.889 68.7214 274.009 68.1745 274.172 67.6797C274.341 67.1784 274.566 66.7454 274.846 66.3809C275.132 66.0163 275.477 65.7363 275.881 65.541C276.285 65.3392 276.763 65.2383 277.316 65.2383C277.824 65.2383 278.283 65.3294 278.693 65.5117C279.104 65.6875 279.465 65.9414 279.777 66.2734C280.09 66.599 280.35 66.9928 280.559 67.4551C280.767 67.9108 280.923 68.4251 281.027 68.998C281.138 69.571 281.193 70.1862 281.193 70.8438ZM278.84 71.0488V70.8438C278.84 70.4336 278.814 70.043 278.762 69.6719C278.71 69.3008 278.628 68.9622 278.518 68.6562C278.413 68.3438 278.277 68.0736 278.107 67.8457C277.938 67.6113 277.733 67.4323 277.492 67.3086C277.258 67.1784 276.984 67.1133 276.672 67.1133C276.249 67.1133 275.897 67.1849 275.617 67.3281C275.344 67.4648 275.135 67.6602 274.992 67.9141C274.855 68.1615 274.768 68.4479 274.729 68.7734V72.9336C274.774 73.207 274.868 73.4479 275.012 73.6562C275.161 73.8646 275.373 74.0306 275.646 74.1543C275.92 74.2715 276.268 74.3301 276.691 74.3301C277.082 74.3301 277.411 74.2487 277.678 74.0859C277.951 73.9167 278.173 73.6823 278.342 73.3828C278.518 73.0833 278.645 72.735 278.723 72.3379C278.801 71.9408 278.84 71.5111 278.84 71.0488ZM268.244 71.0488V70.8438C268.244 70.1862 268.296 69.571 268.4 68.998C268.505 68.4251 268.661 67.9108 268.869 67.4551C269.084 66.9928 269.348 66.599 269.66 66.2734C269.973 65.9414 270.334 65.6875 270.744 65.5117C271.154 65.3294 271.613 65.2383 272.121 65.2383C272.668 65.2383 273.14 65.3392 273.537 65.541C273.934 65.7363 274.27 66.0163 274.543 66.3809C274.823 66.7454 275.044 67.1784 275.207 67.6797C275.376 68.1745 275.5 68.7214 275.578 69.3203V72.2598C275.507 72.8327 275.386 73.36 275.217 73.8418C275.048 74.3236 274.826 74.7402 274.553 75.0918C274.279 75.4434 273.941 75.7168 273.537 75.9121C273.133 76.1074 272.655 76.2051 272.102 76.2051C271.477 76.2051 270.923 76.0781 270.441 75.8242C269.96 75.5703 269.556 75.2122 269.23 74.75C268.905 74.2878 268.658 73.7441 268.488 73.1191C268.326 72.4876 268.244 71.7975 268.244 71.0488ZM270.598 70.8438V71.0488C270.598 71.5111 270.633 71.9408 270.705 72.3379C270.783 72.735 270.904 73.0833 271.066 73.3828C271.229 73.6758 271.444 73.9069 271.711 74.0762C271.978 74.2454 272.307 74.3301 272.697 74.3301C273.127 74.3301 273.479 74.265 273.752 74.1348C274.025 74.0046 274.234 73.8255 274.377 73.5977C274.527 73.3698 274.624 73.1094 274.67 72.8164V68.7734C274.631 68.4479 274.54 68.1615 274.396 67.9141C274.253 67.6602 274.045 67.4648 273.771 67.3281C273.498 67.1849 273.146 67.1133 272.717 67.1133C272.326 67.1133 271.994 67.2109 271.721 67.4062C271.454 67.6016 271.236 67.8717 271.066 68.2168C270.904 68.5553 270.783 68.9525 270.705 69.4082C270.633 69.8574 270.598 70.3359 270.598 70.8438ZM273.488 80.0625V61H275.852V80.0625H273.488ZM286.164 74.8477L289.035 65.4336H291.555L287.316 77.6113C287.219 77.8717 287.092 78.1549 286.936 78.4609C286.779 78.7669 286.574 79.0566 286.32 79.3301C286.073 79.61 285.764 79.8346 285.393 80.0039C285.021 80.1797 284.572 80.2676 284.045 80.2676C283.837 80.2676 283.635 80.248 283.439 80.209C283.251 80.1764 283.072 80.1406 282.902 80.1016L282.893 78.3047C282.958 78.3112 283.036 78.3177 283.127 78.3242C283.225 78.3307 283.303 78.334 283.361 78.334C283.752 78.334 284.077 78.2852 284.338 78.1875C284.598 78.0964 284.81 77.9466 284.973 77.7383C285.142 77.5299 285.285 77.25 285.402 76.8984L286.164 74.8477ZM284.543 65.4336L287.053 73.3438L287.473 75.8242L285.842 76.2441L282.004 65.4336H284.543ZM300.119 69.8477V71.7031H294.65V69.8477H300.119ZM295.334 65.4336V76H292.98V65.4336H295.334ZM301.818 65.4336V76H299.465V65.4336H301.818ZM306.867 65.4336V76H304.514V65.4336H306.867ZM313.762 65.4336L309.006 71.791H306.32L306.008 69.6621H307.971L310.822 65.4336H313.762ZM311.008 76L307.824 71.3906L309.68 70.0527L314.104 76H311.008ZM315.461 76V65.4336H317.814V74.125H321.955V65.4336H324.318V76H315.461ZM325.754 74.1348L325.568 79.1348H323.41V76H322.141V74.1348H325.754ZM329.846 72.5625L333.996 65.4336H336.35V76H333.996V68.8613L329.846 76H327.492V65.4336H329.846V72.5625ZM338.391 70.834V70.6094C338.391 69.8477 338.501 69.1413 338.723 68.4902C338.944 67.8327 339.263 67.263 339.68 66.7812C340.103 66.293 340.617 65.9154 341.223 65.6484C341.835 65.375 342.525 65.2383 343.293 65.2383C344.068 65.2383 344.758 65.375 345.363 65.6484C345.975 65.9154 346.493 66.293 346.916 66.7812C347.339 67.263 347.661 67.8327 347.883 68.4902C348.104 69.1413 348.215 69.8477 348.215 70.6094V70.834C348.215 71.5957 348.104 72.3021 347.883 72.9531C347.661 73.6042 347.339 74.1738 346.916 74.6621C346.493 75.1439 345.979 75.5215 345.373 75.7949C344.768 76.0618 344.081 76.1953 343.312 76.1953C342.538 76.1953 341.844 76.0618 341.232 75.7949C340.627 75.5215 340.113 75.1439 339.689 74.6621C339.266 74.1738 338.944 73.6042 338.723 72.9531C338.501 72.3021 338.391 71.5957 338.391 70.834ZM340.744 70.6094V70.834C340.744 71.3092 340.793 71.7585 340.891 72.1816C340.988 72.6048 341.141 72.9759 341.35 73.2949C341.558 73.6139 341.825 73.8646 342.15 74.0469C342.476 74.2292 342.863 74.3203 343.312 74.3203C343.749 74.3203 344.126 74.2292 344.445 74.0469C344.771 73.8646 345.038 73.6139 345.246 73.2949C345.454 72.9759 345.607 72.6048 345.705 72.1816C345.809 71.7585 345.861 71.3092 345.861 70.834V70.6094C345.861 70.1406 345.809 69.6979 345.705 69.2812C345.607 68.8581 345.451 68.4837 345.236 68.1582C345.028 67.8327 344.761 67.5788 344.436 67.3965C344.117 67.2077 343.736 67.1133 343.293 67.1133C342.85 67.1133 342.466 67.2077 342.141 67.3965C341.822 67.5788 341.558 67.8327 341.35 68.1582C341.141 68.4837 340.988 68.8581 340.891 69.2812C340.793 69.6979 340.744 70.1406 340.744 70.6094ZM357.404 69.8477V71.7031H351.936V69.8477H357.404ZM352.619 65.4336V76H350.266V65.4336H352.619ZM359.104 65.4336V76H356.75V65.4336H359.104ZM367.57 73.8809V68.8418C367.57 68.4642 367.502 68.1387 367.365 67.8652C367.229 67.5918 367.02 67.3802 366.74 67.2305C366.467 67.0807 366.122 67.0059 365.705 67.0059C365.321 67.0059 364.989 67.071 364.709 67.2012C364.429 67.3314 364.211 67.5072 364.055 67.7285C363.898 67.9499 363.82 68.2005 363.82 68.4805H361.477C361.477 68.0638 361.577 67.6602 361.779 67.2695C361.981 66.8789 362.274 66.5306 362.658 66.2246C363.042 65.9186 363.501 65.6777 364.035 65.502C364.569 65.3262 365.168 65.2383 365.832 65.2383C366.626 65.2383 367.329 65.3717 367.941 65.6387C368.56 65.9056 369.045 66.3092 369.396 66.8496C369.755 67.3835 369.934 68.054 369.934 68.8613V73.5586C369.934 74.0404 369.966 74.4733 370.031 74.8574C370.103 75.235 370.204 75.5638 370.334 75.8438V76H367.922C367.811 75.7461 367.723 75.4238 367.658 75.0332C367.6 74.6361 367.57 74.252 367.57 73.8809ZM367.912 69.5742L367.932 71.0293H366.242C365.806 71.0293 365.422 71.0716 365.09 71.1562C364.758 71.2344 364.481 71.3516 364.26 71.5078C364.038 71.6641 363.872 71.8529 363.762 72.0742C363.651 72.2956 363.596 72.5462 363.596 72.8262C363.596 73.1061 363.661 73.3633 363.791 73.5977C363.921 73.8255 364.11 74.0046 364.357 74.1348C364.611 74.265 364.917 74.3301 365.275 74.3301C365.757 74.3301 366.177 74.2324 366.535 74.0371C366.9 73.8353 367.186 73.5911 367.395 73.3047C367.603 73.0117 367.714 72.735 367.727 72.4746L368.488 73.5195C368.41 73.7865 368.277 74.0729 368.088 74.3789C367.899 74.6849 367.652 74.9779 367.346 75.2578C367.046 75.5312 366.685 75.7559 366.262 75.9316C365.845 76.1074 365.363 76.1953 364.816 76.1953C364.126 76.1953 363.511 76.0586 362.971 75.7852C362.43 75.5052 362.007 75.1309 361.701 74.6621C361.395 74.1868 361.242 73.6497 361.242 73.0508C361.242 72.4909 361.346 71.9961 361.555 71.5664C361.77 71.1302 362.082 70.7656 362.492 70.4727C362.909 70.1797 363.417 69.9583 364.016 69.8086C364.615 69.6523 365.298 69.5742 366.066 69.5742H367.912ZM379.494 65.4336V67.3086H374.338V65.4336H379.494ZM381.34 65.4336V76H378.986V65.4336H381.34ZM373.762 65.4336H376.086L375.803 70.6582C375.764 71.4329 375.686 72.1165 375.568 72.709C375.458 73.2949 375.308 73.7995 375.119 74.2227C374.93 74.6393 374.699 74.9779 374.426 75.2383C374.152 75.4987 373.833 75.6908 373.469 75.8145C373.104 75.9382 372.694 76 372.238 76H371.506L371.496 74.0664L371.867 74.0371C372.108 74.0176 372.316 73.9557 372.492 73.8516C372.668 73.7409 372.818 73.5846 372.941 73.3828C373.072 73.181 373.176 72.9206 373.254 72.6016C373.339 72.2826 373.404 71.9049 373.449 71.4688C373.501 71.0326 373.54 70.5247 373.566 69.9453L373.762 65.4336ZM390.734 65.4336H393.088L392.971 69.1543C392.938 70.235 392.814 71.1628 392.6 71.9375C392.385 72.7122 392.105 73.3665 391.76 73.9004C391.415 74.4277 391.024 74.8607 390.588 75.1992C390.158 75.5378 389.706 75.8047 389.23 76H388.537V74.1445L388.869 74.125C389.149 73.8255 389.39 73.526 389.592 73.2266C389.8 72.9206 389.976 72.5853 390.119 72.2207C390.262 71.8496 390.373 71.4167 390.451 70.9219C390.536 70.4271 390.591 69.8379 390.617 69.1543L390.734 65.4336ZM391.359 65.4336H398.059V76H395.715V67.4258H391.359V65.4336ZM388 74.125H399.504V79.1445H397.15V76H390.383V79.1445H387.99L388 74.125ZM400.734 70.834V70.6094C400.734 69.8477 400.845 69.1413 401.066 68.4902C401.288 67.8327 401.607 67.263 402.023 66.7812C402.447 66.293 402.961 65.9154 403.566 65.6484C404.178 65.375 404.868 65.2383 405.637 65.2383C406.411 65.2383 407.102 65.375 407.707 65.6484C408.319 65.9154 408.837 66.293 409.26 66.7812C409.683 67.263 410.005 67.8327 410.227 68.4902C410.448 69.1413 410.559 69.8477 410.559 70.6094V70.834C410.559 71.5957 410.448 72.3021 410.227 72.9531C410.005 73.6042 409.683 74.1738 409.26 74.6621C408.837 75.1439 408.322 75.5215 407.717 75.7949C407.111 76.0618 406.424 76.1953 405.656 76.1953C404.882 76.1953 404.188 76.0618 403.576 75.7949C402.971 75.5215 402.456 75.1439 402.033 74.6621C401.61 74.1738 401.288 73.6042 401.066 72.9531C400.845 72.3021 400.734 71.5957 400.734 70.834ZM403.088 70.6094V70.834C403.088 71.3092 403.137 71.7585 403.234 72.1816C403.332 72.6048 403.485 72.9759 403.693 73.2949C403.902 73.6139 404.169 73.8646 404.494 74.0469C404.82 74.2292 405.207 74.3203 405.656 74.3203C406.092 74.3203 406.47 74.2292 406.789 74.0469C407.115 73.8646 407.382 73.6139 407.59 73.2949C407.798 72.9759 407.951 72.6048 408.049 72.1816C408.153 71.7585 408.205 71.3092 408.205 70.834V70.6094C408.205 70.1406 408.153 69.6979 408.049 69.2812C407.951 68.8581 407.795 68.4837 407.58 68.1582C407.372 67.8327 407.105 67.5788 406.779 67.3965C406.46 67.2077 406.079 67.1133 405.637 67.1133C405.194 67.1133 404.81 67.2077 404.484 67.3965C404.165 67.5788 403.902 67.8327 403.693 68.1582C403.485 68.4837 403.332 68.8581 403.234 69.2812C403.137 69.6979 403.088 70.1406 403.088 70.6094ZM419.475 65.4336V67.3086H414.318V65.4336H419.475ZM421.32 65.4336V76H418.967V65.4336H421.32ZM413.742 65.4336H416.066L415.783 70.6582C415.744 71.4329 415.666 72.1165 415.549 72.709C415.438 73.2949 415.288 73.7995 415.1 74.2227C414.911 74.6393 414.68 74.9779 414.406 75.2383C414.133 75.4987 413.814 75.6908 413.449 75.8145C413.085 75.9382 412.674 76 412.219 76H411.486L411.477 74.0664L411.848 74.0371C412.089 74.0176 412.297 73.9557 412.473 73.8516C412.648 73.7409 412.798 73.5846 412.922 73.3828C413.052 73.181 413.156 72.9206 413.234 72.6016C413.319 72.2826 413.384 71.9049 413.43 71.4688C413.482 71.0326 413.521 70.5247 413.547 69.9453L413.742 65.4336ZM427.326 71.7324L423.107 65.4336H425.998L428.459 69.5938H430.52L430.217 71.7324H427.326ZM428.518 71.3906L425.812 76H422.922L426.75 70.0527L428.518 71.3906ZM431.936 65.4336V76H429.592V65.4336H431.936ZM438.449 65.4336L434.23 71.7324H431.33L431.018 69.5938H433.088L435.549 65.4336H438.449ZM435.734 76L433.02 71.3906L434.846 70.0527L438.654 76H435.734ZM444.611 76.1953C443.83 76.1953 443.124 76.0684 442.492 75.8145C441.867 75.554 441.333 75.1927 440.891 74.7305C440.454 74.2682 440.119 73.7246 439.885 73.0996C439.65 72.4746 439.533 71.8008 439.533 71.0781V70.6875C439.533 69.8607 439.654 69.112 439.895 68.4414C440.135 67.7708 440.471 67.1979 440.9 66.7227C441.33 66.2409 441.838 65.873 442.424 65.6191C443.01 65.3652 443.645 65.2383 444.328 65.2383C445.083 65.2383 445.744 65.3652 446.311 65.6191C446.877 65.873 447.346 66.2311 447.717 66.6934C448.094 67.1491 448.374 67.6927 448.557 68.3242C448.745 68.9557 448.84 69.6523 448.84 70.4141V71.4199H440.676V69.7305H446.516V69.5449C446.503 69.1217 446.418 68.7246 446.262 68.3535C446.112 67.9824 445.881 67.6829 445.568 67.4551C445.256 67.2272 444.839 67.1133 444.318 67.1133C443.928 67.1133 443.579 67.1979 443.273 67.3672C442.974 67.5299 442.723 67.7676 442.521 68.0801C442.32 68.3926 442.163 68.7702 442.053 69.2129C441.949 69.6491 441.896 70.1406 441.896 70.6875V71.0781C441.896 71.5404 441.958 71.9701 442.082 72.3672C442.212 72.7578 442.401 73.0996 442.648 73.3926C442.896 73.6855 443.195 73.9167 443.547 74.0859C443.898 74.2487 444.299 74.3301 444.748 74.3301C445.314 74.3301 445.819 74.2161 446.262 73.9883C446.704 73.7604 447.089 73.4382 447.414 73.0215L448.654 74.2227C448.426 74.5547 448.13 74.8737 447.766 75.1797C447.401 75.4792 446.955 75.7233 446.428 75.9121C445.907 76.1009 445.301 76.1953 444.611 76.1953ZM457.893 69.8477V71.7031H452.424V69.8477H457.893ZM453.107 65.4336V76H450.754V65.4336H453.107ZM459.592 65.4336V76H457.238V65.4336H459.592ZM473.713 60.8047H475.617C475.617 61.3841 475.536 61.8626 475.373 62.2402C475.217 62.6113 474.982 62.9173 474.67 63.1582C474.364 63.3926 473.983 63.5814 473.527 63.7246C473.078 63.8678 472.557 63.998 471.965 64.1152C471.418 64.2324 470.923 64.418 470.48 64.6719C470.044 64.9193 469.676 65.2676 469.377 65.7168C469.084 66.1595 468.872 66.7292 468.742 67.4258C468.612 68.1224 468.573 68.972 468.625 69.9746V70.6387L466.76 70.8047V70.1406C466.76 68.8971 466.874 67.8132 467.102 66.8887C467.329 65.9642 467.652 65.1862 468.068 64.5547C468.492 63.9167 468.993 63.4089 469.572 63.0312C470.158 62.6536 470.809 62.3932 471.525 62.25C472.014 62.1458 472.421 62.0417 472.746 61.9375C473.072 61.8268 473.312 61.6868 473.469 61.5176C473.632 61.3418 473.713 61.1042 473.713 60.8047ZM472.062 66.0293C472.766 66.0293 473.391 66.153 473.938 66.4004C474.484 66.6413 474.947 66.9798 475.324 67.416C475.702 67.8522 475.988 68.3665 476.184 68.959C476.385 69.5514 476.486 70.196 476.486 70.8926V71.1074C476.486 71.8366 476.379 72.5104 476.164 73.1289C475.949 73.7474 475.633 74.2878 475.217 74.75C474.8 75.2057 474.289 75.5638 473.684 75.8242C473.085 76.0781 472.398 76.2051 471.623 76.2051C470.855 76.2051 470.168 76.0716 469.562 75.8047C468.957 75.5378 468.446 75.1667 468.029 74.6914C467.613 74.2096 467.297 73.6465 467.082 73.002C466.867 72.3574 466.76 71.6543 466.76 70.8926V70.6777C466.753 70.541 466.789 70.4076 466.867 70.2773C466.952 70.1471 467.053 70.0072 467.17 69.8574C467.287 69.7077 467.391 69.5352 467.482 69.3398C467.808 68.6823 468.192 68.1061 468.635 67.6113C469.077 67.1165 469.582 66.7292 470.148 66.4492C470.721 66.1693 471.359 66.0293 472.062 66.0293ZM471.604 67.8945C471.018 67.8945 470.539 68.0345 470.168 68.3145C469.803 68.5879 469.533 68.9525 469.357 69.4082C469.188 69.8639 469.104 70.3587 469.104 70.8926V71.1074C469.104 71.5436 469.152 71.957 469.25 72.3477C469.348 72.7383 469.494 73.0833 469.689 73.3828C469.891 73.6758 470.152 73.9069 470.471 74.0762C470.796 74.2454 471.18 74.3301 471.623 74.3301C472.072 74.3301 472.453 74.2454 472.766 74.0762C473.085 73.9069 473.342 73.6758 473.537 73.3828C473.739 73.0833 473.885 72.7383 473.977 72.3477C474.074 71.957 474.123 71.5436 474.123 71.1074V70.8926C474.123 70.4889 474.074 70.1081 473.977 69.75C473.885 69.3919 473.739 69.0762 473.537 68.8027C473.335 68.5228 473.075 68.3014 472.756 68.1387C472.437 67.9759 472.053 67.8945 471.604 67.8945ZM480.08 68.793H483.195C484.107 68.793 484.882 68.946 485.52 69.252C486.158 69.5579 486.643 69.9844 486.975 70.5312C487.313 71.0716 487.482 71.6901 487.482 72.3867C487.482 72.901 487.388 73.3796 487.199 73.8223C487.01 74.2585 486.73 74.6393 486.359 74.9648C485.995 75.2904 485.546 75.5443 485.012 75.7266C484.484 75.9089 483.879 76 483.195 76H478.518V65.4336H480.881V74.1348H483.195C483.664 74.1348 484.038 74.0534 484.318 73.8906C484.598 73.7279 484.8 73.5163 484.924 73.2559C485.054 72.9954 485.119 72.7188 485.119 72.4258C485.119 72.1263 485.054 71.8431 484.924 71.5762C484.8 71.3092 484.598 71.0911 484.318 70.9219C484.038 70.7526 483.664 70.668 483.195 70.668H480.08V68.793ZM491.643 65.4336V76H489.289V65.4336H491.643ZM499.328 65.4336V76H496.965V65.4336H499.328ZM502.795 65.4336V67.2891H493.557V65.4336H502.795ZM506.115 68.793H509.23C510.142 68.793 510.917 68.946 511.555 69.252C512.193 69.5579 512.678 69.9844 513.01 70.5312C513.348 71.0716 513.518 71.6901 513.518 72.3867C513.518 72.901 513.423 73.3796 513.234 73.8223C513.046 74.2585 512.766 74.6393 512.395 74.9648C512.03 75.2904 511.581 75.5443 511.047 75.7266C510.52 75.9089 509.914 76 509.23 76H504.553V65.4336H506.916V74.1348H509.23C509.699 74.1348 510.074 74.0534 510.354 73.8906C510.633 73.7279 510.835 73.5163 510.959 73.2559C511.089 72.9954 511.154 72.7188 511.154 72.4258C511.154 72.1263 511.089 71.8431 510.959 71.5762C510.835 71.3092 510.633 71.0911 510.354 70.9219C510.074 70.7526 509.699 70.668 509.23 70.668H506.115V68.793ZM523.449 74.8477L526.32 65.4336H528.84L524.602 77.6113C524.504 77.8717 524.377 78.1549 524.221 78.4609C524.064 78.7669 523.859 79.0566 523.605 79.3301C523.358 79.61 523.049 79.8346 522.678 80.0039C522.307 80.1797 521.857 80.2676 521.33 80.2676C521.122 80.2676 520.92 80.248 520.725 80.209C520.536 80.1764 520.357 80.1406 520.188 80.1016L520.178 78.3047C520.243 78.3112 520.321 78.3177 520.412 78.3242C520.51 78.3307 520.588 78.334 520.646 78.334C521.037 78.334 521.363 78.2852 521.623 78.1875C521.883 78.0964 522.095 77.9466 522.258 77.7383C522.427 77.5299 522.57 77.25 522.688 76.8984L523.449 74.8477ZM521.828 65.4336L524.338 73.3438L524.758 75.8242L523.127 76.2441L519.289 65.4336H521.828ZM540.305 71.4785H536.926L536.906 69.8184H539.68C540.135 69.8184 540.51 69.7728 540.803 69.6816C541.102 69.5905 541.324 69.4538 541.467 69.2715C541.61 69.0827 541.682 68.8548 541.682 68.5879C541.682 68.3665 541.639 68.1745 541.555 68.0117C541.47 67.8424 541.34 67.7057 541.164 67.6016C540.995 67.4909 540.78 67.4128 540.52 67.3672C540.266 67.3151 539.969 67.2891 539.631 67.2891H537.707V76H535.354V65.4336H539.631C540.308 65.4336 540.917 65.4922 541.457 65.6094C542.004 65.7266 542.469 65.9056 542.854 66.1465C543.238 66.3874 543.531 66.6934 543.732 67.0645C543.941 67.429 544.045 67.8587 544.045 68.3535C544.045 68.679 543.973 68.985 543.83 69.2715C543.693 69.5579 543.488 69.8118 543.215 70.0332C542.941 70.2546 542.606 70.4368 542.209 70.5801C541.812 70.7168 541.356 70.8014 540.842 70.834L540.305 71.4785ZM540.305 76H536.242L537.18 74.1445H540.305C540.721 74.1445 541.066 74.0924 541.34 73.9883C541.613 73.8841 541.815 73.7344 541.945 73.5391C542.082 73.3372 542.15 73.0996 542.15 72.8262C542.15 72.5462 542.085 72.3053 541.955 72.1035C541.825 71.9017 541.623 71.7487 541.35 71.6445C541.083 71.5339 540.734 71.4785 540.305 71.4785H537.619L537.639 69.8184H540.832L541.506 70.4629C542.176 70.5085 542.733 70.6517 543.176 70.8926C543.618 71.1335 543.951 71.4362 544.172 71.8008C544.393 72.1654 544.504 72.5625 544.504 72.9922C544.504 73.487 544.41 73.9232 544.221 74.3008C544.038 74.6784 543.765 74.9941 543.4 75.248C543.042 75.4954 542.603 75.6842 542.082 75.8145C541.561 75.9382 540.969 76 540.305 76ZM552.492 73.8809V68.8418C552.492 68.4642 552.424 68.1387 552.287 67.8652C552.15 67.5918 551.942 67.3802 551.662 67.2305C551.389 67.0807 551.044 67.0059 550.627 67.0059C550.243 67.0059 549.911 67.071 549.631 67.2012C549.351 67.3314 549.133 67.5072 548.977 67.7285C548.82 67.9499 548.742 68.2005 548.742 68.4805H546.398C546.398 68.0638 546.499 67.6602 546.701 67.2695C546.903 66.8789 547.196 66.5306 547.58 66.2246C547.964 65.9186 548.423 65.6777 548.957 65.502C549.491 65.3262 550.09 65.2383 550.754 65.2383C551.548 65.2383 552.251 65.3717 552.863 65.6387C553.482 65.9056 553.967 66.3092 554.318 66.8496C554.676 67.3835 554.855 68.054 554.855 68.8613V73.5586C554.855 74.0404 554.888 74.4733 554.953 74.8574C555.025 75.235 555.126 75.5638 555.256 75.8438V76H552.844C552.733 75.7461 552.645 75.4238 552.58 75.0332C552.521 74.6361 552.492 74.252 552.492 73.8809ZM552.834 69.5742L552.854 71.0293H551.164C550.728 71.0293 550.344 71.0716 550.012 71.1562C549.68 71.2344 549.403 71.3516 549.182 71.5078C548.96 71.6641 548.794 71.8529 548.684 72.0742C548.573 72.2956 548.518 72.5462 548.518 72.8262C548.518 73.1061 548.583 73.3633 548.713 73.5977C548.843 73.8255 549.032 74.0046 549.279 74.1348C549.533 74.265 549.839 74.3301 550.197 74.3301C550.679 74.3301 551.099 74.2324 551.457 74.0371C551.822 73.8353 552.108 73.5911 552.316 73.3047C552.525 73.0117 552.635 72.735 552.648 72.4746L553.41 73.5195C553.332 73.7865 553.199 74.0729 553.01 74.3789C552.821 74.6849 552.574 74.9779 552.268 75.2578C551.968 75.5312 551.607 75.7559 551.184 75.9316C550.767 76.1074 550.285 76.1953 549.738 76.1953C549.048 76.1953 548.433 76.0586 547.893 75.7852C547.352 75.5052 546.929 75.1309 546.623 74.6621C546.317 74.1868 546.164 73.6497 546.164 73.0508C546.164 72.4909 546.268 71.9961 546.477 71.5664C546.691 71.1302 547.004 70.7656 547.414 70.4727C547.831 70.1797 548.339 69.9583 548.938 69.8086C549.536 69.6523 550.22 69.5742 550.988 69.5742H552.834ZM557.395 65.4336H559.748V74.125H563.098V65.4336H565.471V74.125H568.811V65.4336H571.164V76H557.395V65.4336ZM578.361 76.1953C577.58 76.1953 576.874 76.0684 576.242 75.8145C575.617 75.554 575.083 75.1927 574.641 74.7305C574.204 74.2682 573.869 73.7246 573.635 73.0996C573.4 72.4746 573.283 71.8008 573.283 71.0781V70.6875C573.283 69.8607 573.404 69.112 573.645 68.4414C573.885 67.7708 574.221 67.1979 574.65 66.7227C575.08 66.2409 575.588 65.873 576.174 65.6191C576.76 65.3652 577.395 65.2383 578.078 65.2383C578.833 65.2383 579.494 65.3652 580.061 65.6191C580.627 65.873 581.096 66.2311 581.467 66.6934C581.844 67.1491 582.124 67.6927 582.307 68.3242C582.495 68.9557 582.59 69.6523 582.59 70.4141V71.4199H574.426V69.7305H580.266V69.5449C580.253 69.1217 580.168 68.7246 580.012 68.3535C579.862 67.9824 579.631 67.6829 579.318 67.4551C579.006 67.2272 578.589 67.1133 578.068 67.1133C577.678 67.1133 577.329 67.1979 577.023 67.3672C576.724 67.5299 576.473 67.7676 576.271 68.0801C576.07 68.3926 575.913 68.7702 575.803 69.2129C575.699 69.6491 575.646 70.1406 575.646 70.6875V71.0781C575.646 71.5404 575.708 71.9701 575.832 72.3672C575.962 72.7578 576.151 73.0996 576.398 73.3926C576.646 73.6855 576.945 73.9167 577.297 74.0859C577.648 74.2487 578.049 74.3301 578.498 74.3301C579.064 74.3301 579.569 74.2161 580.012 73.9883C580.454 73.7604 580.839 73.4382 581.164 73.0215L582.404 74.2227C582.176 74.5547 581.88 74.8737 581.516 75.1797C581.151 75.4792 580.705 75.7233 580.178 75.9121C579.657 76.1009 579.051 76.1953 578.361 76.1953ZM591.457 65.4336V67.3086H586.848V76H584.494V65.4336H591.457ZM592.18 70.834V70.6094C592.18 69.8477 592.29 69.1413 592.512 68.4902C592.733 67.8327 593.052 67.263 593.469 66.7812C593.892 66.293 594.406 65.9154 595.012 65.6484C595.624 65.375 596.314 65.2383 597.082 65.2383C597.857 65.2383 598.547 65.375 599.152 65.6484C599.764 65.9154 600.282 66.293 600.705 66.7812C601.128 67.263 601.451 67.8327 601.672 68.4902C601.893 69.1413 602.004 69.8477 602.004 70.6094V70.834C602.004 71.5957 601.893 72.3021 601.672 72.9531C601.451 73.6042 601.128 74.1738 600.705 74.6621C600.282 75.1439 599.768 75.5215 599.162 75.7949C598.557 76.0618 597.87 76.1953 597.102 76.1953C596.327 76.1953 595.633 76.0618 595.021 75.7949C594.416 75.5215 593.902 75.1439 593.479 74.6621C593.055 74.1738 592.733 73.6042 592.512 72.9531C592.29 72.3021 592.18 71.5957 592.18 70.834ZM594.533 70.6094V70.834C594.533 71.3092 594.582 71.7585 594.68 72.1816C594.777 72.6048 594.93 72.9759 595.139 73.2949C595.347 73.6139 595.614 73.8646 595.939 74.0469C596.265 74.2292 596.652 74.3203 597.102 74.3203C597.538 74.3203 597.915 74.2292 598.234 74.0469C598.56 73.8646 598.827 73.6139 599.035 73.2949C599.243 72.9759 599.396 72.6048 599.494 72.1816C599.598 71.7585 599.65 71.3092 599.65 70.834V70.6094C599.65 70.1406 599.598 69.6979 599.494 69.2812C599.396 68.8581 599.24 68.4837 599.025 68.1582C598.817 67.8327 598.55 67.5788 598.225 67.3965C597.906 67.2077 597.525 67.1133 597.082 67.1133C596.639 67.1133 596.255 67.2077 595.93 67.3965C595.611 67.5788 595.347 67.8327 595.139 68.1582C594.93 68.4837 594.777 68.8581 594.68 69.2812C594.582 69.6979 594.533 70.1406 594.533 70.6094ZM613.273 74.3203C613.658 74.3203 614.003 74.2454 614.309 74.0957C614.621 73.9395 614.872 73.7246 615.061 73.4512C615.256 73.1777 615.363 72.862 615.383 72.5039H617.6C617.587 73.1875 617.385 73.8092 616.994 74.3691C616.604 74.929 616.086 75.375 615.441 75.707C614.797 76.0326 614.084 76.1953 613.303 76.1953C612.495 76.1953 611.792 76.0586 611.193 75.7852C610.594 75.5052 610.096 75.1211 609.699 74.6328C609.302 74.1445 609.003 73.5814 608.801 72.9434C608.605 72.3053 608.508 71.6217 608.508 70.8926V70.5508C608.508 69.8216 608.605 69.138 608.801 68.5C609.003 67.8555 609.302 67.2891 609.699 66.8008C610.096 66.3125 610.594 65.9316 611.193 65.6582C611.792 65.3783 612.492 65.2383 613.293 65.2383C614.139 65.2383 614.882 65.4076 615.52 65.7461C616.158 66.0781 616.659 66.5436 617.023 67.1426C617.395 67.735 617.587 68.4251 617.6 69.2129H615.383C615.363 68.8223 615.266 68.4707 615.09 68.1582C614.921 67.8392 614.68 67.5853 614.367 67.3965C614.061 67.2077 613.693 67.1133 613.264 67.1133C612.788 67.1133 612.395 67.2109 612.082 67.4062C611.77 67.5951 611.525 67.8555 611.35 68.1875C611.174 68.513 611.047 68.8809 610.969 69.291C610.897 69.6947 610.861 70.1146 610.861 70.5508V70.8926C610.861 71.3288 610.897 71.752 610.969 72.1621C611.04 72.5723 611.164 72.9401 611.34 73.2656C611.522 73.5846 611.77 73.8418 612.082 74.0371C612.395 74.2259 612.792 74.3203 613.273 74.3203ZM625.363 73.8809V68.8418C625.363 68.4642 625.295 68.1387 625.158 67.8652C625.021 67.5918 624.813 67.3802 624.533 67.2305C624.26 67.0807 623.915 67.0059 623.498 67.0059C623.114 67.0059 622.782 67.071 622.502 67.2012C622.222 67.3314 622.004 67.5072 621.848 67.7285C621.691 67.9499 621.613 68.2005 621.613 68.4805H619.27C619.27 68.0638 619.37 67.6602 619.572 67.2695C619.774 66.8789 620.067 66.5306 620.451 66.2246C620.835 65.9186 621.294 65.6777 621.828 65.502C622.362 65.3262 622.961 65.2383 623.625 65.2383C624.419 65.2383 625.122 65.3717 625.734 65.6387C626.353 65.9056 626.838 66.3092 627.189 66.8496C627.548 67.3835 627.727 68.054 627.727 68.8613V73.5586C627.727 74.0404 627.759 74.4733 627.824 74.8574C627.896 75.235 627.997 75.5638 628.127 75.8438V76H625.715C625.604 75.7461 625.516 75.4238 625.451 75.0332C625.393 74.6361 625.363 74.252 625.363 73.8809ZM625.705 69.5742L625.725 71.0293H624.035C623.599 71.0293 623.215 71.0716 622.883 71.1562C622.551 71.2344 622.274 71.3516 622.053 71.5078C621.831 71.6641 621.665 71.8529 621.555 72.0742C621.444 72.2956 621.389 72.5462 621.389 72.8262C621.389 73.1061 621.454 73.3633 621.584 73.5977C621.714 73.8255 621.903 74.0046 622.15 74.1348C622.404 74.265 622.71 74.3301 623.068 74.3301C623.55 74.3301 623.97 74.2324 624.328 74.0371C624.693 73.8353 624.979 73.5911 625.188 73.3047C625.396 73.0117 625.507 72.735 625.52 72.4746L626.281 73.5195C626.203 73.7865 626.07 74.0729 625.881 74.3789C625.692 74.6849 625.445 74.9779 625.139 75.2578C624.839 75.5312 624.478 75.7559 624.055 75.9316C623.638 76.1074 623.156 76.1953 622.609 76.1953C621.919 76.1953 621.304 76.0586 620.764 75.7852C620.223 75.5052 619.8 75.1309 619.494 74.6621C619.188 74.1868 619.035 73.6497 619.035 73.0508C619.035 72.4909 619.139 71.9961 619.348 71.5664C619.562 71.1302 619.875 70.7656 620.285 70.4727C620.702 70.1797 621.21 69.9583 621.809 69.8086C622.408 69.6523 623.091 69.5742 623.859 69.5742H625.705ZM632.619 72.5625L636.77 65.4336H639.123V76H636.77V68.8613L632.619 76H630.266V65.4336H632.619V72.5625ZM636.145 61.3711H637.893C637.893 61.9115 637.762 62.39 637.502 62.8066C637.248 63.2168 636.883 63.5391 636.408 63.7734C635.939 64.0078 635.38 64.125 634.729 64.125C633.745 64.125 632.967 63.8711 632.395 63.3633C631.828 62.849 631.545 62.1849 631.545 61.3711H633.293C633.293 61.7357 633.4 62.0579 633.615 62.3379C633.837 62.6113 634.208 62.748 634.729 62.748C635.243 62.748 635.607 62.6113 635.822 62.3379C636.037 62.0579 636.145 61.7357 636.145 61.3711ZM646.516 65.4336V76H644.152V65.4336H646.516ZM649.982 65.4336V67.2891H640.744V65.4336H649.982ZM657.355 73.8809V68.8418C657.355 68.4642 657.287 68.1387 657.15 67.8652C657.014 67.5918 656.805 67.3802 656.525 67.2305C656.252 67.0807 655.907 67.0059 655.49 67.0059C655.106 67.0059 654.774 67.071 654.494 67.2012C654.214 67.3314 653.996 67.5072 653.84 67.7285C653.684 67.9499 653.605 68.2005 653.605 68.4805H651.262C651.262 68.0638 651.363 67.6602 651.564 67.2695C651.766 66.8789 652.059 66.5306 652.443 66.2246C652.827 65.9186 653.286 65.6777 653.82 65.502C654.354 65.3262 654.953 65.2383 655.617 65.2383C656.411 65.2383 657.115 65.3717 657.727 65.6387C658.345 65.9056 658.83 66.3092 659.182 66.8496C659.54 67.3835 659.719 68.054 659.719 68.8613V73.5586C659.719 74.0404 659.751 74.4733 659.816 74.8574C659.888 75.235 659.989 75.5638 660.119 75.8438V76H657.707C657.596 75.7461 657.508 75.4238 657.443 75.0332C657.385 74.6361 657.355 74.252 657.355 73.8809ZM657.697 69.5742L657.717 71.0293H656.027C655.591 71.0293 655.207 71.0716 654.875 71.1562C654.543 71.2344 654.266 71.3516 654.045 71.5078C653.824 71.6641 653.658 71.8529 653.547 72.0742C653.436 72.2956 653.381 72.5462 653.381 72.8262C653.381 73.1061 653.446 73.3633 653.576 73.5977C653.706 73.8255 653.895 74.0046 654.143 74.1348C654.396 74.265 654.702 74.3301 655.061 74.3301C655.542 74.3301 655.962 74.2324 656.32 74.0371C656.685 73.8353 656.971 73.5911 657.18 73.3047C657.388 73.0117 657.499 72.735 657.512 72.4746L658.273 73.5195C658.195 73.7865 658.062 74.0729 657.873 74.3789C657.684 74.6849 657.437 74.9779 657.131 75.2578C656.831 75.5312 656.47 75.7559 656.047 75.9316C655.63 76.1074 655.148 76.1953 654.602 76.1953C653.911 76.1953 653.296 76.0586 652.756 75.7852C652.215 75.5052 651.792 75.1309 651.486 74.6621C651.18 74.1868 651.027 73.6497 651.027 73.0508C651.027 72.4909 651.132 71.9961 651.34 71.5664C651.555 71.1302 651.867 70.7656 652.277 70.4727C652.694 70.1797 653.202 69.9583 653.801 69.8086C654.4 69.6523 655.083 69.5742 655.852 69.5742H657.697ZM666.584 71.8105H664.406C664.413 71.2051 664.465 70.6973 664.562 70.2871C664.66 69.8704 664.823 69.4928 665.051 69.1543C665.285 68.8158 665.594 68.4577 665.979 68.0801C666.278 67.7936 666.548 67.5234 666.789 67.2695C667.03 67.0091 667.222 66.7357 667.365 66.4492C667.508 66.1562 667.58 65.821 667.58 65.4434C667.58 65.0332 667.512 64.6849 667.375 64.3984C667.238 64.112 667.036 63.8939 666.77 63.7441C666.509 63.5944 666.184 63.5195 665.793 63.5195C665.467 63.5195 665.161 63.5846 664.875 63.7148C664.589 63.8385 664.357 64.0339 664.182 64.3008C664.006 64.5612 663.911 64.9062 663.898 65.3359H661.545C661.558 64.5156 661.753 63.8255 662.131 63.2656C662.508 62.7057 663.016 62.2858 663.654 62.0059C664.292 61.7259 665.005 61.5859 665.793 61.5859C666.665 61.5859 667.411 61.7357 668.029 62.0352C668.648 62.3281 669.12 62.7578 669.445 63.3242C669.777 63.8841 669.943 64.5612 669.943 65.3555C669.943 65.9284 669.829 66.4492 669.602 66.918C669.374 67.3802 669.077 67.8132 668.713 68.2168C668.348 68.6139 667.954 69.0111 667.531 69.4082C667.167 69.7402 666.919 70.1016 666.789 70.4922C666.659 70.8763 666.59 71.3158 666.584 71.8105ZM664.211 74.8574C664.211 74.5059 664.331 74.2096 664.572 73.9688C664.813 73.7214 665.142 73.5977 665.559 73.5977C665.975 73.5977 666.304 73.7214 666.545 73.9688C666.786 74.2096 666.906 74.5059 666.906 74.8574C666.906 75.209 666.786 75.5085 666.545 75.7559C666.304 75.9967 665.975 76.1172 665.559 76.1172C665.142 76.1172 664.813 75.9967 664.572 75.7559C664.331 75.5085 664.211 75.209 664.211 74.8574Z" fill="#1C2127"/>
<g filter="url(#filter0_d_402_123)">
<rect x="42" y="91" width="792" height="39" fill="white"/>
</g>
<circle cx="59.5" cy="110.5" r="7" stroke="#C7C7C7"/>
<path d="M83.6875 104.625V105.859H78.4844V104.625H83.6875ZM84.9844 104.625V116H83.4766V104.625H84.9844ZM77.9688 104.625H79.4688L79.2109 110.195C79.1745 110.997 79.112 111.714 79.0234 112.344C78.9401 112.969 78.8203 113.513 78.6641 113.977C78.5078 114.435 78.3047 114.815 78.0547 115.117C77.8047 115.414 77.4974 115.635 77.1328 115.781C76.7734 115.927 76.3411 116 75.8359 116H75.4297V114.773L75.7422 114.75C76.0339 114.729 76.2839 114.664 76.4922 114.555C76.7057 114.44 76.8854 114.268 77.0312 114.039C77.1823 113.81 77.3047 113.513 77.3984 113.148C77.4922 112.784 77.5651 112.339 77.6172 111.812C77.6745 111.281 77.7188 110.661 77.75 109.953L77.9688 104.625ZM90.9922 116.156C90.4036 116.156 89.8698 116.057 89.3906 115.859C88.9167 115.656 88.5078 115.372 88.1641 115.008C87.8255 114.643 87.5651 114.211 87.3828 113.711C87.2005 113.211 87.1094 112.664 87.1094 112.07V111.742C87.1094 111.055 87.2109 110.443 87.4141 109.906C87.6172 109.365 87.8932 108.906 88.2422 108.531C88.5911 108.156 88.987 107.872 89.4297 107.68C89.8724 107.487 90.3307 107.391 90.8047 107.391C91.4089 107.391 91.9297 107.495 92.3672 107.703C92.8099 107.911 93.1719 108.203 93.4531 108.578C93.7344 108.948 93.9427 109.385 94.0781 109.891C94.2135 110.391 94.2812 110.938 94.2812 111.531V112.18H87.9688V111H92.8359V110.891C92.8151 110.516 92.737 110.151 92.6016 109.797C92.4714 109.443 92.263 109.151 91.9766 108.922C91.6901 108.693 91.2995 108.578 90.8047 108.578C90.4766 108.578 90.1745 108.648 89.8984 108.789C89.6224 108.924 89.3854 109.128 89.1875 109.398C88.9896 109.669 88.8359 110 88.7266 110.391C88.6172 110.781 88.5625 111.232 88.5625 111.742V112.07C88.5625 112.471 88.6172 112.849 88.7266 113.203C88.8411 113.552 89.0052 113.859 89.2188 114.125C89.4375 114.391 89.7005 114.599 90.0078 114.75C90.3203 114.901 90.6745 114.977 91.0703 114.977C91.5807 114.977 92.013 114.872 92.3672 114.664C92.7214 114.456 93.0312 114.177 93.2969 113.828L94.1719 114.523C93.9896 114.799 93.7578 115.062 93.4766 115.312C93.1953 115.562 92.849 115.766 92.4375 115.922C92.0312 116.078 91.5495 116.156 90.9922 116.156ZM101.703 111.211V112.383H97.2344V111.211H101.703ZM97.5391 107.547V116H96.0938V107.547H97.5391ZM102.875 107.547V116H101.422V107.547H102.875ZM106.727 107.547H108.172L108.047 110.711C108.016 111.513 107.924 112.206 107.773 112.789C107.622 113.372 107.43 113.87 107.195 114.281C106.961 114.688 106.698 115.029 106.406 115.305C106.12 115.581 105.823 115.812 105.516 116H104.797L104.836 114.82L105.133 114.812C105.305 114.609 105.471 114.401 105.633 114.188C105.794 113.969 105.943 113.711 106.078 113.414C106.214 113.112 106.326 112.745 106.414 112.312C106.508 111.875 106.568 111.341 106.594 110.711L106.727 107.547ZM107.086 107.547H112.172V116H110.727V108.883H107.086V107.547ZM104.469 114.812H113.258V118.492H111.812V116H105.914V118.492H104.461L104.469 114.812ZM116.422 113.711L120.32 107.547H121.773V116H120.32V109.836L116.422 116H114.984V107.547H116.422V113.711ZM129.828 111.211V112.383H125.359V111.211H129.828ZM125.664 107.547V116H124.219V107.547H125.664ZM131 107.547V116H129.547V107.547H131ZM138.789 107.547V108.742H134.883V116H133.438V107.547H138.789Z" fill="#1C2127"/>
<g filter="url(#filter1_d_402_123)">
<rect x="42" y="155" width="792" height="39" fill="white"/>
</g>
<circle cx="59.5" cy="174.5" r="7" stroke="#C7C7C7"/>
<path d="M85.4062 168.625V180H83.9062V169.859H78.2969V180H76.7891V168.625H85.4062ZM87.5391 175.867V175.688C87.5391 175.078 87.6276 174.513 87.8047 173.992C87.9818 173.466 88.237 173.01 88.5703 172.625C88.9036 172.234 89.3073 171.932 89.7812 171.719C90.2552 171.5 90.7865 171.391 91.375 171.391C91.9688 171.391 92.5026 171.5 92.9766 171.719C93.4557 171.932 93.862 172.234 94.1953 172.625C94.5339 173.01 94.7917 173.466 94.9688 173.992C95.1458 174.513 95.2344 175.078 95.2344 175.688V175.867C95.2344 176.477 95.1458 177.042 94.9688 177.562C94.7917 178.083 94.5339 178.539 94.1953 178.93C93.862 179.315 93.4583 179.617 92.9844 179.836C92.5156 180.049 91.9844 180.156 91.3906 180.156C90.7969 180.156 90.263 180.049 89.7891 179.836C89.3151 179.617 88.9089 179.315 88.5703 178.93C88.237 178.539 87.9818 178.083 87.8047 177.562C87.6276 177.042 87.5391 176.477 87.5391 175.867ZM88.9844 175.688V175.867C88.9844 176.289 89.0339 176.688 89.1328 177.062C89.2318 177.432 89.3802 177.76 89.5781 178.047C89.7812 178.333 90.0339 178.56 90.3359 178.727C90.638 178.888 90.9896 178.969 91.3906 178.969C91.7865 178.969 92.1328 178.888 92.4297 178.727C92.7318 178.56 92.9818 178.333 93.1797 178.047C93.3776 177.76 93.526 177.432 93.625 177.062C93.7292 176.688 93.7812 176.289 93.7812 175.867V175.688C93.7812 175.271 93.7292 174.878 93.625 174.508C93.526 174.133 93.375 173.802 93.1719 173.516C92.974 173.224 92.724 172.995 92.4219 172.828C92.125 172.661 91.776 172.578 91.375 172.578C90.9792 172.578 90.6302 172.661 90.3281 172.828C90.0312 172.995 89.7812 173.224 89.5781 173.516C89.3802 173.802 89.2318 174.133 89.1328 174.508C89.0339 174.878 88.9844 175.271 88.9844 175.688ZM98.4922 173.172V183.25H97.0391V171.547H98.3672L98.4922 173.172ZM104.188 175.703V175.867C104.188 176.482 104.115 177.052 103.969 177.578C103.823 178.099 103.609 178.552 103.328 178.938C103.052 179.323 102.711 179.622 102.305 179.836C101.898 180.049 101.432 180.156 100.906 180.156C100.37 180.156 99.8958 180.068 99.4844 179.891C99.0729 179.714 98.724 179.456 98.4375 179.117C98.151 178.779 97.9219 178.372 97.75 177.898C97.5833 177.424 97.4688 176.891 97.4062 176.297V175.422C97.4688 174.797 97.5859 174.237 97.7578 173.742C97.9297 173.247 98.1562 172.826 98.4375 172.477C98.724 172.122 99.0703 171.854 99.4766 171.672C99.8828 171.484 100.352 171.391 100.883 171.391C101.414 171.391 101.885 171.495 102.297 171.703C102.708 171.906 103.055 172.198 103.336 172.578C103.617 172.958 103.828 173.414 103.969 173.945C104.115 174.471 104.188 175.057 104.188 175.703ZM102.734 175.867V175.703C102.734 175.281 102.69 174.885 102.602 174.516C102.513 174.141 102.375 173.812 102.188 173.531C102.005 173.245 101.771 173.021 101.484 172.859C101.198 172.693 100.857 172.609 100.461 172.609C100.096 172.609 99.7786 172.672 99.5078 172.797C99.2422 172.922 99.0156 173.091 98.8281 173.305C98.6406 173.513 98.487 173.753 98.3672 174.023C98.2526 174.289 98.1667 174.565 98.1094 174.852V176.875C98.2135 177.24 98.3594 177.583 98.5469 177.906C98.7344 178.224 98.9844 178.482 99.2969 178.68C99.6094 178.872 100.003 178.969 100.477 178.969C100.867 178.969 101.203 178.888 101.484 178.727C101.771 178.56 102.005 178.333 102.188 178.047C102.375 177.76 102.513 177.432 102.602 177.062C102.69 176.688 102.734 176.289 102.734 175.867ZM108.852 171.547V180H107.398V171.547H108.852ZM111.688 171.547V172.719H104.617V171.547H111.688ZM122.203 175.922V176.086C122.203 176.68 122.138 177.227 122.008 177.727C121.878 178.221 121.682 178.651 121.422 179.016C121.167 179.38 120.849 179.664 120.469 179.867C120.089 180.065 119.648 180.164 119.148 180.164C118.737 180.164 118.375 180.109 118.062 180C117.75 179.885 117.484 179.721 117.266 179.508C117.052 179.294 116.88 179.039 116.75 178.742C116.625 178.44 116.539 178.102 116.492 177.727V173.977C116.539 173.576 116.625 173.216 116.75 172.898C116.88 172.581 117.052 172.31 117.266 172.086C117.484 171.862 117.747 171.69 118.055 171.57C118.362 171.451 118.721 171.391 119.133 171.391C119.539 171.391 119.904 171.464 120.227 171.609C120.555 171.75 120.841 171.953 121.086 172.219C121.336 172.484 121.542 172.805 121.703 173.18C121.87 173.549 121.995 173.966 122.078 174.43C122.161 174.893 122.203 175.391 122.203 175.922ZM120.758 176.086V175.922C120.758 175.557 120.732 175.211 120.68 174.883C120.633 174.549 120.557 174.245 120.453 173.969C120.354 173.688 120.224 173.443 120.062 173.234C119.901 173.026 119.706 172.865 119.477 172.75C119.253 172.635 118.995 172.578 118.703 172.578C118.391 172.578 118.13 172.617 117.922 172.695C117.719 172.773 117.56 172.878 117.445 173.008C117.331 173.133 117.247 173.266 117.195 173.406V178.305C117.258 178.419 117.349 178.529 117.469 178.633C117.589 178.732 117.75 178.815 117.953 178.883C118.156 178.945 118.411 178.977 118.719 178.977C119.083 178.977 119.393 178.904 119.648 178.758C119.909 178.607 120.12 178.398 120.281 178.133C120.448 177.867 120.568 177.56 120.641 177.211C120.719 176.862 120.758 176.487 120.758 176.086ZM112.164 176.086V175.922C112.164 175.391 112.206 174.893 112.289 174.43C112.372 173.966 112.497 173.549 112.664 173.18C112.831 172.805 113.036 172.484 113.281 172.219C113.531 171.953 113.818 171.75 114.141 171.609C114.469 171.464 114.836 171.391 115.242 171.391C115.643 171.391 115.992 171.451 116.289 171.57C116.591 171.69 116.846 171.862 117.055 172.086C117.263 172.31 117.43 172.581 117.555 172.898C117.68 173.216 117.768 173.576 117.82 173.977V177.578C117.773 177.974 117.688 178.331 117.562 178.648C117.438 178.966 117.271 179.24 117.062 179.469C116.854 179.693 116.596 179.865 116.289 179.984C115.987 180.104 115.633 180.164 115.227 180.164C114.727 180.164 114.286 180.065 113.906 179.867C113.526 179.664 113.206 179.38 112.945 179.016C112.69 178.651 112.495 178.221 112.359 177.727C112.229 177.227 112.164 176.68 112.164 176.086ZM113.617 175.922V176.086C113.617 176.487 113.651 176.862 113.719 177.211C113.792 177.56 113.904 177.867 114.055 178.133C114.211 178.398 114.414 178.607 114.664 178.758C114.914 178.904 115.221 178.977 115.586 178.977C115.898 178.977 116.156 178.938 116.359 178.859C116.562 178.781 116.724 178.68 116.844 178.555C116.964 178.43 117.055 178.299 117.117 178.164V173.406C117.065 173.266 116.979 173.133 116.859 173.008C116.745 172.878 116.586 172.773 116.383 172.695C116.18 172.617 115.919 172.578 115.602 172.578C115.237 172.578 114.927 172.667 114.672 172.844C114.417 173.021 114.211 173.263 114.055 173.57C113.904 173.878 113.792 174.234 113.719 174.641C113.651 175.042 113.617 175.469 113.617 175.922ZM116.398 183.25V168H117.852V183.25H116.398ZM123.711 175.867V175.688C123.711 175.078 123.799 174.513 123.977 173.992C124.154 173.466 124.409 173.01 124.742 172.625C125.076 172.234 125.479 171.932 125.953 171.719C126.427 171.5 126.958 171.391 127.547 171.391C128.141 171.391 128.674 171.5 129.148 171.719C129.628 171.932 130.034 172.234 130.367 172.625C130.706 173.01 130.964 173.466 131.141 173.992C131.318 174.513 131.406 175.078 131.406 175.688V175.867C131.406 176.477 131.318 177.042 131.141 177.562C130.964 178.083 130.706 178.539 130.367 178.93C130.034 179.315 129.63 179.617 129.156 179.836C128.688 180.049 128.156 180.156 127.562 180.156C126.969 180.156 126.435 180.049 125.961 179.836C125.487 179.617 125.081 179.315 124.742 178.93C124.409 178.539 124.154 178.083 123.977 177.562C123.799 177.042 123.711 176.477 123.711 175.867ZM125.156 175.688V175.867C125.156 176.289 125.206 176.688 125.305 177.062C125.404 177.432 125.552 177.76 125.75 178.047C125.953 178.333 126.206 178.56 126.508 178.727C126.81 178.888 127.161 178.969 127.562 178.969C127.958 178.969 128.305 178.888 128.602 178.727C128.904 178.56 129.154 178.333 129.352 178.047C129.549 177.76 129.698 177.432 129.797 177.062C129.901 176.688 129.953 176.289 129.953 175.867V175.688C129.953 175.271 129.901 174.878 129.797 174.508C129.698 174.133 129.547 173.802 129.344 173.516C129.146 173.224 128.896 172.995 128.594 172.828C128.297 172.661 127.948 172.578 127.547 172.578C127.151 172.578 126.802 172.661 126.5 172.828C126.203 172.995 125.953 173.224 125.75 173.516C125.552 173.802 125.404 174.133 125.305 174.508C125.206 174.878 125.156 175.271 125.156 175.688ZM138.742 171.547V172.742H134.656V171.547H138.742ZM140.016 171.547V180H138.57V171.547H140.016ZM134.305 171.547H135.758L135.539 175.625C135.503 176.255 135.443 176.812 135.359 177.297C135.281 177.776 135.172 178.188 135.031 178.531C134.896 178.875 134.724 179.156 134.516 179.375C134.312 179.589 134.068 179.747 133.781 179.852C133.495 179.951 133.164 180 132.789 180H132.336V178.727L132.648 178.703C132.872 178.688 133.062 178.635 133.219 178.547C133.38 178.458 133.516 178.328 133.625 178.156C133.734 177.979 133.823 177.753 133.891 177.477C133.964 177.201 134.018 176.872 134.055 176.492C134.096 176.112 134.128 175.669 134.148 175.164L134.305 171.547ZM143.906 177.711L147.805 171.547H149.258V180H147.805V173.836L143.906 180H142.469V171.547H143.906V177.711ZM151.195 175.867V175.688C151.195 175.078 151.284 174.513 151.461 173.992C151.638 173.466 151.893 173.01 152.227 172.625C152.56 172.234 152.964 171.932 153.438 171.719C153.911 171.5 154.443 171.391 155.031 171.391C155.625 171.391 156.159 171.5 156.633 171.719C157.112 171.932 157.518 172.234 157.852 172.625C158.19 173.01 158.448 173.466 158.625 173.992C158.802 174.513 158.891 175.078 158.891 175.688V175.867C158.891 176.477 158.802 177.042 158.625 177.562C158.448 178.083 158.19 178.539 157.852 178.93C157.518 179.315 157.115 179.617 156.641 179.836C156.172 180.049 155.641 180.156 155.047 180.156C154.453 180.156 153.919 180.049 153.445 179.836C152.971 179.617 152.565 179.315 152.227 178.93C151.893 178.539 151.638 178.083 151.461 177.562C151.284 177.042 151.195 176.477 151.195 175.867ZM152.641 175.688V175.867C152.641 176.289 152.69 176.688 152.789 177.062C152.888 177.432 153.036 177.76 153.234 178.047C153.438 178.333 153.69 178.56 153.992 178.727C154.294 178.888 154.646 178.969 155.047 178.969C155.443 178.969 155.789 178.888 156.086 178.727C156.388 178.56 156.638 178.333 156.836 178.047C157.034 177.76 157.182 177.432 157.281 177.062C157.385 176.688 157.438 176.289 157.438 175.867V175.688C157.438 175.271 157.385 174.878 157.281 174.508C157.182 174.133 157.031 173.802 156.828 173.516C156.63 173.224 156.38 172.995 156.078 172.828C155.781 172.661 155.432 172.578 155.031 172.578C154.635 172.578 154.286 172.661 153.984 172.828C153.688 172.995 153.438 173.224 153.234 173.516C153.036 173.802 152.888 174.133 152.789 174.508C152.69 174.878 152.641 175.271 152.641 175.688Z" fill="#1C2127"/>
<g filter="url(#filter2_d_402_123)">
<rect x="42" y="219" width="792" height="39" fill="white"/>
</g>
<circle cx="59.5" cy="238.5" r="7" stroke="#C7C7C7"/>
<path d="M83.3125 240.383H84.8125C84.7344 241.102 84.5286 241.745 84.1953 242.312C83.862 242.88 83.3906 243.331 82.7812 243.664C82.1719 243.992 81.4115 244.156 80.5 244.156C79.8333 244.156 79.2266 244.031 78.6797 243.781C78.138 243.531 77.6719 243.177 77.2812 242.719C76.8906 242.255 76.5885 241.701 76.375 241.055C76.1667 240.404 76.0625 239.68 76.0625 238.883V237.75C76.0625 236.953 76.1667 236.232 76.375 235.586C76.5885 234.935 76.8932 234.378 77.2891 233.914C77.6901 233.451 78.1719 233.094 78.7344 232.844C79.2969 232.594 79.9297 232.469 80.6328 232.469C81.4922 232.469 82.2188 232.63 82.8125 232.953C83.4062 233.276 83.8672 233.724 84.1953 234.297C84.5286 234.865 84.7344 235.523 84.8125 236.273H83.3125C83.2396 235.742 83.1042 235.286 82.9062 234.906C82.7083 234.521 82.4271 234.224 82.0625 234.016C81.6979 233.807 81.2214 233.703 80.6328 233.703C80.1276 233.703 79.6823 233.799 79.2969 233.992C78.9167 234.185 78.5964 234.458 78.3359 234.812C78.0807 235.167 77.888 235.591 77.7578 236.086C77.6276 236.581 77.5625 237.13 77.5625 237.734V238.883C77.5625 239.44 77.6198 239.964 77.7344 240.453C77.8542 240.943 78.0339 241.372 78.2734 241.742C78.513 242.112 78.8177 242.404 79.1875 242.617C79.5573 242.826 79.9948 242.93 80.5 242.93C81.1406 242.93 81.651 242.828 82.0312 242.625C82.4115 242.422 82.6979 242.13 82.8906 241.75C83.0885 241.37 83.2292 240.914 83.3125 240.383ZM86.2656 239.867V239.688C86.2656 239.078 86.3542 238.513 86.5312 237.992C86.7083 237.466 86.9635 237.01 87.2969 236.625C87.6302 236.234 88.0339 235.932 88.5078 235.719C88.9818 235.5 89.513 235.391 90.1016 235.391C90.6953 235.391 91.2292 235.5 91.7031 235.719C92.1823 235.932 92.5885 236.234 92.9219 236.625C93.2604 237.01 93.5182 237.466 93.6953 237.992C93.8724 238.513 93.9609 239.078 93.9609 239.688V239.867C93.9609 240.477 93.8724 241.042 93.6953 241.562C93.5182 242.083 93.2604 242.539 92.9219 242.93C92.5885 243.315 92.1849 243.617 91.7109 243.836C91.2422 244.049 90.7109 244.156 90.1172 244.156C89.5234 244.156 88.9896 244.049 88.5156 243.836C88.0417 243.617 87.6354 243.315 87.2969 242.93C86.9635 242.539 86.7083 242.083 86.5312 241.562C86.3542 241.042 86.2656 240.477 86.2656 239.867ZM87.7109 239.688V239.867C87.7109 240.289 87.7604 240.688 87.8594 241.062C87.9583 241.432 88.1068 241.76 88.3047 242.047C88.5078 242.333 88.7604 242.56 89.0625 242.727C89.3646 242.888 89.7161 242.969 90.1172 242.969C90.513 242.969 90.8594 242.888 91.1562 242.727C91.4583 242.56 91.7083 242.333 91.9062 242.047C92.1042 241.76 92.2526 241.432 92.3516 241.062C92.4557 240.688 92.5078 240.289 92.5078 239.867V239.688C92.5078 239.271 92.4557 238.878 92.3516 238.508C92.2526 238.133 92.1016 237.802 91.8984 237.516C91.7005 237.224 91.4505 236.995 91.1484 236.828C90.8516 236.661 90.5026 236.578 90.1016 236.578C89.7057 236.578 89.3568 236.661 89.0547 236.828C88.7578 236.995 88.5078 237.224 88.3047 237.516C88.1068 237.802 87.9583 238.133 87.8594 238.508C87.7604 238.878 87.7109 239.271 87.7109 239.688ZM95.8984 244V235.547H97.3438V242.812H101.234V235.547H102.688V244H95.8984ZM103.688 242.812L103.547 246.508H102.258V244H101.156V242.812H103.688ZM106.82 241.711L110.719 235.547H112.172V244H110.719V237.836L106.82 244H105.383V235.547H106.82V241.711ZM119.477 242.555V238.203C119.477 237.87 119.409 237.581 119.273 237.336C119.143 237.086 118.945 236.893 118.68 236.758C118.414 236.622 118.086 236.555 117.695 236.555C117.331 236.555 117.01 236.617 116.734 236.742C116.464 236.867 116.25 237.031 116.094 237.234C115.943 237.438 115.867 237.656 115.867 237.891H114.422C114.422 237.589 114.5 237.289 114.656 236.992C114.812 236.695 115.036 236.427 115.328 236.188C115.625 235.943 115.979 235.75 116.391 235.609C116.807 235.464 117.271 235.391 117.781 235.391C118.396 235.391 118.938 235.495 119.406 235.703C119.88 235.911 120.25 236.227 120.516 236.648C120.786 237.065 120.922 237.589 120.922 238.219V242.156C120.922 242.438 120.945 242.737 120.992 243.055C121.044 243.372 121.12 243.646 121.219 243.875V244H119.711C119.638 243.833 119.581 243.612 119.539 243.336C119.497 243.055 119.477 242.794 119.477 242.555ZM119.727 238.875L119.742 239.891H118.281C117.87 239.891 117.503 239.924 117.18 239.992C116.857 240.055 116.586 240.151 116.367 240.281C116.148 240.411 115.982 240.576 115.867 240.773C115.753 240.966 115.695 241.193 115.695 241.453C115.695 241.719 115.755 241.961 115.875 242.18C115.995 242.398 116.174 242.573 116.414 242.703C116.659 242.828 116.958 242.891 117.312 242.891C117.755 242.891 118.146 242.797 118.484 242.609C118.823 242.422 119.091 242.193 119.289 241.922C119.492 241.651 119.602 241.388 119.617 241.133L120.234 241.828C120.198 242.047 120.099 242.289 119.938 242.555C119.776 242.82 119.56 243.076 119.289 243.32C119.023 243.56 118.706 243.76 118.336 243.922C117.971 244.078 117.56 244.156 117.102 244.156C116.529 244.156 116.026 244.044 115.594 243.82C115.167 243.596 114.833 243.297 114.594 242.922C114.359 242.542 114.242 242.117 114.242 241.648C114.242 241.195 114.331 240.797 114.508 240.453C114.685 240.104 114.94 239.815 115.273 239.586C115.607 239.352 116.008 239.174 116.477 239.055C116.945 238.935 117.469 238.875 118.047 238.875H119.727ZM128.844 235.547V236.742H124.758V235.547H128.844ZM130.117 235.547V244H128.672V235.547H130.117ZM124.406 235.547H125.859L125.641 239.625C125.604 240.255 125.544 240.812 125.461 241.297C125.383 241.776 125.273 242.188 125.133 242.531C124.997 242.875 124.826 243.156 124.617 243.375C124.414 243.589 124.169 243.747 123.883 243.852C123.596 243.951 123.266 244 122.891 244H122.438V242.727L122.75 242.703C122.974 242.688 123.164 242.635 123.32 242.547C123.482 242.458 123.617 242.328 123.727 242.156C123.836 241.979 123.924 241.753 123.992 241.477C124.065 241.201 124.12 240.872 124.156 240.492C124.198 240.112 124.229 239.669 124.25 239.164L124.406 235.547ZM133.633 238.453H136.172C136.854 238.453 137.43 238.573 137.898 238.812C138.367 239.047 138.721 239.372 138.961 239.789C139.206 240.201 139.328 240.669 139.328 241.195C139.328 241.586 139.26 241.953 139.125 242.297C138.99 242.635 138.786 242.932 138.516 243.188C138.25 243.443 137.919 243.643 137.523 243.789C137.133 243.93 136.682 244 136.172 244H132.578V235.547H134.023V242.812H136.172C136.589 242.812 136.922 242.737 137.172 242.586C137.422 242.435 137.602 242.24 137.711 242C137.82 241.76 137.875 241.51 137.875 241.25C137.875 240.995 137.82 240.745 137.711 240.5C137.602 240.255 137.422 240.052 137.172 239.891C136.922 239.724 136.589 239.641 136.172 239.641H133.633V238.453ZM146.867 239.211V240.383H142.398V239.211H146.867ZM142.703 235.547V244H141.258V235.547H142.703ZM148.039 235.547V244H146.586V235.547H148.039ZM155.352 242.555V238.203C155.352 237.87 155.284 237.581 155.148 237.336C155.018 237.086 154.82 236.893 154.555 236.758C154.289 236.622 153.961 236.555 153.57 236.555C153.206 236.555 152.885 236.617 152.609 236.742C152.339 236.867 152.125 237.031 151.969 237.234C151.818 237.438 151.742 237.656 151.742 237.891H150.297C150.297 237.589 150.375 237.289 150.531 236.992C150.688 236.695 150.911 236.427 151.203 236.188C151.5 235.943 151.854 235.75 152.266 235.609C152.682 235.464 153.146 235.391 153.656 235.391C154.271 235.391 154.812 235.495 155.281 235.703C155.755 235.911 156.125 236.227 156.391 236.648C156.661 237.065 156.797 237.589 156.797 238.219V242.156C156.797 242.438 156.82 242.737 156.867 243.055C156.919 243.372 156.995 243.646 157.094 243.875V244H155.586C155.513 243.833 155.456 243.612 155.414 243.336C155.372 243.055 155.352 242.794 155.352 242.555ZM155.602 238.875L155.617 239.891H154.156C153.745 239.891 153.378 239.924 153.055 239.992C152.732 240.055 152.461 240.151 152.242 240.281C152.023 240.411 151.857 240.576 151.742 240.773C151.628 240.966 151.57 241.193 151.57 241.453C151.57 241.719 151.63 241.961 151.75 242.18C151.87 242.398 152.049 242.573 152.289 242.703C152.534 242.828 152.833 242.891 153.188 242.891C153.63 242.891 154.021 242.797 154.359 242.609C154.698 242.422 154.966 242.193 155.164 241.922C155.367 241.651 155.477 241.388 155.492 241.133L156.109 241.828C156.073 242.047 155.974 242.289 155.812 242.555C155.651 242.82 155.435 243.076 155.164 243.32C154.898 243.56 154.581 243.76 154.211 243.922C153.846 244.078 153.435 244.156 152.977 244.156C152.404 244.156 151.901 244.044 151.469 243.82C151.042 243.596 150.708 243.297 150.469 242.922C150.234 242.542 150.117 242.117 150.117 241.648C150.117 241.195 150.206 240.797 150.383 240.453C150.56 240.104 150.815 239.815 151.148 239.586C151.482 239.352 151.883 239.174 152.352 239.055C152.82 238.935 153.344 238.875 153.922 238.875H155.602ZM160.781 239.969H162.344L159.898 244H158.336L160.781 239.969ZM161.992 235.547H165.523V244H164.078V236.719H161.992C161.581 236.719 161.245 236.789 160.984 236.93C160.724 237.065 160.534 237.242 160.414 237.461C160.294 237.68 160.234 237.906 160.234 238.141C160.234 238.37 160.289 238.591 160.398 238.805C160.508 239.013 160.68 239.185 160.914 239.32C161.148 239.456 161.451 239.523 161.82 239.523H164.469V240.711H161.82C161.336 240.711 160.906 240.646 160.531 240.516C160.156 240.385 159.839 240.206 159.578 239.977C159.318 239.742 159.12 239.469 158.984 239.156C158.849 238.839 158.781 238.495 158.781 238.125C158.781 237.755 158.852 237.414 158.992 237.102C159.138 236.789 159.346 236.516 159.617 236.281C159.893 236.047 160.229 235.867 160.625 235.742C161.026 235.612 161.482 235.547 161.992 235.547ZM175.203 242.969C175.547 242.969 175.865 242.898 176.156 242.758C176.448 242.617 176.688 242.424 176.875 242.18C177.062 241.93 177.169 241.646 177.195 241.328H178.57C178.544 241.828 178.375 242.294 178.062 242.727C177.755 243.154 177.352 243.5 176.852 243.766C176.352 244.026 175.802 244.156 175.203 244.156C174.568 244.156 174.013 244.044 173.539 243.82C173.07 243.596 172.68 243.289 172.367 242.898C172.06 242.508 171.828 242.06 171.672 241.555C171.521 241.044 171.445 240.505 171.445 239.938V239.609C171.445 239.042 171.521 238.505 171.672 238C171.828 237.49 172.06 237.039 172.367 236.648C172.68 236.258 173.07 235.951 173.539 235.727C174.013 235.503 174.568 235.391 175.203 235.391C175.865 235.391 176.443 235.526 176.938 235.797C177.432 236.062 177.82 236.427 178.102 236.891C178.388 237.349 178.544 237.87 178.57 238.453H177.195C177.169 238.104 177.07 237.789 176.898 237.508C176.732 237.227 176.503 237.003 176.211 236.836C175.924 236.664 175.589 236.578 175.203 236.578C174.76 236.578 174.388 236.667 174.086 236.844C173.789 237.016 173.552 237.25 173.375 237.547C173.203 237.839 173.078 238.164 173 238.523C172.927 238.878 172.891 239.24 172.891 239.609V239.938C172.891 240.307 172.927 240.672 173 241.031C173.073 241.391 173.195 241.716 173.367 242.008C173.544 242.299 173.781 242.534 174.078 242.711C174.38 242.883 174.755 242.969 175.203 242.969ZM183.703 244.156C183.115 244.156 182.581 244.057 182.102 243.859C181.628 243.656 181.219 243.372 180.875 243.008C180.536 242.643 180.276 242.211 180.094 241.711C179.911 241.211 179.82 240.664 179.82 240.07V239.742C179.82 239.055 179.922 238.443 180.125 237.906C180.328 237.365 180.604 236.906 180.953 236.531C181.302 236.156 181.698 235.872 182.141 235.68C182.583 235.487 183.042 235.391 183.516 235.391C184.12 235.391 184.641 235.495 185.078 235.703C185.521 235.911 185.883 236.203 186.164 236.578C186.445 236.948 186.654 237.385 186.789 237.891C186.924 238.391 186.992 238.938 186.992 239.531V240.18H180.68V239H185.547V238.891C185.526 238.516 185.448 238.151 185.312 237.797C185.182 237.443 184.974 237.151 184.688 236.922C184.401 236.693 184.01 236.578 183.516 236.578C183.188 236.578 182.885 236.648 182.609 236.789C182.333 236.924 182.096 237.128 181.898 237.398C181.701 237.669 181.547 238 181.438 238.391C181.328 238.781 181.273 239.232 181.273 239.742V240.07C181.273 240.471 181.328 240.849 181.438 241.203C181.552 241.552 181.716 241.859 181.93 242.125C182.148 242.391 182.411 242.599 182.719 242.75C183.031 242.901 183.385 242.977 183.781 242.977C184.292 242.977 184.724 242.872 185.078 242.664C185.432 242.456 185.742 242.177 186.008 241.828L186.883 242.523C186.701 242.799 186.469 243.062 186.188 243.312C185.906 243.562 185.56 243.766 185.148 243.922C184.742 244.078 184.26 244.156 183.703 244.156ZM192.031 235.547V244H190.578V235.547H192.031ZM194.867 235.547V236.719H187.797V235.547H194.867ZM197.477 238.453H200.016C200.698 238.453 201.273 238.573 201.742 238.812C202.211 239.047 202.565 239.372 202.805 239.789C203.049 240.201 203.172 240.669 203.172 241.195C203.172 241.586 203.104 241.953 202.969 242.297C202.833 242.635 202.63 242.932 202.359 243.188C202.094 243.443 201.763 243.643 201.367 243.789C200.977 243.93 200.526 244 200.016 244H196.422V235.547H197.867V242.812H200.016C200.432 242.812 200.766 242.737 201.016 242.586C201.266 242.435 201.445 242.24 201.555 242C201.664 241.76 201.719 241.51 201.719 241.25C201.719 240.995 201.664 240.745 201.555 240.5C201.445 240.255 201.266 240.052 201.016 239.891C200.766 239.724 200.432 239.641 200.016 239.641H197.477V238.453Z" fill="#1C2127"/>
<g filter="url(#filter3_d_402_123)">
<rect x="42" y="283" width="792" height="39" fill="white"/>
</g>
<circle cx="59.5" cy="302.5" r="7" stroke="#C7C7C7"/>
<path d="M83.6641 296.625V297.859H78.1797V308H76.6797V296.625H83.6641ZM77.8281 301.258H80.9297C81.763 301.258 82.4661 301.398 83.0391 301.68C83.612 301.956 84.0469 302.344 84.3438 302.844C84.6406 303.344 84.7891 303.93 84.7891 304.602C84.7891 305.102 84.7057 305.56 84.5391 305.977C84.3724 306.388 84.125 306.747 83.7969 307.055C83.4688 307.357 83.0651 307.591 82.5859 307.758C82.1068 307.919 81.5547 308 80.9297 308H76.6797V296.625H78.1875V306.773H80.9297C81.487 306.773 81.9375 306.672 82.2812 306.469C82.6302 306.26 82.8854 305.99 83.0469 305.656C83.2083 305.323 83.2891 304.966 83.2891 304.586C83.2891 304.206 83.2083 303.857 83.0469 303.539C82.8854 303.221 82.6302 302.969 82.2812 302.781C81.9375 302.589 81.487 302.492 80.9297 302.492H77.8281V301.258ZM92.25 299.547V300.742H88.1641V299.547H92.25ZM93.5234 299.547V308H92.0781V299.547H93.5234ZM87.8125 299.547H89.2656L89.0469 303.625C89.0104 304.255 88.9505 304.812 88.8672 305.297C88.7891 305.776 88.6797 306.188 88.5391 306.531C88.4036 306.875 88.2318 307.156 88.0234 307.375C87.8203 307.589 87.5755 307.747 87.2891 307.852C87.0026 307.951 86.6719 308 86.2969 308H85.8438V306.727L86.1562 306.703C86.3802 306.688 86.5703 306.635 86.7266 306.547C86.888 306.458 87.0234 306.328 87.1328 306.156C87.2422 305.979 87.3307 305.753 87.3984 305.477C87.4714 305.201 87.526 304.872 87.5625 304.492C87.6042 304.112 87.6354 303.669 87.6562 303.164L87.8125 299.547ZM95.4688 303.867V303.688C95.4688 303.078 95.5573 302.513 95.7344 301.992C95.9115 301.466 96.1667 301.01 96.5 300.625C96.8333 300.234 97.237 299.932 97.7109 299.719C98.1849 299.5 98.7161 299.391 99.3047 299.391C99.8984 299.391 100.432 299.5 100.906 299.719C101.385 299.932 101.792 300.234 102.125 300.625C102.464 301.01 102.721 301.466 102.898 301.992C103.076 302.513 103.164 303.078 103.164 303.688V303.867C103.164 304.477 103.076 305.042 102.898 305.562C102.721 306.083 102.464 306.539 102.125 306.93C101.792 307.315 101.388 307.617 100.914 307.836C100.445 308.049 99.9141 308.156 99.3203 308.156C98.7266 308.156 98.1927 308.049 97.7188 307.836C97.2448 307.617 96.8385 307.315 96.5 306.93C96.1667 306.539 95.9115 306.083 95.7344 305.562C95.5573 305.042 95.4688 304.477 95.4688 303.867ZM96.9141 303.688V303.867C96.9141 304.289 96.9635 304.688 97.0625 305.062C97.1615 305.432 97.3099 305.76 97.5078 306.047C97.7109 306.333 97.9635 306.56 98.2656 306.727C98.5677 306.888 98.9193 306.969 99.3203 306.969C99.7161 306.969 100.062 306.888 100.359 306.727C100.661 306.56 100.911 306.333 101.109 306.047C101.307 305.76 101.456 305.432 101.555 305.062C101.659 304.688 101.711 304.289 101.711 303.867V303.688C101.711 303.271 101.659 302.878 101.555 302.508C101.456 302.133 101.305 301.802 101.102 301.516C100.904 301.224 100.654 300.995 100.352 300.828C100.055 300.661 99.7057 300.578 99.3047 300.578C98.9089 300.578 98.5599 300.661 98.2578 300.828C97.9609 300.995 97.7109 301.224 97.5078 301.516C97.3099 301.802 97.1615 302.133 97.0625 302.508C96.9635 302.878 96.9141 303.271 96.9141 303.688ZM110.438 299.547V300.742H106.531V308H105.086V299.547H110.438Z" fill="#1C2127"/>
<g filter="url(#filter4_d_402_123)">
<rect x="42" y="347" width="792" height="39" fill="white"/>
</g>
<circle cx="59.5" cy="366.5" r="7" stroke="#C7C7C7"/>
<path d="M78.1172 369.391L83.7188 360.625H85.2266V372H83.7188V363.227L78.1172 372H76.6172V360.625H78.1172V369.391ZM93.4844 367.211V368.383H89.0156V367.211H93.4844ZM89.3203 363.547V372H87.875V363.547H89.3203ZM94.6562 363.547V372H93.2031V363.547H94.6562ZM100.43 363.547V372H98.9766V363.547H100.43ZM103.266 363.547V364.719H96.1953V363.547H103.266ZM107.57 372.156C106.982 372.156 106.448 372.057 105.969 371.859C105.495 371.656 105.086 371.372 104.742 371.008C104.404 370.643 104.143 370.211 103.961 369.711C103.779 369.211 103.688 368.664 103.688 368.07V367.742C103.688 367.055 103.789 366.443 103.992 365.906C104.195 365.365 104.471 364.906 104.82 364.531C105.169 364.156 105.565 363.872 106.008 363.68C106.451 363.487 106.909 363.391 107.383 363.391C107.987 363.391 108.508 363.495 108.945 363.703C109.388 363.911 109.75 364.203 110.031 364.578C110.312 364.948 110.521 365.385 110.656 365.891C110.792 366.391 110.859 366.938 110.859 367.531V368.18H104.547V367H109.414V366.891C109.393 366.516 109.315 366.151 109.18 365.797C109.049 365.443 108.841 365.151 108.555 364.922C108.268 364.693 107.878 364.578 107.383 364.578C107.055 364.578 106.753 364.648 106.477 364.789C106.201 364.924 105.964 365.128 105.766 365.398C105.568 365.669 105.414 366 105.305 366.391C105.195 366.781 105.141 367.232 105.141 367.742V368.07C105.141 368.471 105.195 368.849 105.305 369.203C105.419 369.552 105.583 369.859 105.797 370.125C106.016 370.391 106.279 370.599 106.586 370.75C106.898 370.901 107.253 370.977 107.648 370.977C108.159 370.977 108.591 370.872 108.945 370.664C109.299 370.456 109.609 370.177 109.875 369.828L110.75 370.523C110.568 370.799 110.336 371.062 110.055 371.312C109.773 371.562 109.427 371.766 109.016 371.922C108.609 372.078 108.128 372.156 107.57 372.156ZM113.992 365.172V375.25H112.539V363.547H113.867L113.992 365.172ZM119.688 367.703V367.867C119.688 368.482 119.615 369.052 119.469 369.578C119.323 370.099 119.109 370.552 118.828 370.938C118.552 371.323 118.211 371.622 117.805 371.836C117.398 372.049 116.932 372.156 116.406 372.156C115.87 372.156 115.396 372.068 114.984 371.891C114.573 371.714 114.224 371.456 113.938 371.117C113.651 370.779 113.422 370.372 113.25 369.898C113.083 369.424 112.969 368.891 112.906 368.297V367.422C112.969 366.797 113.086 366.237 113.258 365.742C113.43 365.247 113.656 364.826 113.938 364.477C114.224 364.122 114.57 363.854 114.977 363.672C115.383 363.484 115.852 363.391 116.383 363.391C116.914 363.391 117.385 363.495 117.797 363.703C118.208 363.906 118.555 364.198 118.836 364.578C119.117 364.958 119.328 365.414 119.469 365.945C119.615 366.471 119.688 367.057 119.688 367.703ZM118.234 367.867V367.703C118.234 367.281 118.19 366.885 118.102 366.516C118.013 366.141 117.875 365.812 117.688 365.531C117.505 365.245 117.271 365.021 116.984 364.859C116.698 364.693 116.357 364.609 115.961 364.609C115.596 364.609 115.279 364.672 115.008 364.797C114.742 364.922 114.516 365.091 114.328 365.305C114.141 365.513 113.987 365.753 113.867 366.023C113.753 366.289 113.667 366.565 113.609 366.852V368.875C113.714 369.24 113.859 369.583 114.047 369.906C114.234 370.224 114.484 370.482 114.797 370.68C115.109 370.872 115.503 370.969 115.977 370.969C116.367 370.969 116.703 370.888 116.984 370.727C117.271 370.56 117.505 370.333 117.688 370.047C117.875 369.76 118.013 369.432 118.102 369.062C118.19 368.688 118.234 368.289 118.234 367.867ZM127.266 367.211V368.383H122.797V367.211H127.266ZM123.102 363.547V372H121.656V363.547H123.102ZM128.438 363.547V372H126.984V363.547H128.438ZM134.273 372.156C133.685 372.156 133.151 372.057 132.672 371.859C132.198 371.656 131.789 371.372 131.445 371.008C131.107 370.643 130.846 370.211 130.664 369.711C130.482 369.211 130.391 368.664 130.391 368.07V367.742C130.391 367.055 130.492 366.443 130.695 365.906C130.898 365.365 131.174 364.906 131.523 364.531C131.872 364.156 132.268 363.872 132.711 363.68C133.154 363.487 133.612 363.391 134.086 363.391C134.69 363.391 135.211 363.495 135.648 363.703C136.091 363.911 136.453 364.203 136.734 364.578C137.016 364.948 137.224 365.385 137.359 365.891C137.495 366.391 137.562 366.938 137.562 367.531V368.18H131.25V367H136.117V366.891C136.096 366.516 136.018 366.151 135.883 365.797C135.753 365.443 135.544 365.151 135.258 364.922C134.971 364.693 134.581 364.578 134.086 364.578C133.758 364.578 133.456 364.648 133.18 364.789C132.904 364.924 132.667 365.128 132.469 365.398C132.271 365.669 132.117 366 132.008 366.391C131.898 366.781 131.844 367.232 131.844 367.742V368.07C131.844 368.471 131.898 368.849 132.008 369.203C132.122 369.552 132.286 369.859 132.5 370.125C132.719 370.391 132.982 370.599 133.289 370.75C133.602 370.901 133.956 370.977 134.352 370.977C134.862 370.977 135.294 370.872 135.648 370.664C136.003 370.456 136.312 370.177 136.578 369.828L137.453 370.523C137.271 370.799 137.039 371.062 136.758 371.312C136.477 371.562 136.13 371.766 135.719 371.922C135.312 372.078 134.831 372.156 134.273 372.156ZM142.602 363.547V372H141.148V363.547H142.602ZM145.438 363.547V364.719H138.367V363.547H145.438ZM149.867 366.57V367.758H146.055V366.57H149.867ZM156.141 370.078L159.016 363.547H160.406L156.641 372H155.641L151.891 363.547H153.281L156.141 370.078ZM152.859 363.547V372H151.414V363.547H152.859ZM159.375 372V363.547H160.828V372H159.375ZM168.141 370.555V366.203C168.141 365.87 168.073 365.581 167.938 365.336C167.807 365.086 167.609 364.893 167.344 364.758C167.078 364.622 166.75 364.555 166.359 364.555C165.995 364.555 165.674 364.617 165.398 364.742C165.128 364.867 164.914 365.031 164.758 365.234C164.607 365.438 164.531 365.656 164.531 365.891H163.086C163.086 365.589 163.164 365.289 163.32 364.992C163.477 364.695 163.701 364.427 163.992 364.188C164.289 363.943 164.643 363.75 165.055 363.609C165.471 363.464 165.935 363.391 166.445 363.391C167.06 363.391 167.602 363.495 168.07 363.703C168.544 363.911 168.914 364.227 169.18 364.648C169.451 365.065 169.586 365.589 169.586 366.219V370.156C169.586 370.438 169.609 370.737 169.656 371.055C169.708 371.372 169.784 371.646 169.883 371.875V372H168.375C168.302 371.833 168.245 371.612 168.203 371.336C168.161 371.055 168.141 370.794 168.141 370.555ZM168.391 366.875L168.406 367.891H166.945C166.534 367.891 166.167 367.924 165.844 367.992C165.521 368.055 165.25 368.151 165.031 368.281C164.812 368.411 164.646 368.576 164.531 368.773C164.417 368.966 164.359 369.193 164.359 369.453C164.359 369.719 164.419 369.961 164.539 370.18C164.659 370.398 164.839 370.573 165.078 370.703C165.323 370.828 165.622 370.891 165.977 370.891C166.419 370.891 166.81 370.797 167.148 370.609C167.487 370.422 167.755 370.193 167.953 369.922C168.156 369.651 168.266 369.388 168.281 369.133L168.898 369.828C168.862 370.047 168.763 370.289 168.602 370.555C168.44 370.82 168.224 371.076 167.953 371.32C167.688 371.56 167.37 371.76 167 371.922C166.635 372.078 166.224 372.156 165.766 372.156C165.193 372.156 164.69 372.044 164.258 371.82C163.831 371.596 163.497 371.297 163.258 370.922C163.023 370.542 162.906 370.117 162.906 369.648C162.906 369.195 162.995 368.797 163.172 368.453C163.349 368.104 163.604 367.815 163.938 367.586C164.271 367.352 164.672 367.174 165.141 367.055C165.609 366.935 166.133 366.875 166.711 366.875H168.391ZM177.32 363.547V364.742H173.414V372H171.969V363.547H177.32ZM183.562 370.555V366.203C183.562 365.87 183.495 365.581 183.359 365.336C183.229 365.086 183.031 364.893 182.766 364.758C182.5 364.622 182.172 364.555 181.781 364.555C181.417 364.555 181.096 364.617 180.82 364.742C180.549 364.867 180.336 365.031 180.18 365.234C180.029 365.438 179.953 365.656 179.953 365.891H178.508C178.508 365.589 178.586 365.289 178.742 364.992C178.898 364.695 179.122 364.427 179.414 364.188C179.711 363.943 180.065 363.75 180.477 363.609C180.893 363.464 181.357 363.391 181.867 363.391C182.482 363.391 183.023 363.495 183.492 363.703C183.966 363.911 184.336 364.227 184.602 364.648C184.872 365.065 185.008 365.589 185.008 366.219V370.156C185.008 370.438 185.031 370.737 185.078 371.055C185.13 371.372 185.206 371.646 185.305 371.875V372H183.797C183.724 371.833 183.667 371.612 183.625 371.336C183.583 371.055 183.562 370.794 183.562 370.555ZM183.812 366.875L183.828 367.891H182.367C181.956 367.891 181.589 367.924 181.266 367.992C180.943 368.055 180.672 368.151 180.453 368.281C180.234 368.411 180.068 368.576 179.953 368.773C179.839 368.966 179.781 369.193 179.781 369.453C179.781 369.719 179.841 369.961 179.961 370.18C180.081 370.398 180.26 370.573 180.5 370.703C180.745 370.828 181.044 370.891 181.398 370.891C181.841 370.891 182.232 370.797 182.57 370.609C182.909 370.422 183.177 370.193 183.375 369.922C183.578 369.651 183.688 369.388 183.703 369.133L184.32 369.828C184.284 370.047 184.185 370.289 184.023 370.555C183.862 370.82 183.646 371.076 183.375 371.32C183.109 371.56 182.792 371.76 182.422 371.922C182.057 372.078 181.646 372.156 181.188 372.156C180.615 372.156 180.112 372.044 179.68 371.82C179.253 371.596 178.919 371.297 178.68 370.922C178.445 370.542 178.328 370.117 178.328 369.648C178.328 369.195 178.417 368.797 178.594 368.453C178.771 368.104 179.026 367.815 179.359 367.586C179.693 367.352 180.094 367.174 180.562 367.055C181.031 366.935 181.555 366.875 182.133 366.875H183.812ZM190.438 367.961H188.883V367.07H190.32C190.721 367.07 191.039 367.021 191.273 366.922C191.508 366.818 191.674 366.674 191.773 366.492C191.872 366.31 191.922 366.096 191.922 365.852C191.922 365.633 191.865 365.427 191.75 365.234C191.641 365.036 191.464 364.878 191.219 364.758C190.974 364.633 190.646 364.57 190.234 364.57C189.901 364.57 189.599 364.63 189.328 364.75C189.057 364.865 188.841 365.023 188.68 365.227C188.523 365.424 188.445 365.648 188.445 365.898H187C187 365.383 187.146 364.94 187.438 364.57C187.734 364.195 188.128 363.906 188.617 363.703C189.112 363.5 189.651 363.398 190.234 363.398C190.724 363.398 191.161 363.453 191.547 363.562C191.938 363.667 192.268 363.823 192.539 364.031C192.81 364.234 193.016 364.49 193.156 364.797C193.302 365.099 193.375 365.451 193.375 365.852C193.375 366.138 193.307 366.409 193.172 366.664C193.036 366.919 192.841 367.146 192.586 367.344C192.331 367.536 192.021 367.688 191.656 367.797C191.297 367.906 190.891 367.961 190.438 367.961ZM188.883 367.414H190.438C190.943 367.414 191.388 367.464 191.773 367.562C192.159 367.656 192.482 367.797 192.742 367.984C193.003 368.172 193.198 368.404 193.328 368.68C193.464 368.951 193.531 369.263 193.531 369.617C193.531 370.013 193.451 370.37 193.289 370.688C193.133 371 192.909 371.266 192.617 371.484C192.326 371.703 191.977 371.87 191.57 371.984C191.169 372.099 190.724 372.156 190.234 372.156C189.688 372.156 189.156 372.062 188.641 371.875C188.125 371.688 187.701 371.398 187.367 371.008C187.034 370.612 186.867 370.109 186.867 369.5H188.312C188.312 369.755 188.393 369.997 188.555 370.227C188.716 370.456 188.94 370.641 189.227 370.781C189.518 370.922 189.854 370.992 190.234 370.992C190.641 370.992 190.979 370.93 191.25 370.805C191.521 370.68 191.724 370.513 191.859 370.305C192 370.096 192.07 369.87 192.07 369.625C192.07 369.307 192.008 369.052 191.883 368.859C191.758 368.667 191.565 368.526 191.305 368.438C191.049 368.344 190.721 368.297 190.32 368.297H188.883V367.414ZM196.969 369.711L200.867 363.547H202.32V372H200.867V365.836L196.969 372H195.531V363.547H196.969V369.711ZM210.375 367.211V368.383H205.906V367.211H210.375ZM206.211 363.547V372H204.766V363.547H206.211ZM211.547 363.547V372H210.094V363.547H211.547Z" fill="#1C2127"/>
<defs>
<filter id="filter0_d_402_123" x="38" y="91" width="800" height="47" filterUnits="userSpaceOnUse" color-interpolation-filters="sRGB">
<feFlood flood-opacity="0" result="BackgroundImageFix"/>
<feColorMatrix in="SourceAlpha" type="matrix" values="0 0 0 0 0 0 0 0 0 0 0 0 0 0 0 0 0 0 127 0" result="hardAlpha"/>
<feOffset dy="4"/>
<feGaussianBlur stdDeviation="2"/>
<feComposite in2="hardAlpha" operator="out"/>
<feColorMatrix type="matrix" values="0 0 0 0 0 0 0 0 0 0 0 0 0 0 0 0 0 0 0.25 0"/>
<feBlend mode="normal" in2="BackgroundImageFix" result="effect1_dropShadow_402_123"/>
<feBlend mode="normal" in="SourceGraphic" in2="effect1_dropShadow_402_123" result="shape"/>
</filter>
<filter id="filter1_d_402_123" x="38" y="155" width="800" height="47" filterUnits="userSpaceOnUse" color-interpolation-filters="sRGB">
<feFlood flood-opacity="0" result="BackgroundImageFix"/>
<feColorMatrix in="SourceAlpha" type="matrix" values="0 0 0 0 0 0 0 0 0 0 0 0 0 0 0 0 0 0 127 0" result="hardAlpha"/>
<feOffset dy="4"/>
<feGaussianBlur stdDeviation="2"/>
<feComposite in2="hardAlpha" operator="out"/>
<feColorMatrix type="matrix" values="0 0 0 0 0 0 0 0 0 0 0 0 0 0 0 0 0 0 0.25 0"/>
<feBlend mode="normal" in2="BackgroundImageFix" result="effect1_dropShadow_402_123"/>
<feBlend mode="normal" in="SourceGraphic" in2="effect1_dropShadow_402_123" result="shape"/>
</filter>
<filter id="filter2_d_402_123" x="38" y="219" width="800" height="47" filterUnits="userSpaceOnUse" color-interpolation-filters="sRGB">
<feFlood flood-opacity="0" result="BackgroundImageFix"/>
<feColorMatrix in="SourceAlpha" type="matrix" values="0 0 0 0 0 0 0 0 0 0 0 0 0 0 0 0 0 0 127 0" result="hardAlpha"/>
<feOffset dy="4"/>
<feGaussianBlur stdDeviation="2"/>
<feComposite in2="hardAlpha" operator="out"/>
<feColorMatrix type="matrix" values="0 0 0 0 0 0 0 0 0 0 0 0 0 0 0 0 0 0 0.25 0"/>
<feBlend mode="normal" in2="BackgroundImageFix" result="effect1_dropShadow_402_123"/>
<feBlend mode="normal" in="SourceGraphic" in2="effect1_dropShadow_402_123" result="shape"/>
</filter>
<filter id="filter3_d_402_123" x="38" y="283" width="800" height="47" filterUnits="userSpaceOnUse" color-interpolation-filters="sRGB">
<feFlood flood-opacity="0" result="BackgroundImageFix"/>
<feColorMatrix in="SourceAlpha" type="matrix" values="0 0 0 0 0 0 0 0 0 0 0 0 0 0 0 0 0 0 127 0" result="hardAlpha"/>
<feOffset dy="4"/>
<feGaussianBlur stdDeviation="2"/>
<feComposite in2="hardAlpha" operator="out"/>
<feColorMatrix type="matrix" values="0 0 0 0 0 0 0 0 0 0 0 0 0 0 0 0 0 0 0.25 0"/>
<feBlend mode="normal" in2="BackgroundImageFix" result="effect1_dropShadow_402_123"/>
<feBlend mode="normal" in="SourceGraphic" in2="effect1_dropShadow_402_123" result="shape"/>
</filter>
<filter id="filter4_d_402_123" x="38" y="347" width="800" height="47" filterUnits="userSpaceOnUse" color-interpolation-filters="sRGB">
<feFlood flood-opacity="0" result="BackgroundImageFix"/>
<feColorMatrix in="SourceAlpha" type="matrix" values="0 0 0 0 0 0 0 0 0 0 0 0 0 0 0 0 0 0 127 0" result="hardAlpha"/>
<feOffset dy="4"/>
<feGaussianBlur stdDeviation="2"/>
<feComposite in2="hardAlpha" operator="out"/>
<feColorMatrix type="matrix" values="0 0 0 0 0 0 0 0 0 0 0 0 0 0 0 0 0 0 0.25 0"/>
<feBlend mode="normal" in2="BackgroundImageFix" result="effect1_dropShadow_402_123"/>
<feBlend mode="normal" in="SourceGraphic" in2="effect1_dropShadow_402_123" result="shape"/>
</filter>
</defs>
</svg>
