<svg width="1728" height="428" viewBox="0 0 1728 428" fill="none" xmlns="http://www.w3.org/2000/svg">
<rect y="-0.000244141" width="1728" height="428" fill="url(#paint0_radial_402_85)"/>
<path d="M670.641 37.9995V39.2495C670.641 40.9683 670.417 42.5099 669.969 43.8745C669.521 45.2391 668.88 46.4006 668.047 47.3589C667.224 48.3172 666.234 49.0516 665.078 49.562C663.922 50.062 662.641 50.312 661.234 50.312C659.839 50.312 658.562 50.062 657.406 49.562C656.26 49.0516 655.266 48.3172 654.422 47.3589C653.578 46.4006 652.922 45.2391 652.453 43.8745C651.995 42.5099 651.766 40.9683 651.766 39.2495V37.9995C651.766 36.2808 651.995 34.7443 652.453 33.3901C652.911 32.0256 653.557 30.8641 654.391 29.9058C655.234 28.937 656.229 28.2026 657.375 27.7026C658.531 27.1922 659.807 26.937 661.203 26.937C662.609 26.937 663.891 27.1922 665.047 27.7026C666.203 28.2026 667.198 28.937 668.031 29.9058C668.865 30.8641 669.505 32.0256 669.953 33.3901C670.411 34.7443 670.641 36.2808 670.641 37.9995ZM666.719 39.2495V37.9683C666.719 36.6974 666.594 35.5776 666.344 34.6089C666.104 33.6297 665.745 32.812 665.266 32.1558C664.797 31.4891 664.219 30.9891 663.531 30.6558C662.844 30.312 662.068 30.1401 661.203 30.1401C660.339 30.1401 659.568 30.312 658.891 30.6558C658.214 30.9891 657.635 31.4891 657.156 32.1558C656.688 32.812 656.328 33.6297 656.078 34.6089C655.828 35.5776 655.703 36.6974 655.703 37.9683V39.2495C655.703 40.5203 655.828 41.6453 656.078 42.6245C656.328 43.6037 656.693 44.4318 657.172 45.1089C657.661 45.7756 658.245 46.2808 658.922 46.6245C659.599 46.9578 660.37 47.1245 661.234 47.1245C662.109 47.1245 662.885 46.9578 663.562 46.6245C664.24 46.2808 664.812 45.7756 665.281 45.1089C665.75 44.4318 666.104 43.6037 666.344 42.6245C666.594 41.6453 666.719 40.5203 666.719 39.2495ZM684.797 25.687H687.844C687.844 26.6141 687.714 27.3797 687.453 27.9839C687.203 28.5776 686.828 29.0672 686.328 29.4526C685.839 29.8276 685.229 30.1297 684.5 30.3589C683.781 30.5881 682.948 30.7964 682 30.9839C681.125 31.1714 680.333 31.4683 679.625 31.8745C678.927 32.2703 678.339 32.8276 677.859 33.5464C677.391 34.2547 677.052 35.1662 676.844 36.2808C676.635 37.3953 676.573 38.7547 676.656 40.3589V41.4214L673.672 41.687V40.6245C673.672 38.6349 673.854 36.9006 674.219 35.4214C674.583 33.9422 675.099 32.6974 675.766 31.687C676.443 30.6662 677.245 29.8537 678.172 29.2495C679.109 28.6453 680.151 28.2287 681.297 27.9995C682.078 27.8328 682.729 27.6662 683.25 27.4995C683.771 27.3224 684.156 27.0985 684.406 26.8276C684.667 26.5464 684.797 26.1662 684.797 25.687ZM682.156 34.0464C683.281 34.0464 684.281 34.2443 685.156 34.6401C686.031 35.0256 686.771 35.5672 687.375 36.2651C687.979 36.9631 688.438 37.786 688.75 38.7339C689.073 39.6818 689.234 40.7131 689.234 41.8276V42.1714C689.234 43.3381 689.062 44.4162 688.719 45.4058C688.375 46.3953 687.87 47.2599 687.203 47.9995C686.536 48.7287 685.719 49.3016 684.75 49.7183C683.792 50.1245 682.693 50.3276 681.453 50.3276C680.224 50.3276 679.125 50.1141 678.156 49.687C677.188 49.2599 676.37 48.6662 675.703 47.9058C675.036 47.1349 674.531 46.2339 674.188 45.2026C673.844 44.1714 673.672 43.0464 673.672 41.8276V41.4839C673.661 41.2651 673.719 41.0516 673.844 40.8433C673.979 40.6349 674.141 40.411 674.328 40.1714C674.516 39.9318 674.682 39.6558 674.828 39.3433C675.349 38.2912 675.964 37.3693 676.672 36.5776C677.38 35.786 678.188 35.1662 679.094 34.7183C680.01 34.2703 681.031 34.0464 682.156 34.0464ZM681.422 37.0308C680.484 37.0308 679.719 37.2547 679.125 37.7026C678.542 38.1401 678.109 38.7235 677.828 39.4526C677.557 40.1818 677.422 40.9735 677.422 41.8276V42.1714C677.422 42.8693 677.5 43.5308 677.656 44.1558C677.812 44.7808 678.047 45.3328 678.359 45.812C678.682 46.2808 679.099 46.6506 679.609 46.9214C680.13 47.1922 680.745 47.3276 681.453 47.3276C682.172 47.3276 682.781 47.1922 683.281 46.9214C683.792 46.6506 684.203 46.2808 684.516 45.812C684.839 45.3328 685.073 44.7808 685.219 44.1558C685.375 43.5308 685.453 42.8693 685.453 42.1714V41.8276C685.453 41.1818 685.375 40.5724 685.219 39.9995C685.073 39.4266 684.839 38.9214 684.516 38.4839C684.193 38.036 683.776 37.6818 683.266 37.4214C682.755 37.161 682.141 37.0308 681.422 37.0308ZM695.688 36.3433V56.4995H691.922V33.0933H695.391L695.688 36.3433ZM706.703 41.3901V41.7183C706.703 42.9474 706.557 44.0881 706.266 45.1401C705.984 46.1818 705.562 47.0933 705 47.8745C704.448 48.6453 703.766 49.2443 702.953 49.6714C702.141 50.0985 701.203 50.312 700.141 50.312C699.089 50.312 698.167 50.1193 697.375 49.7339C696.594 49.3381 695.932 48.7808 695.391 48.062C694.849 47.3433 694.411 46.4995 694.078 45.5308C693.755 44.5516 693.526 43.4787 693.391 42.312V41.0464C693.526 39.8068 693.755 38.6818 694.078 37.6714C694.411 36.661 694.849 35.7912 695.391 35.062C695.932 34.3328 696.594 33.7703 697.375 33.3745C698.156 32.9787 699.068 32.7808 700.109 32.7808C701.172 32.7808 702.115 32.9891 702.938 33.4058C703.76 33.812 704.453 34.3953 705.016 35.1558C705.578 35.9058 706 36.812 706.281 37.8745C706.562 38.9266 706.703 40.0985 706.703 41.3901ZM702.938 41.7183V41.3901C702.938 40.6089 702.865 39.8849 702.719 39.2183C702.573 38.5412 702.344 37.9474 702.031 37.437C701.719 36.9266 701.318 36.5308 700.828 36.2495C700.349 35.9578 699.771 35.812 699.094 35.812C698.427 35.812 697.854 35.9266 697.375 36.1558C696.896 36.3745 696.495 36.6818 696.172 37.0776C695.849 37.4735 695.599 37.937 695.422 38.4683C695.245 38.9891 695.12 39.5568 695.047 40.1714V43.2026C695.172 43.9526 695.385 44.6401 695.688 45.2651C695.99 45.8901 696.417 46.3901 696.969 46.7651C697.531 47.1297 698.25 47.312 699.125 47.312C699.802 47.312 700.38 47.1662 700.859 46.8745C701.339 46.5828 701.729 46.1818 702.031 45.6714C702.344 45.1506 702.573 44.5516 702.719 43.8745C702.865 43.1974 702.938 42.4787 702.938 41.7183ZM719.438 46.6089V38.5464C719.438 37.9422 719.328 37.4214 719.109 36.9839C718.891 36.5464 718.557 36.2078 718.109 35.9683C717.672 35.7287 717.12 35.6089 716.453 35.6089C715.839 35.6089 715.307 35.7131 714.859 35.9214C714.411 36.1297 714.062 36.411 713.812 36.7651C713.562 37.1193 713.438 37.5203 713.438 37.9683H709.688C709.688 37.3016 709.849 36.6558 710.172 36.0308C710.495 35.4058 710.964 34.8485 711.578 34.3589C712.193 33.8693 712.927 33.4839 713.781 33.2026C714.635 32.9214 715.594 32.7808 716.656 32.7808C717.927 32.7808 719.052 32.9943 720.031 33.4214C721.021 33.8485 721.797 34.4943 722.359 35.3589C722.932 36.2131 723.219 37.286 723.219 38.5776V46.0933C723.219 46.8641 723.271 47.5568 723.375 48.1714C723.49 48.7756 723.651 49.3016 723.859 49.7495V49.9995H720C719.823 49.5933 719.682 49.0776 719.578 48.4526C719.484 47.8172 719.438 47.2026 719.438 46.6089ZM719.984 39.7183L720.016 42.0464H717.312C716.615 42.0464 716 42.1141 715.469 42.2495C714.938 42.3745 714.495 42.562 714.141 42.812C713.786 43.062 713.521 43.3641 713.344 43.7183C713.167 44.0724 713.078 44.4735 713.078 44.9214C713.078 45.3693 713.182 45.7808 713.391 46.1558C713.599 46.5203 713.901 46.8068 714.297 47.0151C714.703 47.2235 715.193 47.3276 715.766 47.3276C716.536 47.3276 717.208 47.1714 717.781 46.8589C718.365 46.536 718.823 46.1453 719.156 45.687C719.49 45.2183 719.667 44.7756 719.688 44.3589L720.906 46.0308C720.781 46.4578 720.568 46.9162 720.266 47.4058C719.964 47.8953 719.568 48.3641 719.078 48.812C718.599 49.2495 718.021 49.6089 717.344 49.8901C716.677 50.1714 715.906 50.312 715.031 50.312C713.927 50.312 712.943 50.0933 712.078 49.6558C711.214 49.2078 710.536 48.6089 710.047 47.8589C709.557 47.0985 709.312 46.2391 709.312 45.2808C709.312 44.3849 709.479 43.5933 709.812 42.9058C710.156 42.2078 710.656 41.6245 711.312 41.1558C711.979 40.687 712.792 40.3328 713.75 40.0933C714.708 39.8433 715.802 39.7183 717.031 39.7183H719.984ZM734.75 33.0933V49.9995H730.969V33.0933H734.75ZM740.297 33.0933V36.062H725.516V33.0933H740.297ZM754.359 40.1558V43.1245H745.609V40.1558H754.359ZM746.703 33.0933V49.9995H742.938V33.0933H746.703ZM757.078 33.0933V49.9995H753.312V33.0933H757.078ZM770.625 46.6089V38.5464C770.625 37.9422 770.516 37.4214 770.297 36.9839C770.078 36.5464 769.745 36.2078 769.297 35.9683C768.859 35.7287 768.307 35.6089 767.641 35.6089C767.026 35.6089 766.495 35.7131 766.047 35.9214C765.599 36.1297 765.25 36.411 765 36.7651C764.75 37.1193 764.625 37.5203 764.625 37.9683H760.875C760.875 37.3016 761.036 36.6558 761.359 36.0308C761.682 35.4058 762.151 34.8485 762.766 34.3589C763.38 33.8693 764.115 33.4839 764.969 33.2026C765.823 32.9214 766.781 32.7808 767.844 32.7808C769.115 32.7808 770.24 32.9943 771.219 33.4214C772.208 33.8485 772.984 34.4943 773.547 35.3589C774.12 36.2131 774.406 37.286 774.406 38.5776V46.0933C774.406 46.8641 774.458 47.5568 774.562 48.1714C774.677 48.7756 774.839 49.3016 775.047 49.7495V49.9995H771.188C771.01 49.5933 770.87 49.0776 770.766 48.4526C770.672 47.8172 770.625 47.2026 770.625 46.6089ZM771.172 39.7183L771.203 42.0464H768.5C767.802 42.0464 767.188 42.1141 766.656 42.2495C766.125 42.3745 765.682 42.562 765.328 42.812C764.974 43.062 764.708 43.3641 764.531 43.7183C764.354 44.0724 764.266 44.4735 764.266 44.9214C764.266 45.3693 764.37 45.7808 764.578 46.1558C764.786 46.5203 765.089 46.8068 765.484 47.0151C765.891 47.2235 766.38 47.3276 766.953 47.3276C767.724 47.3276 768.396 47.1714 768.969 46.8589C769.552 46.536 770.01 46.1453 770.344 45.687C770.677 45.2183 770.854 44.7756 770.875 44.3589L772.094 46.0308C771.969 46.4578 771.755 46.9162 771.453 47.4058C771.151 47.8953 770.755 48.3641 770.266 48.812C769.786 49.2495 769.208 49.6089 768.531 49.8901C767.865 50.1714 767.094 50.312 766.219 50.312C765.115 50.312 764.13 50.0933 763.266 49.6558C762.401 49.2078 761.724 48.6089 761.234 47.8589C760.745 47.0985 760.5 46.2391 760.5 45.2808C760.5 44.3849 760.667 43.5933 761 42.9058C761.344 42.2078 761.844 41.6245 762.5 41.1558C763.167 40.687 763.979 40.3328 764.938 40.0933C765.896 39.8433 766.99 39.7183 768.219 39.7183H771.172ZM781.906 41.7339H785.812L781.016 49.9995H777.125L781.906 41.7339ZM784.656 33.0933H791.906V49.9995H788.156V36.062H784.656C783.948 36.062 783.365 36.187 782.906 36.437C782.448 36.6766 782.109 36.9943 781.891 37.3901C781.672 37.7756 781.562 38.1714 781.562 38.5776C781.562 38.9839 781.661 39.3745 781.859 39.7495C782.068 40.1245 782.385 40.4318 782.812 40.6714C783.25 40.911 783.797 41.0308 784.453 41.0308H789.422V43.7808H784.453C783.411 43.7808 782.479 43.6506 781.656 43.3901C780.833 43.1193 780.135 42.7495 779.562 42.2808C778.99 41.8016 778.552 41.2443 778.25 40.6089C777.948 39.9631 777.797 39.2599 777.797 38.4995C777.797 37.7183 777.953 36.9995 778.266 36.3433C778.578 35.687 779.026 35.1141 779.609 34.6245C780.203 34.1349 780.922 33.7599 781.766 33.4995C782.62 33.2287 783.583 33.0933 784.656 33.0933ZM810.969 47.312C811.583 47.312 812.135 47.1922 812.625 46.9526C813.125 46.7026 813.526 46.3589 813.828 45.9214C814.141 45.4839 814.312 44.9787 814.344 44.4058H817.891C817.87 45.4995 817.547 46.4943 816.922 47.3901C816.297 48.286 815.469 48.9995 814.438 49.5308C813.406 50.0516 812.266 50.312 811.016 50.312C809.724 50.312 808.599 50.0933 807.641 49.6558C806.682 49.2078 805.885 48.5933 805.25 47.812C804.615 47.0308 804.135 46.1297 803.812 45.1089C803.5 44.0881 803.344 42.9943 803.344 41.8276V41.2808C803.344 40.1141 803.5 39.0203 803.812 37.9995C804.135 36.9683 804.615 36.062 805.25 35.2808C805.885 34.4995 806.682 33.8901 807.641 33.4526C808.599 33.0047 809.719 32.7808 811 32.7808C812.354 32.7808 813.542 33.0516 814.562 33.5933C815.583 34.1245 816.385 34.8693 816.969 35.8276C817.562 36.7756 817.87 37.8797 817.891 39.1401H814.344C814.312 38.5151 814.156 37.9526 813.875 37.4526C813.604 36.9422 813.219 36.536 812.719 36.2339C812.229 35.9318 811.641 35.7808 810.953 35.7808C810.193 35.7808 809.562 35.937 809.062 36.2495C808.562 36.5516 808.172 36.9683 807.891 37.4995C807.609 38.0203 807.406 38.6089 807.281 39.2651C807.167 39.911 807.109 40.5828 807.109 41.2808V41.8276C807.109 42.5256 807.167 43.2026 807.281 43.8589C807.396 44.5151 807.594 45.1037 807.875 45.6245C808.167 46.1349 808.562 46.5464 809.062 46.8589C809.562 47.161 810.198 47.312 810.969 47.312ZM829 42.7651H823.594L823.562 40.1089H828C828.729 40.1089 829.328 40.036 829.797 39.8901C830.276 39.7443 830.63 39.5256 830.859 39.2339C831.089 38.9318 831.203 38.5672 831.203 38.1401C831.203 37.786 831.135 37.4787 831 37.2183C830.865 36.9474 830.656 36.7287 830.375 36.562C830.104 36.3849 829.76 36.2599 829.344 36.187C828.938 36.1037 828.464 36.062 827.922 36.062H824.844V49.9995H821.078V33.0933H827.922C829.005 33.0933 829.979 33.187 830.844 33.3745C831.719 33.562 832.464 33.8485 833.078 34.2339C833.693 34.6193 834.161 35.1089 834.484 35.7026C834.818 36.286 834.984 36.9735 834.984 37.7651C834.984 38.286 834.87 38.7756 834.641 39.2339C834.422 39.6922 834.094 40.0985 833.656 40.4526C833.219 40.8068 832.682 41.0985 832.047 41.3276C831.411 41.5464 830.682 41.6818 829.859 41.7339L829 42.7651ZM829 49.9995H822.5L824 47.0308H829C829.667 47.0308 830.219 46.9474 830.656 46.7808C831.094 46.6141 831.417 46.3745 831.625 46.062C831.844 45.7391 831.953 45.3589 831.953 44.9214C831.953 44.4735 831.849 44.0881 831.641 43.7651C831.432 43.4422 831.109 43.1974 830.672 43.0308C830.245 42.8537 829.688 42.7651 829 42.7651H824.703L824.734 40.1089H829.844L830.922 41.1401C831.995 41.2131 832.885 41.4422 833.594 41.8276C834.302 42.2131 834.833 42.6974 835.188 43.2808C835.542 43.8641 835.719 44.4995 835.719 45.187C835.719 45.9787 835.568 46.6766 835.266 47.2808C834.974 47.8849 834.536 48.3901 833.953 48.7964C833.38 49.1922 832.677 49.4943 831.844 49.7026C831.01 49.9006 830.062 49.9995 829 49.9995ZM842.531 41.7339H846.438L841.641 49.9995H837.75L842.531 41.7339ZM845.281 33.0933H852.531V49.9995H848.781V36.062H845.281C844.573 36.062 843.99 36.187 843.531 36.437C843.073 36.6766 842.734 36.9943 842.516 37.3901C842.297 37.7756 842.188 38.1714 842.188 38.5776C842.188 38.9839 842.286 39.3745 842.484 39.7495C842.693 40.1245 843.01 40.4318 843.438 40.6714C843.875 40.911 844.422 41.0308 845.078 41.0308H850.047V43.7808H845.078C844.036 43.7808 843.104 43.6506 842.281 43.3901C841.458 43.1193 840.76 42.7495 840.188 42.2808C839.615 41.8016 839.177 41.2443 838.875 40.6089C838.573 39.9631 838.422 39.2599 838.422 38.4995C838.422 37.7183 838.578 36.9995 838.891 36.3433C839.203 35.687 839.651 35.1141 840.234 34.6245C840.828 34.1349 841.547 33.7599 842.391 33.4995C843.245 33.2287 844.208 33.0933 845.281 33.0933ZM863.719 41.9214H860.469V40.0151H863.094C863.76 40.0151 864.292 39.9266 864.688 39.7495C865.094 39.5724 865.38 39.3276 865.547 39.0151C865.724 38.6922 865.812 38.3172 865.812 37.8901C865.812 37.5151 865.724 37.161 865.547 36.8276C865.38 36.4839 865.094 36.2026 864.688 35.9839C864.281 35.7651 863.729 35.6558 863.031 35.6558C862.458 35.6558 861.943 35.7495 861.484 35.937C861.036 36.1245 860.682 36.3849 860.422 36.7183C860.161 37.0516 860.031 37.437 860.031 37.8745H856.266C856.266 36.8224 856.562 35.9162 857.156 35.1558C857.76 34.3953 858.568 33.812 859.578 33.4058C860.589 32.9995 861.698 32.7964 862.906 32.7964C863.938 32.7964 864.865 32.9058 865.688 33.1245C866.51 33.3328 867.208 33.6453 867.781 34.062C868.365 34.4683 868.807 34.9787 869.109 35.5933C869.422 36.1974 869.578 36.9006 869.578 37.7026C869.578 38.2756 869.443 38.8172 869.172 39.3276C868.901 39.8381 868.51 40.2912 868 40.687C867.49 41.0724 866.87 41.3745 866.141 41.5933C865.422 41.812 864.615 41.9214 863.719 41.9214ZM860.469 40.8276H863.719C864.719 40.8276 865.604 40.9266 866.375 41.1245C867.146 41.312 867.792 41.5933 868.312 41.9683C868.833 42.3433 869.224 42.8068 869.484 43.3589C869.755 43.9006 869.891 44.5256 869.891 45.2339C869.891 46.0256 869.719 46.7391 869.375 47.3745C869.042 47.9995 868.562 48.5308 867.938 48.9683C867.323 49.4058 866.589 49.7391 865.734 49.9683C864.88 50.1974 863.938 50.312 862.906 50.312C861.781 50.312 860.688 50.1245 859.625 49.7495C858.573 49.3745 857.703 48.7964 857.016 48.0151C856.339 47.2235 856 46.2183 856 44.9995H859.766C859.766 45.4266 859.896 45.8276 860.156 46.2026C860.417 46.5776 860.792 46.8849 861.281 47.1245C861.771 47.3537 862.359 47.4683 863.047 47.4683C863.755 47.4683 864.333 47.3589 864.781 47.1401C865.229 46.911 865.562 46.6141 865.781 46.2495C866 45.8745 866.109 45.4787 866.109 45.062C866.109 44.4995 866 44.0464 865.781 43.7026C865.562 43.3589 865.229 43.1089 864.781 42.9526C864.333 42.786 863.771 42.7026 863.094 42.7026H860.469V40.8276ZM875.891 38.4683H880.875C882.333 38.4683 883.573 38.7131 884.594 39.2026C885.615 39.6922 886.391 40.3745 886.922 41.2495C887.464 42.1141 887.734 43.1037 887.734 44.2183C887.734 45.0412 887.583 45.8068 887.281 46.5151C886.979 47.2131 886.531 47.8224 885.938 48.3433C885.354 48.8641 884.635 49.2703 883.781 49.562C882.938 49.8537 881.969 49.9995 880.875 49.9995H873.391V33.0933H877.172V47.0151H880.875C881.625 47.0151 882.224 46.8849 882.672 46.6245C883.12 46.3641 883.443 46.0256 883.641 45.6089C883.849 45.1922 883.953 44.7495 883.953 44.2808C883.953 43.8016 883.849 43.3485 883.641 42.9214C883.443 42.4943 883.12 42.1453 882.672 41.8745C882.224 41.6037 881.625 41.4683 880.875 41.4683H875.891V38.4683Z" fill="#1C2127"/>
<rect x="650.5" y="68.4995" width="427" height="38" rx="2.5" fill="white" stroke="#9FC7F0"/>
<path d="M665.359 87.5308H662.156L662.141 86.7183H664.898C665.461 86.7183 665.94 86.6375 666.336 86.4761C666.732 86.3146 667.031 86.075 667.234 85.7573C667.443 85.4344 667.547 85.0386 667.547 84.5698C667.547 84.0907 667.445 83.6948 667.242 83.3823C667.039 83.0646 666.734 82.8302 666.328 82.6792C665.922 82.5282 665.411 82.4526 664.797 82.4526H662.406V92.9995H661.445V81.6245H664.797C665.375 81.6245 665.893 81.6818 666.352 81.7964C666.81 81.911 667.201 82.0907 667.523 82.3354C667.846 82.5802 668.091 82.8901 668.258 83.2651C668.43 83.6349 668.516 84.0776 668.516 84.5933C668.516 85.062 668.411 85.4865 668.203 85.8667C667.995 86.2417 667.701 86.549 667.32 86.7886C666.945 87.0229 666.495 87.1688 665.969 87.2261L665.359 87.5308ZM665.289 92.9995H661.852L662.344 92.1792H665.289C665.852 92.1792 666.331 92.0854 666.727 91.8979C667.128 91.7052 667.435 91.4318 667.648 91.0776C667.862 90.7235 667.969 90.3016 667.969 89.812C667.969 89.3797 667.875 88.9917 667.688 88.6479C667.5 88.3042 667.214 88.0334 666.828 87.8354C666.443 87.6323 665.953 87.5308 665.359 87.5308H663.367L663.383 86.7183H666.203L666.375 87.0073C666.885 87.0594 667.331 87.2183 667.711 87.4839C668.096 87.7443 668.393 88.075 668.602 88.4761C668.815 88.8771 668.922 89.3172 668.922 89.7964C668.922 90.4839 668.768 91.0672 668.461 91.5464C668.159 92.0203 667.734 92.3823 667.188 92.6323C666.646 92.8771 666.013 92.9995 665.289 92.9995ZM676.18 91.4839V87.1245C676.18 86.7235 676.096 86.3771 675.93 86.0854C675.763 85.7938 675.518 85.5698 675.195 85.4136C674.872 85.2573 674.474 85.1792 674 85.1792C673.562 85.1792 673.172 85.2573 672.828 85.4136C672.49 85.5646 672.221 85.7703 672.023 86.0308C671.831 86.286 671.734 86.5698 671.734 86.8823L670.797 86.8745C670.797 86.5568 670.875 86.2495 671.031 85.9526C671.188 85.6558 671.409 85.3901 671.695 85.1558C671.982 84.9214 672.323 84.7365 672.719 84.6011C673.12 84.4604 673.56 84.3901 674.039 84.3901C674.643 84.3901 675.174 84.4917 675.633 84.6948C676.096 84.8979 676.458 85.2026 676.719 85.6089C676.979 86.0151 677.109 86.5256 677.109 87.1401V91.2261C677.109 91.5177 677.13 91.8198 677.172 92.1323C677.219 92.4448 677.284 92.7026 677.367 92.9058V92.9995H676.375C676.312 92.812 676.263 92.5776 676.227 92.2964C676.195 92.0099 676.18 91.7391 676.18 91.4839ZM676.398 88.0776L676.414 88.7964H674.578C674.099 88.7964 673.669 88.8407 673.289 88.9292C672.914 89.0125 672.596 89.1375 672.336 89.3042C672.076 89.4657 671.875 89.661 671.734 89.8901C671.599 90.1193 671.531 90.3797 671.531 90.6714C671.531 90.9735 671.607 91.2495 671.758 91.4995C671.914 91.7495 672.133 91.95 672.414 92.1011C672.701 92.2469 673.039 92.3198 673.43 92.3198C673.951 92.3198 674.409 92.2235 674.805 92.0308C675.206 91.8381 675.536 91.5854 675.797 91.2729C676.057 90.9604 676.232 90.6193 676.32 90.2495L676.727 90.7886C676.659 91.049 676.534 91.3172 676.352 91.5933C676.174 91.8641 675.943 92.1193 675.656 92.3589C675.37 92.5933 675.031 92.786 674.641 92.937C674.255 93.0828 673.818 93.1558 673.328 93.1558C672.776 93.1558 672.294 93.0516 671.883 92.8433C671.477 92.6349 671.159 92.3511 670.93 91.9917C670.706 91.6271 670.594 91.2157 670.594 90.7573C670.594 90.3407 670.682 89.9683 670.859 89.6401C671.036 89.3068 671.292 89.0256 671.625 88.7964C671.964 88.562 672.37 88.3849 672.844 88.2651C673.323 88.1401 673.859 88.0776 674.453 88.0776H676.398ZM679.68 84.5464H680.609V92.1948H684.375V84.5464H685.312V92.1948H689.039V84.5464H689.969V92.9995H679.68V84.5464ZM695.586 93.1558C695.034 93.1558 694.526 93.0542 694.062 92.8511C693.604 92.6479 693.203 92.3615 692.859 91.9917C692.521 91.6219 692.258 91.1844 692.07 90.6792C691.888 90.1688 691.797 89.6115 691.797 89.0073V88.6714C691.797 88.0203 691.893 87.4318 692.086 86.9058C692.279 86.3797 692.544 85.9292 692.883 85.5542C693.221 85.1792 693.607 84.8927 694.039 84.6948C694.477 84.4917 694.935 84.3901 695.414 84.3901C695.951 84.3901 696.427 84.4865 696.844 84.6792C697.26 84.8667 697.609 85.1349 697.891 85.4839C698.177 85.8276 698.393 86.2365 698.539 86.7104C698.685 87.1792 698.758 87.6974 698.758 88.2651V88.8354H692.359V88.0386H697.828V87.9292C697.818 87.4552 697.721 87.0125 697.539 86.6011C697.362 86.1844 697.096 85.8459 696.742 85.5854C696.388 85.325 695.945 85.1948 695.414 85.1948C695.018 85.1948 694.654 85.2782 694.32 85.4448C693.992 85.6115 693.708 85.8511 693.469 86.1636C693.234 86.4709 693.052 86.8381 692.922 87.2651C692.797 87.687 692.734 88.1558 692.734 88.6714V89.0073C692.734 89.4761 692.802 89.9136 692.938 90.3198C693.078 90.7209 693.276 91.075 693.531 91.3823C693.792 91.6896 694.099 91.9292 694.453 92.1011C694.807 92.2729 695.198 92.3589 695.625 92.3589C696.125 92.3589 696.568 92.2677 696.953 92.0854C697.339 91.8979 697.685 91.6037 697.992 91.2026L698.578 91.6558C698.396 91.9266 698.167 92.1766 697.891 92.4058C697.62 92.6349 697.294 92.8172 696.914 92.9526C696.534 93.0881 696.091 93.1558 695.586 93.1558ZM705.492 91.4839L710.062 84.5464H711V92.9995H710.062V86.062L705.492 92.9995H704.57V84.5464H705.492V91.4839ZM718.18 91.7183L721.539 84.5464H722.469L718.508 92.9995H717.852L713.898 84.5464H714.828L718.18 91.7183ZM714.539 84.5464V92.9995H713.609V84.5464H714.539ZM721.758 92.9995V84.5464H722.695V92.9995H721.758ZM727.055 89.1245H728.086L725.742 92.9995H724.711L727.055 89.1245ZM728.047 84.5464H731.367V92.9995H730.438V85.3433H728.047C727.552 85.3433 727.148 85.4266 726.836 85.5933C726.529 85.7547 726.302 85.9683 726.156 86.2339C726.016 86.4995 725.945 86.7834 725.945 87.0854C725.945 87.3719 726.008 87.6453 726.133 87.9058C726.263 88.1662 726.464 88.3797 726.734 88.5464C727.005 88.7078 727.357 88.7886 727.789 88.7886H730.773V89.5933H727.789C727.346 89.5933 726.953 89.5308 726.609 89.4058C726.266 89.2808 725.974 89.1063 725.734 88.8823C725.5 88.6532 725.32 88.3849 725.195 88.0776C725.076 87.7651 725.016 87.4292 725.016 87.0698C725.016 86.7052 725.081 86.3719 725.211 86.0698C725.346 85.7625 725.542 85.4943 725.797 85.2651C726.057 85.036 726.375 84.8589 726.75 84.7339C727.13 84.6089 727.562 84.5464 728.047 84.5464Z" fill="#605F5F"/>
<rect x="650.5" y="117.5" width="427" height="38" rx="2.5" fill="white" stroke="#9FC7F0"/>
<path d="M665.359 136.531H662.156L662.141 135.718H664.898C665.461 135.718 665.94 135.638 666.336 135.476C666.732 135.315 667.031 135.075 667.234 134.757C667.443 134.434 667.547 134.039 667.547 133.57C667.547 133.091 667.445 132.695 667.242 132.382C667.039 132.065 666.734 131.83 666.328 131.679C665.922 131.528 665.411 131.453 664.797 131.453H662.406V142H661.445V130.625H664.797C665.375 130.625 665.893 130.682 666.352 130.796C666.81 130.911 667.201 131.091 667.523 131.335C667.846 131.58 668.091 131.89 668.258 132.265C668.43 132.635 668.516 133.078 668.516 133.593C668.516 134.062 668.411 134.486 668.203 134.867C667.995 135.242 667.701 135.549 667.32 135.789C666.945 136.023 666.495 136.169 665.969 136.226L665.359 136.531ZM665.289 142H661.852L662.344 141.179H665.289C665.852 141.179 666.331 141.085 666.727 140.898C667.128 140.705 667.435 140.432 667.648 140.078C667.862 139.723 667.969 139.302 667.969 138.812C667.969 138.38 667.875 137.992 667.688 137.648C667.5 137.304 667.214 137.033 666.828 136.835C666.443 136.632 665.953 136.531 665.359 136.531H663.367L663.383 135.718H666.203L666.375 136.007C666.885 136.059 667.331 136.218 667.711 136.484C668.096 136.744 668.393 137.075 668.602 137.476C668.815 137.877 668.922 138.317 668.922 138.796C668.922 139.484 668.768 140.067 668.461 140.546C668.159 141.02 667.734 141.382 667.188 141.632C666.646 141.877 666.013 142 665.289 142ZM676.18 140.484V136.125C676.18 135.723 676.096 135.377 675.93 135.085C675.763 134.794 675.518 134.57 675.195 134.414C674.872 134.257 674.474 134.179 674 134.179C673.562 134.179 673.172 134.257 672.828 134.414C672.49 134.565 672.221 134.77 672.023 135.031C671.831 135.286 671.734 135.57 671.734 135.882L670.797 135.875C670.797 135.557 670.875 135.25 671.031 134.953C671.188 134.656 671.409 134.39 671.695 134.156C671.982 133.921 672.323 133.736 672.719 133.601C673.12 133.46 673.56 133.39 674.039 133.39C674.643 133.39 675.174 133.492 675.633 133.695C676.096 133.898 676.458 134.203 676.719 134.609C676.979 135.015 677.109 135.526 677.109 136.14V140.226C677.109 140.518 677.13 140.82 677.172 141.132C677.219 141.445 677.284 141.703 677.367 141.906V142H676.375C676.312 141.812 676.263 141.578 676.227 141.296C676.195 141.01 676.18 140.739 676.18 140.484ZM676.398 137.078L676.414 137.796H674.578C674.099 137.796 673.669 137.841 673.289 137.929C672.914 138.013 672.596 138.138 672.336 138.304C672.076 138.466 671.875 138.661 671.734 138.89C671.599 139.119 671.531 139.38 671.531 139.671C671.531 139.973 671.607 140.25 671.758 140.5C671.914 140.75 672.133 140.95 672.414 141.101C672.701 141.247 673.039 141.32 673.43 141.32C673.951 141.32 674.409 141.223 674.805 141.031C675.206 140.838 675.536 140.585 675.797 140.273C676.057 139.96 676.232 139.619 676.32 139.25L676.727 139.789C676.659 140.049 676.534 140.317 676.352 140.593C676.174 140.864 675.943 141.119 675.656 141.359C675.37 141.593 675.031 141.786 674.641 141.937C674.255 142.083 673.818 142.156 673.328 142.156C672.776 142.156 672.294 142.052 671.883 141.843C671.477 141.635 671.159 141.351 670.93 140.992C670.706 140.627 670.594 140.216 670.594 139.757C670.594 139.341 670.682 138.968 670.859 138.64C671.036 138.307 671.292 138.026 671.625 137.796C671.964 137.562 672.37 137.385 672.844 137.265C673.323 137.14 673.859 137.078 674.453 137.078H676.398ZM679.68 133.546H680.609V141.195H684.375V133.546H685.312V141.195H689.039V133.546H689.969V142H679.68V133.546ZM699.492 142.156C698.94 142.156 698.432 142.054 697.969 141.851C697.51 141.648 697.109 141.361 696.766 140.992C696.427 140.622 696.164 140.184 695.977 139.679C695.794 139.169 695.703 138.611 695.703 138.007V137.671C695.703 137.02 695.799 136.432 695.992 135.906C696.185 135.38 696.451 134.929 696.789 134.554C697.128 134.179 697.513 133.893 697.945 133.695C698.383 133.492 698.841 133.39 699.32 133.39C699.857 133.39 700.333 133.486 700.75 133.679C701.167 133.867 701.516 134.135 701.797 134.484C702.083 134.828 702.299 135.236 702.445 135.71C702.591 136.179 702.664 136.697 702.664 137.265V137.835H696.266V137.039H701.734V136.929C701.724 136.455 701.628 136.013 701.445 135.601C701.268 135.184 701.003 134.846 700.648 134.585C700.294 134.325 699.852 134.195 699.32 134.195C698.924 134.195 698.56 134.278 698.227 134.445C697.898 134.611 697.615 134.851 697.375 135.164C697.141 135.471 696.958 135.838 696.828 136.265C696.703 136.687 696.641 137.156 696.641 137.671V138.007C696.641 138.476 696.708 138.914 696.844 139.32C696.984 139.721 697.182 140.075 697.438 140.382C697.698 140.69 698.005 140.929 698.359 141.101C698.714 141.273 699.104 141.359 699.531 141.359C700.031 141.359 700.474 141.268 700.859 141.085C701.245 140.898 701.591 140.604 701.898 140.203L702.484 140.656C702.302 140.927 702.073 141.177 701.797 141.406C701.526 141.635 701.201 141.817 700.82 141.953C700.44 142.088 699.997 142.156 699.492 142.156ZM707.414 136.578V137.382H703.672V136.578H707.414ZM709.984 135.296V142H709.047V133.546H709.945L709.984 135.296ZM709.812 137.25L709.359 137.015C709.391 136.515 709.484 136.046 709.641 135.609C709.802 135.171 710.026 134.786 710.312 134.453C710.599 134.119 710.943 133.859 711.344 133.671C711.745 133.484 712.201 133.39 712.711 133.39C713.122 133.39 713.495 133.447 713.828 133.562C714.167 133.671 714.453 133.846 714.688 134.085C714.927 134.32 715.112 134.627 715.242 135.007C715.372 135.388 715.438 135.843 715.438 136.375V142H714.508V136.406C714.508 135.843 714.419 135.403 714.242 135.085C714.07 134.768 713.828 134.541 713.516 134.406C713.208 134.27 712.852 134.203 712.445 134.203C711.966 134.203 711.56 134.302 711.227 134.5C710.898 134.692 710.63 134.945 710.422 135.257C710.219 135.565 710.068 135.895 709.969 136.25C709.87 136.598 709.818 136.932 709.812 137.25ZM715.43 136.515L714.805 136.531C714.831 136.119 714.924 135.726 715.086 135.351C715.253 134.976 715.479 134.643 715.766 134.351C716.052 134.054 716.393 133.82 716.789 133.648C717.19 133.476 717.641 133.39 718.141 133.39C718.578 133.39 718.969 133.45 719.312 133.57C719.656 133.684 719.945 133.869 720.18 134.125C720.419 134.375 720.602 134.695 720.727 135.085C720.852 135.476 720.914 135.945 720.914 136.492V142H719.977V136.484C719.977 135.885 719.888 135.421 719.711 135.093C719.539 134.76 719.299 134.528 718.992 134.398C718.685 134.268 718.326 134.203 717.914 134.203C717.508 134.208 717.151 134.283 716.844 134.429C716.536 134.57 716.279 134.757 716.07 134.992C715.867 135.221 715.711 135.468 715.602 135.734C715.497 136 715.44 136.26 715.43 136.515ZM728.43 140.484V136.125C728.43 135.723 728.346 135.377 728.18 135.085C728.013 134.794 727.768 134.57 727.445 134.414C727.122 134.257 726.724 134.179 726.25 134.179C725.812 134.179 725.422 134.257 725.078 134.414C724.74 134.565 724.471 134.77 724.273 135.031C724.081 135.286 723.984 135.57 723.984 135.882L723.047 135.875C723.047 135.557 723.125 135.25 723.281 134.953C723.438 134.656 723.659 134.39 723.945 134.156C724.232 133.921 724.573 133.736 724.969 133.601C725.37 133.46 725.81 133.39 726.289 133.39C726.893 133.39 727.424 133.492 727.883 133.695C728.346 133.898 728.708 134.203 728.969 134.609C729.229 135.015 729.359 135.526 729.359 136.14V140.226C729.359 140.518 729.38 140.82 729.422 141.132C729.469 141.445 729.534 141.703 729.617 141.906V142H728.625C728.562 141.812 728.513 141.578 728.477 141.296C728.445 141.01 728.43 140.739 728.43 140.484ZM728.648 137.078L728.664 137.796H726.828C726.349 137.796 725.919 137.841 725.539 137.929C725.164 138.013 724.846 138.138 724.586 138.304C724.326 138.466 724.125 138.661 723.984 138.89C723.849 139.119 723.781 139.38 723.781 139.671C723.781 139.973 723.857 140.25 724.008 140.5C724.164 140.75 724.383 140.95 724.664 141.101C724.951 141.247 725.289 141.32 725.68 141.32C726.201 141.32 726.659 141.223 727.055 141.031C727.456 140.838 727.786 140.585 728.047 140.273C728.307 139.96 728.482 139.619 728.57 139.25L728.977 139.789C728.909 140.049 728.784 140.317 728.602 140.593C728.424 140.864 728.193 141.119 727.906 141.359C727.62 141.593 727.281 141.786 726.891 141.937C726.505 142.083 726.068 142.156 725.578 142.156C725.026 142.156 724.544 142.052 724.133 141.843C723.727 141.635 723.409 141.351 723.18 140.992C722.956 140.627 722.844 140.216 722.844 139.757C722.844 139.341 722.932 138.968 723.109 138.64C723.286 138.307 723.542 138.026 723.875 137.796C724.214 137.562 724.62 137.385 725.094 137.265C725.573 137.14 726.109 137.078 726.703 137.078H728.648ZM732.906 133.546V142H731.977V133.546H732.906ZM731.812 131.101C731.812 130.924 731.867 130.776 731.977 130.656C732.091 130.531 732.247 130.468 732.445 130.468C732.643 130.468 732.799 130.531 732.914 130.656C733.034 130.776 733.094 130.924 733.094 131.101C733.094 131.273 733.034 131.421 732.914 131.546C732.799 131.666 732.643 131.726 732.445 131.726C732.247 131.726 732.091 131.666 731.977 131.546C731.867 131.421 731.812 131.273 731.812 131.101ZM736.5 130V142H735.57V130H736.5Z" fill="#605F5F"/>
<rect x="650.5" y="166.5" width="427" height="160" rx="2.5" fill="white" stroke="#9FC7F0"/>
<path d="M665.359 185.531H662.156L662.141 184.718H664.898C665.461 184.718 665.94 184.638 666.336 184.476C666.732 184.315 667.031 184.075 667.234 183.757C667.443 183.434 667.547 183.039 667.547 182.57C667.547 182.091 667.445 181.695 667.242 181.382C667.039 181.065 666.734 180.83 666.328 180.679C665.922 180.528 665.411 180.453 664.797 180.453H662.406V191H661.445V179.625H664.797C665.375 179.625 665.893 179.682 666.352 179.796C666.81 179.911 667.201 180.091 667.523 180.335C667.846 180.58 668.091 180.89 668.258 181.265C668.43 181.635 668.516 182.078 668.516 182.593C668.516 183.062 668.411 183.486 668.203 183.867C667.995 184.242 667.701 184.549 667.32 184.789C666.945 185.023 666.495 185.169 665.969 185.226L665.359 185.531ZM665.289 191H661.852L662.344 190.179H665.289C665.852 190.179 666.331 190.085 666.727 189.898C667.128 189.705 667.435 189.432 667.648 189.078C667.862 188.723 667.969 188.302 667.969 187.812C667.969 187.38 667.875 186.992 667.688 186.648C667.5 186.304 667.214 186.033 666.828 185.835C666.443 185.632 665.953 185.531 665.359 185.531H663.367L663.383 184.718H666.203L666.375 185.007C666.885 185.059 667.331 185.218 667.711 185.484C668.096 185.744 668.393 186.075 668.602 186.476C668.815 186.877 668.922 187.317 668.922 187.796C668.922 188.484 668.768 189.067 668.461 189.546C668.159 190.02 667.734 190.382 667.188 190.632C666.646 190.877 666.013 191 665.289 191ZM676.18 189.484V185.125C676.18 184.723 676.096 184.377 675.93 184.085C675.763 183.794 675.518 183.57 675.195 183.414C674.872 183.257 674.474 183.179 674 183.179C673.562 183.179 673.172 183.257 672.828 183.414C672.49 183.565 672.221 183.77 672.023 184.031C671.831 184.286 671.734 184.57 671.734 184.882L670.797 184.875C670.797 184.557 670.875 184.25 671.031 183.953C671.188 183.656 671.409 183.39 671.695 183.156C671.982 182.921 672.323 182.736 672.719 182.601C673.12 182.46 673.56 182.39 674.039 182.39C674.643 182.39 675.174 182.492 675.633 182.695C676.096 182.898 676.458 183.203 676.719 183.609C676.979 184.015 677.109 184.526 677.109 185.14V189.226C677.109 189.518 677.13 189.82 677.172 190.132C677.219 190.445 677.284 190.703 677.367 190.906V191H676.375C676.312 190.812 676.263 190.578 676.227 190.296C676.195 190.01 676.18 189.739 676.18 189.484ZM676.398 186.078L676.414 186.796H674.578C674.099 186.796 673.669 186.841 673.289 186.929C672.914 187.013 672.596 187.138 672.336 187.304C672.076 187.466 671.875 187.661 671.734 187.89C671.599 188.119 671.531 188.38 671.531 188.671C671.531 188.973 671.607 189.25 671.758 189.5C671.914 189.75 672.133 189.95 672.414 190.101C672.701 190.247 673.039 190.32 673.43 190.32C673.951 190.32 674.409 190.223 674.805 190.031C675.206 189.838 675.536 189.585 675.797 189.273C676.057 188.96 676.232 188.619 676.32 188.25L676.727 188.789C676.659 189.049 676.534 189.317 676.352 189.593C676.174 189.864 675.943 190.119 675.656 190.359C675.37 190.593 675.031 190.786 674.641 190.937C674.255 191.083 673.818 191.156 673.328 191.156C672.776 191.156 672.294 191.052 671.883 190.843C671.477 190.635 671.159 190.351 670.93 189.992C670.706 189.627 670.594 189.216 670.594 188.757C670.594 188.341 670.682 187.968 670.859 187.64C671.036 187.307 671.292 187.026 671.625 186.796C671.964 186.562 672.37 186.385 672.844 186.265C673.323 186.14 673.859 186.078 674.453 186.078H676.398ZM679.68 182.546H680.609V190.195H684.375V182.546H685.312V190.195H689.039V182.546H689.969V191H679.68V182.546ZM695.586 191.156C695.034 191.156 694.526 191.054 694.062 190.851C693.604 190.648 693.203 190.361 692.859 189.992C692.521 189.622 692.258 189.184 692.07 188.679C691.888 188.169 691.797 187.611 691.797 187.007V186.671C691.797 186.02 691.893 185.432 692.086 184.906C692.279 184.38 692.544 183.929 692.883 183.554C693.221 183.179 693.607 182.893 694.039 182.695C694.477 182.492 694.935 182.39 695.414 182.39C695.951 182.39 696.427 182.486 696.844 182.679C697.26 182.867 697.609 183.135 697.891 183.484C698.177 183.828 698.393 184.236 698.539 184.71C698.685 185.179 698.758 185.697 698.758 186.265V186.835H692.359V186.039H697.828V185.929C697.818 185.455 697.721 185.013 697.539 184.601C697.362 184.184 697.096 183.846 696.742 183.585C696.388 183.325 695.945 183.195 695.414 183.195C695.018 183.195 694.654 183.278 694.32 183.445C693.992 183.611 693.708 183.851 693.469 184.164C693.234 184.471 693.052 184.838 692.922 185.265C692.797 185.687 692.734 186.156 692.734 186.671V187.007C692.734 187.476 692.802 187.914 692.938 188.32C693.078 188.721 693.276 189.075 693.531 189.382C693.792 189.69 694.099 189.929 694.453 190.101C694.807 190.273 695.198 190.359 695.625 190.359C696.125 190.359 696.568 190.268 696.953 190.085C697.339 189.898 697.685 189.604 697.992 189.203L698.578 189.656C698.396 189.927 698.167 190.177 697.891 190.406C697.62 190.635 697.294 190.817 696.914 190.953C696.534 191.088 696.091 191.156 695.586 191.156ZM707.625 190.351C708.021 190.351 708.391 190.278 708.734 190.132C709.083 189.981 709.37 189.76 709.594 189.468C709.823 189.171 709.953 188.809 709.984 188.382H710.875C710.849 188.919 710.685 189.398 710.383 189.82C710.086 190.236 709.695 190.565 709.211 190.804C708.732 191.039 708.203 191.156 707.625 191.156C707.036 191.156 706.516 191.049 706.062 190.835C705.615 190.622 705.24 190.325 704.938 189.945C704.635 189.559 704.406 189.111 704.25 188.601C704.099 188.085 704.023 187.531 704.023 186.937V186.609C704.023 186.015 704.099 185.463 704.25 184.953C704.406 184.437 704.635 183.989 704.938 183.609C705.24 183.223 705.615 182.924 706.062 182.71C706.51 182.497 707.029 182.39 707.617 182.39C708.221 182.39 708.763 182.513 709.242 182.757C709.727 183.002 710.112 183.348 710.398 183.796C710.69 184.244 710.849 184.776 710.875 185.39H709.984C709.958 184.937 709.839 184.546 709.625 184.218C709.411 183.89 709.13 183.638 708.781 183.46C708.432 183.283 708.044 183.195 707.617 183.195C707.138 183.195 706.729 183.289 706.391 183.476C706.052 183.658 705.776 183.911 705.562 184.234C705.354 184.552 705.201 184.916 705.102 185.328C705.003 185.734 704.953 186.161 704.953 186.609V186.937C704.953 187.39 705 187.822 705.094 188.234C705.193 188.64 705.346 189.002 705.555 189.32C705.768 189.638 706.044 189.89 706.383 190.078C706.727 190.26 707.141 190.351 707.625 190.351ZM712.242 186.906V186.648C712.242 186.033 712.331 185.466 712.508 184.945C712.685 184.424 712.938 183.973 713.266 183.593C713.599 183.213 713.997 182.919 714.461 182.71C714.924 182.497 715.44 182.39 716.008 182.39C716.581 182.39 717.099 182.497 717.562 182.71C718.026 182.919 718.424 183.213 718.758 183.593C719.091 183.973 719.346 184.424 719.523 184.945C719.701 185.466 719.789 186.033 719.789 186.648V186.906C719.789 187.52 719.701 188.088 719.523 188.609C719.346 189.125 719.091 189.572 718.758 189.953C718.43 190.333 718.034 190.63 717.57 190.843C717.107 191.052 716.591 191.156 716.023 191.156C715.451 191.156 714.932 191.052 714.469 190.843C714.005 190.63 713.607 190.333 713.273 189.953C712.94 189.572 712.685 189.125 712.508 188.609C712.331 188.088 712.242 187.52 712.242 186.906ZM713.172 186.648V186.906C713.172 187.369 713.234 187.809 713.359 188.226C713.484 188.638 713.667 189.005 713.906 189.328C714.146 189.645 714.443 189.895 714.797 190.078C715.151 190.26 715.56 190.351 716.023 190.351C716.482 190.351 716.885 190.26 717.234 190.078C717.589 189.895 717.885 189.645 718.125 189.328C718.365 189.005 718.544 188.638 718.664 188.226C718.789 187.809 718.852 187.369 718.852 186.906V186.648C718.852 186.19 718.789 185.755 718.664 185.343C718.544 184.932 718.362 184.565 718.117 184.242C717.878 183.919 717.581 183.664 717.227 183.476C716.872 183.289 716.466 183.195 716.008 183.195C715.549 183.195 715.143 183.289 714.789 183.476C714.44 183.664 714.143 183.919 713.898 184.242C713.659 184.565 713.477 184.932 713.352 185.343C713.232 185.755 713.172 186.19 713.172 186.648ZM721.211 186.906V186.648C721.211 186.033 721.299 185.466 721.477 184.945C721.654 184.424 721.906 183.973 722.234 183.593C722.568 183.213 722.966 182.919 723.43 182.71C723.893 182.497 724.409 182.39 724.977 182.39C725.549 182.39 726.068 182.497 726.531 182.71C726.995 182.919 727.393 183.213 727.727 183.593C728.06 183.973 728.315 184.424 728.492 184.945C728.669 185.466 728.758 186.033 728.758 186.648V186.906C728.758 187.52 728.669 188.088 728.492 188.609C728.315 189.125 728.06 189.572 727.727 189.953C727.398 190.333 727.003 190.63 726.539 190.843C726.076 191.052 725.56 191.156 724.992 191.156C724.419 191.156 723.901 191.052 723.438 190.843C722.974 190.63 722.576 190.333 722.242 189.953C721.909 189.572 721.654 189.125 721.477 188.609C721.299 188.088 721.211 187.52 721.211 186.906ZM722.141 186.648V186.906C722.141 187.369 722.203 187.809 722.328 188.226C722.453 188.638 722.635 189.005 722.875 189.328C723.115 189.645 723.411 189.895 723.766 190.078C724.12 190.26 724.529 190.351 724.992 190.351C725.451 190.351 725.854 190.26 726.203 190.078C726.557 189.895 726.854 189.645 727.094 189.328C727.333 189.005 727.513 188.638 727.633 188.226C727.758 187.809 727.82 187.369 727.82 186.906V186.648C727.82 186.19 727.758 185.755 727.633 185.343C727.513 184.932 727.331 184.565 727.086 184.242C726.846 183.919 726.549 183.664 726.195 183.476C725.841 183.289 725.435 183.195 724.977 183.195C724.518 183.195 724.112 183.289 723.758 183.476C723.409 183.664 723.112 183.919 722.867 184.242C722.628 184.565 722.445 184.932 722.32 185.343C722.201 185.755 722.141 186.19 722.141 186.648ZM736.18 178.867H736.984C736.984 179.257 736.914 179.583 736.773 179.843C736.638 180.104 736.445 180.315 736.195 180.476C735.945 180.638 735.651 180.765 735.312 180.859C734.979 180.947 734.615 181.023 734.219 181.085C733.734 181.158 733.289 181.317 732.883 181.562C732.482 181.807 732.138 182.143 731.852 182.57C731.565 182.992 731.349 183.515 731.203 184.14C731.062 184.76 731.005 185.486 731.031 186.32V187.046H730.227V186.32C730.227 185.403 730.315 184.591 730.492 183.882C730.674 183.169 730.932 182.559 731.266 182.054C731.604 181.549 732.005 181.148 732.469 180.851C732.938 180.549 733.456 180.351 734.023 180.257C734.555 180.174 734.977 180.072 735.289 179.953C735.607 179.833 735.833 179.684 735.969 179.507C736.109 179.33 736.18 179.117 736.18 178.867ZM734.102 183.101C734.654 183.101 735.151 183.195 735.594 183.382C736.036 183.57 736.414 183.835 736.727 184.179C737.044 184.518 737.286 184.919 737.453 185.382C737.625 185.841 737.711 186.343 737.711 186.89V187.14C737.711 187.723 737.622 188.26 737.445 188.75C737.273 189.239 737.023 189.664 736.695 190.023C736.372 190.382 735.979 190.661 735.516 190.859C735.057 191.057 734.544 191.156 733.977 191.156C733.404 191.156 732.888 191.057 732.43 190.859C731.971 190.661 731.578 190.382 731.25 190.023C730.922 189.664 730.669 189.239 730.492 188.75C730.315 188.26 730.227 187.723 730.227 187.14V186.89C730.227 186.739 730.242 186.591 730.273 186.445C730.31 186.299 730.354 186.156 730.406 186.015C730.458 185.869 730.51 185.726 730.562 185.585C730.745 185.111 731.003 184.69 731.336 184.32C731.669 183.945 732.068 183.648 732.531 183.429C733 183.21 733.523 183.101 734.102 183.101ZM733.961 183.898C733.352 183.898 732.839 184.039 732.422 184.32C732.01 184.596 731.698 184.963 731.484 185.421C731.271 185.875 731.164 186.364 731.164 186.89V187.14C731.164 187.572 731.224 187.981 731.344 188.367C731.464 188.752 731.641 189.096 731.875 189.398C732.115 189.695 732.409 189.929 732.758 190.101C733.107 190.273 733.513 190.359 733.977 190.359C734.435 190.359 734.839 190.273 735.188 190.101C735.536 189.929 735.828 189.695 736.062 189.398C736.297 189.096 736.474 188.752 736.594 188.367C736.714 187.981 736.773 187.572 736.773 187.14V186.89C736.773 186.494 736.714 186.117 736.594 185.757C736.474 185.398 736.294 185.08 736.055 184.804C735.82 184.523 735.526 184.302 735.172 184.14C734.823 183.979 734.419 183.898 733.961 183.898ZM750.688 190.195L750.617 193.507H749.766V191H748.766V190.195H750.688ZM739.383 182.546H740.312V190.195H744.078V182.546H745.016V190.195H748.742V182.546H749.672V191H739.383V182.546ZM755.57 191.156C755.018 191.156 754.51 191.054 754.047 190.851C753.589 190.648 753.188 190.361 752.844 189.992C752.505 189.622 752.242 189.184 752.055 188.679C751.872 188.169 751.781 187.611 751.781 187.007V186.671C751.781 186.02 751.878 185.432 752.07 184.906C752.263 184.38 752.529 183.929 752.867 183.554C753.206 183.179 753.591 182.893 754.023 182.695C754.461 182.492 754.919 182.39 755.398 182.39C755.935 182.39 756.411 182.486 756.828 182.679C757.245 182.867 757.594 183.135 757.875 183.484C758.161 183.828 758.378 184.236 758.523 184.71C758.669 185.179 758.742 185.697 758.742 186.265V186.835H752.344V186.039H757.812V185.929C757.802 185.455 757.706 185.013 757.523 184.601C757.346 184.184 757.081 183.846 756.727 183.585C756.372 183.325 755.93 183.195 755.398 183.195C755.003 183.195 754.638 183.278 754.305 183.445C753.977 183.611 753.693 183.851 753.453 184.164C753.219 184.471 753.036 184.838 752.906 185.265C752.781 185.687 752.719 186.156 752.719 186.671V187.007C752.719 187.476 752.786 187.914 752.922 188.32C753.062 188.721 753.26 189.075 753.516 189.382C753.776 189.69 754.083 189.929 754.438 190.101C754.792 190.273 755.182 190.359 755.609 190.359C756.109 190.359 756.552 190.268 756.938 190.085C757.323 189.898 757.669 189.604 757.977 189.203L758.562 189.656C758.38 189.927 758.151 190.177 757.875 190.406C757.604 190.635 757.279 190.817 756.898 190.953C756.518 191.088 756.076 191.156 755.57 191.156ZM766.352 186.328V187.125H761.336V186.328H766.352ZM761.578 182.546V191H760.648V182.546H761.578ZM767.07 182.546V191H766.133V182.546H767.07ZM770.57 189.484L775.141 182.546H776.078V191H775.141V184.062L770.57 191H769.648V182.546H770.57V189.484ZM781.852 191.156C781.299 191.156 780.792 191.054 780.328 190.851C779.87 190.648 779.469 190.361 779.125 189.992C778.786 189.622 778.523 189.184 778.336 188.679C778.154 188.169 778.062 187.611 778.062 187.007V186.671C778.062 186.02 778.159 185.432 778.352 184.906C778.544 184.38 778.81 183.929 779.148 183.554C779.487 183.179 779.872 182.893 780.305 182.695C780.742 182.492 781.201 182.39 781.68 182.39C782.216 182.39 782.693 182.486 783.109 182.679C783.526 182.867 783.875 183.135 784.156 183.484C784.443 183.828 784.659 184.236 784.805 184.71C784.951 185.179 785.023 185.697 785.023 186.265V186.835H778.625V186.039H784.094V185.929C784.083 185.455 783.987 185.013 783.805 184.601C783.628 184.184 783.362 183.846 783.008 183.585C782.654 183.325 782.211 183.195 781.68 183.195C781.284 183.195 780.919 183.278 780.586 183.445C780.258 183.611 779.974 183.851 779.734 184.164C779.5 184.471 779.318 184.838 779.188 185.265C779.062 185.687 779 186.156 779 186.671V187.007C779 187.476 779.068 187.914 779.203 188.32C779.344 188.721 779.542 189.075 779.797 189.382C780.057 189.69 780.365 189.929 780.719 190.101C781.073 190.273 781.464 190.359 781.891 190.359C782.391 190.359 782.833 190.268 783.219 190.085C783.604 189.898 783.951 189.604 784.258 189.203L784.844 189.656C784.661 189.927 784.432 190.177 784.156 190.406C783.885 190.635 783.56 190.817 783.18 190.953C782.799 191.088 782.357 191.156 781.852 191.156Z" fill="#605F5F"/>
<rect x="650" y="369" width="428" height="39" rx="3" fill="#1C548D"/>
<path d="M834.227 388V388.625C834.227 389.484 834.115 390.255 833.891 390.937C833.667 391.619 833.346 392.2 832.93 392.679C832.518 393.158 832.023 393.526 831.445 393.781C830.867 394.031 830.227 394.156 829.523 394.156C828.826 394.156 828.188 394.031 827.609 393.781C827.036 393.526 826.539 393.158 826.117 392.679C825.695 392.2 825.367 391.619 825.133 390.937C824.904 390.255 824.789 389.484 824.789 388.625V388C824.789 387.14 824.904 386.372 825.133 385.695C825.362 385.013 825.685 384.432 826.102 383.953C826.523 383.468 827.021 383.101 827.594 382.851C828.172 382.596 828.81 382.468 829.508 382.468C830.211 382.468 830.852 382.596 831.43 382.851C832.008 383.101 832.505 383.468 832.922 383.953C833.339 384.432 833.659 385.013 833.883 385.695C834.112 386.372 834.227 387.14 834.227 388ZM832.266 388.625V387.984C832.266 387.348 832.203 386.789 832.078 386.304C831.958 385.815 831.779 385.406 831.539 385.078C831.305 384.744 831.016 384.494 830.672 384.328C830.328 384.156 829.94 384.07 829.508 384.07C829.076 384.07 828.69 384.156 828.352 384.328C828.013 384.494 827.724 384.744 827.484 385.078C827.25 385.406 827.07 385.815 826.945 386.304C826.82 386.789 826.758 387.348 826.758 387.984V388.625C826.758 389.26 826.82 389.822 826.945 390.312C827.07 390.802 827.253 391.216 827.492 391.554C827.737 391.888 828.029 392.14 828.367 392.312C828.706 392.479 829.091 392.562 829.523 392.562C829.961 392.562 830.349 392.479 830.688 392.312C831.026 392.14 831.312 391.888 831.547 391.554C831.781 391.216 831.958 390.802 832.078 390.312C832.203 389.822 832.266 389.26 832.266 388.625ZM839.922 385.546V394H838.031V385.546H839.922ZM842.695 385.546V387.031H835.305V385.546H842.695ZM849.625 385.546V387.046H845.453V385.546H849.625ZM845.898 385.546V394H844.016V385.546H845.898ZM851.102 385.546V394H849.211V385.546H851.102ZM854.984 387.171V397.25H853.102V385.546H854.836L854.984 387.171ZM860.492 389.695V389.859C860.492 390.473 860.419 391.044 860.273 391.57C860.133 392.091 859.922 392.546 859.641 392.937C859.365 393.322 859.023 393.622 858.617 393.835C858.211 394.049 857.742 394.156 857.211 394.156C856.685 394.156 856.224 394.059 855.828 393.867C855.438 393.669 855.107 393.39 854.836 393.031C854.565 392.671 854.346 392.25 854.18 391.765C854.018 391.276 853.904 390.739 853.836 390.156V389.523C853.904 388.903 854.018 388.341 854.18 387.835C854.346 387.33 854.565 386.895 854.836 386.531C855.107 386.166 855.438 385.885 855.828 385.687C856.219 385.489 856.674 385.39 857.195 385.39C857.727 385.39 858.198 385.494 858.609 385.703C859.021 385.906 859.367 386.197 859.648 386.578C859.93 386.953 860.141 387.406 860.281 387.937C860.422 388.463 860.492 389.049 860.492 389.695ZM858.609 389.859V389.695C858.609 389.304 858.573 388.942 858.5 388.609C858.427 388.27 858.312 387.973 858.156 387.718C858 387.463 857.799 387.265 857.555 387.125C857.315 386.979 857.026 386.906 856.688 386.906C856.354 386.906 856.068 386.963 855.828 387.078C855.589 387.187 855.388 387.341 855.227 387.539C855.065 387.736 854.94 387.968 854.852 388.234C854.763 388.494 854.701 388.778 854.664 389.085V390.601C854.727 390.976 854.833 391.32 854.984 391.632C855.135 391.945 855.349 392.195 855.625 392.382C855.906 392.565 856.266 392.656 856.703 392.656C857.042 392.656 857.331 392.583 857.57 392.437C857.81 392.291 858.005 392.091 858.156 391.835C858.312 391.575 858.427 391.276 858.5 390.937C858.573 390.598 858.609 390.239 858.609 389.859ZM866.859 392.304V388.273C866.859 387.971 866.805 387.71 866.695 387.492C866.586 387.273 866.419 387.104 866.195 386.984C865.977 386.864 865.701 386.804 865.367 386.804C865.06 386.804 864.794 386.856 864.57 386.96C864.346 387.065 864.172 387.205 864.047 387.382C863.922 387.559 863.859 387.76 863.859 387.984H861.984C861.984 387.651 862.065 387.328 862.227 387.015C862.388 386.703 862.622 386.424 862.93 386.179C863.237 385.934 863.604 385.742 864.031 385.601C864.458 385.46 864.938 385.39 865.469 385.39C866.104 385.39 866.667 385.497 867.156 385.71C867.651 385.924 868.039 386.247 868.32 386.679C868.607 387.106 868.75 387.643 868.75 388.289V392.046C868.75 392.432 868.776 392.778 868.828 393.085C868.885 393.388 868.966 393.651 869.07 393.875V394H867.141C867.052 393.796 866.982 393.539 866.93 393.226C866.883 392.908 866.859 392.601 866.859 392.304ZM867.133 388.859L867.148 390.023H865.797C865.448 390.023 865.141 390.057 864.875 390.125C864.609 390.187 864.388 390.281 864.211 390.406C864.034 390.531 863.901 390.682 863.812 390.859C863.724 391.036 863.68 391.236 863.68 391.46C863.68 391.684 863.732 391.89 863.836 392.078C863.94 392.26 864.091 392.403 864.289 392.507C864.492 392.611 864.737 392.664 865.023 392.664C865.409 392.664 865.745 392.585 866.031 392.429C866.323 392.268 866.552 392.072 866.719 391.843C866.885 391.609 866.974 391.388 866.984 391.179L867.594 392.015C867.531 392.229 867.424 392.458 867.273 392.703C867.122 392.947 866.924 393.182 866.68 393.406C866.44 393.625 866.151 393.804 865.812 393.945C865.479 394.085 865.094 394.156 864.656 394.156C864.104 394.156 863.612 394.046 863.18 393.828C862.747 393.604 862.409 393.304 862.164 392.929C861.919 392.549 861.797 392.119 861.797 391.64C861.797 391.192 861.88 390.796 862.047 390.453C862.219 390.104 862.469 389.812 862.797 389.578C863.13 389.343 863.536 389.166 864.016 389.046C864.495 388.921 865.042 388.859 865.656 388.859H867.133ZM874.828 390.382H872.125L872.109 389.054H874.328C874.693 389.054 874.992 389.018 875.227 388.945C875.466 388.872 875.643 388.763 875.758 388.617C875.872 388.466 875.93 388.283 875.93 388.07C875.93 387.893 875.896 387.739 875.828 387.609C875.76 387.473 875.656 387.364 875.516 387.281C875.38 387.192 875.208 387.13 875 387.093C874.797 387.052 874.56 387.031 874.289 387.031H872.75V394H870.867V385.546H874.289C874.831 385.546 875.318 385.593 875.75 385.687C876.188 385.781 876.56 385.924 876.867 386.117C877.174 386.309 877.409 386.554 877.57 386.851C877.737 387.143 877.82 387.486 877.82 387.882C877.82 388.143 877.763 388.388 877.648 388.617C877.539 388.846 877.375 389.049 877.156 389.226C876.938 389.403 876.669 389.549 876.352 389.664C876.034 389.773 875.669 389.841 875.258 389.867L874.828 390.382ZM874.828 394H871.578L872.328 392.515H874.828C875.161 392.515 875.438 392.473 875.656 392.39C875.875 392.307 876.036 392.187 876.141 392.031C876.25 391.869 876.305 391.679 876.305 391.46C876.305 391.236 876.253 391.044 876.148 390.882C876.044 390.721 875.883 390.598 875.664 390.515C875.451 390.427 875.172 390.382 874.828 390.382H872.68L872.695 389.054H875.25L875.789 389.57C876.326 389.606 876.771 389.721 877.125 389.914C877.479 390.106 877.745 390.348 877.922 390.64C878.099 390.932 878.188 391.25 878.188 391.593C878.188 391.989 878.112 392.338 877.961 392.64C877.815 392.942 877.596 393.195 877.305 393.398C877.018 393.596 876.667 393.747 876.25 393.851C875.833 393.95 875.359 394 874.828 394ZM881.758 391.25L885.078 385.546H886.961V394H885.078V388.289L881.758 394H879.875V385.546H881.758V391.25ZM892.875 385.546V394H890.984V385.546H892.875ZM895.648 385.546V387.031H888.258V385.546H895.648ZM898.305 388.234H900.797C901.526 388.234 902.146 388.356 902.656 388.601C903.167 388.846 903.555 389.187 903.82 389.625C904.091 390.057 904.227 390.552 904.227 391.109C904.227 391.52 904.151 391.903 904 392.257C903.849 392.606 903.625 392.911 903.328 393.171C903.036 393.432 902.677 393.635 902.25 393.781C901.828 393.927 901.344 394 900.797 394H897.055V385.546H898.945V392.507H900.797C901.172 392.507 901.471 392.442 901.695 392.312C901.919 392.182 902.081 392.013 902.18 391.804C902.284 391.596 902.336 391.375 902.336 391.14C902.336 390.901 902.284 390.674 902.18 390.46C902.081 390.247 901.919 390.072 901.695 389.937C901.471 389.802 901.172 389.734 900.797 389.734H898.305V388.234Z" fill="white"/>
<g clip-path="url(#clip0_402_85)">
<path fill-rule="evenodd" clip-rule="evenodd" d="M655.5 359C658.54 359 661 356.54 661 353.5V342H659.5V353.5C659.5 355.71 657.71 357.5 655.5 357.5C653.29 357.5 651.5 355.71 651.5 353.5V341C651.5 339.62 652.62 338.5 654 338.5C655.38 338.5 656.5 339.62 656.5 341V351.5C656.5 352.05 656.05 352.5 655.5 352.5C654.95 352.5 654.5 352.05 654.5 351.5V342H653V351.5C653 352.88 654.12 354 655.5 354C656.88 354 658 352.88 658 351.5V341C658 338.79 656.21 337 654 337C651.79 337 650 338.79 650 341V353.5C650 356.54 652.46 359 655.5 359Z" fill="#1D1D1D"/>
</g>
<path d="M681.008 342.625V354H679.508V343.859H673.898V354H672.391V342.625H681.008ZM684.969 347.171V357.25H683.516V345.546H684.844L684.969 347.171ZM690.664 349.703V349.867C690.664 350.481 690.591 351.052 690.445 351.578C690.299 352.098 690.086 352.552 689.805 352.937C689.529 353.322 689.188 353.622 688.781 353.835C688.375 354.049 687.909 354.156 687.383 354.156C686.846 354.156 686.372 354.067 685.961 353.89C685.549 353.713 685.201 353.455 684.914 353.117C684.628 352.778 684.398 352.372 684.227 351.898C684.06 351.424 683.945 350.89 683.883 350.296V349.421C683.945 348.796 684.062 348.236 684.234 347.742C684.406 347.247 684.633 346.825 684.914 346.476C685.201 346.122 685.547 345.854 685.953 345.671C686.359 345.484 686.828 345.39 687.359 345.39C687.891 345.39 688.362 345.494 688.773 345.703C689.185 345.906 689.531 346.197 689.812 346.578C690.094 346.958 690.305 347.414 690.445 347.945C690.591 348.471 690.664 349.057 690.664 349.703ZM689.211 349.867V349.703C689.211 349.281 689.167 348.885 689.078 348.515C688.99 348.14 688.852 347.812 688.664 347.531C688.482 347.244 688.247 347.02 687.961 346.859C687.674 346.692 687.333 346.609 686.938 346.609C686.573 346.609 686.255 346.671 685.984 346.796C685.719 346.921 685.492 347.091 685.305 347.304C685.117 347.513 684.964 347.752 684.844 348.023C684.729 348.289 684.643 348.565 684.586 348.851V350.875C684.69 351.239 684.836 351.583 685.023 351.906C685.211 352.223 685.461 352.481 685.773 352.679C686.086 352.872 686.479 352.968 686.953 352.968C687.344 352.968 687.68 352.888 687.961 352.726C688.247 352.559 688.482 352.333 688.664 352.046C688.852 351.76 688.99 351.432 689.078 351.062C689.167 350.687 689.211 350.289 689.211 349.867ZM694.07 351.71L697.969 345.546H699.422V354H697.969V347.835L694.07 354H692.633V345.546H694.07V351.71ZM703.312 345.546V354H701.867V345.546H703.312ZM708.859 345.546L704.852 350.39H702.828L702.609 349.125H704.266L707.102 345.546H708.859ZM707.305 354L704.195 350.171L705.125 349.125L709.141 354H707.305ZM711.844 347.171V357.25H710.391V345.546H711.719L711.844 347.171ZM717.539 349.703V349.867C717.539 350.481 717.466 351.052 717.32 351.578C717.174 352.098 716.961 352.552 716.68 352.937C716.404 353.322 716.062 353.622 715.656 353.835C715.25 354.049 714.784 354.156 714.258 354.156C713.721 354.156 713.247 354.067 712.836 353.89C712.424 353.713 712.076 353.455 711.789 353.117C711.503 352.778 711.273 352.372 711.102 351.898C710.935 351.424 710.82 350.89 710.758 350.296V349.421C710.82 348.796 710.938 348.236 711.109 347.742C711.281 347.247 711.508 346.825 711.789 346.476C712.076 346.122 712.422 345.854 712.828 345.671C713.234 345.484 713.703 345.39 714.234 345.39C714.766 345.39 715.237 345.494 715.648 345.703C716.06 345.906 716.406 346.197 716.688 346.578C716.969 346.958 717.18 347.414 717.32 347.945C717.466 348.471 717.539 349.057 717.539 349.703ZM716.086 349.867V349.703C716.086 349.281 716.042 348.885 715.953 348.515C715.865 348.14 715.727 347.812 715.539 347.531C715.357 347.244 715.122 347.02 714.836 346.859C714.549 346.692 714.208 346.609 713.812 346.609C713.448 346.609 713.13 346.671 712.859 346.796C712.594 346.921 712.367 347.091 712.18 347.304C711.992 347.513 711.839 347.752 711.719 348.023C711.604 348.289 711.518 348.565 711.461 348.851V350.875C711.565 351.239 711.711 351.583 711.898 351.906C712.086 352.223 712.336 352.481 712.648 352.679C712.961 352.872 713.354 352.968 713.828 352.968C714.219 352.968 714.555 352.888 714.836 352.726C715.122 352.559 715.357 352.333 715.539 352.046C715.727 351.76 715.865 351.432 715.953 351.062C716.042 350.687 716.086 350.289 716.086 349.867ZM722.891 354.156C722.302 354.156 721.768 354.057 721.289 353.859C720.815 353.656 720.406 353.372 720.062 353.007C719.724 352.643 719.464 352.21 719.281 351.71C719.099 351.21 719.008 350.664 719.008 350.07V349.742C719.008 349.054 719.109 348.442 719.312 347.906C719.516 347.364 719.792 346.906 720.141 346.531C720.49 346.156 720.885 345.872 721.328 345.679C721.771 345.486 722.229 345.39 722.703 345.39C723.307 345.39 723.828 345.494 724.266 345.703C724.708 345.911 725.07 346.203 725.352 346.578C725.633 346.947 725.841 347.385 725.977 347.89C726.112 348.39 726.18 348.937 726.18 349.531V350.179H719.867V349H724.734V348.89C724.714 348.515 724.635 348.151 724.5 347.796C724.37 347.442 724.161 347.151 723.875 346.921C723.589 346.692 723.198 346.578 722.703 346.578C722.375 346.578 722.073 346.648 721.797 346.789C721.521 346.924 721.284 347.127 721.086 347.398C720.888 347.669 720.734 348 720.625 348.39C720.516 348.781 720.461 349.231 720.461 349.742V350.07C720.461 350.471 720.516 350.848 720.625 351.203C720.74 351.552 720.904 351.859 721.117 352.125C721.336 352.39 721.599 352.598 721.906 352.75C722.219 352.901 722.573 352.976 722.969 352.976C723.479 352.976 723.911 352.872 724.266 352.664C724.62 352.455 724.93 352.177 725.195 351.828L726.07 352.523C725.888 352.799 725.656 353.062 725.375 353.312C725.094 353.562 724.747 353.765 724.336 353.921C723.93 354.078 723.448 354.156 722.891 354.156ZM733.5 345.546V346.742H729.227V345.546H733.5ZM729.438 345.546V354H727.992V345.546H729.438ZM734.781 345.546V354H733.328V345.546H734.781ZM738.664 351.71L742.562 345.546H744.016V354H742.562V347.835L738.664 354H737.227V345.546H738.664V351.71ZM749.781 345.546V354H748.328V345.546H749.781ZM752.617 345.546V346.718H745.547V345.546H752.617ZM755.227 348.453H757.766C758.448 348.453 759.023 348.572 759.492 348.812C759.961 349.046 760.315 349.372 760.555 349.789C760.799 350.2 760.922 350.669 760.922 351.195C760.922 351.585 760.854 351.953 760.719 352.296C760.583 352.635 760.38 352.932 760.109 353.187C759.844 353.442 759.513 353.643 759.117 353.789C758.727 353.929 758.276 354 757.766 354H754.172V345.546H755.617V352.812H757.766C758.182 352.812 758.516 352.736 758.766 352.585C759.016 352.434 759.195 352.239 759.305 352C759.414 351.76 759.469 351.51 759.469 351.25C759.469 350.994 759.414 350.744 759.305 350.5C759.195 350.255 759.016 350.052 758.766 349.89C758.516 349.723 758.182 349.64 757.766 349.64H755.227V348.453ZM776.414 349.921V350.085C776.414 350.679 776.349 351.226 776.219 351.726C776.089 352.221 775.893 352.651 775.633 353.015C775.378 353.38 775.06 353.664 774.68 353.867C774.299 354.065 773.859 354.164 773.359 354.164C772.948 354.164 772.586 354.109 772.273 354C771.961 353.885 771.695 353.721 771.477 353.507C771.263 353.294 771.091 353.039 770.961 352.742C770.836 352.44 770.75 352.101 770.703 351.726V347.976C770.75 347.575 770.836 347.216 770.961 346.898C771.091 346.58 771.263 346.309 771.477 346.085C771.695 345.861 771.958 345.69 772.266 345.57C772.573 345.45 772.932 345.39 773.344 345.39C773.75 345.39 774.115 345.463 774.438 345.609C774.766 345.75 775.052 345.953 775.297 346.218C775.547 346.484 775.753 346.804 775.914 347.179C776.081 347.549 776.206 347.966 776.289 348.429C776.372 348.893 776.414 349.39 776.414 349.921ZM774.969 350.085V349.921C774.969 349.557 774.943 349.21 774.891 348.882C774.844 348.549 774.768 348.244 774.664 347.968C774.565 347.687 774.435 347.442 774.273 347.234C774.112 347.026 773.917 346.864 773.688 346.75C773.464 346.635 773.206 346.578 772.914 346.578C772.602 346.578 772.341 346.617 772.133 346.695C771.93 346.773 771.771 346.877 771.656 347.007C771.542 347.132 771.458 347.265 771.406 347.406V352.304C771.469 352.419 771.56 352.528 771.68 352.632C771.799 352.731 771.961 352.815 772.164 352.882C772.367 352.945 772.622 352.976 772.93 352.976C773.294 352.976 773.604 352.903 773.859 352.757C774.12 352.606 774.331 352.398 774.492 352.132C774.659 351.867 774.779 351.559 774.852 351.21C774.93 350.861 774.969 350.486 774.969 350.085ZM766.375 350.085V349.921C766.375 349.39 766.417 348.893 766.5 348.429C766.583 347.966 766.708 347.549 766.875 347.179C767.042 346.804 767.247 346.484 767.492 346.218C767.742 345.953 768.029 345.75 768.352 345.609C768.68 345.463 769.047 345.39 769.453 345.39C769.854 345.39 770.203 345.45 770.5 345.57C770.802 345.69 771.057 345.861 771.266 346.085C771.474 346.309 771.641 346.58 771.766 346.898C771.891 347.216 771.979 347.575 772.031 347.976V351.578C771.984 351.973 771.898 352.33 771.773 352.648C771.648 352.966 771.482 353.239 771.273 353.468C771.065 353.692 770.807 353.864 770.5 353.984C770.198 354.104 769.844 354.164 769.438 354.164C768.938 354.164 768.497 354.065 768.117 353.867C767.737 353.664 767.417 353.38 767.156 353.015C766.901 352.651 766.706 352.221 766.57 351.726C766.44 351.226 766.375 350.679 766.375 350.085ZM767.828 349.921V350.085C767.828 350.486 767.862 350.861 767.93 351.21C768.003 351.559 768.115 351.867 768.266 352.132C768.422 352.398 768.625 352.606 768.875 352.757C769.125 352.903 769.432 352.976 769.797 352.976C770.109 352.976 770.367 352.937 770.57 352.859C770.773 352.781 770.935 352.679 771.055 352.554C771.174 352.429 771.266 352.299 771.328 352.164V347.406C771.276 347.265 771.19 347.132 771.07 347.007C770.956 346.877 770.797 346.773 770.594 346.695C770.391 346.617 770.13 346.578 769.812 346.578C769.448 346.578 769.138 346.666 768.883 346.843C768.628 347.02 768.422 347.263 768.266 347.57C768.115 347.877 768.003 348.234 767.93 348.64C767.862 349.041 767.828 349.468 767.828 349.921ZM770.609 357.25V342H772.062V357.25H770.609ZM783.289 352.554V348.203C783.289 347.869 783.221 347.58 783.086 347.335C782.956 347.085 782.758 346.893 782.492 346.757C782.227 346.622 781.898 346.554 781.508 346.554C781.143 346.554 780.823 346.617 780.547 346.742C780.276 346.867 780.062 347.031 779.906 347.234C779.755 347.437 779.68 347.656 779.68 347.89H778.234C778.234 347.588 778.312 347.289 778.469 346.992C778.625 346.695 778.849 346.427 779.141 346.187C779.438 345.942 779.792 345.75 780.203 345.609C780.62 345.463 781.083 345.39 781.594 345.39C782.208 345.39 782.75 345.494 783.219 345.703C783.693 345.911 784.062 346.226 784.328 346.648C784.599 347.065 784.734 347.588 784.734 348.218V352.156C784.734 352.437 784.758 352.736 784.805 353.054C784.857 353.372 784.932 353.645 785.031 353.875V354H783.523C783.451 353.833 783.393 353.611 783.352 353.335C783.31 353.054 783.289 352.794 783.289 352.554ZM783.539 348.875L783.555 349.89H782.094C781.682 349.89 781.315 349.924 780.992 349.992C780.669 350.054 780.398 350.151 780.18 350.281C779.961 350.411 779.794 350.575 779.68 350.773C779.565 350.966 779.508 351.192 779.508 351.453C779.508 351.718 779.568 351.96 779.688 352.179C779.807 352.398 779.987 352.572 780.227 352.703C780.471 352.828 780.771 352.89 781.125 352.89C781.568 352.89 781.958 352.796 782.297 352.609C782.635 352.421 782.904 352.192 783.102 351.921C783.305 351.651 783.414 351.388 783.43 351.132L784.047 351.828C784.01 352.046 783.911 352.289 783.75 352.554C783.589 352.82 783.372 353.075 783.102 353.32C782.836 353.559 782.518 353.76 782.148 353.921C781.784 354.078 781.372 354.156 780.914 354.156C780.341 354.156 779.839 354.044 779.406 353.82C778.979 353.596 778.646 353.296 778.406 352.921C778.172 352.541 778.055 352.117 778.055 351.648C778.055 351.195 778.143 350.796 778.32 350.453C778.497 350.104 778.753 349.815 779.086 349.585C779.419 349.351 779.82 349.174 780.289 349.054C780.758 348.934 781.281 348.875 781.859 348.875H783.539ZM788.57 351.71L792.469 345.546H793.922V354H792.469V347.835L788.57 354H787.133V345.546H788.57V351.71ZM791.68 342.484H792.852C792.852 342.89 792.758 343.252 792.57 343.57C792.383 343.882 792.115 344.127 791.766 344.304C791.417 344.481 791.003 344.57 790.523 344.57C789.799 344.57 789.227 344.377 788.805 343.992C788.388 343.601 788.18 343.098 788.18 342.484H789.352C789.352 342.791 789.44 343.062 789.617 343.296C789.794 343.531 790.096 343.648 790.523 343.648C790.94 343.648 791.237 343.531 791.414 343.296C791.591 343.062 791.68 342.791 791.68 342.484ZM801.891 345.546V346.742H797.805V345.546H801.891ZM803.164 345.546V354H801.719V345.546H803.164ZM797.453 345.546H798.906L798.688 349.625C798.651 350.255 798.591 350.812 798.508 351.296C798.43 351.776 798.32 352.187 798.18 352.531C798.044 352.875 797.872 353.156 797.664 353.375C797.461 353.588 797.216 353.747 796.93 353.851C796.643 353.95 796.312 354 795.938 354H795.484V352.726L795.797 352.703C796.021 352.687 796.211 352.635 796.367 352.546C796.529 352.458 796.664 352.328 796.773 352.156C796.883 351.979 796.971 351.752 797.039 351.476C797.112 351.2 797.167 350.872 797.203 350.492C797.245 350.111 797.276 349.669 797.297 349.164L797.453 345.546Z" fill="#1C2127"/>
<defs>
<radialGradient id="paint0_radial_402_85" cx="0" cy="0" r="1" gradientUnits="userSpaceOnUse" gradientTransform="translate(864 214) rotate(90) scale(214 864)">
<stop stop-color="#78B1EA"/>
<stop offset="0.994792" stop-color="white"/>
</radialGradient>
<clipPath id="clip0_402_85">
<rect width="11" height="22" fill="white" transform="translate(650 337)"/>
</clipPath>
</defs>
</svg>
